<?xml version="1.0" encoding="utf-8"?>
<!-- Generator: Adobe Illustrator 24.0.0, SVG Export Plug-In . SVG Version: 6.00 Build 0)  -->
<svg version="1.1" id="Layer_1" xmlns="http://www.w3.org/2000/svg" xmlns:xlink="http://www.w3.org/1999/xlink" x="0px" y="0px"
	 viewBox="0 0 40.4 49.94" style="enable-background:new 0 0 40.4 49.94;" xml:space="preserve">
<style type="text/css">
	.st0{fill:#718265;}
	.st1{fill:#D4CDB1;}
	.st2{fill:url(#SVGID_1_);stroke:#000000;stroke-width:0.75;stroke-miterlimit:10;}
	.st3{fill:url(#SVGID_2_);stroke:#000000;stroke-width:0.75;stroke-miterlimit:10;}
	.st4{fill:none;stroke:#000000;stroke-width:0.5;stroke-miterlimit:10;}
</style>
<g>
	<path class="st0" d="M0,0v29.87c0,0.02-0.03,1.72,1.08,4c1.02,2.11,3.25,5.16,8.08,7.74c7.83,4.18,10.35,7.3,11.02,8.33
		c0.67-1.03,3.19-4.15,11.02-8.33c9.24-4.94,9.16-11.67,9.16-11.74c0-0.01,0-29.87,0-29.87L20.17,0.11L0,0z"/>
	<path class="st1" d="M40.4,26.77c0-7.67,0-26.73,0-26.73L20.23,0.14L0.06,0.04v26.73H40.4z"/>
</g>
<linearGradient id="SVGID_1_" gradientUnits="userSpaceOnUse" x1="19.123" y1="9.0014" x2="20.9363" y2="9.0014">
	<stop  offset="0" style="stop-color:#FFFFFF"/>
	<stop  offset="1" style="stop-color:#000000"/>
</linearGradient>
<path class="st2" d="M19.12,5.74c0,0.43,0.15,0.82,0.38,1.05l0,6.24c0,0.29,0.24,0.52,0.52,0.52c0.29,0,0.52-0.24,0.52-0.52l0-6.24
	c0.23-0.23,0.38-0.62,0.38-1.05c0-0.71-0.41-1.29-0.91-1.29C19.53,4.45,19.12,5.02,19.12,5.74z"/>
<linearGradient id="SVGID_2_" gradientUnits="userSpaceOnUse" x1="15.2747" y1="28.3527" x2="24.9649" y2="28.3527">
	<stop  offset="0" style="stop-color:#FFFFFF"/>
	<stop  offset="1" style="stop-color:#000000"/>
</linearGradient>
<path class="st3" d="M24.02,12.66c-0.33,0-0.62,0.17-0.79,0.42l-6.22,0c-0.17-0.25-0.46-0.42-0.79-0.42c-0.52,0-0.95,0.42-0.95,0.95
	c0,0.52,0.42,0.95,0.95,0.95c0.33,0,0.62-0.17,0.79-0.42h2.06v2.52l0,0l0,9.27l0,14.54l0.82,3.5c0.01,0.05,0.06,0.08,0.11,0.08h0.26
	c0.05,0,0.09-0.03,0.1-0.08l0.82-3.5l0-14.54l0-9.26l0,0l0-2.53h2.06c0.17,0.25,0.46,0.42,0.79,0.42c0.52,0,0.95-0.42,0.95-0.95
	C24.96,13.09,24.54,12.66,24.02,12.66z M20.12,14.35l0.63,1.05l-0.63,1.05l-0.63-1.05L20.12,14.35z"/>
<line class="st4" x1="20.12" y1="16.41" x2="20.31" y2="43.98"/>
</svg>
