<?xml version="1.0" encoding="utf-8"?>
<!-- Generator: Adobe Illustrator 24.0.1, SVG Export Plug-In . SVG Version: 6.00 Build 0)  -->
<svg version="1.1" id="Layer_1" xmlns="http://www.w3.org/2000/svg" xmlns:xlink="http://www.w3.org/1999/xlink" x="0px" y="0px"
	 viewBox="0 0 1365 770" style="enable-background:new 0 0 1365 770;" xml:space="preserve">
<style type="text/css">
	.st0{fill:#065A7F;}
	.st1{fill:#E0AB5F;}
	.st2{fill:#219AAA;}
	.st3{fill:#D86868;}
	.st4{fill:#375429;}
	.st5{fill:#E5CA7F;}
	.st6{fill:#D4CDB1;}
	.st7{fill:#64B0EE;}
</style>
<path class="st0" d="M455.8,533.6c-1.4,0-2.9-1.4-2.9-2.1c-2.2-9.3-7.2-15.8-10-23.6c-4.3-10.7-3.6-22.2-11.5-32.2
	c-2.1-1.4-1.5-6.5-2.9-8.6c-8.5-7.9-10.7-17.9-17.1-27.2c-1.5-3-4.8-4.6-7.1-7.1c-1.5,1-3,2-4.5,3c-2.6,1.6-5.3,3.3-8.4,3.9
	c-3.1,0.6-6.8-0.1-8.6-2.4c-3-3.8,0-9.7-3.2-13.3c-3.2-3.6-9.5-2.1-14.6-2c-6.7,0.2-13-2.5-19.1-5.1c1.5-1,3.1-2,4.6-3
	c-2.5-2.6-5.9-4.4-9.5-5.3c-9.1-1.4-18.2-2.7-27.3-4.1c1.4-3.2,0.9-7.1-1.6-9.7c-2.5-2.6-7.1-3.5-10.5-1.9c0.5-3.2-3.8-5.4-7.4-5.5
	c-3.6,0-7.3,1-10.8,0.2c-3.2-0.7-5.7-2.9-8.5-4.6c-9.2-5.4-21.1-4.3-32-3c0.8-6.3,9.5-9,16.5-9c7.1,0,15,0.9,20.4-3.3
	c2.3-1.8,3.8-4.3,6.1-5.9c3.6-2.5,8.4-2.8,12.9-3.6c4.5-0.8,9.4-2.7,10.6-6.7c1.6-5.3-4.2-9.7-7.8-14.1c-6-7.4-6.1-18.2-0.3-25.7
	c1.6-2,3.6-4.3,2.9-6.6c-0.8-2.5-4.3-3.4-5.9-5.5c-3.1-4.3,2.7-9.8,1.6-14.8c-0.6-2.9-3.4-5-6-6.8c-15.5-10.3-33.3-17.7-52-21.8
	c-5.5,3.5-13.3,0.2-18.5-3.6c-5.3-3.8-12.6-7.7-18.2-4.3c-2.2,1.3-3.5,3.6-5.8,4.8c-2.2,1.2-6.1,0.5-6.1-1.9
	c6.5-11.7,10-24.8,10.2-37.9c3.7-1.6,4.9-5.7,5.7-9.3c3.6-16.3,7.1-32.6,10.6-48.8c-5.9-1.3-10.7,4.3-12.8,9.4
	c-2.2,5.1-4.4,11.2-10.2,12.8c3,2.5,1.4,7-1.3,9.7c-2.7,2.7-6.3,4.8-7.7,8.2c-1.3,2.2-4.8,2.6-7.5,1.9s-5.3-2-8.1-2.1
	c-2.8-0.1-6,1.9-5.4,4.4c-2.2-2.6-6.2-3.4-9.7-3c-3.6,0.4-6.8,2-10,3.5c1.4,6.7-7,13.2-14.1,11.1v2.4c-5.2,0.5-8.1,5.4-10.4,9.6
	c-2.4,4.2-6.4,8.8-11.5,7.9c-0.2-5.2-0.3-10.3-0.4-15.5c0-1.3-0.5-3.1-1.9-3.2c-1.6-0.1-2.2,1.7-3.4,2.7c-1.7,1.4-4.3,0.9-6.6,0.8
	c-8.5-0.5-16.5,6.7-16,14.4c-5.4,1.9-10.1,5.3-13.5,9.5c0-3.4,0-6.9,0-10.3l-12.2,1.7c-1.5-3.1-6-4.8-9.5-3.5
	c-2.6,3.5-5.2,6.9-7.8,10.4c0.5-11.3,5.7-22.4,14.4-30.6c-3.5-5.9-10.1-10.2-17.4-11.4c3.3-7.9-2.9-17-11.3-20.9
	c-7.7-3.5-16.5-3.8-25.2-3.7L0,669.2c0.3,0.5,0.5,1.1,0.8,1.6c3-2,7.3,0.9,8.4,4.1c1.1,3.2,0.4,6.8,1.5,10c1.1,3.2,5.6,6,8.5,3.9
	c1.6-1.2,1.9-3.3,2.3-5.2c0.8-4.6,2.5-9,5.1-13c1.8-2.8,5-5.7,8.4-4.7c2.9,0.8,4.1,4,3.5,6.7c-0.5,2.7-2.2,5-3.4,7.5
	c-1.2,2.5-1.8,5.5-0.2,7.8c3.3,1.1,7.8,1.8,9.7-0.8c0.8-1.2,0.8-2.8,1.2-4.2c0.8-2.5,3.3-4.4,6.1-4.6c2.8-0.2,5.7,1.2,6.9,3.5
	c0.9,1.6,1.1,3.7,2.9,4.5c1.7,0.7,3.8-0.4,5.1-1.7c1.3-1.3,2.4-2.9,4.2-3.5c2.6-0.9,5.5,0.7,6.8,2.9c1.3,2.2,1.3,4.8,1.3,7.2
	c0,2.4-0.5,5.4-3,6.1c-2.2,4.7-4.3,9.4-6.4,14.2c-3.4,2.6-4.2,7.4-2.7,11.2c1.5,3.8,4.8,6.9,8.3,9.4c6.8,4.8,14.7,7.9,22.6,11
	c7.1,2.8,14.5,5.7,22.3,5.8c2.5,0,5.1-0.2,7.4,0.5c3.9,1.2,6.4,4.6,9.8,6.7c5.2,3.1,12.7,2.7,17.3-1.1c0.7,1.2,1.3,2.5,1.9,3.7
	c4.5-0.1,9.2-0.3,13.1-2.2s7.1-6,5.9-9.9c3,3.3,7,7.1,11.6,8.5c2.4,0.7,5.1,1.2,7.5,0.4c2.4-0.7,4.5-2.8,4.3-5c-0.1-2-1.8-3.6-3.4-5
	c-7.1-6.8-12.9-14.8-16.8-23.5c16.8,5.4,37.1,0.8,49.1-11.1c1.2-1.2,2.4-2.5,4-3.3c1.6-0.8,3.8-1,5.2,0.1c1.4,1,1.3,3.5-0.4,4
	c4.7-0.5,9.5-1.1,13.4-3.5c3.9-2.4,6.3-7.2,4.1-11c2.2,2.7,7.1,2.1,9.9,0c2.8-2.2,4.3-5.4,6.3-8.2c2-2.8,5-5.5,8.7-5.5
	c1.1,0,2.3,0.3,3.3,0c2.4-0.6,3-3.5,3.1-5.7c0.5-9.5,0.7-19.7-4.9-27.9c-2.1-3-4.9-5.6-6.8-8.7s-2.9-7-1-10.2
	c-3.3,1.8-8.2,0-9.3-3.3c7.5-0.8,13.1-7.1,14.9-13.7c1.7-6.6,0.5-13.5-0.9-20.2c-1.9-9.6-3.7-19.2-5.6-28.9c-0.3-1.8-0.2-4-0.5-5.7
	c-4.3-0.8-7.2-4.7-7.9-8.6c-0.7-3.9,0.4-7.8,1.5-11.7c1.1-4.1,3.8-9.1,8.4-8.5c3.7,0.5,5.3,4.7,5,8c-0.3,3.4-1.8,6.7-1,10
	c0.9,3.5,4.1,6.2,5.9,9.5c4.3,7.7,0.2,17.6,4.9,25.1c1.9,3,5,5.2,6.7,8.3c1.8,3,1.6,7.6-1.9,9c-1.5,0.6-3.4,0.5-4.7,1.4
	c-2,1.3-2,4.1-0.9,6.2c1.1,2,2.9,3.7,3.8,5.8c1.6,3.9-0.3,8.2-1.8,12.2c-1.5,4-2.5,8.8,0.6,12c2.3,2.4,6.2,3,9.4,4.3
	c7.3,3.2,10.8,10.7,13.2,17.7c2.4,7,4.6,14.6,10.8,19.3c-3-3.5,0.4-9.3,5.3-10.1c4.9-0.7,9.7,2.6,11.6,6.7c1.9,4.1,1.5,8.8,0.4,13.2
	c-5.6-1.7-12.2,3.7-10.7,8.9c0.8,0.4,1.6,0.7,2.4,1.1c0.7,2-1,4-3,5c-2,1-4.4,1.4-6.3,2.5c-5.6,3.3-4.9,11.5-0.3,15.9
	c4.6,4.4,11.5,6,18.1,7.3c1.4,6.4,7.4,11.6,14.6,12.7c4.3,3.3,8.6,6.7,12.9,10c4.4-2.3,9.4,3.1,14.5,2.8c2.9-0.2,5.2-2.1,7.1-3.9
	c5.3-4.8,10.4-10,12.7-16.4c2.3-6.4,1-14.3-5-18.4c5.2-0.4,9.7-4.5,10.2-9.2c-2.3-0.6-4.8-0.7-7.2-0.5c2.7-1,4.2-4.8,2.1-6.8
	c2.6-0.5,4.5-3.1,3.9-5.5c-0.6-2.3-3.5-4-6.1-3.4c-0.5-18.2-4.2-36.4-11-53.5c-3.8-0.2-6.3-4.1-6-7.5s2.6-6.5,4.8-9.3l17.7-22.8
	c3.7-4.8,7.7-9.8,13.7-12c2-0.7,4.2-1.1,5.7-2.4c1.6-1.3,2-3.9,0.2-4.9c2-0.2,4-0.5,6.1-0.8c2.2-1.6,2.1-4.6,1.4-7
	c-0.7-2.4-1.8-5-0.9-7.4c0.9-2.4,5-3.7,6.4-1.5c1.7,2.6,6.8,0,8.4-2.7c2.6,0.4,6-1.2,5.5-3.5c3.6-1.6,7.3-3.2,11-4.8
	C459.6,545.7,455.8,540.5,455.8,533.6z"/>
<path class="st1" d="M876.5,184c-2.2-0.3-4.4-1.1-6.5-1.9c1.7-3.7-2-7.9-6.2-9.2c-4.2-1.4-8.8-1-13.2-1.7
	c-15.2-2.4-26.2-17.1-41.6-17.1c-5.6,0-11,1.9-16.2,3.9c-8.2,3.1-17.6,7.4-18.9,15.4c9-1.5,18.1-2.9,27.1-4.4c6.4-1,13.4-2,19.2,0.7
	c5.3,2.5,8.5,7.6,10.8,12.6c2.2,5,3.8,10.4,7.2,14.8c3.1,4,7.6,7,11.3,10.7c3.6,3.7,6.5,8.6,5.1,13.4c-0.8,2.7-3.4,5.2-6.5,4.8
	c-3.3-0.5-5.7-4.4-9-3.8c-3,0.6-3.5,4.6-1.8,6.9c1.7,2.3,4.6,3.8,6.5,6c2.8,3.3,3.1,7.7,3.5,11.9c1.3,13.8,5.1,27.4,11.2,40.2
	c-2.4,4.6-1.1,10.6,3,14.2c-0.3,1.9-3.3,2.6-5.2,1.8s-3.2-2.6-4.6-4.1c-1.4-1.5-3.4-2.9-5.5-2.6c-3,0.4-4.2,3.6-5.1,6.1
	c-1,2.5-3.3,5.5-6.2,4.7c-0.3-2.2-0.7-4.4-1-6.6c-1.3,0-2.7,0-4,0c-1.7-2.1,1.4-5.5,4-4.4c-1.6-5.5-3.2-11-4.8-16.5
	c2,0,3.9,0,5.9-0.1c0.7-4-0.2-8.2-2.5-11.8c-5.5-8.7-17.3-11.9-28.1-14.4c0.4-3.6-1.7-7.3-5.1-9.2c-3.4-1.9-8-1.9-11.5,0
	c-3.2-0.2-6.4-2.8-7.9-5.4c-1.5-2.6-2.6-5.5-5.1-7.4c-2.5-1.9-7-2-8.4,0.7c3.2,6.9,6.4,13.8,9.6,20.7c-8.5-0.8-14.1-7.9-19.8-13.7
	c-5.7-5.7-15.2-10.8-22.3-6.6c1.7-2.8,0.7-6.4-1.9-8.6c-2.5-2.2-6.3-2.9-9.7-2.5c8.8-5.9,10.3-18.7,3.2-26.2
	c-0.2,3.1-5.7,3.5-7.8,1.1s-1.8-5.8-1.3-8.8c0.5-3,0.8-6.4-1.2-8.9c-1.8-2.1-4.8-2.9-7.2-4.5c-6.1-4.3-5.3-12.6-3.9-19.5
	c-6.5,1.5-13.7-4.5-12.4-10.5c-5.9,0.1-11.9,0.1-17.8,0.2c-12-13.1-30.6-21-49.4-21.1c6.8,4.2,12.2,10.2,15.3,17
	c5.9,5.8,11.7,11.6,17.6,17.4c3.3,3.3,6.8,6.7,8.8,10.7c3.4,6.6,3.1,14.5,7.1,20.8c5.3,8.3,17.8,13.3,18.3,22.9
	c0.3,5-3,9.5-5.3,14.1c-4.6,9-5.5,19.4-2.7,29c1.8,6.3,5.3,12.3,5.3,18.7c0,6.6-3.5,12.7-7,18.5c-0.6,1-1.2,2-1.8,3
	c13.5,0.1,27.5,1.5,40.8,2.8c45.4,5.7,88.8,21.5,134.2,17.9c9.9-0.7,19.2-10.8,19.2-23.7c0-0.7,1.4-2.9,1.4-4.3
	C881.1,253,882.1,218.2,876.5,184z"/>
<path class="st2" d="M909.2,291.2c2.1,0.7,3.5-2.1,6.4-2.1c23.4-2.1,46.9-5.7,70.3-2.1c12.8,2.1,23.4,7.9,36.9,10.8
	c10.6,2.9,21.3,10.8,27,20.8c13.5,23,14.2,50.2,25.6,74.6c9.6,20.1,33.1,26.1,53.9,23.3c-4.8-5.5-8.9-11.3-11.3-18.3
	c-7.1-19.4-12.8-38.7-14.2-59.5c-1.3-16-6.9-31.9-8.3-48.4c-1.7-0.8-3.3-1.9-3.7-3.6c-0.5-2.8,2.8-5,5.8-5.4
	c3.1-0.4,6.3,0.2,9.3-0.5c3-0.7,5.7-3.8,4.1-6.2c4.3,2.1,9.9-0.6,11.9-4.6c2-4,1.2-8.6,0.1-12.9c-1.2-4.3-2.7-8.6-2.3-12.9
	c0.5-4.8,3.4-9.2,4.1-13.9c0.7-4.8-2.4-10.8-7.7-10.6c10-1,15.9-13.4,9.7-20.6c5-2.9,11.3-4,17.2-2.9c3-6.4-0.1-13.7-3.1-20
	c-2.2-4.6-4.7-9.6-9.6-12.1c-5.5-2.9-12.4-1.8-18.7-1.4c-6.4,0.3-13.9-0.9-16.7-6.1c-4.1-0.7-7.3-6.5-8.7-10s-1.9-7.4-4.1-10.6
	c-2.2-3.2-6.7-5.6-10.5-4c-2.9-6.6-7.1-12.7-12.4-17.9c-2.1-2.1-5.6-4.2-8.1-2.5c-1.6,1.1-1.8,3.1-1.9,4.8
	c-0.4,7.1-0.3,14.3,0.2,21.4c-0.5,2.6,0,5.3,1.4,7.5c2.3,0.4,4.6,0.7,6.8,1.1c3.1,4.8-0.6,10.8-5.1,14.5
	c-4.5,3.7-10.2,6.6-12.9,11.5c-2.5,4.5-1.7,10.3,1.8,14.2c1.9,2.1,4.8,3.7,7.8,3.3c3-0.4,5.5-3.4,4.4-5.9c1.4,0,2.8-0.1,4.2-0.1
	c-1.1,2.2,0.7,4.6,2,6.8c1.3,2.1,2.1,5.3-0.2,6.6c-2.6,1.5-5.6-1-8.4-1.9c-4.4-1.4-9.3,1.3-11.5,5c-2.2,3.7-2.3,8-2.4,12.2
	c-0.1,5.2-0.2,10.3-0.3,15.5c-0.1,2.3-0.4,5.1-2.8,6.1c-2.3,1-4.9-0.5-7.2-1.3c-2.4-0.8-6-0.2-6,2.1c-2.6-2.3-5.6-4.3-8.9-5.8
	c-3.5-10.8-6.8-23-0.7-32.8c1.6-2.6,3.7-6.1,1.2-8c-1.6-1.3-4.1-0.7-6.2-0.4c-7.6,1.3-15.3-0.6-22.7-2.7c-7.4-2.1-14.9-4.4-22.6-4
	c-7.7,0.4-15.8,4.4-17.9,11c0.8-12.3,0.8-26.2-9-34.8c-4.2-3.6-11.3-2.4-17-1.2c1.6-3.1-2.1-6.6-5.8-6.7s-7.1,1.9-10.2,3.9
	c0.8-2.8,1.5-5.7,0.5-8.4c-1.1-2.7-4.8-4.6-7.5-3.1c-1.3,0.7-2,2.1-2.6,3.4c-1.6,3.3-3.1,6.8-3.2,10.4c-0.1,3.6,1.5,7.5,5,9.3
	c-3.2,0.5-6.3,1-9.5,1.5c0,2.8-0.1,5.6-0.1,8.4c2.7,0.6,5.7,1.4,6.8,3.7c1.6,3.1-1.5,6.7-5.2,7.4c-1.4,0.3-2.9,0.2-4.3,0
	c5.6,34.2,4.6,68.9-0.6,104.3c0,1.4-1.4,3.6-1.4,4.3c0,0.7,0,1.4-0.1,2C890.1,295.8,899,290.6,909.2,291.2z"/>
<path class="st3" d="M805.5,419c2.8-1.4,5.7-5,7.1-7.9c2.8-7.2,0.7-15.8,3.5-23c8.4-21.9,9.9-45.1,18.7-67
	c-38.7-1.1-76.2-13.4-115.3-18.4c-13.4-1.4-27.4-2.7-40.8-2.8c-5.1,8.6-10.3,17.3-15.4,25.9c-2.3-8.2,2.5-16.1,6.4-24.1
	c-14.9,7.1-30.4,10.1-44.6,18.3c-20.6,11.5-41.2,17.2-61.1,30.1c-4.3,2.9-8.5,4.3-12.1,6.5c-2.1,1.4-5,2.1-7.1,3.6
	c-3.5,1.4-7.1,5-10.7,6.5c-9.2,5-20.6,4.3-29.1,9.3c-28.6,14.8-57.8,20.6-88.5,16.7c1.9,6.6,5,12.9,9.2,18.5c-2.1-1.5-5.4,0-6.7,2.2
	c-1.3,2.1-1.3,4.7-2,7c-1.4,4.9-5.5,8.5-10,11.6c2.3,2.4,5.5,4,7,7.1c6.4,9.3,8.5,19.4,17,27.3c1.4,2.1,0.7,7.2,2.8,8.6
	c7.8,10,7.1,21.5,11.4,32.3c2.8,7.9,7.8,14.3,9.9,23.7c0,0.7,1.4,2.2,2.8,2.2c0,6.9,3.8,12.1,7.6,17.7c1.6-0.7,3.3-1.4,4.9-2.1
	c2.7-2.8,4.1-6.4,4.1-10c5.8,1.9,11.3,4.4,16.4,7.5c3.8,8.4,7.5,16.8,11.3,25.2c0.9,2.1,2,4.3,4,5.8c3.5,2.6,8.8,1.8,13,0.2
	c4.6-1.8,9-4.5,11.2-8.5c2.2-4,1.4-9.6-2.8-12.1c1.2-2.2-0.1-4.9-1.9-6.8s-3.9-3.7-4.7-6c-1.2-3.5,0.9-7.9-1.9-10.5
	c-1.4-1.3-3.5-1.7-5.2-2.6c-2.8-1.5-4.1-4.6-4.3-7.5c-0.1-2.9,0.7-5.8,1.6-8.6c1-3.2,2-6.5,4.2-9.2c2.1-2.7,5.7-4.8,9.3-4.5
	c4,0.3,7.4,3.1,11.3,2.9c2.8-0.1,5.2-1.9,7.9-2.8c4.6-1.6,9.8-0.9,14.3,1c4.5,1.9,8.2,4.8,12,7.6c-1.9,2.3-0.9,5.6,0.8,8
	c1.8,2.4,4.2,4.3,5.5,7c1.3,2.6,0.8,6.3-2.2,7.4c0,0.9-0.1,1.9-0.1,2.8c2.8-0.9,6.2,0.5,7.3,3c1,0,2,0.1,2.9,0.3
	c20.1-8.5,42.2-7.2,64.3-10.7c16.3-2.2,32,1.4,47.6,2.9c22.7,2.9,49.7-3.6,54-28.7C757.2,467,776.4,437.6,805.5,419z"/>
<path class="st4" d="M925.5,548.8c4.3-15.1,7.8-31.6-2.1-45.2c-1.4-2.1-5-4.3-5.7-5.7C907,479.9,890,481.4,873,478.5
	c-9.2-1.4-17.8-2.1-27,0.7c-9.2,2.1-17-2.9-26.3-4.3c-17.8-4.1-34.2-7.6-51.2-11.1c-7.5,12.7-12.7,26.8-15.5,41.9
	c-4.3,25.1-31.2,31.6-54,28.7c-15.6-1.4-31.2-5-47.6-2.9c-22.1,3.5-44.2,2.2-64.3,10.7c3.4,0.8,6.5,3.1,8.9,5.5
	c3.1,3.1,5.1,6.9,7.1,10.7c2.2,4.2,4.5,8.8,3.2,13.2c-0.5,1.8-1.6,3.4-2.3,5.1c-2.7,6.4,0,14.4,6.2,18.4c-1.1,5.9-0.6,12.1,1.6,17.8
	c0.7,1.8,1.5,3.5,1.5,5.4c0,4.2-4.3,7.3-6.3,11.1c-2.6,4.8-1.3,11,3,14.7c-0.3,3.7,2.4,7.3,6.2,9c3.7,1.6,8.2,1.4,12-0.1
	c6.8-2.7,12.2-9.3,19.6-8.5c3.4,0.4,6.3,2.3,9.1,4.1c11.7,7.4,24.8,13,38.5,16.5c-0.5,7.3-1.2,15.1-1.7,22.4c3.4,0.9,6.2-2.8,6.7-6
	c0.5-3.2,0.2-6.9,2.9-9c2.6-2.1,6.6-1.7,10.1-1.9c3.5-0.3,7.7-2.6,6.7-5.6c4.5,3.7,9,7.5,13.5,11.2c3,2.5,6.1,5.1,7.1,8.6
	c0.8,2.7,0.4,5.8,2.1,8.2c2,2.7,6.3,3.6,7.5,6.6c0.8,2,0,4.2,0.3,6.3c1,7.1,13,8.4,16,15c0.9,1.9,0.8,4.1,1.9,5.9
	c1.3,2.2,3.8,3.5,6.2,4.7c4.4,2.2,8.8,4.3,13.2,6.5c4.9,2.4,9.9,4.9,15.2,6.6c3.4-4,0.6-10.8-4.8-11.9c2-2.7,1.4-6.4-0.2-9.4
	c-1.6-2.9-4.1-5.4-6-8.2c-4.2-5.9-5.7-13.1-5.3-20c0.2-3.3,1.4-7.2,4.9-8.3c2.6-0.8,5.4,0.3,7.7,1.6c4.7,2.6,8.8,6.1,13.9,7.9
	c5.1,1.8,11.8,1.4,15-2.6c2.9-0.6,5.3,0.2,8.2-0.4c-0.5,2.2-1.1,4.5-1.6,6.7c1,0.4,2,0.8,3,1.2c-1.6,1.2-0.5,3.8,1.5,4.3
	c2,0.6,4-0.2,5.8-1.1c1.8-0.9,3.5-2.1,5.5-2.4c4.2-0.6,7.7,2.8,11.7,4c4.4,1.3,9.3,0,13.9,0.5c5.3,0.6,10.3,3.7,12.7,8
	c0.5,1,1,2.1,1.4,3.1c0.5,1.6,3,2,4.7,1.2c1.7-0.7,2.8-2.1,4.4-3c1-0.6,2.3-0.9,3.4-0.7c8.5-24.8,5.8-52.3,8.2-78.3
	C914.9,606.9,917,578.2,925.5,548.8z"/>
<path class="st5" d="M1322.9,651.2c-3.7-4.1-4.8-10-2.9-15c0.8-2,1.9-4.2,0.7-6c-1-1.5-3.3-1.9-5-2.9c-2.6-1.6-3.6-4.6-3.7-7.5
	c-0.1-2.8,0.3-5.7-0.3-8.5c-0.9-3.7-3.6-6.8-6.3-9.7c-0.8-0.9-1.6-1.7-2.4-2.6c-17,2.8-34,2.7-51-1.6c-8.5-2.2-17-5.7-25.6-8.6
	c-7.8-2.9-12.8-9.3-17.8-15.8c-23.4-35.2-41.9-68.9-51.1-110.5c-0.7-1.4-2.8-4.3-3.6-6.5c-2.1-4.3-3.6-9.3-6.4-13.6
	c-5.8-8.7-13.4-15.8-19.9-23.3c-20.8,2.8-44.3-3.2-53.9-23.3c-11.4-24.4-12.1-51.7-25.6-74.6c-5.7-10-16.3-17.9-27-20.8
	c-13.5-2.9-24.1-8.6-36.9-10.8c-23.4-3.6-46.9,0-70.3,2.1c-2.8,0-4.3,2.9-6.4,2.1c-10.2-0.7-19.1,4.5-29.2,5.6
	c-0.9,11.9-9.7,21-19.1,21.6c-6.3,0.5-12.7,0.6-18.9,0.4c-8.8,21.9-10.3,45.1-18.7,67c-2.8,7.2-0.7,15.8-3.5,23
	c-1.4,2.9-4.3,6.5-7.1,7.9c-16.3,10.5-29.6,24.4-39.1,40.6c17,3.5,33.5,6.9,51.2,11.1c9.2,1.4,17,6.5,26.3,4.3
	c9.2-2.9,17.8-2.1,27-0.7c17,2.9,34.1,1.4,44.7,19.4c0.7,1.4,4.3,3.6,5.7,5.7c9.9,13.6,6.4,30.1,2.1,45.2
	c-8.5,29.4-10.7,58.1-14.2,88.2c-2.4,26,0.3,53.5-8.2,78.3c0.7,0.1,1.2,0.4,1.7,0.9c0.8,0.9,0.6,2.3,1.4,3.2c1,1.2,3.2,1,4.5,0.1
	c1.3-1,1.9-2.5,2.5-3.9c0,2.7,2,5.2,4.8,6.3c0.2-0.6,0.4-1.2,0.6-1.8c1.7,1.5,4.7,0.9,6.4-0.6c1.7-1.5,2.5-3.6,3.5-5.6
	c1.1-1.9,2.7-3.8,5-4.2c2.9-0.5,5.5,1.6,7.2,3.8c1.7,2.2,2.9,4.7,5.3,6.3c2.4,1.5,6.6,1.2,7.4-1.3c4.2-12.5,23.2-16.8,37.7-17.4
	c1,0,2-0.1,2.9-0.5c1.7-0.8,2.1-2.8,2.3-4.5c1-7.6,2.1-15.2,3.1-22.8c2.3,1.3,5.4,1.4,7.7,0.2c2.3-1.2,3.7-3.8,3.5-6.2
	c0.7-0.1,1.3-0.2,2-0.3c3.1-5.8,4.1-12.5,2.8-18.9c3,2.4,7.9,0.9,10.4-1.8c2.6-2.7,3.7-6.3,5.5-9.4c1.9-3.1,5.2-6.1,9.1-5.8
	c3.7,0.2,6.6,3.5,7,6.8c0.4,3.3-1.3,6.6-3.5,9.3c3.8,3,5.9,7.7,5.4,12.2c1.7,0.5,3.3,0.9,5,1.3c0,1.1,0,2.2,0,3.3
	c5.5-1.8,8.7-6.8,11.7-11.3c3.1-4.5,7.4-9.2,13.2-9.3c0.4,5.6,0.8,11.1,1.2,16.7c0.1,1.8,0.1,4-1.5,5.2c-1.3,1-3.2,0.8-4.8,1.2
	c-4.1,0.8-7.1,4.8-6.4,8.5c6.7,0.7,10.4,7,15.1,11.4c5.7,5.3,13.7,8,21.4,10.6c8.5-2.7,18.4,2.5,21.6,10.2c-3.4,0-5.9,3.2-6,6.2
	c-0.1,3,1.7,5.8,3.7,8.3c2,2.5,4.2,4.8,5.3,7.7c0.8,2.1,1.2,4.7,3.4,5.8c1.5,0.7,3.3,0.5,5,0.3c7-0.6,14.3,1.5,19.6,5.6
	c2.2-2.1,5.2-4.4,8.3-3.4c1.6,0.5,2.6,1.8,3.8,2.8c4.3,4,11.1,5.7,17.1,4.4c6-1.3,11.1-5.6,12.9-10.9c7.5,2.2,16.5,2.2,23.7-0.5
	c3.3-1.3,6.6-3.3,7.5-6.4c0.9-3-1.7-6.7-5-6.4c2.2-0.4,3.7-2.5,3.9-4.5c0.2-2.2-0.7-4.3-1.7-6.3c-3.7-8-7.4-16.1-13.3-23
	c-5.9-6.9-14.2-12.5-23.7-13.6c6.5-1.5,13.3,0.5,19.6,2.4c13,4,27.2,8.8,34.1,19.5c2.3,3.5,4.1,8,8.5,9.2c3.8,1,7.6-1.1,10.9-3
	c5.8-3.5,11.6-6.9,17.4-10.4c4.4-2.7,9.1-5.5,11.9-9.5c3.4-4.8,4.6-11.7,10.5-14c3.6-1.4,7.8-0.5,11.7-0.6c3.9-0.1,8.6-2.2,8.5-5.7
	C1327,655,1324.7,653.2,1322.9,651.2z"/>
<path class="st6" d="M1359.1,540.8c-0.5-3.4-1.9-6.7-2.1-10.2c-0.2-3.4,0.7-6.7,1.2-10.1c1.2-7.5,0.6-15.1,0-22.7
	c-0.6-6.8-1.3-14-5.5-19.7c-3.9-5.2-10.6-8.9-11.8-15.1c-1-5.1,2.3-10,4.4-14.8c4.6-10.6,3.6-22.5,2.6-33.9
	c-0.6-6.7-1.3-13.6-5.3-19.2c-1.6-2.3-3.7-4.2-5.2-6.6c-2.1-3.4-2.8-7.5-2.4-11.5c0.9-8.5,7.1-16.2,15.6-19.5
	c-1.3-0.7-2.7-1.4-4-2.1c1.6-6.1-1.6-14.9-5.4-20c-3.8-5.1-10.8-8.4-17.4-7.5c-2.1-8.5,5-16.4,7.4-24.8c1.9-6.4,1-13.2,0.1-19.8
	c-1-7.2-1.9-14.5-1.9-21.7c0-9.4,1.7-18.8,5-27.6c3-1.9,2-6.1,0.8-9.2c-1.2-3.1-2-7.4,1.2-9.1c-0.9-0.3-1.8-0.6-2.7-0.9
	c0-3,0-5.9,0-8.9c-2.3-0.3-4.6-0.7-6.8-1c2.2-3.3,4.5-6.6,5.2-10.5c0.7-3.8-0.6-8.2-4.1-10.2c-2.7-1.5-6.1-1.5-8.7-3.2
	c-6.7-4.4-2.2-16.4-9.2-20.4c-3.1-1.8-7.4-1-10.3,1.1s-4.8,5.1-6.7,8.1c-0.7-9.8-1.4-19.6-2.2-29.4c-6.9,1.7-14.5,1.2-21.1-1.5
	c2.8-7-2.3-14.7-7.8-20c-5.6-5.4-13.1-8.6-20.4-11.7c-7-3-14-5.9-21-8.9c4.2,5.9,7,12.7,8.4,19.6c-4.8-2.1-9.6-4.1-14.4-6.2
	c2.3,5.6,6.4,10.5,11.7,14.1c-9-4.7-19.8-6.4-30-4.5c9.3,6.3,17.5,14,24.3,22.6c-2.6,2.7-7.3-0.1-9.6-3c-2.3-2.9-5.5-6.5-9.1-5.3
	c-2.5,0.9-3.5,3.9-2.9,6.3c0.7,2.4,2.5,4.4,4.3,6.2c7.8,8,15.6,15.9,23.4,23.9c-0.8,1.9-1.7,3.7-2.5,5.6c5.6,7.6,9.4,16.4,10.9,25.5
	c3.6,9.9-9.8,18.1-11.6,28.4c-1,5.9,1.8,11.6,4.5,17c2.7,5.4,5.4,11.2,4.1,17.1c-1.3,5.8-8.6,10.7-14.2,7.7
	c1.8,11-0.2,22.4-5.5,32.3c-1.5,2.8-3.4,5.6-4.1,8.7c-0.8,3.6,0.1,7.4,0.4,11.1c1,11.1-2.6,22.1-4.5,33.1
	c-2.5,14.9-1.6,30.3,2.6,44.9c-3.7-11.9-12.2-22.5-23.5-29.1c-3.1-0.5-6.2-1-9.3-1.4c1.6-3,0.1-7.1-3.2-8.4
	c-3.3-1.3-7.6,0.4-8.8,3.5c0.8-4.9-3.6-10-8.9-10.4c-0.3-1.9-0.6-3.7-0.8-5.6c-5-2.2-10.6-4.5-16-3.1s-9.2,8.1-5.3,11.8
	c-8.6-5.7-9.1-17.2-8.4-27c0.4-6.5,1-13.1,1.7-19.6c0.4-3.8,0.8-7.7-0.6-11.2c-3.6-8.6-15.6-10.3-24.7-14.1
	c-0.3-0.1-0.6-0.3-0.9-0.4c1.3,16.5,6.7,32.5,8,48.4c1.4,20.8,6.9,40.2,13.8,59.5c5.5,16.5,20.6,26.5,30.2,41.6
	c2.8,4.3,4.1,9.3,6.2,13.6c0.7,2.1,2.8,5,3.4,6.5c8.9,41.6,26.8,75.3,49.5,110.5c4.8,6.5,9.6,12.9,17.2,15.8
	c8.2,2.9,16.5,6.5,24.8,8.6c16.5,4.3,32.9,4.4,49.4,1.6c-4.4-4.9-8.7-9.8-13.1-14.7c2.2-0.9,2.6-3.8,1.3-5.7
	c-1.3-1.8-3.6-2.8-5.9-3.5c-2.2-0.7-4.6-1.1-6.5-2.4c-4.5-3.1-5.3-10-10.6-11.8c7.7-0.7,15.7,2.1,21,7.4c2,2,3.7,4.4,6.3,5.8
	c2.6,1.4,6.5,1.2,7.9-1.2c1-1.6,0.8-4,2.5-4.9c0.9-0.4,2-0.2,3,0c6.1,1.5,12.2,2.9,18.3,4.4c7.9,1.9,17.1-0.1,23.4-4.9
	C1355.6,558,1360.3,549.4,1359.1,540.8z"/>
<path class="st7" d="M669.7,299.5c1.2-2.4,2.2-4.7,3-7.1c3.5-10.4,1.7-21.5-0.2-32.2c-1.3-6.9-2.7-13.9-4.1-20.8
	c-3.5-16.6-8.6-34.8-24.1-44.4c-5.1-3.2-11.6-5.7-13.8-11c-1.7-4-0.3-8.4-1.2-12.6c-0.9-4.2-6.4-8.2-10-5.5
	c-2.8,2.1-1.8,6.1-1.5,9.4c0.3,3.3-2.6,7.7-5.9,6.2c-0.9-0.4-1.5-1.2-2.2-1.9c-3.9-4-11.2-4.9-16-1.9c-4.9,3-6.7,9.4-4.1,14.1
	c-1.5,0-3,0-4.5-0.1c-8.9-12.4-4-31,10.1-38.4c-3.9-0.6-7.9-1.4-11-3.4c-3.2-2.1-5.2-6-3.7-9.2c1.5-3.2,7.5-4.2,9.4-1.1
	c0.5-6-2.2-12.1-7-16.2c-5.7-4.9-6.4-12-10.2-18.1c-3.9-6.3-8.1-13-15.1-16.6c-1.5-0.8-3.4-1.4-5.1-0.9c-2.2,0.6-3.2,2.8-3.9,4.7
	c-4.5,12.4-6,25.6-4.3,38.5c2.9,22.7,15.4,44.6,12.3,67.3c-2.4-6.9-4.8-13.8-7.1-20.6c-1.1-3.3-2.8-7-6.4-7.9
	c-3-0.8-6.2,0.8-9.3,0.4c-4.1-0.5-7-4.2-7.8-7.9c-0.8-3.7-0.1-7.5-0.1-11.2c0-8.8-4.3-17.6-11.6-23.5c-1.4-1.2-3.3-2.3-5.1-1.7
	c-1.9,0.7-2.3,2.9-3.1,4.7c-0.8,1.7-3.7,3.1-4.8,1.5c0.4-4.8,0.7-9.7-1-14.2c-1.6-4.5-5.7-8.7-11-9.3c-7.2-0.8-13.5,5.6-14,12.1
	c-1.6-2-3.3-4.2-5.8-5.2s-6.1-0.4-7.1,1.8c7.5,6.2,13,14.2,15.8,23.1c-6.3-3.4-14-3.8-20.8-6.3c-6.8-2.5-13.1-8.7-11-15
	c-8.5-1.2-16.9-3.7-24.5-7.2c5.9,15.4,11.9,30.7,17.5,46.2c2.3,6.2,4.5,12.4,6.8,18.7c1.8,5.1,3.6,10.1,5.5,15.2
	c4.5,12.4,8.9,24.8,13.4,37.1c-10.9-8.3-21-17.4-30.3-27.2c-4.7-5-3.5-11.8-3.4-18.4c0.1-6.5-1-13.9-6.8-17.8c-2.9-2-7-3-8.7-5.9
	c-1.4-2.3-0.9-5.2-2.3-7.5c-1.5-2.5-4.7-3.7-7.2-5.4c-5-3.3-7.3-8.8-10.2-13.7c-2.9-4.9-7.3-9.9-13.5-10.5
	c2.4,22.5,28,37.4,35.6,58.9c-7.5-4.1-13.6-10.3-17.1-17.6c-2.1-0.2-4.2-0.3-6.4-0.5c-0.5-4.7-4.8-8.9-10-9.9
	c0.6,11.6,9.7,21.3,18,30.3c8.2,9,16.4,19.7,14.6,31.2c-8-3.9-12.5-11.8-17-19c-4.4-7.2-9.9-14.8-18.6-17.3c-0.2-2.6-4.5-4-6.5-2.2
	c-2,1.9-1.8,5-0.3,7.3c1.4,2.3,3.8,3.9,6,5.7c9.4,7.7,15.2,19,15.6,30.4c-4-0.1-6.9-3.5-8.2-6.9c-1.3-3.4-1.5-7.1-3-10.4
	c-4-8.7-16-12.7-20.3-21.3c-1.6-3.2-2-6.8-3.7-9.9c-1.7-3.1-5.6-5.8-9.3-4.6c1.2,12,6.5,23.7,15,33.1c5.5,6.1,12.9,12.4,12.2,20.3
	c-0.4,4.6-3.4,9.6-0.4,13.3c1.3,1.6,3.4,2.4,5,3.8c1.6,1.4,2.5,3.9,0.9,5.2c-1.2,0.2-2.5,0.3-3.7,0.5c2.1,4.7,4.2,9.9,2.2,14.7
	c-2.6-6-9.6-10.2-16.8-10.1c1.1,8.2,5.2,16,11.5,22.1c-1.2,0.5-2.3,1.1-3.5,1.6c-1.5,6.9,5.3,12.6,9.7,18.5
	c3.4,4.6,5.5,9.9,7.5,15.1c1.2,3.1,2.5,6.5,1.6,9.8c-1.1,4.1-5.3,7.7-4,11.7c0.9,2.8,4.2,4.3,7.3,5.3c3.1,1,6.4,1.8,8.4,4.1
	c2,2.3,1.2,6.6-2,7c-2.3,4.9-4.3,11.4,0.3,14.8c3.9,2.8,9.6,1.2,14.1-0.5c-3.5,10.6-3.5,22.4-0.3,33.3c30.6,3.9,59.9-1.9,88.5-16.7
	c8.5-5,19.9-4.3,29.1-9.3c3.5-1.4,7.1-5,10.7-6.5c2.1-1.4,5-2.1,7.1-3.6c3.5-2.1,7.8-3.6,12.1-6.5c19.9-12.9,40.5-18.6,61.1-30.1
	C639.4,309.6,654.8,306.6,669.7,299.5z"/>
<path class="st4" d="M516.5,653.1c-1.9-1-4.4,0-5.5,1.7c-1.1,1.7-1.2,3.7-1,5.6s0.6,3.8,0.3,5.8c-0.2,1.5-1,3-1.2,4.5
	c-0.3,1.5,0,3.3,1.3,4.3c1.4,1.1,3.6,0.9,5-0.1s2.2-2.6,2.5-4.2c0.4-2,0.1-4-0.1-6c-0.1-1.1-0.3-2.1-0.4-3.2
	C517.1,658.7,516.8,655.9,516.5,653.1z"/>
<path class="st4" d="M547.4,654.9c-1,4.4-1.9,8.9-2.8,13.3c1.8,0.4,3.3-1.2,3.8-2.7s0.5-3.2,1.4-4.7c0.9-1.4,3.3-2.2,4.4-1
	c1.9,3.5,2.5,7.5,1.6,11.3c1.7,0.9,3.5,1.8,5.2,2.7c-1.9,2.6-3.7,5.2-5.6,7.8c2.8-0.4,5.6,2.5,4.7,4.9c2.4-0.3,4.8,1.1,5.6,3.1
	c1.8-1.3,4.6-0.6,6.2,0.8c1.6,1.5,2.4,3.5,3,5.5c2.2,6.4,4.4,13.3,2.3,19.7c-1.3,3.9-4.1,7.3-5.8,11.1c-1.7,3.8-2.2,8.5,0.8,11.6
	c0.7,0.8,1.6,1.4,2.1,2.3c0.6,1.2,0.3,2.5,0,3.7c-1.9,8.5-3.9,17-5.8,25.5c-2.3-0.7-4.7-1.4-7-2.1c0.4-11.4,0.8-22.9,1.2-34.3
	c0-1.5,0-3.3-1.3-4.3c-1.5-1.2-4-0.6-5.3,0.7s-1.8,3.1-2.2,4.9c-1.1,4.6-2.2,9.2-3.3,13.7c-0.2,0.9-0.5,2-1.5,2.4
	c-2,1-3.8-1.6-4-3.6c-0.2-3.2,0.8-6.2,1.1-9.4c0.3-3.1-0.2-6.6-2.8-8.8c-2.7-2.2-7-2.4-9.6-4.7c-3.3-3-2.5-7.9-1.4-12
	c0.4-1.4,1.1-3.1,2.7-3.2c1.4-0.1,2.5,1.1,3,2.3c0.5,1.2,0.6,2.6,1.4,3.6c0.8,1,2.8,1.5,3.6,0.4c-0.5-1.5-1-3.1-0.6-4.7
	c0.5-1.5,2.3-2.8,4-2.2c1.2,0.4,1.8,1.5,2.3,2.5s1.3,2.1,2.5,2.3c1.2,0.2,2.5-1.2,1.7-2c1.6,0,3.2,0,4.8,0.1c2.8-3.2,3.6-7.7,2-11.5
	c-4.3,1.7-8.6,3.4-12.9,5.1c-3.2-2.6-5.2-6.3-5.6-10.2c3.5,1.2,7,2.4,10.5,3.6c-2.2-4.9-8.2-8.1-14-7.7c1.8-6.6,0.7-13.7-2.9-19.6
	c-1.8-2.9-4.2-5.8-4.1-9.1c0.2-4.6,5.2-7.6,9.7-9.9c2.3-1.2,5.9-1.9,6.8,0.3C547.7,653.5,547.5,654.2,547.4,654.9z"/>
<path class="st4" d="M590.7,700.4c-0.7,1.5-0.5,3.2-0.7,4.8c-0.2,1.6-1.1,3.4-2.8,3.8c-0.5,1.6,0,3.3,1.2,4.5c1.2,1.2,3.2,1.7,5,1.4
	c5.1-4.1,7.4-10.7,5.8-16.7C596.5,696.4,592,697.6,590.7,700.4z"/>
<path class="st4" d="M534.8,630.6c3.4-3.9,7.5-7.2,12.2-9.9c1.7,1.9,5.1,1.4,7.5,0.3c2.4-1.2,4.7-2.8,7.5-2.8
	c3.5,0.1,6.2,3.1,7.3,6.1s1.2,6.3,2.5,9.3c1.6,3.7,4.9,6.7,6.2,10.4c1.4,4.2,0,8.6-0.4,13c-0.4,4.3,0.6,9.5,4.9,11.5
	c2.1,1,4.5,1.1,6.7,2c3.8,1.5,6,5.6,5.1,9.2c2.1-1.2,5,1,5,3.2c0,2.2-1.9,4.1-3.9,5.5c-3.4,2.2-7.5,3.6-11.8,3.8
	c-1.8-1.2-1.8-3.8-1.1-5.7s2-3.8,2.2-5.8c0.2-2.1-1.3-4.5-3.6-4.4c-2,0.1-3.3,1.9-3.8,3.6s-0.8,3.6-2.2,4.9
	c-1.8,1.7-5.1,1.5-6.9-0.1c-1.8-1.7-2.1-4.4-0.8-6.5c0.8-1.3,2.1-2.5,1.8-3.9c-0.2-1.5-2.1-2.4-2.6-3.9c-0.6-1.7,0.9-3.3,1.8-4.9
	c2-3.4,2-7.4,1.9-11.2c0-1.4-0.2-3-1.4-4c-1.5-1.1-3.6-0.6-5.5-0.4c-4.6,0.5-9.5-1.5-12.1-5s-2.8-8.3-0.5-11.9
	C545.6,631.2,540.2,630.4,534.8,630.6z"/>
<path class="st4" d="M736,697.6c-1.4-2.1-2-4.9-4.2-6.4c-1.3-0.8-2.9-1.1-4.5-1.4c-7.2-1.2-14.4-2.3-21.6-3.5
	c-1.5-0.2-3.3-0.4-4.3,0.7c-0.9,1-0.5,2.5,0.4,3.4s2.3,1.4,3.6,1.9c4.1,1.4,8.2,2.8,12.3,4.3c3.5,1.2,7.2,2.6,9,5.6
	c0.7,1.2,1.1,2.7,2,3.8c1.2,1.3,3,2,4.7,2.6c2.1,0.7,4.2,1.5,6.5,1.5c2.2,0.1,4.6-0.7,5.9-2.3s0.9-4.3-1-5.3
	c-0.8-0.4-1.6-0.5-2.5-0.7C739.7,701.2,737.4,699.7,736,697.6z"/>
<path class="st5" d="M1040.1,683.2c-0.7,0.5-1.6,0.8-2.3,1.3c-1.1,0.7-1.9,1.7-2,2.8s0.8,2.4,2.1,2.5c1.7,0.2,2.9-1.5,4.2-2.6
	c1.1-1,2.6-1.7,3.9-2.5s2.6-1.8,3.1-3.2s-0.1-3.1-1.6-3.6c-1.6-0.5-3.2,0.5-4.2,1.7C1042.1,680.8,1041.4,682.3,1040.1,683.2z"/>
<path class="st5" d="M1049.1,667.2c-0.6,0.4-0.9,1.1-1.3,1.7c-0.4,0.6-1.2,1.1-1.9,0.8c-0.9-0.4-0.6-1.6-0.6-2.5
	c0.1-2-2.1-3.9-4.3-3.6s-3.9,2.5-3.2,4.5c0.5-0.3,1.2,0.1,1.3,0.6c0.1,0.5-0.2,1-0.7,1.3c-0.5,0.3-1.1,0.4-1.6,0.5
	c-0.4,0.4-0.2,1,0.3,1.3s1,0.4,1.6,0.5c2.1,0.3,4.2,0.6,6.3,0.9c0.1,0.7,0.7,1.3,1.3,1.6c0.7,0.3,1.5,0.3,2.2,0.4
	c1.2,0.1,2.4,0.1,3.3-0.5c0.9-0.7,1.1-1.9,1.1-3c0.1-1.2,0.1-2.4-0.5-3.4C1051.8,667.1,1050.2,666.5,1049.1,667.2z"/>
<path class="st5" d="M1355.6,716.5c3,3.7,9.7,5.7,9.4,10.3c-0.2,3-3.4,4.9-6.3,6.3c-6,3-12.6,6.2-19.4,5.5c-4.5-0.5-8.6-2.5-13-3.2
	c-4.5-0.6-10,1-10.9,5c-3.3,2.3-8.1,3.1-11.7,1.2c-3.6-1.9-4.8-7-1.8-9.6c4.4-3.8,12.4,0.4,17.6-2.4c2.7-1.5,3.9-4.5,3.8-7.3
	c-0.1-2.8-1.3-5.5-2.4-8.1c4.6-0.3,9.6-0.7,12.9-3.5c2.1-1.8,3.2-4.2,4.7-6.4c1.6-2.2,3.9-4.2,6.8-4.1c3.7,0.1,6.2,3.5,7.1,6.8
	C1353.2,710.3,1353.4,713.9,1355.6,716.5z"/>
<path class="st2" d="M1138.2,217.5c1.8-2.3,5.5-3.5,8.3-2.2c2.5,1.2,3.6,3.9,4.5,6.3c-1.3,0.7-2.6,1.3-3.9,2
	c-0.6,0.3-1.2,0.6-1.9,0.6c-0.7,0-1.4-0.4-1.5-1c-2.2-0.6-4.7,0.3-5.9,2C1136.3,222.9,1136.5,219.8,1138.2,217.5z"/>
<path class="st2" d="M1127.4,274.1c-1.3-0.4-1.5-1.9-1.5-3.1c0-1.6,0-3.1,0-4.7c0-0.7,0-1.5,0.6-2.1c0.6-0.6,1.7-0.5,2.5-0.1
	s1.3,1.1,1.9,1.7c1.3,1.6,2.6,3.4,2.3,5.3c-1.2-0.1-2.1,0.9-2.8,1.6C1129.6,273.6,1128.5,274.4,1127.4,274.1z"/>
<path class="st2" d="M1130.3,288.4c1.2,0,2.3-0.6,3-1.4s1.2-1.8,1.5-2.8c0.4-1.4,0.8-2.9,0.1-4.1c-0.7-1.3-2.5-2-4-1.7
	c-1.6,0.3-2.7,4.2-2.7,5.7c-0.7,0.8-0.9,1.9-0.5,2.8C1128.2,287.7,1129.2,288.4,1130.3,288.4z"/>
<path class="st2" d="M1248.9,85.8c-2.4-4-5.6-7.5-9.4-10.4c-1.3,2.5-0.9,5.4,0.3,8c1.2,2.5,3.1,4.7,5,6.8c0.7,0.7,1.4,1.5,2.4,1.7
	c1.4,0.2,2.7-1.1,2.9-2.4C1250.2,88.2,1249.6,86.9,1248.9,85.8z"/>
<path class="st2" d="M1210.7,33.6c4.8-0.1,9.7-0.2,14.3,0.8c4.7,1,9.2,3.2,11.8,6.9c2.6,3.7,2.9,8.2,3,12.5
	c-1.1,0.1-2.1,0.3-3.1,0.4c-2-7.4-8.7-13.6-16.9-15.6c0.5,4.2,0.2,8.4-1.1,12.5c-0.3,0.8-0.6,1.7-1.2,2.3c-0.7,0.6-1.8,1-2.6,0.6
	c-2.6-5-5.1-10-7.7-14.9c-0.7-1.3-1.3-2.9-0.4-4.1C1207.5,33.8,1209.2,33.7,1210.7,33.6z"/>
<path class="st2" d="M1196.8,2.8c3.1-1.4,6.5-2.3,9.9-2.8c0.5,3-1.1,5.9-2.7,8.6c-1.8,3.1-3.5,6.2-5.3,9.3
	C1196.9,13.1,1195.1,7.8,1196.8,2.8z"/>
<path class="st2" d="M1209,18.6c1.5,0.5,3.3,0.1,4.3-1c1.1-1.1,1.3-2.7,0.5-4c-1.4-0.3-2.7-0.6-4.1-0.8
	C1209,14.7,1208.7,16.7,1209,18.6z"/>
<path class="st2" d="M1239.4,16.3c2.2-0.9,2.8-4,1-5.5c-1.5-1.2-4.3-1-5.4,0.6c-1,1.1-0.9,2.9,0.1,4
	C1236.1,16.5,1238,16.9,1239.4,16.3z"/>
<path class="st2" d="M1184.7,68.1c1.6-1.6,1.5-4.3,0-6c-2-2.2-5.8-2.5-8.5-1.2c-1.3,2,0.4,4.9,3,5.1c-0.7,1.2,0.2,2.7,1.6,3.2
	C1182.1,69.6,1183.7,69.1,1184.7,68.1z"/>
<path class="st2" d="M1172.1,28.1c1.9,0.3,4.2-0.2,5.7,0.9c1.6,1.2,1.2,3.4,1.4,5.3c0.2,2.5,1.8,4.8,4,6.3c1.4,0.9,3.2,1.7,3.3,3.3
	c0,0.9-0.7,1.7-1.7,2.2c-0.9,0.4-2,0.5-3,0.5c-2.6,0-5.6-0.6-6.9-2.7c-1.1-1.7-0.8-3.8-0.6-5.7s-0.2-4.2-1.9-5.3
	c-2-1.2-4.6-0.3-7-0.7c-3.4-0.5-5.8-4.1-4.7-7c1.8-1,4-0.4,5.8,0.5C1168.4,26.6,1170.1,27.8,1172.1,28.1z"/>
<path class="st2" d="M1149.5,16.6c0.6,1.2,2.1,1.9,3.6,2c1.5,0.1,2.9-0.3,4.3-0.7c0.2-1.5-0.3-3.1-1.5-4.2s-3.1-1.5-4.7-0.8
	C1149.7,13.4,1148.8,15.2,1149.5,16.6z"/>
<path class="st2" d="M1141.8,11.1c-1.5-0.4-3.3-0.3-4.5,0.6s-1.6,2.7-0.5,3.8c0.9,0.9,2.4,1,3.8,1.1
	C1141,14.9,1141.4,13,1141.8,11.1z"/>
<path class="st2" d="M1180.6,118c-2.5,0.6-5.4,0.9-7.6-0.4c-1.3-0.8-2.1-2.1-3.1-3.1c-2.2-2.3-5.8-3.4-9.1-2.8
	c-1.1,0.2-2.2,0.6-3.4,0.7c-1.2,0.1-2.4-0.1-3.2-0.9c-0.8-0.8-0.6-2.3,0.4-2.7c1.5,0.7,3.1-0.9,3.3-2.3s-0.2-3.1,0.4-4.4
	c0.8-1.6,2.8-2.4,4.6-2.4c1.9,0,3.7,0.6,5.4,1.3c3.6,1.3,7.6,3,8.7,6.4c2.3,0.3,4.7,0.6,6.7,1.7c2,1.1,3.4,3.4,2.6,5.3
	C1185.7,116.5,1183,117.4,1180.6,118z"/>
<path class="st2" d="M1136.1,65.7c6.4,1.4,12.6,3.8,17.8,7.5c5.1,3.7,9.1,8.8,10.7,14.6c-8.6-2-17.9-4.3-23.3-10.7
	c-2.9-3.4-4.7-7.9-9.1-9.5c-0.4-0.8,0.3-1.7,1.2-2C1134.2,65.3,1135.2,65.5,1136.1,65.7z"/>
<path class="st2" d="M1137.3,57.8c0.6,0.9,1.3,1.9,2.3,2.5c1.9,1,4.4,0.4,6.3-0.6s3.7-2.3,5.9-2.7c0-1.1,0-2.2,0-3.3
	c-2.9-2-7.2,0.6-10.7-0.2c-1.5-0.3-2.7-1.2-4-1.9c-1.3-0.7-3-1.1-4.3-0.5C1134.3,53.2,1135.8,55.5,1137.3,57.8z"/>
<path class="st2" d="M1142.6,24.4c1.4,0.3,2.9,0.9,3.4,2.1c-6.1,3.2-12.3,6.3-18.4,9.5c-0.2-5.2-0.5-10.4-0.7-15.5
	C1132.1,21.8,1137.4,23.1,1142.6,24.4z"/>
<path class="st2" d="M1088.1,127.4c6.6-0.2,13.4-0.4,19.7,1.6c6.2,2.1,11.8,6.9,12.1,12.9c-4.9,1.1-9.8,2.2-14.7,3.3
	c-2-3.1-3.5-6.5-4.3-10.1C1096.7,132.6,1092.4,130,1088.1,127.4z"/>
<path class="st2" d="M1087.1,122.7c-1.6-3.8-5.6-6.7-10-7.4c-0.4,2.3,0.6,4.8,2.7,6.3S1084.7,123.5,1087.1,122.7z"/>
<path class="st2" d="M1100.2,53.4c-2,5.5-8.3,9.4-14.8,9.2c-2-2.8,0.2-7.2,3.9-7.7C1092.1,52.4,1096.7,51.8,1100.2,53.4z"/>
<path class="st2" d="M1093.1,15.7c3.8,4.8,7.8,9.9,8.6,15.7c-0.8,2.1-3.5,3.5-6,3.1c-5.5-9.2-12.1-17.9-19.6-25.9
	c2.8-1.8,6.9-1.3,9.9,0.3C1089,10.6,1091.1,13.2,1093.1,15.7z"/>
<path class="st2" d="M981.5,125.4c-2.1-4.3-6.8-7.3-11.8-8.9s-10.3-1.9-15.6-2.2c-2.4-0.1-5-0.2-6.9,1c-2,1.2-2.5,4.3-0.5,5.4
	c-10.2,2.7-18.7,10.3-21.6,19.5c15,4.3,30.8,6.5,46.6,6.5c1.3-2.8-1.6-5.5-4.2-7.4c5.9,2.3,13.2,1.3,18.2-2.3
	c5-3.6,7.5-9.8,6.3-15.5c-0.2-1.2-0.9-2.5-2.2-2.8c-1.5-0.3-2.7,0.9-3.2,2.2s-0.5,2.7-1.3,3.8C984.5,125.9,982.4,126.5,981.5,125.4z
	"/>
<path class="st1" d="M741.4,174.8c1,2.4,0.5,4.9,0.2,7.4c-0.3,2.5-0.2,5.2,1.6,7.1c2.2,2.2,6,2.4,9.3,2.2c0-4.1-5.2-7.3-4.3-11.3
	c0.3-1.4,1.4-2.5,1.6-3.9s-1.2-3.1-2.6-2.4c0.2-3.8,1-7.6,2.5-11.2c-2.5-0.2-5.1-0.2-7.3,0.7c-2.3,0.9-4.1,3-3.9,5.2
	C738.5,170.9,740.5,172.7,741.4,174.8z"/>
<path class="st1" d="M667.3,131.3c2,1.8,4.1,3.6,6.1,5.4c0.2-4.6,0.3-9.2,0.5-13.8c-1.8-0.4-3.7-0.7-5.6-0.5c-1.9,0.3-3.7,1.4-4.1,3
	C663.5,127.7,665.5,129.7,667.3,131.3z"/>
<path class="st7" d="M348.3,144.3c-0.1,2.4,0.1,4.8,0.6,7.1c0.2,0.9,0.5,1.9,1.1,2.7s1.7,1.3,2.7,1.1c1.6-0.3,2.3-2,3-3.4
	c0.6-1.4,2.4-2.8,3.8-2c1.5-2.2,2.2-4.8,1.9-7.4c-2.7-0.4-3.3-4-5.7-5.2c-1.9-1-4.5-0.1-5.8,1.5
	C348.6,140.3,348.3,142.3,348.3,144.3z"/>
<path class="st7" d="M354.8,230.2c0,0.8,0.3,1.5,0.6,2.2c1.5,3.4,3,6.7,4.6,10.1c2.1,0.9,4.6-0.4,5.6-2.2c1-1.8,0.9-4,0.4-6
	c-0.4-1.8-1-3.6-2.1-5.1c-1.2-1.5-3.1-2.6-5.2-2.5C356.7,226.9,354.8,228.4,354.8,230.2z"/>
<path class="st7" d="M360.8,339.9c-1.3,2-0.5,4.9,1.8,6c1.2,0.6,2.6,0.7,4,1.1c4.6,1.4,7.1,6.6,5.2,10.5c-1.4,0.3-2.9-0.5-3.8-1.6
	c-0.9-1-1.6-2.3-2.8-3.1c-2-1.4-4.7-1.2-7.1-1.9c-4.2-1.2-6.8-5.7-5.6-9.5C355.1,340.6,358,340,360.8,339.9z"/>
<path class="st7" d="M351.8,332.8c-1.1-2.6,0.1-5.4,0.2-8.1s-1.7-6.1-4.7-5.8c-1.4-1.6-1.8-3.8-1-5.7c2.8,0.4,5.6-1.1,7.3-3.1
	c1.7-2,2.6-4.5,3.4-7c1-2.9,1.4-6.8-1.6-8c-3.1-1.2-6,1.9-7.7,4.5c0.5-10.9,0.9-21.9,1.4-32.8c-1.5-2.2-5.6-1.7-7.3,0.4
	s-1.8,4.9-1.8,7.5c0,12.2,0.1,24.5,0.1,36.8c-1.1,0.2-2.1,0.3-3.2,0.5c1.6,4.2,3.2,8.5,4.9,12.7c0.8,2.2,1.7,4.4,3.4,6.1
	C346.6,332.3,349.3,333.4,351.8,332.8z"/>
</svg>
