<?xml version="1.0" encoding="utf-8"?>
<!-- Generator: Adobe Illustrator 24.0.0, SVG Export Plug-In . SVG Version: 6.00 Build 0)  -->
<svg version="1.1" id="Layer_1" xmlns="http://www.w3.org/2000/svg" xmlns:xlink="http://www.w3.org/1999/xlink" x="0px" y="0px"
	 viewBox="0 0 1365 770" style="enable-background:new 0 0 1365 770;" xml:space="preserve">
<style type="text/css">
	.st0{fill:#065A7F;}
	.st1{fill:#E0AB5F;}
	.st2{fill:#219AAA;}
	.st3{fill:#D86868;}
	.st4{fill:#375429;}
	.st5{fill:#E5CA7F;}
	.st6{fill:#D4CDB1;}
	.st7{fill:#64B0EE;}
</style>
<path class="st0" d="M455.79,533.58c-1.42,0.01-2.85-1.42-2.85-2.14c-2.17-9.32-7.16-15.76-10.03-23.64
	c-4.3-10.74-3.64-22.23-11.49-32.24c-2.14-1.43-1.45-6.45-2.87-8.6c-8.55-7.86-10.72-17.89-17.15-27.2
	c-1.51-3.03-4.78-4.63-7.08-7.06c-1.49,1.03-3.03,2.01-4.55,2.95c-2.61,1.63-5.31,3.29-8.4,3.89c-3.1,0.62-6.75-0.07-8.58-2.4
	c-2.98-3.76-0.01-9.67-3.19-13.3c-3.19-3.63-9.46-2.13-14.59-1.97c-6.71,0.21-13.04-2.49-19.07-5.12c1.53-1.02,3.07-2.03,4.59-3.04
	c-2.52-2.56-5.87-4.43-9.54-5.33c-9.1-1.37-18.22-2.72-27.33-4.09c1.43-3.2,0.88-7.12-1.65-9.71c-2.55-2.59-7.06-3.52-10.47-1.93
	c0.45-3.23-3.8-5.42-7.42-5.49c-3.62-0.05-7.29,1.04-10.8,0.25c-3.2-0.74-5.69-2.93-8.46-4.56c-9.19-5.36-21.1-4.28-31.96-3.01
	c0.79-6.32,9.46-9,16.54-9.03c7.08-0.04,15.03,0.87,20.4-3.29c2.28-1.75,3.76-4.26,6.11-5.93c3.56-2.54,8.43-2.8,12.89-3.59
	c4.47-0.78,9.39-2.74,10.6-6.68c1.61-5.29-4.22-9.71-7.84-14.13c-6.02-7.37-6.15-18.19-0.32-25.67c1.58-2.02,3.65-4.3,2.86-6.65
	c-0.83-2.48-4.29-3.36-5.88-5.51c-3.14-4.27,2.67-9.79,1.64-14.82c-0.6-2.92-3.38-5.04-6.05-6.8
	c-15.48-10.29-33.3-17.73-52.01-21.75c-5.54,3.45-13.29,0.22-18.54-3.58c-5.26-3.79-12.59-7.74-18.16-4.34
	c-2.18,1.33-3.52,3.55-5.75,4.77c-2.24,1.23-6.12,0.49-6.09-1.86c6.48-11.74,10-24.79,10.24-37.9c3.71-1.57,4.92-5.69,5.71-9.31
	c3.55-16.28,7.08-32.57,10.63-48.84c-5.87-1.33-10.67,4.31-12.83,9.4c-2.16,5.07-4.38,11.19-10.18,12.76
	c2.96,2.46,1.4,7.02-1.28,9.72c-2.67,2.72-6.33,4.83-7.74,8.23c-1.3,2.25-4.78,2.6-7.51,1.94c-2.73-0.66-5.27-2-8.09-2.08
	c-2.82-0.09-6.02,1.93-5.44,4.4c-2.19-2.56-6.18-3.44-9.74-3c-3.56,0.44-6.82,1.98-10.01,3.49c1.38,6.67-6.98,13.24-14.14,11.14
	l0,2.42c-5.17,0.51-8.06,5.43-10.42,9.63c-2.36,4.18-6.39,8.81-11.52,7.95c-0.15-5.17-0.3-10.33-0.44-15.49
	c-0.04-1.33-0.48-3.05-1.94-3.16c-1.56-0.11-2.24,1.7-3.37,2.66c-1.65,1.42-4.29,0.92-6.56,0.8c-8.51-0.48-16.53,6.73-15.99,14.38
	c-5.38,1.94-10.12,5.29-13.5,9.52c-0.01-3.43-0.03-6.87-0.04-10.3l-12.25,1.72c-1.49-3.15-5.99-4.81-9.52-3.54
	c-2.58,3.48-5.17,6.95-7.75,10.43c0.48-11.32,5.7-22.4,14.38-30.61c-3.5-5.91-10.1-10.25-17.42-11.45
	c3.34-7.91-2.87-17.01-11.26-20.88c-7.66-3.52-16.55-3.81-25.21-3.74L0,669.18c0.27,0.52,0.54,1.06,0.82,1.58
	c3.04-1.97,7.35,0.91,8.4,4.14c1.06,3.24,0.37,6.78,1.49,9.99c1.12,3.21,5.57,5.97,8.51,3.87c1.65-1.19,1.94-3.31,2.27-5.2
	c0.78-4.57,2.51-9.01,5.07-13.02c1.79-2.79,4.96-5.69,8.38-4.74c2.88,0.79,4.07,4.03,3.55,6.68c-0.52,2.66-2.24,4.98-3.43,7.46
	c-1.19,2.49-1.8,5.5-0.17,7.78c3.31,1.1,7.84,1.85,9.67-0.85c0.83-1.23,0.75-2.77,1.16-4.16c0.75-2.45,3.28-4.36,6.1-4.58
	c2.8-0.23,5.69,1.25,6.9,3.52c0.86,1.61,1.13,3.72,2.92,4.5c1.74,0.74,3.77-0.36,5.07-1.65c1.3-1.29,2.4-2.88,4.2-3.49
	c2.58-0.87,5.53,0.74,6.82,2.92c1.28,2.18,1.33,4.77,1.34,7.25c0.01,2.4-0.46,5.42-3.03,6.08c-2.15,4.73-4.28,9.44-6.42,14.17
	c-3.44,2.62-4.19,7.36-2.73,11.22c1.47,3.84,4.75,6.92,8.31,9.43c6.75,4.76,14.71,7.91,22.57,10.99c7.14,2.81,14.53,5.68,22.33,5.75
	c2.49,0.01,5.07-0.24,7.44,0.46c3.92,1.15,6.38,4.6,9.79,6.67c5.16,3.14,12.67,2.65,17.28-1.11c0.66,1.23,1.3,2.46,1.95,3.68
	c4.5-0.13,9.16-0.31,13.14-2.18c3.98-1.87,7.06-5.96,5.93-9.87c2.96,3.35,7.03,7.1,11.55,8.49c2.4,0.74,5.05,1.15,7.48,0.44
	c2.41-0.7,4.49-2.77,4.31-5.05c-0.15-2-1.83-3.58-3.35-5.04c-7.14-6.82-12.86-14.81-16.77-23.48c16.84,5.4,37.07,0.84,49.07-11.07
	c1.24-1.22,2.41-2.53,4.01-3.33c1.59-0.8,3.76-0.98,5.16,0.08c1.4,1.04,1.28,3.5-0.43,4.04c4.66-0.52,9.54-1.11,13.41-3.51
	c3.86-2.41,6.3-7.23,4.14-10.99c2.22,2.67,7.09,2.12,9.92-0.04c2.82-2.16,4.31-5.37,6.27-8.19c1.97-2.83,4.98-5.53,8.69-5.5
	c1.12,0,2.26,0.27,3.34-0.03c2.43-0.64,2.97-3.45,3.07-5.72c0.45-9.53,0.7-19.73-4.88-27.86c-2.07-3.01-4.87-5.6-6.81-8.69
	c-1.94-3.09-2.89-7.03-1.01-10.15c-3.28,1.79-8.23,0.05-9.3-3.26c7.5-0.81,13.11-7.08,14.86-13.68c1.74-6.6,0.45-13.51-0.85-20.21
	c-1.88-9.62-3.74-19.24-5.61-28.86c-0.34-1.75-0.21-3.98-0.52-5.73c-4.28-0.84-7.17-4.7-7.85-8.59c-0.67-3.9,0.39-7.85,1.45-11.66
	c1.12-4.06,3.82-9.12,8.41-8.46c3.73,0.52,5.3,4.66,4.98,8.04c-0.33,3.36-1.77,6.74-0.99,10.04c0.86,3.55,4.11,6.2,5.94,9.46
	c4.29,7.65,0.22,17.6,4.9,25.07c1.86,2.99,4.95,5.25,6.73,8.26c1.77,3.03,1.56,7.57-1.88,9c-1.52,0.64-3.37,0.53-4.74,1.4
	c-2.04,1.31-1.95,4.14-0.87,6.17c1.07,2.04,2.89,3.74,3.75,5.85c1.64,3.94-0.28,8.25-1.79,12.24c-1.52,3.98-2.45,8.84,0.64,12
	c2.34,2.4,6.2,2.95,9.39,4.35c7.3,3.22,10.79,10.7,13.17,17.69c2.4,6.99,4.6,14.57,10.8,19.3c-3.02-3.54,0.39-9.33,5.29-10.06
	c4.89-0.72,9.71,2.57,11.62,6.69c1.91,4.11,1.49,8.81,0.41,13.16c-5.6-1.74-12.16,3.72-10.67,8.88c0.8,0.36,1.59,0.71,2.4,1.06
	c0.71,1.96-1.01,4.02-3.03,5.01c-2.01,1-4.35,1.41-6.27,2.52c-5.63,3.29-4.9,11.49-0.29,15.87c4.62,4.39,11.55,5.96,18.09,7.34
	c1.41,6.4,7.42,11.56,14.56,12.71c4.29,3.35,8.58,6.68,12.87,10.03c4.43-2.32,9.4,3.11,14.51,2.83c2.86-0.16,5.16-2.07,7.15-3.91
	c5.26-4.79,10.42-10.01,12.71-16.41c2.28-6.4,0.97-14.32-4.97-18.4c5.2-0.43,9.72-4.51,10.16-9.18c-2.34-0.58-4.8-0.72-7.2-0.47
	c2.74-1,4.23-4.78,2.06-6.83c2.61-0.51,4.47-3.13,3.89-5.48c-0.6-2.34-3.52-3.99-6.12-3.44c-0.47-18.21-4.2-36.36-11-53.53
	c-3.83-0.2-6.33-4.09-6.03-7.53c0.3-3.44,2.56-6.45,4.76-9.29l17.66-22.81c3.7-4.78,7.74-9.8,13.74-11.96
	c1.97-0.71,4.16-1.11,5.72-2.4c1.56-1.29,2.03-3.91,0.22-4.93c2.03-0.25,4.05-0.49,6.08-0.75c2.18-1.57,2.07-4.57,1.37-7
	c-0.7-2.42-1.79-4.98-0.91-7.37c0.88-2.37,5.01-3.71,6.41-1.52c1.68,2.59,6.84-0.01,8.4-2.66c2.61,0.4,6.04-1.18,5.47-3.51
	c3.65-1.59,7.3-3.19,10.95-4.79C459.63,545.7,455.82,540.47,455.79,533.58z"/>
<path class="st1" d="M876.45,184.04c-2.23-0.33-4.44-1.1-6.55-1.86c1.73-3.7-1.95-7.87-6.15-9.23c-4.2-1.37-8.82-0.99-13.23-1.66
	c-15.22-2.35-26.15-17.05-41.61-17.14c-5.62-0.02-10.98,1.95-16.17,3.91c-8.21,3.09-17.58,7.44-18.93,15.35
	c9.04-1.46,18.07-2.91,27.11-4.37c6.43-1.04,13.4-2.02,19.2,0.67c5.35,2.47,8.55,7.56,10.75,12.61c2.2,5.04,3.76,10.41,7.23,14.83
	c3.14,4.02,7.64,7,11.27,10.67c3.62,3.67,6.45,8.61,5.12,13.36c-0.76,2.68-3.43,5.25-6.46,4.78c-3.35-0.51-5.69-4.4-9-3.76
	c-3.03,0.6-3.46,4.59-1.79,6.93c1.69,2.34,4.56,3.78,6.46,5.99c2.85,3.28,3.14,7.73,3.54,11.87c1.34,13.83,5.12,27.45,11.17,40.22
	c-2.4,4.65-1.13,10.63,3,14.17c-0.31,1.93-3.26,2.61-5.21,1.77c-1.95-0.84-3.18-2.58-4.57-4.06c-1.39-1.49-3.36-2.88-5.49-2.59
	c-2.97,0.42-4.17,3.56-5.11,6.13c-0.95,2.55-3.29,5.5-6.16,4.71c-0.33-2.2-0.67-4.38-1-6.58c-1.34,0.01-2.7,0.02-4.04,0.02
	c-1.71-2.1,1.42-5.51,4.04-4.42c-1.6-5.5-3.22-10.99-4.83-16.51c1.97-0.02,3.93-0.05,5.89-0.08c0.66-4.03-0.23-8.24-2.47-11.78
	c-5.46-8.69-17.35-11.91-28.12-14.37c0.36-3.6-1.7-7.31-5.12-9.21c-3.42-1.92-8.02-1.92-11.46-0.03c-3.23-0.24-6.43-2.79-7.91-5.38
	c-1.46-2.6-2.57-5.51-5.07-7.39c-2.48-1.87-7.01-1.96-8.38,0.69c3.19,6.88,6.37,13.78,9.56,20.66c-8.49-0.8-14.12-7.93-19.84-13.66
	c-5.7-5.72-15.15-10.76-22.29-6.55c1.65-2.77,0.65-6.43-1.87-8.59c-2.52-2.17-6.28-2.92-9.72-2.48c8.76-5.9,10.34-18.71,3.24-26.21
	c-0.24,3.05-5.71,3.48-7.83,1.09c-2.12-2.39-1.79-5.79-1.33-8.83c0.46-3.02,0.85-6.42-1.22-8.86c-1.76-2.1-4.85-2.87-7.16-4.49
	c-6.14-4.26-5.31-12.65-3.88-19.5c-6.55,1.49-13.65-4.53-12.4-10.5c-5.93,0.07-11.86,0.14-17.79,0.21
	c-12-13.05-30.61-20.99-49.44-21.1c6.82,4.15,12.24,10.16,15.34,17.03c5.86,5.78,11.72,11.57,17.6,17.36
	c3.35,3.3,6.75,6.67,8.85,10.72c3.41,6.6,3.08,14.49,7.13,20.8c5.33,8.3,17.77,13.31,18.29,22.88c0.28,5.01-2.99,9.51-5.29,14.07
	c-4.57,9.01-5.53,19.44-2.7,29.01c1.85,6.25,5.3,12.26,5.3,18.73c0,6.58-3.52,12.68-6.98,18.48c-0.6,1.01-1.2,2.02-1.8,3.02
	c13.45,0.15,27.45,1.49,40.83,2.84c45.44,5.74,88.75,21.52,134.19,17.94c9.94-0.72,19.17-10.76,19.17-23.68
	c0-0.72,1.42-2.87,1.42-4.3C881.09,252.98,882.07,218.19,876.45,184.04z"/>
<path class="st2" d="M909.18,291.25c2.13,0.72,3.55-2.15,6.39-2.15c23.43-2.15,46.86-5.74,70.29-2.15
	c12.78,2.15,23.43,7.89,36.92,10.76c10.65,2.87,21.3,10.76,26.98,20.81c13.49,22.96,14.2,50.22,25.56,74.61
	c9.6,20.1,33.11,26.13,53.9,23.29c-4.75-5.52-8.91-11.32-11.3-18.27c-7.1-19.37-12.78-38.74-14.2-59.55
	c-1.32-15.95-6.89-31.9-8.27-48.42c-1.72-0.81-3.31-1.94-3.65-3.62c-0.54-2.75,2.75-4.96,5.83-5.36c3.07-0.42,6.29,0.2,9.29-0.54
	c3-0.74,5.69-3.83,4.09-6.22c4.27,2.12,9.94-0.65,11.92-4.65c1.98-4,1.24-8.65,0.07-12.9c-1.16-4.26-2.74-8.56-2.3-12.92
	c0.5-4.81,3.38-9.17,4.05-13.95c0.68-4.78-2.38-10.75-7.73-10.64c10-0.99,15.88-13.39,9.73-20.56c5.02-2.93,11.33-4,17.18-2.91
	c2.96-6.4-0.09-13.66-3.12-20.03c-2.2-4.64-4.71-9.58-9.56-12.11c-5.52-2.86-12.38-1.75-18.72-1.43c-6.36,0.32-13.93-0.9-16.65-6.08
	c-4.08-0.74-7.33-6.47-8.68-10.01s-1.89-7.39-4.05-10.6c-2.15-3.2-6.71-5.6-10.47-3.99c-2.89-6.56-7.13-12.65-12.43-17.86
	c-2.12-2.08-5.6-4.15-8.14-2.46c-1.58,1.05-1.83,3.06-1.91,4.84c-0.36,7.12-0.27,14.26,0.24,21.39c-0.53,2.56-0.02,5.28,1.4,7.53
	c2.29,0.36,4.57,0.72,6.85,1.07c3.06,4.77-0.55,10.83-5.1,14.52c-4.53,3.69-10.25,6.57-12.94,11.52
	c-2.48,4.53-1.73,10.33,1.85,14.24c1.91,2.08,4.84,3.69,7.82,3.33c3-0.38,5.53-3.36,4.36-5.86c1.42-0.03,2.82-0.07,4.23-0.1
	c-1.07,2.23,0.68,4.65,2.01,6.76c1.32,2.11,2.05,5.26-0.22,6.57c-2.55,1.49-5.57-0.99-8.43-1.9c-4.38-1.4-9.3,1.33-11.49,5.01
	c-2.19,3.67-2.31,8.03-2.39,12.2c-0.1,5.16-0.19,10.31-0.29,15.47c-0.05,2.33-0.42,5.15-2.78,6.14c-2.3,0.97-4.86-0.48-7.24-1.28
	c-2.37-0.8-6.05-0.17-5.97,2.12c-2.61-2.33-5.61-4.27-8.89-5.77c-3.46-10.8-6.79-22.96-0.73-32.77c1.59-2.56,3.65-6.08,1.18-8.02
	c-1.63-1.27-4.11-0.73-6.24-0.36c-7.57,1.32-15.35-0.57-22.7-2.68c-7.37-2.09-14.88-4.43-22.59-4.02
	c-7.69,0.42-15.75,4.38-17.87,11.04c0.77-12.28,0.84-26.24-9.01-34.79c-4.17-3.61-11.33-2.36-16.95-1.17
	c1.62-3.05-2.09-6.61-5.84-6.73c-3.75-0.12-7.12,1.94-10.16,3.91c0.77-2.76,1.54-5.71,0.45-8.39c-1.08-2.67-4.82-4.64-7.51-3.13
	c-1.31,0.74-2.02,2.09-2.64,3.38c-1.61,3.33-3.13,6.78-3.22,10.41c-0.07,3.62,1.55,7.48,5,9.34c-3.18,0.51-6.35,1-9.53,1.51
	c-0.04,2.8-0.07,5.58-0.09,8.38c2.66,0.6,5.69,1.44,6.85,3.68c1.61,3.05-1.55,6.7-5.2,7.42c-1.43,0.28-2.87,0.25-4.31,0.04
	c5.62,34.16,4.64,68.94-0.64,104.34c0,1.43-1.42,3.59-1.42,4.3c0,0.68-0.03,1.36-0.08,2.02
	C890.07,295.78,898.98,290.56,909.18,291.25z"/>
<path class="st3" d="M805.52,418.95c2.84-1.43,5.68-5.02,7.1-7.89c2.84-7.17,0.71-15.78,3.55-22.96c8.37-21.86,9.89-45.1,18.7-67
	c-38.65-1.08-76.17-13.44-115.26-18.37c-13.38-1.35-27.38-2.69-40.83-2.84c-5.14,8.63-10.28,17.26-15.42,25.88
	c-2.31-8.21,2.46-16.09,6.39-24.09c-14.92,7.06-30.38,10.07-44.57,18.26c-20.59,11.48-41.18,17.22-61.06,30.13
	c-4.26,2.87-8.52,4.3-12.07,6.46c-2.13,1.43-4.97,2.15-7.1,3.59c-3.55,1.43-7.1,5.02-10.65,6.46c-9.23,5.02-20.59,4.3-29.11,9.33
	c-28.58,14.79-57.84,20.59-88.46,16.72c1.94,6.62,5.04,12.94,9.22,18.51c-2.14-1.47-5.41,0.03-6.68,2.17
	c-1.26,2.14-1.3,4.68-1.98,7.02c-1.42,4.86-5.49,8.51-10.03,11.63c2.29,2.44,5.55,4.05,7.05,7.09c6.39,9.33,8.52,19.37,17.04,27.26
	c1.42,2.15,0.71,7.17,2.84,8.61c7.81,10.04,7.1,21.52,11.36,32.29c2.84,7.89,7.81,14.35,9.94,23.68c0,0.72,1.42,2.15,2.84,2.15
	c0,6.89,3.79,12.14,7.59,17.66c1.64-0.71,3.28-1.42,4.92-2.13c2.66-2.75,4.15-6.38,4.15-10.03c5.76,1.9,11.26,4.43,16.37,7.49
	c3.76,8.41,7.54,16.81,11.31,25.22c0.94,2.12,1.98,4.33,3.95,5.76c3.54,2.57,8.78,1.75,12.98,0.15c4.61-1.76,9.03-4.46,11.2-8.51
	c2.18-4.05,1.37-9.6-2.77-12.12c1.22-2.22-0.14-4.89-1.88-6.81c-1.74-1.92-3.93-3.66-4.71-6.03c-1.15-3.49,0.9-7.87-1.86-10.52
	c-1.37-1.3-3.49-1.68-5.19-2.63c-2.75-1.55-4.12-4.57-4.28-7.48c-0.15-2.91,0.74-5.78,1.61-8.58c1-3.21,2.02-6.47,4.18-9.18
	c2.14-2.71,5.65-4.8,9.33-4.51c3.95,0.28,7.38,3.15,11.33,2.94c2.85-0.15,5.25-1.87,7.91-2.81c4.57-1.63,9.82-0.9,14.29,0.97
	c4.45,1.87,8.24,4.76,11.98,7.63c-1.9,2.28-0.93,5.61,0.83,7.99c1.75,2.38,4.21,4.34,5.48,6.96c1.27,2.62,0.75,6.32-2.18,7.44
	c-0.03,0.94-0.07,1.86-0.12,2.8c2.79-0.89,6.24,0.51,7.33,2.99c1-0.02,1.97,0.1,2.92,0.32c20.13-8.49,42.21-7.24,64.3-10.72
	c16.33-2.15,31.95,1.43,47.57,2.87c22.72,2.87,49.7-3.59,53.96-28.7C757.24,467.02,776.41,437.61,805.52,418.95z"/>
<path class="st4" d="M925.51,548.81c4.26-15.07,7.81-31.57-2.13-45.2c-1.42-2.15-4.97-4.3-5.68-5.74
	c-10.65-17.94-27.69-16.5-44.73-19.37c-9.23-1.43-17.75-2.15-26.98,0.72c-9.23,2.15-17.04-2.87-26.27-4.3
	c-17.75-4.14-34.19-7.61-51.2-11.06c-7.48,12.68-12.73,26.82-15.54,41.91c-4.26,25.11-31.24,31.57-53.96,28.7
	c-15.62-1.43-31.24-5.02-47.57-2.87c-22.08,3.49-44.17,2.23-64.3,10.72c3.43,0.82,6.48,3.09,8.9,5.5c3.09,3.09,5.11,6.9,7.11,10.66
	c2.2,4.16,4.45,8.76,3.15,13.22c-0.53,1.78-1.61,3.39-2.33,5.12c-2.74,6.44-0.03,14.41,6.24,18.4c-1.13,5.94-0.56,12.13,1.64,17.83
	c0.68,1.76,1.52,3.53,1.51,5.39c-0.03,4.23-4.29,7.32-6.35,11.12c-2.6,4.78-1.28,11.03,3.05,14.65c-0.27,3.71,2.44,7.32,6.18,8.95
	c3.73,1.64,8.25,1.41,12.04-0.1c6.78-2.69,12.21-9.28,19.57-8.51c3.41,0.36,6.32,2.33,9.13,4.12c11.67,7.43,24.77,13.04,38.55,16.49
	c-0.55,7.31-1.15,15.13-1.7,22.44c3.42,0.91,6.18-2.79,6.67-5.97c0.48-3.19,0.24-6.87,2.87-9.05c2.59-2.13,6.59-1.67,10.1-1.94
	c3.5-0.27,7.67-2.59,6.73-5.64c4.5,3.74,9,7.48,13.5,11.23c2.97,2.46,6.07,5.13,7.13,8.64c0.82,2.74,0.36,5.85,2.1,8.22
	c1.97,2.66,6.29,3.63,7.54,6.62c0.83,1.97,0.01,4.18,0.32,6.27c1.04,7.06,13.05,8.41,16.02,15.03c0.86,1.92,0.83,4.1,1.9,5.94
	c1.26,2.2,3.82,3.51,6.22,4.7c4.4,2.16,8.82,4.32,13.22,6.48c4.94,2.43,9.89,4.86,15.16,6.6c3.43-3.96,0.63-10.83-4.85-11.86
	c1.96-2.74,1.41-6.42-0.17-9.36c-1.58-2.94-4.06-5.4-5.99-8.15c-4.15-5.91-5.74-13.08-5.27-20.04c0.24-3.31,1.43-7.19,4.92-8.26
	c2.6-0.81,5.41,0.3,7.74,1.59c4.68,2.6,8.81,6.08,13.91,7.91c5.1,1.83,11.84,1.44,14.99-2.6c2.94-0.6,5.3,0.18,8.24-0.41
	c-0.55,2.25-1.09,4.48-1.64,6.73c0.98,0.41,1.96,0.8,2.95,1.19c-1.57,1.17-0.48,3.75,1.46,4.35c1.95,0.6,4.05-0.16,5.82-1.1
	c1.76-0.94,3.47-2.1,5.49-2.37c4.2-0.57,7.71,2.75,11.73,3.96c4.42,1.32,9.27,0.03,13.9,0.5c5.35,0.56,10.27,3.67,12.66,8.01
	c0.47,1.03,0.96,2.08,1.43,3.13c0.49,1.61,3,1.95,4.67,1.23c1.66-0.73,2.84-2.12,4.39-3.03c0.98-0.58,2.28-0.9,3.39-0.72
	c8.47-24.77,5.82-52.31,8.21-78.32C914.86,606.92,916.99,578.23,925.51,548.81z"/>
<path class="st5" d="M1322.95,651.25c-3.65-4.13-4.77-9.97-2.87-14.96c0.75-1.98,1.92-4.24,0.73-6.02c-1.04-1.54-3.3-1.89-4.96-2.89
	c-2.62-1.56-3.57-4.62-3.69-7.45c-0.14-2.81,0.34-5.69-0.32-8.45c-0.86-3.7-3.64-6.76-6.32-9.68c-0.79-0.86-1.58-1.72-2.37-2.57
	c-17.01,2.76-34.01,2.67-51.02-1.63c-8.52-2.15-17.04-5.74-25.56-8.61c-7.81-2.87-12.78-9.33-17.75-15.78
	c-23.43-35.15-41.89-68.88-51.12-110.49c-0.71-1.43-2.84-4.3-3.55-6.46c-2.13-4.3-3.55-9.33-6.39-13.63
	c-5.75-8.72-13.41-15.76-19.94-23.34c-20.79,2.84-44.3-3.19-53.9-23.29c-11.36-24.39-12.07-51.66-25.56-74.61
	c-5.68-10.04-16.33-17.94-26.98-20.81c-13.49-2.87-24.14-8.61-36.92-10.76c-23.43-3.59-46.86,0-70.29,2.15
	c-2.84,0-4.26,2.87-6.39,2.15c-10.2-0.69-19.1,4.54-29.19,5.61c-0.9,11.93-9.67,20.97-19.09,21.65c-6.35,0.5-12.65,0.61-18.93,0.44
	c-8.81,21.9-10.33,45.15-18.7,67c-2.84,7.17-0.71,15.78-3.55,22.96c-1.42,2.87-4.26,6.46-7.1,7.89
	c-16.35,10.48-29.56,24.35-39.13,40.59c17.02,3.45,33.46,6.92,51.2,11.06c9.23,1.43,17.04,6.46,26.27,4.3
	c9.23-2.87,17.75-2.15,26.98-0.72c17.04,2.87,34.08,1.43,44.73,19.37c0.71,1.43,4.26,3.59,5.68,5.74
	c9.94,13.63,6.39,30.13,2.13,45.2c-8.52,29.42-10.65,58.11-14.2,88.25c-2.39,26.01,0.26,53.55-8.21,78.32
	c0.65,0.1,1.23,0.37,1.65,0.86c0.79,0.94,0.63,2.32,1.43,3.25c1.02,1.2,3.2,1.03,4.5,0.07c1.29-0.97,1.9-2.46,2.46-3.87
	c0.05,2.67,2,5.24,4.76,6.26c0.21-0.62,0.42-1.22,0.63-1.83c1.66,1.55,4.7,0.94,6.41-0.56c1.69-1.52,2.47-3.63,3.54-5.56
	c1.07-1.92,2.68-3.85,5.04-4.24c2.89-0.48,5.55,1.58,7.21,3.77c1.66,2.18,2.93,4.74,5.34,6.26c2.42,1.51,6.58,1.18,7.43-1.35
	c4.19-12.46,23.17-16.79,37.65-17.36c0.98-0.04,2.01-0.06,2.86-0.48c1.66-0.82,2.07-2.75,2.3-4.45c1.04-7.6,2.09-15.2,3.13-22.82
	c2.26,1.35,5.37,1.42,7.69,0.17c2.33-1.25,3.73-3.76,3.47-6.17c0.66-0.1,1.33-0.21,2-0.3c3.08-5.83,4.06-12.52,2.79-18.87
	c2.96,2.37,7.88,0.93,10.44-1.76c2.57-2.69,3.65-6.27,5.51-9.39c1.86-3.13,5.17-6.1,9.1-5.85c3.72,0.24,6.59,3.5,6.96,6.83
	c0.37,3.32-1.26,6.61-3.47,9.31c3.85,2.95,5.94,7.66,5.37,12.17c1.68,0.45,3.35,0.9,5.02,1.35c-0.02,1.1-0.02,2.2-0.04,3.29
	c5.52-1.76,8.66-6.81,11.74-11.27c3.07-4.47,7.38-9.16,13.23-9.31c0.41,5.56,0.82,11.11,1.23,16.66c0.14,1.84,0.13,3.98-1.47,5.15
	c-1.3,0.95-3.15,0.84-4.79,1.16c-4.12,0.79-7.13,4.75-6.44,8.48c6.69,0.74,10.43,7.05,15.14,11.39c5.73,5.3,13.72,8.03,21.44,10.59
	c8.53-2.67,18.45,2.53,21.56,10.16c-3.38-0.01-5.94,3.15-6,6.19c-0.07,3.04,1.7,5.85,3.68,8.32c1.96,2.47,4.21,4.85,5.33,7.72
	c0.83,2.11,1.23,4.71,3.43,5.77c1.5,0.73,3.32,0.46,5.02,0.32c7.02-0.61,14.27,1.47,19.62,5.6c2.21-2.09,5.23-4.38,8.27-3.41
	c1.55,0.5,2.63,1.75,3.77,2.81c4.33,3.97,11.06,5.7,17.07,4.4c6.01-1.31,11.09-5.62,12.92-10.93c7.46,2.25,16.52,2.25,23.74-0.52
	c3.28-1.26,6.57-3.28,7.51-6.37c0.91-2.97-1.72-6.74-5.01-6.44c2.18-0.39,3.71-2.48,3.86-4.51c0.19-2.16-0.74-4.26-1.67-6.26
	c-3.66-8-7.41-16.1-13.26-22.97c-5.86-6.87-14.19-12.47-23.74-13.6c6.49-1.49,13.26,0.48,19.58,2.43
	c13.04,4.01,27.19,8.79,34.06,19.54c2.28,3.55,4.14,8.01,8.52,9.16c3.77,0.97,7.6-1.07,10.88-3.02c5.81-3.46,11.62-6.93,17.43-10.4
	c4.45-2.66,9.05-5.45,11.93-9.51c3.4-4.85,4.62-11.66,10.47-13.95c3.61-1.43,7.77-0.53,11.71-0.63c3.93-0.12,8.59-2.2,8.5-5.74
	C1327.03,655.04,1324.67,653.2,1322.95,651.25z"/>
<path class="st6" d="M1359.11,540.85c-0.48-3.44-1.86-6.74-2.09-10.21c-0.22-3.38,0.69-6.72,1.22-10.07
	c1.2-7.49,0.58-15.13-0.04-22.69c-0.56-6.83-1.27-14.03-5.49-19.66c-3.87-5.16-10.6-8.88-11.76-15.08
	c-0.96-5.13,2.32-9.99,4.42-14.82c4.59-10.6,3.64-22.48,2.62-33.87c-0.61-6.66-1.32-13.63-5.26-19.21
	c-1.61-2.27-3.71-4.22-5.18-6.57c-2.14-3.41-2.84-7.51-2.42-11.45c0.9-8.45,7.12-16.23,15.59-19.46c-1.32-0.69-2.65-1.39-3.97-2.09
	c1.61-6.06-1.61-14.86-5.45-19.99c-3.83-5.15-10.76-8.38-17.41-7.45c-2.09-8.5,4.96-16.38,7.4-24.81
	c1.86-6.42,0.99-13.23,0.12-19.83c-0.97-7.22-1.93-14.46-1.9-21.72c0.04-9.39,1.73-18.75,5-27.62c2.98-1.85,2.03-6.06,0.79-9.18
	c-1.23-3.13-1.96-7.45,1.18-9.07c-0.91-0.29-1.8-0.58-2.71-0.88c0.01-2.96,0.01-5.92,0.02-8.88c-2.28-0.33-4.57-0.66-6.85-0.99
	c2.23-3.27,4.51-6.65,5.21-10.46c0.71-3.81-0.57-8.21-4.13-10.24c-2.66-1.51-6.11-1.49-8.66-3.16c-6.72-4.41-2.2-16.37-9.18-20.4
	c-3.12-1.81-7.38-0.97-10.32,1.11c-2.94,2.08-4.84,5.13-6.65,8.1c-0.71-9.81-1.44-19.61-2.15-29.43c-6.93,1.74-14.5,1.21-21.1-1.47
	c2.81-6.98-2.26-14.69-7.84-20.04c-5.59-5.37-13.1-8.57-20.41-11.66c-7-2.96-13.99-5.91-20.99-8.88c4.15,5.94,7.02,12.65,8.42,19.6
	c-4.81-2.06-9.62-4.11-14.43-6.17c2.34,5.59,6.45,10.54,11.69,14.07c-9-4.74-19.83-6.38-29.98-4.54
	c9.31,6.31,17.53,13.96,24.31,22.6c-2.61,2.67-7.29-0.06-9.58-2.96c-2.3-2.89-5.51-6.51-9.14-5.26c-2.53,0.86-3.52,3.85-2.87,6.28
	c0.67,2.41,2.54,4.36,4.33,6.21c7.82,7.98,15.63,15.95,23.45,23.94c-0.83,1.87-1.66,3.74-2.49,5.61
	c5.63,7.59,9.37,16.38,10.86,25.49c3.58,9.9-9.75,18.14-11.58,28.45c-1.03,5.85,1.79,11.62,4.48,16.99
	c2.71,5.38,5.39,11.25,4.07,17.05c-1.31,5.79-8.61,10.68-14.16,7.72c1.82,10.96-0.15,22.43-5.53,32.33
	c-1.54,2.83-3.37,5.58-4.05,8.69c-0.79,3.64,0.07,7.38,0.4,11.08c1.02,11.11-2.63,22.06-4.46,33.07
	c-2.48,14.93-1.58,30.34,2.62,44.94c-3.72-11.91-12.23-22.46-23.5-29.12c-3.09-0.48-6.17-0.95-9.26-1.43
	c1.63-2.97,0.06-7.06-3.23-8.4c-3.27-1.33-7.58,0.36-8.83,3.48c0.78-4.94-3.6-10.03-8.95-10.44c-0.27-1.86-0.55-3.74-0.81-5.61
	c-5.03-2.19-10.59-4.45-15.96-3.14s-9.17,8.13-5.26,11.8c-8.61-5.7-9.11-17.19-8.45-26.98c0.43-6.55,1-13.08,1.72-19.6
	c0.4-3.75,0.84-7.66-0.6-11.19c-3.57-8.65-15.63-10.29-24.73-14.12c-0.31-0.13-0.62-0.27-0.93-0.42c1.34,16.52,6.73,32.47,8,48.42
	c1.38,20.81,6.87,40.18,13.75,59.55c5.5,16.5,20.62,26.55,30.25,41.61c2.75,4.3,4.12,9.33,6.19,13.63c0.69,2.15,2.75,5.02,3.44,6.46
	c8.94,41.61,26.81,75.33,49.5,110.49c4.81,6.46,9.62,12.91,17.19,15.78c8.25,2.87,16.5,6.46,24.75,8.61
	c16.47,4.3,32.93,4.38,49.4,1.63c-4.36-4.9-8.73-9.81-13.09-14.7c2.17-0.86,2.55-3.79,1.29-5.65c-1.28-1.84-3.6-2.8-5.86-3.45
	c-2.25-0.65-4.63-1.13-6.53-2.44c-4.53-3.1-5.28-10.03-10.56-11.84c7.72-0.69,15.72,2.13,20.99,7.4c2.03,2.02,3.72,4.42,6.3,5.8
	c2.56,1.38,6.46,1.23,7.87-1.18c0.96-1.62,0.75-4.04,2.54-4.86c0.93-0.41,2.02-0.18,3.02,0.05c6.11,1.46,12.22,2.92,18.33,4.39
	c7.91,1.88,17.11-0.09,23.39-4.93C1355.58,558.01,1360.3,549.38,1359.11,540.85z"/>
<path class="st7" d="M669.74,299.53c1.16-2.35,2.24-4.72,3.05-7.1c3.5-10.36,1.74-21.51-0.22-32.21c-1.3-6.94-2.65-13.87-4.12-20.79
	c-3.49-16.62-8.6-34.78-24.07-44.43c-5.14-3.21-11.61-5.7-13.83-10.97c-1.65-3.96-0.34-8.44-1.23-12.59
	c-0.89-4.17-6.36-8.18-9.99-5.51c-2.85,2.1-1.8,6.11-1.51,9.42c0.28,3.31-2.57,7.72-5.87,6.23c-0.94-0.43-1.54-1.24-2.24-1.94
	c-3.87-3.99-11.16-4.85-16.04-1.9c-4.88,2.97-6.73,9.36-4.07,14.08c-1.5-0.02-3.01-0.04-4.51-0.06c-8.9-12.36-4.01-30.99,10.1-38.45
	c-3.86-0.65-7.86-1.35-11.03-3.43c-3.18-2.09-5.24-5.99-3.7-9.24c1.55-3.23,7.51-4.2,9.39-1.1c0.46-5.97-2.2-12.08-7.03-16.21
	c-5.69-4.86-6.42-11.96-10.21-18.12c-3.88-6.34-8.1-12.98-15.09-16.59c-1.55-0.8-3.41-1.45-5.11-0.95c-2.16,0.63-3.2,2.79-3.91,4.72
	c-4.49,12.36-5.98,25.59-4.33,38.51c2.92,22.7,15.36,44.62,12.31,67.29c-2.39-6.88-4.76-13.75-7.13-20.63
	c-1.13-3.27-2.77-7-6.43-7.93c-3.02-0.76-6.22,0.76-9.33,0.42c-4.14-0.47-6.97-4.18-7.76-7.87c-0.8-3.67-0.09-7.47-0.12-11.21
	c-0.05-8.81-4.35-17.55-11.56-23.51c-1.41-1.17-3.34-2.3-5.12-1.67c-1.94,0.7-2.34,2.92-3.15,4.65c-0.83,1.72-3.66,3.12-4.76,1.53
	c0.35-4.77,0.67-9.65-0.97-14.19c-1.64-4.53-5.7-8.7-10.96-9.3c-7.21-0.81-13.54,5.62-13.95,12.13c-1.6-2.03-3.31-4.15-5.82-5.18
	c-2.51-1.03-6.06-0.45-7.14,1.83c7.5,6.17,13.02,14.25,15.77,23.05c-6.29-3.36-13.96-3.82-20.75-6.31
	c-6.77-2.49-13.14-8.71-10.96-14.98c-8.53-1.2-16.85-3.66-24.51-7.25c5.93,15.36,11.85,30.73,17.53,46.18
	c2.27,6.21,4.51,12.43,6.75,18.67c1.83,5.07,3.64,10.13,5.47,15.2c4.45,12.38,8.9,24.76,13.35,37.14
	c-10.87-8.34-21-17.44-30.26-27.22c-4.7-4.96-3.53-11.84-3.43-18.35c0.1-6.51-1.02-13.85-6.78-17.79c-2.94-1.99-6.95-3-8.69-5.92
	c-1.36-2.28-0.92-5.17-2.28-7.46c-1.49-2.51-4.71-3.68-7.25-5.39c-4.96-3.33-7.34-8.83-10.25-13.74c-2.92-4.91-7.33-9.9-13.5-10.48
	c2.4,22.47,28.01,37.37,35.62,58.89c-7.54-4.08-13.61-10.32-17.11-17.58c-2.12-0.16-4.23-0.3-6.35-0.46
	c-0.55-4.74-4.82-8.94-10.02-9.85c0.56,11.63,9.7,21.27,17.95,30.26c8.23,8.99,16.44,19.72,14.62,31.25
	c-8.05-3.94-12.54-11.77-16.97-18.99c-4.41-7.21-9.92-14.77-18.64-17.31c-0.24-2.6-4.45-4.04-6.5-2.17
	c-2.03,1.87-1.79,5.01-0.34,7.28c1.44,2.27,3.81,3.9,5.95,5.66c9.42,7.74,15.18,18.96,15.59,30.41c-3.98-0.15-6.93-3.5-8.21-6.88
	c-1.28-3.39-1.49-7.08-3.01-10.38c-4.02-8.72-16.04-12.68-20.34-21.29c-1.6-3.18-2-6.76-3.74-9.87c-1.73-3.1-5.61-5.77-9.26-4.65
	c1.22,12.04,6.53,23.73,15.03,33.11c5.55,6.13,12.9,12.4,12.22,20.29c-0.39,4.55-3.41,9.59-0.41,13.28c1.27,1.6,3.4,2.44,4.99,3.81
	c1.57,1.36,2.47,3.87,0.86,5.2c-1.24,0.16-2.47,0.32-3.71,0.48c2.07,4.7,4.16,9.94,2.16,14.66c-2.61-5.98-9.61-10.21-16.78-10.09
	c1.1,8.2,5.18,16.05,11.47,22.06c-1.16,0.54-2.34,1.09-3.51,1.63c-1.53,6.89,5.33,12.65,9.7,18.48c3.42,4.58,5.49,9.87,7.52,15.07
	c1.22,3.15,2.46,6.52,1.61,9.77c-1.06,4.07-5.28,7.72-3.97,11.73c0.91,2.8,4.2,4.34,7.26,5.31c3.07,0.98,6.43,1.81,8.42,4.12
	c1.99,2.31,1.22,6.61-2,7c-2.34,4.88-4.29,11.42,0.28,14.79c3.85,2.83,9.56,1.21,14.14-0.53c-3.53,10.62-3.51,22.39-0.31,33.32
	c30.62,3.87,59.88-1.93,88.46-16.72c8.52-5.02,19.88-4.3,29.11-9.33c3.55-1.43,7.1-5.02,10.65-6.46c2.13-1.43,4.97-2.15,7.1-3.59
	c3.55-2.15,7.81-3.59,12.07-6.46c19.88-12.91,40.47-18.65,61.06-30.13C639.36,309.6,654.82,306.6,669.74,299.53z"/>
<path class="st4" d="M516.46,653.1c-1.87-0.95-4.39,0.05-5.5,1.7c-1.12,1.65-1.16,3.7-0.95,5.62c0.21,1.92,0.64,3.85,0.33,5.76
	c-0.25,1.52-0.95,2.96-1.23,4.48c-0.28,1.52-0.04,3.27,1.27,4.27c1.39,1.06,3.59,0.88,5.04-0.11c1.45-0.99,2.22-2.6,2.53-4.21
	c0.37-1.97,0.14-3.99-0.1-5.98c-0.13-1.07-0.26-2.14-0.38-3.21C517.13,658.65,516.79,655.87,516.46,653.1z"/>
<path class="st4" d="M547.37,654.92c-0.95,4.44-1.9,8.89-2.85,13.33c1.75,0.37,3.3-1.19,3.82-2.73c0.52-1.54,0.5-3.25,1.38-4.66
	c0.88-1.4,3.31-2.22,4.44-0.97c1.9,3.48,2.47,7.53,1.59,11.32c1.73,0.91,3.46,1.83,5.2,2.74c-1.86,2.61-3.72,5.22-5.59,7.83
	c2.84-0.39,5.57,2.45,4.73,4.92c2.36-0.3,4.85,1.07,5.62,3.1c1.82-1.27,4.62-0.64,6.25,0.83c1.63,1.47,2.36,3.53,3.05,5.5
	c2.22,6.41,4.44,13.28,2.34,19.72c-1.28,3.92-4.07,7.29-5.81,11.07c-1.74,3.77-2.24,8.53,0.75,11.61c0.72,0.75,1.63,1.38,2.09,2.28
	c0.58,1.15,0.31,2.48,0.03,3.72c-1.94,8.49-3.88,16.99-5.82,25.48c-2.32-0.7-4.65-1.4-6.97-2.1c0.41-11.44,0.81-22.88,1.22-34.31
	c0.05-1.53,0.01-3.29-1.29-4.28c-1.5-1.15-3.96-0.58-5.27,0.74c-1.31,1.32-1.78,3.13-2.19,4.87c-1.1,4.58-2.2,9.15-3.3,13.73
	c-0.22,0.93-0.53,1.97-1.46,2.43c-1.96,0.98-3.82-1.56-3.95-3.57c-0.21-3.15,0.77-6.25,1.08-9.4c0.3-3.14-0.25-6.64-2.85-8.76
	c-2.71-2.21-6.96-2.37-9.56-4.68c-3.35-2.97-2.49-7.93-1.38-12.05c0.37-1.39,1.08-3.06,2.66-3.22c1.41-0.14,2.54,1.09,3,2.3
	c0.46,1.21,0.58,2.56,1.41,3.6c0.83,1.04,2.82,1.48,3.6,0.41c-0.51-1.52-1.03-3.13-0.57-4.66c0.46-1.53,2.32-2.83,3.96-2.25
	c1.15,0.41,1.75,1.52,2.29,2.52c0.54,1,1.28,2.08,2.49,2.31c1.21,0.23,2.55-1.2,1.67-1.98c1.59,0.02,3.18,0.04,4.77,0.06
	c2.79-3.18,3.57-7.69,1.98-11.49c-4.31,1.69-8.63,3.39-12.94,5.08c-3.17-2.61-5.2-6.32-5.57-10.18c3.49,1.21,6.98,2.41,10.47,3.62
	c-2.2-4.87-8.15-8.14-13.97-7.69c1.75-6.56,0.68-13.69-2.94-19.6c-1.78-2.9-4.22-5.78-4.06-9.09c0.23-4.58,5.22-7.61,9.66-9.87
	c2.27-1.16,5.94-1.91,6.83,0.3C547.67,653.47,547.52,654.22,547.37,654.92z"/>
<path class="st4" d="M590.7,700.42c-0.66,1.5-0.48,3.18-0.7,4.78c-0.22,1.6-1.07,3.36-2.79,3.82c-0.51,1.56-0.03,3.35,1.21,4.54
	c1.24,1.19,3.2,1.72,4.97,1.36c5.09-4.07,7.42-10.74,5.84-16.7C596.48,696.4,591.95,697.57,590.7,700.42z"/>
<path class="st4" d="M534.77,630.56c3.4-3.88,7.53-7.24,12.17-9.89c1.71,1.92,5.12,1.43,7.53,0.28c2.41-1.15,4.74-2.83,7.47-2.78
	c3.53,0.07,6.18,3.06,7.27,6.08c1.09,3.02,1.17,6.3,2.45,9.26c1.59,3.68,4.93,6.65,6.18,10.44c1.38,4.18,0.01,8.63-0.43,12.98
	c-0.43,4.34,0.59,9.46,4.86,11.54c2.06,1,4.54,1.09,6.68,1.95c3.78,1.52,6.04,5.61,5.09,9.23c2.13-1.16,5.02,0.97,5.03,3.22
	c0,2.24-1.86,4.14-3.87,5.47c-3.4,2.25-7.54,3.57-11.76,3.76c-1.84-1.24-1.85-3.75-1.12-5.71c0.73-1.96,2.02-3.78,2.24-5.84
	c0.21-2.06-1.29-4.51-3.59-4.42c-1.98,0.07-3.26,1.91-3.82,3.62c-0.56,1.71-0.81,3.61-2.18,4.89c-1.79,1.67-5.13,1.52-6.94-0.13
	c-1.82-1.65-2.06-4.41-0.84-6.45c0.77-1.27,2.07-2.48,1.85-3.91c-0.24-1.51-2.1-2.42-2.58-3.89c-0.56-1.69,0.86-3.32,1.8-4.86
	c2.05-3.36,2.01-7.39,1.9-11.22c-0.04-1.43-0.17-3.04-1.4-3.95c-1.47-1.09-3.63-0.57-5.52-0.37c-4.63,0.49-9.48-1.52-12.07-5.01
	c-2.59-3.49-2.79-8.28-0.5-11.93C545.6,631.24,540.17,630.43,534.77,630.56z"/>
<path class="st4" d="M736.02,697.59c-1.42-2.14-1.96-4.9-4.19-6.38c-1.27-0.85-2.89-1.12-4.45-1.37
	c-7.19-1.16-14.38-2.33-21.57-3.49c-1.52-0.25-3.35-0.4-4.33,0.67c-0.89,0.96-0.55,2.49,0.38,3.42c0.93,0.93,2.27,1.41,3.57,1.86
	c4.11,1.42,8.22,2.85,12.33,4.27c3.48,1.21,7.24,2.62,9.02,5.57c0.74,1.23,1.08,2.65,2.03,3.75c1.15,1.34,2.99,2,4.74,2.61
	c2.09,0.72,4.22,1.45,6.45,1.52c2.23,0.07,4.62-0.65,5.88-2.31c1.26-1.66,0.91-4.3-1.05-5.26c-0.76-0.37-1.64-0.47-2.48-0.65
	C739.74,701.22,737.41,699.67,736.02,697.59z"/>
<path class="st5" d="M1040.06,683.19c-0.71,0.5-1.56,0.82-2.31,1.28c-1.06,0.65-1.93,1.66-2.02,2.81c-0.09,1.15,0.8,2.38,2.07,2.53
	c1.74,0.19,2.93-1.45,4.17-2.56c1.13-1.02,2.57-1.69,3.89-2.49s2.59-1.83,3.07-3.2c0.48-1.37-0.12-3.12-1.62-3.62
	c-1.56-0.51-3.25,0.5-4.25,1.7C1042.05,680.82,1041.37,682.26,1040.06,683.19z"/>
<path class="st5" d="M1049.13,667.16c-0.62,0.39-0.89,1.08-1.31,1.65c-0.41,0.57-1.21,1.07-1.89,0.77
	c-0.89-0.39-0.61-1.56-0.57-2.45c0.1-2.02-2.12-3.87-4.35-3.62c-2.23,0.25-3.88,2.54-3.22,4.47c0.49-0.28,1.2,0.09,1.31,0.6
	c0.11,0.51-0.23,1.03-0.71,1.32c-0.47,0.3-1.05,0.41-1.62,0.53c-0.36,0.39-0.15,1.01,0.28,1.33s1.01,0.41,1.56,0.48
	c2.1,0.3,4.2,0.59,6.3,0.89c0.05,0.69,0.65,1.26,1.34,1.56c0.69,0.29,1.48,0.35,2.24,0.41c1.15,0.09,2.43,0.13,3.31-0.53
	c0.93-0.7,1.05-1.93,1.11-3.02c0.06-1.16,0.1-2.39-0.53-3.4C1051.76,667.13,1050.19,666.5,1049.13,667.16z"/>
<path class="st5" d="M1355.6,716.55c3.03,3.72,9.72,5.74,9.39,10.34c-0.22,2.95-3.43,4.88-6.29,6.33
	c-6.01,3.05-12.55,6.21-19.41,5.5c-4.48-0.46-8.58-2.55-13.04-3.16c-4.46-0.62-9.99,1.05-10.88,5.02
	c-3.32,2.26-8.13,3.09-11.71,1.17c-3.58-1.92-4.83-7-1.8-9.57c4.44-3.76,12.39,0.4,17.61-2.42c2.67-1.45,3.89-4.46,3.8-7.26
	c-0.09-2.81-1.28-5.48-2.45-8.08c4.58-0.27,9.58-0.7,12.9-3.55c2.07-1.78,3.17-4.25,4.72-6.41c1.55-2.16,3.93-4.2,6.79-4.14
	c3.71,0.07,6.17,3.54,7.09,6.77C1353.25,710.3,1353.41,713.86,1355.6,716.55z"/>
<path class="st2" d="M1138.25,217.52c1.81-2.32,5.5-3.51,8.3-2.2c2.54,1.18,3.64,3.86,4.53,6.3c-1.31,0.67-2.62,1.34-3.93,2.02
	c-0.6,0.31-1.23,0.62-1.92,0.64c-0.69,0.01-1.44-0.39-1.51-1c-2.17-0.58-4.71,0.3-5.89,2.03
	C1136.33,222.91,1136.5,219.76,1138.25,217.52z"/>
<path class="st2" d="M1127.41,274.07c-1.29-0.37-1.52-1.9-1.51-3.11c0.01-1.56,0.02-3.12,0.03-4.68c0-0.73,0.04-1.54,0.61-2.06
	c0.64-0.58,1.74-0.55,2.53-0.15c0.79,0.4,1.35,1.08,1.89,1.74c1.28,1.58,2.63,3.39,2.28,5.32c-1.17-0.06-2.07,0.86-2.84,1.65
	C1129.63,273.57,1128.53,274.39,1127.41,274.07z"/>
<path class="st2" d="M1130.33,288.42c1.17,0.04,2.29-0.57,3.03-1.39c0.74-0.82,1.16-1.83,1.49-2.84c0.44-1.35,0.75-2.85,0.06-4.12
	c-0.7-1.29-2.46-2.04-4.02-1.71c-1.56,0.33-2.69,4.23-2.68,5.67c-0.72,0.75-0.92,1.88-0.48,2.79
	C1128.18,287.74,1129.23,288.38,1130.33,288.42z"/>
<path class="st2" d="M1248.89,85.79c-2.37-3.96-5.6-7.5-9.44-10.37c-1.28,2.48-0.92,5.45,0.27,7.98c1.19,2.52,3.12,4.7,5.03,6.83
	c0.65,0.73,1.41,1.51,2.44,1.65c1.44,0.18,2.7-1.08,2.86-2.37C1250.21,88.2,1249.58,86.94,1248.89,85.79z"/>
<path class="st2" d="M1210.68,33.64c4.79-0.11,9.65-0.22,14.32,0.78c4.67,0.99,9.2,3.22,11.77,6.86c2.58,3.66,2.88,8.22,3.02,12.55
	c-1.05,0.13-2.1,0.27-3.14,0.4c-1.98-7.41-8.71-13.64-16.9-15.63c0.52,4.16,0.15,8.41-1.1,12.45c-0.26,0.84-0.57,1.7-1.24,2.33
	c-0.66,0.63-1.77,0.97-2.62,0.57c-2.57-4.97-5.13-9.95-7.7-14.92c-0.67-1.31-1.33-2.9-0.44-4.1
	C1207.47,33.82,1209.19,33.68,1210.68,33.64z"/>
<path class="st2" d="M1196.8,2.85c3.13-1.36,6.47-2.32,9.89-2.85c0.46,3.01-1.13,5.93-2.67,8.63c-1.77,3.1-3.54,6.21-5.32,9.31
	C1196.91,13.05,1195.11,7.77,1196.8,2.85z"/>
<path class="st2" d="M1209.03,18.65c1.49,0.5,3.3,0.09,4.35-0.98c1.05-1.07,1.28-2.73,0.54-4c-1.37-0.28-2.74-0.55-4.11-0.83
	C1208.98,14.67,1208.7,16.7,1209.03,18.65z"/>
<path class="st2" d="M1239.44,16.33c2.24-0.89,2.82-4.02,1-5.49c-1.54-1.25-4.28-0.96-5.45,0.58c-0.96,1.14-0.91,2.89,0.1,4
	C1236.11,16.52,1237.98,16.91,1239.44,16.33z"/>
<path class="st2" d="M1184.65,68.09c1.64-1.62,1.54-4.35-0.01-6.04c-1.99-2.16-5.77-2.47-8.54-1.18c-1.3,1.96,0.45,4.91,2.99,5.05
	c-0.65,1.18,0.22,2.74,1.59,3.2C1182.05,69.57,1183.67,69.06,1184.65,68.09z"/>
<path class="st2" d="M1172.12,28.14c1.94,0.29,4.2-0.23,5.69,0.92c1.58,1.21,1.24,3.42,1.43,5.28c0.25,2.49,1.76,4.85,4.03,6.3
	c1.39,0.89,3.24,1.74,3.26,3.27c0.01,0.92-0.73,1.74-1.65,2.16c-0.91,0.41-1.97,0.48-2.99,0.48c-2.62,0-5.56-0.62-6.9-2.65
	c-1.1-1.67-0.76-3.76-0.63-5.7s-0.15-4.19-1.95-5.27c-1.97-1.18-4.62-0.31-6.96-0.66c-3.4-0.5-5.79-4.07-4.68-7.01
	c1.75-0.96,4.04-0.39,5.83,0.5C1168.41,26.65,1170.1,27.84,1172.12,28.14z"/>
<path class="st2" d="M1149.5,16.6c0.58,1.21,2.1,1.87,3.57,1.95c1.46,0.07,2.9-0.34,4.29-0.74c0.2-1.5-0.29-3.11-1.49-4.17
	c-1.2-1.06-3.13-1.48-4.65-0.83C1149.7,13.45,1148.83,15.21,1149.5,16.6z"/>
<path class="st2" d="M1141.83,11.15c-1.52-0.41-3.3-0.28-4.51,0.64c-1.21,0.92-1.58,2.74-0.53,3.81c0.9,0.93,2.43,1.04,3.79,1.1
	C1141,14.85,1141.41,13,1141.83,11.15z"/>
<path class="st2" d="M1180.56,117.99c-2.52,0.57-5.41,0.95-7.55-0.38c-1.28-0.8-2.06-2.08-3.1-3.13c-2.21-2.26-5.78-3.43-9.06-2.85
	c-1.14,0.2-2.24,0.6-3.4,0.73c-1.16,0.13-2.45-0.07-3.22-0.86c-0.76-0.79-0.63-2.26,0.45-2.67c1.46,0.7,3.09-0.87,3.32-2.34
	s-0.2-3.05,0.45-4.41c0.75-1.56,2.76-2.37,4.64-2.38c1.89-0.01,3.69,0.64,5.44,1.27c3.59,1.3,7.62,3.01,8.65,6.36
	c2.32,0.27,4.72,0.57,6.68,1.71c1.96,1.13,3.36,3.36,2.61,5.35C1185.7,116.51,1182.99,117.45,1180.56,117.99z"/>
<path class="st2" d="M1136.07,65.65c6.41,1.37,12.63,3.75,17.77,7.47c5.13,3.72,9.13,8.83,10.65,14.6
	c-8.62-1.98-17.9-4.34-23.3-10.7c-2.86-3.37-4.71-7.9-9.1-9.46c-0.38-0.77,0.31-1.7,1.2-1.99
	C1134.18,65.29,1135.16,65.46,1136.07,65.65z"/>
<path class="st2" d="M1137.34,57.8c0.62,0.93,1.28,1.9,2.32,2.46c1.9,1.04,4.38,0.4,6.31-0.59c1.93-0.99,3.73-2.32,5.92-2.67
	c-0.01-1.12-0.03-2.24-0.04-3.35c-2.92-1.97-7.15,0.6-10.69-0.22c-1.48-0.34-2.7-1.25-4.03-1.94c-1.33-0.68-2.99-1.14-4.35-0.52
	C1134.3,53.25,1135.82,55.53,1137.34,57.8z"/>
<path class="st2" d="M1142.62,24.41c1.37,0.34,2.93,0.85,3.39,2.06c-6.14,3.17-12.28,6.34-18.41,9.51
	c-0.23-5.17-0.46-10.35-0.69-15.52C1132.14,21.77,1137.38,23.09,1142.62,24.41z"/>
<path class="st2" d="M1088.14,127.44c6.63-0.23,13.45-0.43,19.68,1.62c6.23,2.05,11.79,6.93,12.14,12.88
	c-4.89,1.09-9.79,2.17-14.68,3.26c-2-3.13-3.46-6.54-4.34-10.06C1096.67,132.57,1092.4,130.01,1088.14,127.44z"/>
<path class="st2" d="M1087.1,122.72c-1.64-3.78-5.58-6.69-10.03-7.4c-0.41,2.32,0.63,4.8,2.65,6.29
	C1081.74,123.1,1084.66,123.54,1087.1,122.72z"/>
<path class="st2" d="M1100.16,53.36c-2.03,5.48-8.33,9.42-14.76,9.23c-1.99-2.83,0.24-7.19,3.92-7.68
	C1092.1,52.44,1096.67,51.78,1100.16,53.36z"/>
<path class="st2" d="M1093.12,15.73c3.82,4.79,7.75,9.85,8.58,15.7c-0.8,2.14-3.54,3.54-6,3.06c-5.51-9.22-12.08-17.93-19.59-25.93
	c2.85-1.82,6.92-1.34,9.89,0.33C1088.97,10.55,1091.09,13.17,1093.12,15.73z"/>
<path class="st2" d="M981.53,125.38c-2.14-4.35-6.81-7.35-11.8-8.91c-4.99-1.56-10.34-1.87-15.62-2.16
	c-2.38-0.13-4.97-0.22-6.92,1.01c-1.96,1.22-2.54,4.3-0.47,5.38c-10.22,2.69-18.66,10.3-21.64,19.49
	c15.04,4.34,30.84,6.54,46.63,6.5c1.28-2.75-1.58-5.53-4.15-7.42c5.91,2.26,13.16,1.34,18.15-2.29c4.99-3.63,7.49-9.81,6.26-15.48
	c-0.25-1.18-0.86-2.51-2.16-2.78c-1.45-0.3-2.74,0.95-3.22,2.22s-0.54,2.68-1.34,3.8C984.45,125.88,982.41,126.46,981.53,125.38z"/>
<path class="st1" d="M741.38,174.78c0.95,2.35,0.45,4.93,0.18,7.42c-0.27,2.48-0.19,5.24,1.63,7.13c2.17,2.25,5.95,2.42,9.26,2.2
	c0.03-4.06-5.24-7.32-4.3-11.29c0.32-1.36,1.36-2.53,1.56-3.91c0.2-1.38-1.24-3.07-2.62-2.43c0.17-3.82,1.02-7.61,2.53-11.18
	c-2.47-0.22-5.06-0.21-7.32,0.72c-2.26,0.93-4.09,2.98-3.94,5.21C738.51,170.89,740.52,172.66,741.38,174.78z"/>
<path class="st1" d="M667.3,131.33c2.03,1.78,4.06,3.56,6.1,5.35c0.15-4.59,0.3-9.17,0.45-13.76c-1.84-0.37-3.73-0.74-5.58-0.46
	c-1.86,0.28-3.69,1.37-4.14,3.01C663.51,127.68,665.48,129.74,667.3,131.33z"/>
<path class="st7" d="M348.28,144.3c-0.07,2.38,0.14,4.76,0.64,7.1c0.2,0.94,0.46,1.9,1.08,2.68c0.62,0.78,1.7,1.33,2.74,1.15
	c1.65-0.29,2.29-2.03,2.95-3.42c0.65-1.39,2.37-2.84,3.78-2.02c1.55-2.18,2.23-4.84,1.9-7.41c-2.74-0.4-3.27-3.99-5.69-5.21
	c-1.91-0.97-4.46-0.06-5.75,1.52C348.63,140.27,348.34,142.33,348.28,144.3z"/>
<path class="st7" d="M354.77,230.21c0.01,0.76,0.33,1.49,0.65,2.2c1.52,3.36,3.04,6.72,4.56,10.08c2.06,0.86,4.61-0.39,5.63-2.21
	c1.02-1.82,0.86-3.98,0.44-5.99c-0.37-1.8-0.95-3.61-2.15-5.08c-1.21-1.47-3.14-2.56-5.17-2.46
	C356.7,226.85,354.75,228.38,354.77,230.21z"/>
<path class="st7" d="M360.81,339.86c-1.32,1.99-0.45,4.89,1.8,6.02c1.21,0.61,2.64,0.72,3.96,1.12c4.57,1.36,7.14,6.58,5.19,10.53
	c-1.43,0.34-2.88-0.55-3.81-1.58c-0.94-1.03-1.63-2.27-2.8-3.08c-1.97-1.35-4.72-1.16-7.07-1.86c-4.18-1.23-6.8-5.69-5.57-9.48
	C355.14,340.56,357.96,340,360.81,339.86z"/>
<path class="st7" d="M351.75,332.77c-1.08-2.57,0.06-5.4,0.2-8.14s-1.7-6.14-4.74-5.83c-1.39-1.59-1.79-3.83-1.01-5.72
	c2.8,0.38,5.59-1.11,7.3-3.14c1.71-2.03,2.56-4.52,3.37-6.96c0.95-2.86,1.4-6.81-1.65-8c-3.08-1.21-6.02,1.85-7.67,4.48
	c0.46-10.94,0.92-21.89,1.38-32.83c-1.48-2.23-5.59-1.67-7.34,0.4c-1.75,2.07-1.81,4.88-1.8,7.47c0.04,12.25,0.09,24.5,0.13,36.75
	c-1.07,0.17-2.15,0.34-3.22,0.5c1.62,4.24,3.24,8.47,4.86,12.71c0.83,2.17,1.69,4.39,3.36,6.12
	C346.62,332.28,349.31,333.43,351.75,332.77z"/>
</svg>
