<?xml version="1.0" encoding="utf-8"?>
<!-- Generator: Adobe Illustrator 24.0.0, SVG Export Plug-In . SVG Version: 6.00 Build 0)  -->
<svg version="1.1" id="Layer_1" xmlns="http://www.w3.org/2000/svg" xmlns:xlink="http://www.w3.org/1999/xlink" x="0px" y="0px"
	 viewBox="0 0 39.84 49.31" style="enable-background:new 0 0 39.84 49.31;" xml:space="preserve">
<style type="text/css">
	.st0{fill:#375429;}
	.st1{fill:#E81515;}
</style>
<g>
	<g>
		<path class="st0" d="M0,0v29.49c0,0.02-0.03,1.7,1.06,3.95c1.01,2.08,3.21,5.1,7.98,7.64c7.73,4.13,10.21,7.21,10.88,8.23
			c0.66-1.02,3.15-4.1,10.88-8.23c9.13-4.87,9.04-11.52,9.04-11.59c0-0.01,0-29.5,0-29.5L19.92,0.11L0,0z"/>
	</g>
	<g>
		<path class="st1" d="M35.36,17.83c-0.32-0.47-0.65-1.07-0.68-1.42C34.65,15.97,35,15.39,36,15.97c0.5,0.29,0.93,1.22,0.93,1.21
			c-0.39-3.57-2.57-5.6-4.82-5.63c-2.41-0.03-2.71-1.1-3.05-2.19c-0.33-1.05,0.35-2.41,0.35-2.41s-1.04,1-1.37,2.33
			c-0.21,0.84-0.3,1.8,0,2.87c0.32,1.15,1.21,3.13,1.99,3.37c0.48,0.14,0.1-1.32,1.05-0.81c1.52,0.81,0.68,2.41-0.27,3.26
			c-0.52,0.46-1.69,1.02-2.07,0.63c-1-1.03-0.16-2.51-0.87-3.67c-1.22-1.61-2.49-2.54-1.7-5.31c0.19-0.67,0.11-1.04,0.02-1.64
			c-0.12-0.72-0.7-1.17-0.87-1.3c-0.17-0.13-0.52-0.4-0.93-0.48c0.05-0.06,0.11-0.13,0.16-0.19c0.16-0.2,0.3-0.41,0.43-0.64
			c0.13-0.22,0.23-0.46,0.31-0.7c0.08-0.24,0.12-0.49,0.18-0.73c-0.09,0.23-0.17,0.47-0.28,0.69c-0.11,0.22-0.24,0.43-0.38,0.62
			c-0.15,0.19-0.32,0.37-0.49,0.54c-0.17,0.17-0.36,0.33-0.55,0.45l0,0c-0.01,0.01-0.02,0.01-0.02,0.02c0,0,0,0.01-0.01,0.01
			c-0.13,0.08-0.22,0.19-0.58,0.3c-0.47,0.15-0.79,0.11-0.92,0.34c-0.08,0.14,0.02,0.2-0.05,0.34C22,7.6,21.46,7.55,20.89,7.81
			c-0.3,0.14-0.43,0.33-0.43,0.33s0.13,0.18,0.3,0.33c-0.2,0.11-0.32,0.2-0.32,0.2c-0.02,0.01-0.03,0.02-0.04,0.04
			c-0.12,0.15-0.37,0.54-0.25,0.98c0.14,0.54,0.62,1.01,1.36,0.82c0.09-0.02,0.16-0.05,0.23-0.08c0,0,0,0,0,0
			c0.22-0.08,0.36,0,0.42,0.06c0.04,0.03,0.06,0.08,0.09,0.12c0.06,0.12,0.01,0.27-0.08,0.36c-0.09,0.09-0.21,0.15-0.35,0.2
			c0.14,0.02,0.29,0.03,0.44-0.02c0.12-0.03,0.26-0.11,0.36-0.26c0.03-0.03,0.06-0.1,0.06-0.1c0.02-0.12,0-0.24-0.05-0.36
			c-0.04-0.1-0.11-0.19-0.19-0.26c-0.04-0.04-0.09-0.07-0.14-0.09c0.19-0.16,0.34-0.27,0.8-0.27c0.2,0,0.35,0.08,0.44,0.22
			c0.07,0.11,0.09,0.3,0.02,0.44c0,0.01,0,0.02-0.01,0.02c-0.03,0.04-0.06,0.08-0.11,0.12c-0.09,0.07-0.21,0.12-0.34,0.14
			c0.12,0.05,0.26,0.07,0.41,0.05c0.07-0.01,0.15-0.03,0.23-0.07c0.04-0.02,0.08-0.05,0.12-0.09c0.03-0.03,0.12-0.14,0.14-0.27
			c0.04-0.19-0.01-0.4-0.12-0.58c-0.17-0.26-0.46-0.41-0.8-0.41c-0.63,0-0.86,0.2-1.09,0.39c-0.11,0.09-0.22,0.19-0.39,0.26
			c0,0,0,0,0,0c0,0,0,0,0,0c-0.06,0.02-0.12,0.05-0.2,0.06c-0.62,0.16-0.81-0.36-0.85-0.52c-0.06-0.24,0.09-0.49,0.16-0.59
			c0.04-0.03,0.14-0.09,0.28-0.17c0.07,0.18,0.15,0.26,0.22,0.28c0.19,0.07,0.43-0.32,0.76-0.52c0.46-0.28,0.55,0.07,1.07-0.18
			c0.53-0.25,0.61-0.6,0.96-0.58c0.26,0.02,0.45,0.22,0.51,0.29c0.48,0.54,0.6,1.53,0.12,2.22c-0.57,0.81-0.86,1.74-0.57,3.1
			c0.26,1.21,2.29,2.54,0.71,3.58c-0.33,0.22-2.04-2.44-2.54-3.55c-0.45-1.01-1.48-0.76-2.73-4.12c-0.29-0.76-0.07-0.89-0.58-1.87
			c-0.28-0.53-0.65-1.23-1.41-1.48c-0.05-0.02-0.22-0.07-0.46-0.1c0.21-0.22,0.41-0.45,0.57-0.71c0.3-0.47,0.52-0.99,0.63-1.53
			c-0.17,0.52-0.45,1-0.8,1.41c-0.3,0.36-0.66,0.65-1.04,0.89c-0.06,0.02-0.11,0.03-0.17,0.06c-0.34,0.15-0.3,0.15-0.66,0.29
			c-0.55,0.21-0.53,0.19-0.94,0.33c-0.23,0.08-0.13,0.5-0.35,0.61c-0.23,0.12-0.42,0.09-0.94,0.22c-0.38,0.1-0.82,0.46-0.82,0.46
			s0.1,0.27,0.36,0.39c-0.16,0.1-0.28,0.21-0.37,0.29l-0.04,0.03c-0.25,0.23-0.45,0.61-0.48,0.94c-0.02,0.26,0.03,0.43,0.07,0.57
			c0.04,0.14,0.07,0.23,0.03,0.39c-0.04,0.14-0.14,0.26-0.28,0.31c-0.15,0.05-0.32,0.03-0.46-0.07c-0.13-0.09-0.22-0.27-0.21-0.45
			c0-0.04,0.02-0.21,0.03-0.25c0.02-0.12,0.1-0.24,0.22-0.34c-0.16,0-0.35,0.06-0.5,0.2c-0.12,0.13-0.16,0.3-0.17,0.4
			c-0.01,0.33,0.16,0.64,0.39,0.8c0.17,0.12,0.35,0.17,0.54,0.17c0.1,0,0.21-0.02,0.3-0.05c0.27-0.1,0.46-0.31,0.54-0.59
			c0.01-0.04,0.01-0.08,0.02-0.11c0.18,0.12,0.42,0.2,0.74,0.23c0.63,0.05,1.14-0.27,1.58-0.55c0.32-0.2,0.62-0.38,0.92-0.42
			c0.24-0.03,0.82-0.06,1.05,0.31c0.11,0.18,0.14,0.43,0.09,0.65c-0.04,0.16-0.12,0.28-0.23,0.33c-0.11,0.06-0.29,0.09-0.41,0.08
			c-0.08,0-0.2-0.08-0.27-0.18c-0.08-0.1-0.11-0.25-0.11-0.4c-0.07,0.13-0.12,0.3-0.09,0.48c0.03,0.15,0.22,0.49,0.5,0.49
			c0.02,0,0.1,0,0.13,0c0.16,0,0.32-0.04,0.46-0.11c0.21-0.11,0.36-0.33,0.43-0.59c0.09-0.33,0.03-0.71-0.14-0.98
			C16.8,9.3,16.02,9.33,15.7,9.37c-0.39,0.05-0.74,0.27-1.09,0.48c-0.43,0.27-0.83,0.52-1.33,0.49c-0.55-0.04-0.75-0.28-0.88-0.65
			c0-0.03,0-0.05,0-0.08c0.02-0.22,0.17-0.51,0.34-0.67l0.04-0.03c0.12-0.11,0.25-0.23,0.44-0.33c0,0.16,0.02,0.33,0.06,0.37
			c0.1,0.08,0.28-0.03,0.7-0.22c0.41-0.18,0.61-0.28,0.8-0.31c0.41-0.08,0.45,0.07,0.82,0.02c0.63-0.09,0.77-0.58,1.21-0.53
			c0.27,0.03,0.45,0.25,0.65,0.51c0.49,0.62,0.62,1.27,0.68,1.54c0.2,0.93,0.57,2.83,1.09,4.2c0.92,2.46,2.82,3.25,2.68,3.42
			c-0.12,0.15-1.35-0.12-2.11-0.76c-1.15-0.95-1.1-1.68-2.19-2.99c-0.55-0.66-1.23-1.49-2.38-1.96c-0.78-0.32-1.73-0.3-3.63-0.26
			c-1.87,0.04-2.28,0.25-2.54,0.42c-0.28,0.19-0.42,0.59-1.44,1.52c-0.16-0.89-0.5-1.73-0.99-2.46c0.45,0.93,0.67,1.96,0.64,2.96
			c-0.12,0.31-0.11,0.59-0.11,0.59c0.21,0.36,0.3,0.25,0.36,0.5c0.09,0.41-0.41,0.85-0.36,2.21c0,0,0.53-0.12,0.57-0.15l0.09-0.03
			c0,0.13,0.01,0.26,0.02,0.39c0.04,0.4,0.12,0.7,0.19,0.96c0.1,0.36,0.17,0.64,0.13,1.09c-0.03,0.37-0.07,0.83-0.42,1.15
			C7.48,21,6.93,21.27,6.49,20.99c-0.41-0.25-0.5-0.79-0.36-1.16c0.1-0.27,0.35-0.57,0.7-0.54c0,0,0.41,0.03,0.65,0.27
			c-0.01-0.11-0.03-0.23-0.09-0.34c-0.04-0.08-0.1-0.14-0.17-0.2c-0.08-0.06-0.34-0.14-0.35-0.14c0,0,0,0-0.01,0
			c-0.59-0.05-0.98,0.4-1.13,0.81c-0.23,0.62,0,1.33,0.54,1.67c0.2,0.13,0.42,0.18,0.64,0.18c0.42,0,0.84-0.2,1.12-0.46
			c0.46-0.43,0.51-1,0.55-1.42c0.01-0.12,0.01-0.24,0.01-0.35c0.38,0.54,0.8,0.91,1.08,1.06c0.39,0.21,0.84,0.19,1.27,0.18
			c0.69-0.02,1.29-0.05,1.75,0.73c0.26,0.43,0.03,1.03-0.32,1.37C12,23,11.44,22.94,11.05,22.73c0,0-0.46-0.32-0.42-0.8
			c0,0,0.01-0.12,0.01-0.25c0-0.15,0.03-0.31,0.12-0.45c-0.17,0.06-0.33,0.19-0.45,0.36c-0.06,0.1-0.11,0.29-0.11,0.3
			c0,0,0,0,0,0.01c-0.06,0.68,0.49,1.13,0.63,1.21c0.27,0.15,0.57,0.22,0.84,0.22c0.37,0,0.72-0.13,0.98-0.38
			c0.48-0.47,0.76-1.26,0.39-1.89c-0.6-0.98-1.41-0.95-2.13-0.93c-0.39,0.01-0.76,0.03-1.06-0.13c-0.36-0.19-1.23-1-1.58-2.28
			c-0.01-0.06-0.02-0.13-0.03-0.2c-0.02-0.16-0.02-0.33-0.02-0.49l0.03-0.01c0.12,0.09,0.3,0.17,0.39-0.02
			c0.06-0.14,0.04-0.34,0.06-0.77c0.01-0.2,0.06-0.97,0.48-1.19c0.19-0.1,0.24,0.02,0.5-0.08c0.32-0.12,0.6-0.46,0.68-0.82
			c0.06-0.31-0.07-0.45,0.05-0.63c0.14-0.21,0.52-0.53,1.01-0.55c1.9-0.08,2.85-0.09,3.22,0.18c0.31,0.23,0.74,0.77,1.12,1.58
			c0.68,1.49,0.32,2.28,0.84,3.11c0.19,0.31,0.32,0.71,0.73,1.33l0,0c-0.33,0.04-0.87,0.14-1.2,0.28c-0.42,0.18-0.6,0.45-0.8,0.39
			c-0.21-0.06-0.27-0.42-0.32-0.64c-0.28-1.19-1.09-1.13-1.48-2.28c-0.33-0.97-0.04-1.84-0.45-1.99c-0.17-0.06-0.26-0.04-0.43-0.22
			c-0.27-0.27-0.28-0.43-0.53-0.46c-0.06-0.01-0.15,0-0.21,0.03c-0.06,0.02-0.1,0.05-0.13,0.07c-0.06,0.04-0.1,0.08-0.15,0.12
			l-0.26,0.22l-0.26,0.21l-0.13,0.1c-0.04,0.02-0.13,0.1-0.16,0.16c-0.17,0.25-0.16,0.52-0.14,0.75c0.03,0.24,0.1,0.46,0.19,0.67
			c-0.03-0.23-0.05-0.46-0.03-0.67c0.02-0.22,0.09-0.43,0.22-0.54c0.04-0.04,0.04-0.03,0.1-0.06l0.16-0.07l0.31-0.15l0.27-0.14
			c0.03,0.01,0.05,0.02,0.06,0.04c0.02,0.03,0.03,0.06,0.03,0.1c-0.01,0.01-0.02,0.01-0.02,0.02c-0.05,0.08-0.16,0.17-0.28,0.25
			c-0.11,0.08-0.24,0.16-0.37,0.22l-0.05,0.03c-0.03,0.02-0.06,0.05-0.06,0.08c-0.02,0.13-0.03,0.23-0.03,0.34
			c0,0.11,0.01,0.22,0.04,0.33c0.04,0.21,0.13,0.41,0.24,0.58c-0.06-0.2-0.09-0.4-0.06-0.59c0.01-0.1,0.03-0.19,0.05-0.29
			c0.02-0.05,0.04-0.11,0.06-0.16c0.14-0.03,0.27-0.06,0.4-0.1c0.08-0.03,0.15-0.05,0.23-0.09c0.05,0,0.09,0.01,0.1,0.05
			c0.01,0.03,0,0.07-0.02,0.11c-0.06,0.03-0.12,0.06-0.17,0.1c-0.1,0.09-0.18,0.19-0.23,0.31c-0.1,0.25,0,0.51,0.14,0.67
			c-0.09-0.2-0.07-0.43,0.05-0.57c0.06-0.07,0.13-0.12,0.21-0.15c0.03-0.01,0.07-0.03,0.1-0.02c0.05,0.01,0.09,0.02,0.14,0.02l0,0
			c0.11,0.08,0.11,0.34,0.18,0.75c0.04,0.21,0.22,0.67,0.29,0.77c0.17,1.2,0.46,1.88,0.71,2.28c0.23,0.37,0.46,0.59,0.64,1.13
			c0.1,0.29,0.12,0.5,0.29,0.58c0.21,0.1,0.36-0.16,0.84-0.26c0.44-0.09,0.58,0.07,1-0.03c0.28-0.07,0.69-0.22,0.81-0.32l0,0
			c-0.07,0.13-0.14,0.27-0.2,0.41c-0.36,0.77-0.56,1.9-0.62,1.95c-0.37,0.31-1.28,0.19-1.95,0.21c-1.84,0.05-1.95,0.77-3.62,0.56
			c-0.45-0.06-0.83-0.27-1.06-0.64c-0.14-0.23-0.17-0.47-0.35-0.51c-0.16-0.04-0.24,0.13-0.55,0.29c-0.51,0.26-0.79,0.02-1.06,0.29
			c-0.08,0.08-0.15,0.25-0.29,0.61c-0.1,0.26-0.15,0.39-0.16,0.51c-0.01,0.11,0,0.43,0.39,0.8c0,0-0.13-0.62,0-0.82
			c0.13-0.2,0.21-0.25,0.37-0.35c0.16-0.1,0.37-0.27,0.37-0.27c0.01,0.11,0,0.27-0.08,0.43c-0.09,0.19-0.2,0.21-0.24,0.37
			c-0.07,0.24,0.08,0.48,0.13,0.55c0.15,0.23,0.37,0.32,0.45,0.35c0,0-0.43-0.58-0.16-0.78c0.03,0.2,0.1,0.45,0.46,0.61
			c0.21,0.09,0.49,0.12,0.49,0.12c-0.09-0.07-0.21-0.18-0.34-0.31c-0.24-0.24-0.25-0.31-0.24-0.35c0.01-0.11,0.13-0.11,0.23-0.27
			c0.11-0.2,0.02-0.35,0.1-0.4c0.12-0.08,0.33,0.31,0.84,0.5c0.36,0.14,0.51,0.04,0.82,0.24c0.21,0.14,0.38,0.24,0.53,0.29
			c0.29,0.09,0.35-0.16,0.7-0.31c0.16-0.06,0.95,0.49,2.12,0.32c0.64-0.09,1.56-0.43,2.32-0.31c0.27,0.05,0.28-0.38,0.47-0.71
			c0.31-0.53,0.72-0.64,1.09-0.93c0.39-0.3,0.86-1.27,1.05-2.44c0.18,0.3,0.48,0.7,0.96,1.01c0.16,0.08,0.3,0.19,0.42,0.33
			c0.11,0.14,0.19,0.31,0.26,0.48c0.12,0.34,0.21,0.67,0.31,0.99c0.21,0.65,0.51,1.25,0.9,1.8c0.19,0.28,0.4,0.53,0.64,0.76
			c0.23,0.24,0.51,0.45,0.76,0.72c0.51,0.53,0.79,1.21,0.95,1.88c0.05,0.13,0.26,0.12,0.32,0.13c0.56,0.04,1.38,0.43,1.61,0.74
			c0.44,0.59-0.21,2.22-1.38,2.96c-0.12,0.08-1.37,0.84-2.41,0.42c-0.22-0.09-0.58-0.16-0.58-0.16s-1.05,0.72-0.56,1.99
			c0,0,0.2-0.76,0.47-0.98c0.28-0.23,0.64-0.21,0.64-0.21c-0.27,0.16-0.43,0.51-0.34,1.03c0,0,0.2-0.43,0.4-0.59
			c0.22-0.17,0.38-0.17,0.38-0.17s-0.08,0.25-0.05,0.42c0.04,0.19,0.19,0.28,0.19,0.28c0.05-0.62,0.68-0.72,1.05-0.76
			c0.93-0.11,1.44,0.19,1.88-0.19c0.07-0.06,0.24-0.3,0.58-0.77c0.15-0.22,0.3-0.42,0.34-0.48c0.56-0.84,0.18-1.79,0.68-3.04
			c0.31-0.79,0.74-1.1,0.58-1.35c-0.21-0.33-1.04,0.09-1.5-0.39c-0.21-0.22-0.23-0.52-0.24-0.72c-0.05-0.8,0.82-2.27,1.45-2.27
			c0.58,0,1.04,1.03,1.21,1.4c0.73,1.66,0.43,4.85-1.21,6.99c-2.73,3.58-8.72,3.63-12.54,2.51C10.15,34.33,5.83,29.7,4.8,24
			C4.22,20.79,4.73,17.56,6,14.81c0,0,0.45-1.04,0.52-1.54c0.07-0.5-0.15-1.26-0.15-1.26c-1.97,2.72-3.13,6.06-3.13,9.67
			c0,1.48,0.2,2.91,0.56,4.27l-0.01-0.04c-0.17,0.59-0.28,1.32-0.2,2.01c0.13,1.21,0.71,2.15,0.71,2.15s-0.11-0.42-0.03-1.03
			c0.05-0.39,0.18-0.71,0.29-0.93c0.81,1.91,1.98,3.64,3.41,5.1l-0.07-0.07c0.08,0.56,0.26,1.36,0.78,2.17
			c0.56,0.88,1.36,1.38,1.36,1.38s-0.36-0.43-0.47-1.09c-0.06-0.36,0-0.68,0.06-0.91l-0.05-0.05c2.7,2.12,6.09,3.42,9.77,3.51
			l-0.05,0c0.46,0.32,1.18,0.73,2.14,0.88c1.15,0.19,2.12-0.15,2.12-0.15s-0.72,0.06-1.46-0.35c-0.26-0.15-0.46-0.32-0.59-0.47
			l-0.1,0c2.11-0.21,4.1-0.81,5.89-1.74l0,0c0.76-0.53,1.36-1.09,1.86-1.66c0.41-0.01,1.24-0.09,1.91-0.54
			c0.88-0.6,1.16-1.61,1.16-1.61s-0.53,0.75-1.35,0.84c-0.26,0.03-0.5-0.03-0.68-0.1l-0.02,0.02c0.56-0.92,0.84-1.72,0.98-2.17
			c0.67-2.12,0.77-5.52-0.63-8.44c-0.48-1.01-1.26-2.2-0.82-2.75c0.35-0.43,1.27-0.22,1.59-0.14c1.54,0.36,2.99,1.65,3.67,3.33
			c1.09,2.71-0.26,5.35-0.07,5.4c0.19,0.05,1.96-3.2,1.73-6.69C36.48,19.98,36.19,19.06,35.36,17.83z"/>
		<path class="st1" d="M18.26,30.32c-0.34,0.33-0.25,0.95-0.53,1.33c-0.99,1.3-3.52,0.62-3.69,0.59c-0.54-0.11-1-0.16-1.22-0.02
			c-0.19,0.12,0.07,1.07,0.13,1.43c0,0,0.38-0.3,0.22-0.88c0.41-0.2,1.58,0.34,1.58,0.34c-0.21,0-0.34-0.03-0.8-0.05
			c-0.37-0.02-0.5-0.01-0.55,0.07c-0.04,0.08,0.06,0.23,0.12,0.45c0.05,0.18,0.05,0.34,0.04,0.45c0,0,0.17-0.15,0.23-0.27
			c0.08-0.15,0.1-0.29,0.1-0.29l0.72,0.07c0,0-0.3,0.15-0.23,0.39c0.08,0.24,0.41,0.45,0.41,0.45c-0.31-1.2,2.16-0.31,2.81-0.72
			c0.62-0.39,1.16-1.17,1.58-1.48c0.41-0.3,0.57-0.12,1-0.42c0.47-0.33,0.33-0.6,0.87-1.09c0.15-0.14,0.12-0.08,0.96-0.68
			c0.51-0.36,0.75-0.54,0.71-0.64c-0.05-0.13-0.49,0.03-0.71-0.23c-0.08-0.1-0.06-0.18-0.1-0.48c-0.07-0.68-0.22-0.78-0.13-1
			c0.03-0.08,0.58-0.37,1.07-0.53c-0.14-0.11-0.27-0.22-0.41-0.34c-0.27-0.24-0.51-0.52-0.71-0.81c-0.2-0.3-0.37-0.61-0.53-0.93
			c-0.14-0.33-0.26-0.67-0.34-1.02c-0.02-0.09-0.04-0.18-0.05-0.27c-0.42,0.17-1.35,0.62-1.79,1.07c-0.35,0.36-0.84,1.41-0.84,1.41
			s1.52,1.56,1.29,2.65C19.27,29.76,18.43,30.15,18.26,30.32z"/>
		<path class="st1" d="M7.86,11.98c0,0,1.53-1.77,2.74-2.62c1.21-0.85,1.77-1.09,1.77-1.09l-0.32-0.49l1.51-1.4
			c-2.34,0.94-4.41,2.4-6.07,4.23c0,0,0.24,0.55,0.28,0.74C7.81,11.54,7.86,11.98,7.86,11.98z"/>
		<path class="st1" d="M20.86,6.38c0.63,0.04,0.97,0.12,0.97,0.12s0.57-0.12,0.86-0.33c0.29-0.21,0.58-0.59,0.58-0.59
			c-1.14-0.25-2.33-0.38-3.55-0.38c-0.43,0-0.86,0.02-1.28,0.05l0.77,1.14C19.22,6.38,20.23,6.34,20.86,6.38z"/>
		<path class="st1" d="M33.19,29.05c0-2.59,0.48-3.22,0.26-5.29c-0.16-1.48-0.98-2.43-1.25-2.91c0,0-0.37-0.21-0.73-0.32
			c-0.3-0.09-0.88-0.18-0.88-0.18s1.97,1.91,2.11,3.9c0.14,1.99-0.05,3.82,0.06,5.01c0.3,3.4,2.2,3.73,2.72,5.12
			c-0.23-0.61-0.54-0.98-0.82-1.3C33.8,32.07,33.19,30.88,33.19,29.05z"/>
	</g>
</g>
</svg>
