<?xml version="1.0" encoding="utf-8"?>
<!-- Generator: Adobe Illustrator 24.0.0, SVG Export Plug-In . SVG Version: 6.00 Build 0)  -->
<svg version="1.1" id="Layer_1" xmlns="http://www.w3.org/2000/svg" xmlns:xlink="http://www.w3.org/1999/xlink" x="0px" y="0px"
	 viewBox="0 0 69.16 65.98" style="enable-background:new 0 0 69.16 65.98;" xml:space="preserve">
<style type="text/css">
	.st0{enable-background:new    ;}
	.st1{fill:#304924;}
	.st2{fill:#1C2B15;}
	.st3{fill:#273B1D;}
	.st4{clip-path:url(#SVGID_2_);}
	.st5{fill:#EAE6D8;}
	.st6{clip-path:url(#SVGID_4_);}
	.st7{clip-path:url(#SVGID_6_);}
</style>
<g>
	<g>
		<g class="st0">
			<g>
				<polygon class="st1" points="69.16,12.4 69.07,59.48 22.79,65.98 22.88,18.9 				"/>
			</g>
			<g>
				<polygon class="st2" points="22.79,65.98 0,53.58 0.09,6.5 22.88,18.9 				"/>
			</g>
			<g>
				<polygon class="st3" points="22.88,18.9 0.09,6.5 46.36,0 69.16,12.4 				"/>
			</g>
		</g>
	</g>
</g>
<g>
	<g>
		<g class="st0">
			<defs>
				<polygon id="SVGID_1_" class="st0" points="45.01,43.83 45.03,36.15 52.15,35.15 52.13,42.83 				"/>
			</defs>
			<clipPath id="SVGID_2_">
				<use xlink:href="#SVGID_1_"  style="overflow:visible;"/>
			</clipPath>
			<g class="st4">
				<g>
					<g>
						<g>
							<path class="st5" d="M48.59,35.65c-0.92,0.13-1.84,0.64-2.54,1.49c-1.38,1.7-1.38,4.14,0.01,5.43
								c0.7,0.64,1.6,0.88,2.51,0.76c0.92-0.13,1.83-0.64,2.53-1.49c1.39-1.71,1.38-4.14-0.01-5.43
								C50.4,35.76,49.49,35.52,48.59,35.65"/>
						</g>
					</g>
				</g>
			</g>
		</g>
	</g>
</g>
<g>
	<g>
		<g class="st0">
			<defs>
				<polygon id="SVGID_3_" class="st0" points="57.01,31.83 57.03,24.15 64.15,23.15 64.13,30.83 				"/>
			</defs>
			<clipPath id="SVGID_4_">
				<use xlink:href="#SVGID_3_"  style="overflow:visible;"/>
			</clipPath>
			<g class="st6">
				<g>
					<g>
						<g>
							<path class="st5" d="M60.58,23.65c-0.92,0.13-1.83,0.64-2.53,1.5c-1.39,1.7-1.39,4.13,0.01,5.43c0.69,0.65,1.6,0.89,2.5,0.76
								c0.92-0.13,1.83-0.64,2.53-1.5c1.39-1.7,1.39-4.13-0.01-5.43C62.4,23.77,61.49,23.52,60.58,23.65"/>
						</g>
					</g>
				</g>
			</g>
		</g>
	</g>
</g>
<g>
	<g>
		<g class="st0">
			<defs>
				<polygon id="SVGID_5_" class="st0" points="34.01,55.83 34.03,48.15 41.14,47.15 41.13,54.83 				"/>
			</defs>
			<clipPath id="SVGID_6_">
				<use xlink:href="#SVGID_5_"  style="overflow:visible;"/>
			</clipPath>
			<g class="st7">
				<g>
					<g>
						<g>
							<path class="st5" d="M37.58,47.65c-0.92,0.13-1.83,0.64-2.53,1.49c-1.39,1.71-1.38,4.14,0.01,5.43
								c0.69,0.65,1.59,0.89,2.5,0.76c0.92-0.13,1.84-0.64,2.53-1.49c1.39-1.7,1.39-4.14-0.01-5.44
								C39.4,47.76,38.49,47.52,37.58,47.65"/>
						</g>
					</g>
				</g>
			</g>
		</g>
	</g>
</g>
</svg>
