<?xml version="1.0" encoding="utf-8"?>
<!-- Generator: Adobe Illustrator 24.0.0, SVG Export Plug-In . SVG Version: 6.00 Build 0)  -->
<svg version="1.1" id="Layer_1" xmlns="http://www.w3.org/2000/svg" xmlns:xlink="http://www.w3.org/1999/xlink" x="0px" y="0px"
	 viewBox="0 0 69.16 65.98" style="enable-background:new 0 0 69.16 65.98;" xml:space="preserve">
<style type="text/css">
	.st0{enable-background:new    ;}
	.st1{fill:#304924;}
	.st2{fill:#1C2B15;}
	.st3{fill:#273B1D;}
	.st4{clip-path:url(#SVGID_2_);}
	.st5{fill:#EAE6D8;}
	.st6{clip-path:url(#SVGID_4_);}
	.st7{clip-path:url(#SVGID_6_);}
	.st8{clip-path:url(#SVGID_8_);}
	.st9{clip-path:url(#SVGID_10_);}
</style>
<g>
	<g>
		<g class="st0">
			<g>
				<polygon class="st1" points="69.16,12.4 69.08,59.48 22.79,65.98 22.88,18.9 				"/>
			</g>
			<g>
				<polygon class="st2" points="22.79,65.98 0,53.58 0.09,6.5 22.88,18.9 				"/>
			</g>
			<g>
				<polygon class="st3" points="22.88,18.9 0.09,6.5 46.37,0 69.16,12.4 				"/>
			</g>
		</g>
	</g>
</g>
<g>
	<g>
		<g class="st0">
			<defs>
				<polygon id="SVGID_1_" class="st0" points="31.01,35.83 31.02,28.14 38.15,27.14 38.13,34.83 				"/>
			</defs>
			<clipPath id="SVGID_2_">
				<use xlink:href="#SVGID_1_"  style="overflow:visible;"/>
			</clipPath>
			<g class="st4">
				<g>
					<g>
						<g>
							<path class="st5" d="M34.59,27.64c-1.97,0.28-3.57,2.22-3.57,4.35c0,2.12,1.59,3.61,3.56,3.34c1.96-0.28,3.56-2.22,3.56-4.34
								C38.14,28.86,36.55,27.37,34.59,27.64"/>
						</g>
					</g>
				</g>
			</g>
		</g>
	</g>
</g>
<g>
	<g>
		<g class="st0">
			<defs>
				<polygon id="SVGID_3_" class="st0" points="57.01,32.83 57.03,25.15 64.15,24.15 64.13,31.83 				"/>
			</defs>
			<clipPath id="SVGID_4_">
				<use xlink:href="#SVGID_3_"  style="overflow:visible;"/>
			</clipPath>
			<g class="st6">
				<g>
					<g>
						<g>
							<path class="st5" d="M60.59,24.65c-1.97,0.28-3.57,2.22-3.57,4.34c0,2.13,1.59,3.62,3.56,3.35c1.96-0.28,3.56-2.22,3.56-4.35
								C64.14,25.87,62.55,24.37,60.59,24.65"/>
						</g>
					</g>
				</g>
			</g>
		</g>
	</g>
</g>
<g>
	<g>
		<g class="st0">
			<defs>
				<polygon id="SVGID_5_" class="st0" points="31.01,57.84 31.02,50.15 38.15,49.15 38.13,56.84 				"/>
			</defs>
			<clipPath id="SVGID_6_">
				<use xlink:href="#SVGID_5_"  style="overflow:visible;"/>
			</clipPath>
			<g class="st7">
				<g>
					<g>
						<g>
							<path class="st5" d="M34.59,49.65c-1.97,0.28-3.57,2.22-3.57,4.34c0,2.13,1.59,3.62,3.56,3.35c1.96-0.28,3.56-2.22,3.56-4.35
								C38.14,50.87,36.55,49.37,34.59,49.65"/>
						</g>
					</g>
				</g>
			</g>
		</g>
	</g>
</g>
<g>
	<g>
		<g class="st0">
			<defs>
				<polygon id="SVGID_7_" class="st0" points="57.01,54.83 57.03,47.14 64.15,46.14 64.13,53.83 				"/>
			</defs>
			<clipPath id="SVGID_8_">
				<use xlink:href="#SVGID_7_"  style="overflow:visible;"/>
			</clipPath>
			<g class="st8">
				<g>
					<g>
						<g>
							<path class="st5" d="M60.59,46.64c-1.97,0.28-3.57,2.22-3.57,4.35c0,2.12,1.59,3.61,3.56,3.34c1.96-0.28,3.56-2.22,3.56-4.34
								C64.14,47.86,62.55,46.37,60.59,46.64"/>
						</g>
					</g>
				</g>
			</g>
		</g>
	</g>
</g>
<g>
	<g>
		<g class="st0">
			<defs>
				<polygon id="SVGID_9_" class="st0" points="45.01,45.83 45.03,38.14 52.15,37.14 52.14,44.83 				"/>
			</defs>
			<clipPath id="SVGID_10_">
				<use xlink:href="#SVGID_9_"  style="overflow:visible;"/>
			</clipPath>
			<g class="st9">
				<g>
					<g>
						<g>
							<path class="st5" d="M48.59,37.64c-1.96,0.28-3.56,2.22-3.56,4.35c0,2.12,1.59,3.61,3.55,3.34c1.97-0.28,3.57-2.22,3.57-4.34
								C52.15,38.86,50.56,37.37,48.59,37.64"/>
						</g>
					</g>
				</g>
			</g>
		</g>
	</g>
</g>
</svg>
