<?xml version="1.0" encoding="utf-8"?>
<!-- Generator: Adobe Illustrator 24.0.0, SVG Export Plug-In . SVG Version: 6.00 Build 0)  -->
<svg version="1.1" id="Layer_1" xmlns="http://www.w3.org/2000/svg" xmlns:xlink="http://www.w3.org/1999/xlink" x="0px" y="0px"
	 viewBox="0 0 69.16 65.97" style="enable-background:new 0 0 69.16 65.97;" xml:space="preserve">
<style type="text/css">
	.st0{enable-background:new    ;}
	.st1{fill:#304924;}
	.st2{fill:#1C2B15;}
	.st3{fill:#273B1D;}
	.st4{clip-path:url(#SVGID_2_);}
	.st5{fill:#EAE6D8;}
	.st6{clip-path:url(#SVGID_4_);}
</style>
<g>
	<g>
		<g class="st0">
			<g>
				<polygon class="st1" points="69.16,12.4 69.07,59.47 22.79,65.97 22.88,18.9 				"/>
			</g>
			<g>
				<polygon class="st2" points="22.79,65.97 0,53.57 0.09,6.5 22.88,18.9 				"/>
			</g>
			<g>
				<polygon class="st3" points="22.88,18.9 0.09,6.5 46.36,0 69.16,12.4 				"/>
			</g>
		</g>
	</g>
</g>
<g>
	<g>
		<g class="st0">
			<defs>
				<polygon id="SVGID_1_" class="st0" points="36.93,54.62 36.94,46.93 44.06,45.93 44.05,53.62 				"/>
			</defs>
			<clipPath id="SVGID_2_">
				<use xlink:href="#SVGID_1_"  style="overflow:visible;"/>
			</clipPath>
			<g class="st4">
				<g>
					<g>
						<g>
							<path class="st5" d="M40.5,46.43c-0.92,0.13-1.84,0.64-2.54,1.49c-1.39,1.7-1.38,4.14,0.01,5.43c0.69,0.64,1.6,0.88,2.5,0.76
								c0.92-0.13,1.83-0.64,2.53-1.49c1.39-1.71,1.39-4.14-0.01-5.44C42.31,46.55,41.41,46.3,40.5,46.43"/>
						</g>
					</g>
				</g>
			</g>
		</g>
	</g>
</g>
<g>
	<g>
		<g class="st0">
			<defs>
				<polygon id="SVGID_3_" class="st0" points="53.1,34.04 53.11,26.35 60.23,25.35 60.22,33.04 				"/>
			</defs>
			<clipPath id="SVGID_4_">
				<use xlink:href="#SVGID_3_"  style="overflow:visible;"/>
			</clipPath>
			<g class="st6">
				<g>
					<g>
						<g>
							<path class="st5" d="M56.67,25.85c-0.92,0.13-1.83,0.64-2.53,1.49c-1.39,1.71-1.39,4.14,0.01,5.43
								c0.69,0.65,1.59,0.89,2.5,0.76c0.92-0.13,1.83-0.64,2.53-1.49c1.39-1.7,1.39-4.14-0.01-5.43
								C58.48,25.97,57.58,25.72,56.67,25.85"/>
						</g>
					</g>
				</g>
			</g>
		</g>
	</g>
</g>
</svg>
