<?xml version="1.0" encoding="utf-8"?>
<!-- Generator: Adobe Illustrator 24.0.0, SVG Export Plug-In . SVG Version: 6.00 Build 0)  -->
<svg version="1.1" id="Layer_1" xmlns="http://www.w3.org/2000/svg" xmlns:xlink="http://www.w3.org/1999/xlink" x="0px" y="0px"
	 viewBox="0 0 39.99 49.43" style="enable-background:new 0 0 39.99 49.43;" xml:space="preserve">
<style type="text/css">
	.st0{fill:#718265;}
	.st1{fill:#D4CDB1;}
	.st2{fill:#353130;}
</style>
<g>
	<path class="st0" d="M0,0v29.56c0,0.02-0.03,1.7,1.06,3.96c1.01,2.09,3.22,5.11,8,7.66c7.75,4.14,10.24,7.23,10.9,8.25
		c0.66-1.02,3.16-4.11,10.9-8.25c9.15-4.89,9.07-11.55,9.06-11.62c0-0.01,0-29.57,0-29.57L19.97,0.11L0,0z"/>
	<path class="st1" d="M39.99,26.5c0-7.59,0-26.46,0-26.46L20.02,0.14L0.05,0.04V26.5H39.99z"/>
	<g>
		<path class="st2" d="M25.15,27.74c-0.43,0.04-0.85,0.05-1.28,0.01c-0.22-0.02-0.43-0.07-0.64-0.14c-0.2-0.08-0.42-0.17-0.55-0.35
			c0.18,0.12,0.38,0.17,0.59,0.19c0.2,0.03,0.41,0.04,0.62,0.04c0.37,0,0.74-0.03,1.11-0.07c0.03-0.37,0.04-0.74,0.04-1.11
			c0-0.21-0.02-0.41-0.05-0.62c-0.03-0.21-0.08-0.41-0.21-0.58c0.18,0.12,0.38,0.17,0.59,0.19c0.2,0.03,0.41,0.04,0.62,0.04
			c0.37,0,0.74-0.03,1.11-0.07c0.03-0.37,0.04-0.74,0.04-1.11c0-0.21-0.02-0.41-0.05-0.62c-0.03-0.21-0.08-0.41-0.21-0.58
			c0.18,0.12,0.38,0.17,0.59,0.19c0.2,0.03,0.41,0.04,0.62,0.04c0.37,0,0.74-0.03,1.11-0.07c0.03-0.37,0.04-0.74,0.04-1.11
			c0-0.21-0.02-0.41-0.05-0.62c-0.03-0.21-0.08-0.41-0.21-0.58c0.18,0.12,0.38,0.17,0.59,0.19c0.2,0.03,0.41,0.04,0.62,0.04
			c0.37,0,0.74-0.03,1.11-0.07c0.03-0.37,0.04-0.74,0.04-1.11c0-0.21-0.02-0.41-0.05-0.62c-0.03-0.21-0.08-0.41-0.21-0.58
			c0.18,0.12,0.38,0.17,0.59,0.19c0.2,0.03,0.41,0.04,0.62,0.04c0.37,0,0.74-0.03,1.11-0.07c0.03-0.37,0.04-0.74,0.04-1.11
			c0-0.21-0.02-0.41-0.05-0.62c-0.02-0.12-0.04-0.23-0.08-0.34l-0.12-0.24c1.45,0.14,2.33-1.15,2.33-1.15s-0.98,0.1-2.31,0.06
			c-0.72-0.02-1.72-0.15-2.11-0.26l-0.01,0c0.96-0.47,1.79-1.35,1.79-1.35s-0.92,0.14-2.31,0.06c-0.52-0.03-1.25-0.16-1.53-0.23
			l1.02-1.19c-0.44,0.15-1.28,0.36-2.31,0.22c-0.84-0.11-1.48-0.41-1.86-0.63l-0.49-0.49c0.92-0.02,1.82-0.15,2.68-0.37
			c-1.42-0.09-2.78-0.43-4.01-0.97l-0.31-0.32c0.86-0.14,1.68-0.39,2.44-0.74c-1.17,0.14-2.33,0.05-3.4-0.23L21.5,7.6
			c-0.24,0.35-0.71,0.91-1.48,1.24c-0.8,0.35-1.55,0.3-2.23,0.25c-1.19-0.09-1.38-0.39-2.35-0.4c-0.59-0.01-0.65-0.13-2.02,0.18
			c-2.51,0.55-2.3,0.53-3.31,0.91c0,0-0.88,1.08-1.41,1.32c-0.55,0.26-0.83,0.02-1.71,0.11c-0.59,0.06-0.67,0.18-1.37,0.43
			c-0.21,0.55-0.56,1.12-0.82,1.43c-0.05,0.06-0.13,0.16-0.22,0.29c-0.2,0.26-0.38,0.5-0.53,0.67c0.8,1.06,1.01,1.21,1.15,1.29
			c0.17,0.1,0.66,0.39,1.31,0.43c0.05,0.25,0.18,0.48,0.36,0.63c0.2,0.16,0.42,0.24,0.63,0.28c-0.17-0.14-0.3-0.31-0.37-0.48
			c-0.06-0.17-0.04-0.34,0.02-0.48c0-0.01,0-0.01,0.01-0.02c0.08-0.02,0.17-0.05,0.27-0.09c0.1,0.2,0.25,0.37,0.42,0.47
			c0.21,0.13,0.43,0.18,0.64,0.17c-0.18-0.11-0.33-0.25-0.4-0.41c-0.08-0.16-0.1-0.32-0.06-0.47c0-0.01,0-0.02,0-0.03
			c0.09-0.04,0.18-0.09,0.29-0.14c0.15,0.2,0.36,0.34,0.57,0.41c0.23,0.08,0.46,0.08,0.67,0.03c-0.2-0.06-0.38-0.18-0.49-0.32
			c-0.11-0.13-0.17-0.27-0.18-0.41c0.13-0.07,0.25-0.13,0.36-0.19c0.09,0.06,0.17,0.12,0.25,0.15c0.09,0.04,0.19,0.07,0.28,0.09
			c0.19,0.04,0.39,0.02,0.55-0.04c-0.17-0.05-0.3-0.15-0.4-0.26c-0.05-0.06-0.09-0.12-0.13-0.18c-0.01-0.02-0.01-0.03-0.02-0.05
			c0.49-0.26,0.72-0.37,1.1-0.38c0.59-0.02,1.05,0.19,1.31,0.31c0.31,0.14,1.56,1.49,1.56,1.49s-0.12,0.11-0.32,0.29l-0.01,0
			c-0.07,0.01-0.15,0.03-0.25,0.02c-0.1-0.01-0.19-0.03-0.29-0.05c-0.19-0.05-0.37-0.16-0.52-0.32c0.05,0.21,0.16,0.43,0.34,0.6
			c0.07,0.07,0.15,0.14,0.24,0.2c-0.1,0.09-0.21,0.19-0.33,0.29l0,0c-0.08,0-0.17,0.03-0.29,0.01c-0.11-0.01-0.21-0.03-0.31-0.07
			c-0.2-0.07-0.4-0.19-0.56-0.37c0.06,0.23,0.19,0.46,0.38,0.65c0.08,0.08,0.18,0.16,0.28,0.23c-0.14,0.12-0.27,0.24-0.4,0.35
			c-0.07,0.01-0.15,0.02-0.24,0c-0.11-0.01-0.22-0.04-0.33-0.08c-0.21-0.07-0.42-0.2-0.58-0.39c0.07,0.24,0.2,0.48,0.4,0.67
			c0.08,0.08,0.17,0.15,0.27,0.22c-0.11,0.09-0.21,0.18-0.31,0.26c-0.01,0-0.02,0-0.03,0.01c-0.16,0.07-0.36,0.08-0.56,0.02
			c-0.2-0.06-0.41-0.18-0.57-0.36c0.06,0.23,0.2,0.46,0.4,0.64c0.05,0.05,0.12,0.1,0.18,0.14c-0.09,0.04-0.17,0.07-0.25,0.1
			c-0.11,0.02-0.23,0.03-0.34,0.02c-0.06,0-0.12-0.01-0.16-0.02l-0.06-0.01c-0.03-0.01-0.06-0.02-0.08-0.03
			C9.2,18.78,9,18.59,8.87,18.34c0,0.28,0.09,0.6,0.31,0.85c0.01,0.01,0.03,0.03,0.04,0.04c-0.16,0.05-0.3,0.09-0.42,0.12
			c-0.03,0-0.06-0.01-0.09-0.02l-0.17-0.04c-0.06-0.01-0.11-0.03-0.16-0.04c-0.03-0.01-0.09-0.03-0.13-0.05
			c-0.19-0.09-0.36-0.29-0.46-0.53c-0.02,0.26,0.01,0.55,0.19,0.81c0.05,0.06,0.09,0.13,0.17,0.18c0,0,0,0,0,0c0,0,0,0,0,0
			c-0.12,0.23,0.02,0.52,0.16,0.8c0.09,0.18,0.32,0.6,1.02,1.1c0.64,0.46,1.37,0.78,1.44,0.67c0.04-0.06-0.21-0.22-0.4-0.61
			c-0.16-0.31-0.2-0.61-0.22-0.83l1.43,0.93c-0.1-0.13-0.42-0.37-0.39-0.73c0.06-0.66,0.79-1.01,1.05-1.13
			c0.12-0.06,0.91-0.42,1.79-0.11c0.96,0.34,1.4,1.25,1.67,1.81c0.5,1.04,0.47,1.89,0.64,1.88c0.17,0,0.3-0.9,0.33-1.45
			c0.03-0.46,0.02-0.88-0.02-1.23l0.21,1.58c0.3,0.28,0.67,0.7,0.89,1.29c0.41,1.09,0.19,2.09,0.19,2.09s0.58-0.91,0.63-2.02
			c0.01-0.13,0-0.25,0-0.37l0.17,0.83c0.32,0.32,0.71,0.79,0.93,1.44c0.43,1.24,0.14,2.37,0.14,2.37s0.65-1.06,0.8-2.42
			c0.02-0.22,0.04-0.44,0.04-0.64l0.15,1.69c0.39,0.31,0.83,0.76,1.04,1.41c0.3,0.92,0.19,1.79,0.19,1.79s0.53-0.46,0.68-0.98
			c0.06-0.22,0.08-0.43,0.08-0.62l0.09,0.44c0.42,0.34,0.9,0.86,1.12,1.58c0.3,0.98,0.09,1.84,0.09,1.84s0.85-1.14,1.04-2.59
			c0.09-0.72,0.04-1.32-0.02-1.74L25.15,27.74z M16.42,10.52c0.27-0.12,0.57-0.18,0.86-0.18c0.29-0.02,0.59,0.01,0.87,0.07
			c0.59,0.11,1.09,0.44,1.6,0.6c0.51,0.18,1.06,0.19,1.61,0.12l0.29-0.04l-0.12,0.27c-0.29,0.64-0.65,1.25-1.11,1.79
			c-0.45,0.54-1,1.01-1.64,1.33c-0.63,0.33-1.34,0.49-2.03,0.46c-0.1,0-0.18-0.06-0.26-0.1c-0.07-0.05-0.14-0.11-0.21-0.16
			c-0.13-0.11-0.26-0.23-0.38-0.36c-0.24-0.25-0.47-0.51-0.71-0.76c0.25,0.24,0.49,0.49,0.74,0.72c0.13,0.12,0.25,0.23,0.39,0.34
			c0.07,0.05,0.13,0.11,0.2,0.15c0.07,0.04,0.14,0.09,0.22,0.08c0.34-0.02,0.68-0.08,1-0.18c0.33-0.09,0.63-0.23,0.93-0.4
			c0.58-0.34,1.08-0.8,1.5-1.32c0.36-0.45,0.67-0.95,0.92-1.48c-0.49,0.03-0.99-0.02-1.45-0.19c-0.56-0.2-1.03-0.51-1.56-0.64
			c-0.26-0.07-0.54-0.1-0.81-0.1c-0.28-0.01-0.54,0.03-0.8,0.12c-0.52,0.18-0.95,0.58-1.32,1C15.48,11.2,15.89,10.77,16.42,10.52z
			 M8.81,13.29c-0.36,0.07-0.65,0.27-0.97,0.52c-0.16,0.12-0.34,0.23-0.55,0.31c-0.2,0.07-0.42,0.11-0.64,0.1
			c-0.43-0.02-0.81-0.21-1.12-0.46c0.37,0.14,0.76,0.23,1.12,0.2c0.37-0.03,0.68-0.18,0.99-0.42c0.16-0.11,0.32-0.24,0.52-0.33
			c0.19-0.09,0.4-0.16,0.62-0.17C9.2,13,9.62,13.14,9.94,13.37C9.56,13.26,9.17,13.22,8.81,13.29z M14.28,14.72
			c-0.13-0.11-0.27-0.22-0.4-0.31c-0.13-0.08-0.3-0.15-0.46-0.23c-0.32-0.15-0.63-0.32-0.94-0.48c-0.31-0.17-0.62-0.34-0.92-0.52
			c-0.3-0.18-0.6-0.36-0.91-0.52c-0.61-0.3-1.3-0.49-1.99-0.59c0.45-0.02,0.91,0.02,1.35,0.12c-0.06-0.16-0.08-0.32-0.06-0.49
			c0.02-0.16,0.08-0.31,0.17-0.45c0,0,0.01,0,0.01-0.01c-0.01-0.01-0.02-0.02-0.02-0.03c-0.04-0.08-0.03-0.16,0-0.21
			c0.02-0.05,0.05-0.1,0.08-0.14c0.13-0.15,0.28-0.25,0.45-0.34c-0.22,0.25-0.55,0.68-0.18,0.61l0.53,0.01l0.54,0.03
			c0.36,0.03,0.72,0.07,1.08,0.12c0.36,0.06,0.72,0.14,1.06,0.25c-0.37,0.03-0.73,0.02-1.08,0.01c-0.21,0-0.43-0.01-0.64-0.02
			c0.04,0.06,0.04,0.13,0,0.19c-0.14,0.2-0.32,0.38-0.53,0.52c-0.16,0.1-0.33,0.18-0.52,0.24c0.6,0.28,1.16,0.61,1.74,0.91
			l0.93,0.49c0.15,0.08,0.31,0.16,0.47,0.27c0.16,0.11,0.29,0.23,0.42,0.36c0.52,0.52,0.86,1.18,1.04,1.86
			C15.19,15.76,14.79,15.18,14.28,14.72z M17.79,20.13c0,0.08-0.07,0.15-0.15,0.15c-0.43,0.03-0.85,0.03-1.27-0.04
			c-0.21-0.03-0.42-0.08-0.62-0.16c-0.2-0.08-0.4-0.18-0.53-0.35c0.18,0.12,0.37,0.17,0.57,0.2c0.2,0.03,0.4,0.05,0.6,0.05
			c0.36,0.01,0.72,0,1.07-0.03c0.02-0.35,0.02-0.72,0-1.07c-0.01-0.2-0.03-0.4-0.07-0.6c-0.03-0.2-0.09-0.39-0.21-0.57
			c0.18,0.12,0.37,0.17,0.57,0.2c0.2,0.03,0.4,0.05,0.6,0.05c0.36,0.01,0.72,0,1.07-0.03c0.02-0.35,0.02-0.72,0-1.07
			c-0.01-0.2-0.03-0.4-0.07-0.6c-0.03-0.2-0.09-0.39-0.21-0.57c0.18,0.12,0.37,0.17,0.57,0.2c0.2,0.03,0.4,0.05,0.6,0.05
			c0.36,0.01,0.72,0,1.07-0.03c0.02-0.35,0.02-0.72,0-1.07c-0.01-0.2-0.03-0.4-0.07-0.6c-0.03-0.2-0.09-0.39-0.21-0.57
			c0.18,0.12,0.37,0.17,0.57,0.2c0.2,0.03,0.4,0.05,0.6,0.05c0.36,0.01,0.72,0,1.07-0.03c0.02-0.35,0.02-0.72,0-1.07
			c-0.01-0.2-0.03-0.4-0.07-0.6c-0.03-0.2-0.09-0.39-0.21-0.57c0.18,0.12,0.28,0.33,0.37,0.52c0.08,0.2,0.14,0.41,0.17,0.62
			c0.08,0.42,0.09,0.84,0.07,1.27c0,0.08-0.07,0.15-0.15,0.15c-0.43,0.03-0.85,0.03-1.27-0.04c-0.21-0.03-0.42-0.08-0.62-0.16
			c-0.13-0.05-0.26-0.12-0.38-0.2c0.09,0.11,0.16,0.24,0.21,0.37c0.08,0.2,0.14,0.41,0.17,0.62c0.08,0.42,0.09,0.84,0.07,1.27
			c0,0.08-0.07,0.15-0.15,0.15c-0.43,0.03-0.85,0.03-1.27-0.04c-0.21-0.03-0.42-0.08-0.62-0.16c-0.13-0.05-0.26-0.12-0.38-0.2
			c0.09,0.11,0.16,0.24,0.21,0.37c0.08,0.2,0.14,0.41,0.17,0.62c0.08,0.42,0.09,0.84,0.07,1.27c0,0.08-0.07,0.15-0.15,0.15
			c-0.43,0.03-0.85,0.03-1.27-0.04c-0.21-0.03-0.42-0.08-0.62-0.16c-0.13-0.05-0.26-0.12-0.38-0.2c0.09,0.11,0.16,0.24,0.21,0.37
			c0.08,0.2,0.14,0.41,0.17,0.62C17.79,19.28,17.81,19.7,17.79,20.13z M18.37,20.69c-0.2-0.08-0.4-0.18-0.53-0.35
			c0.18,0.12,0.37,0.17,0.57,0.2c0.2,0.03,0.4,0.05,0.6,0.05c0.36,0.01,0.72,0,1.07-0.03c0.02-0.35,0.02-0.72,0-1.07
			c-0.01-0.2-0.03-0.4-0.07-0.6c-0.03-0.2-0.09-0.39-0.21-0.57c0.18,0.12,0.37,0.17,0.57,0.2c0.2,0.03,0.4,0.05,0.6,0.05
			c0.36,0.01,0.72,0,1.07-0.03c0.02-0.35,0.02-0.72,0-1.07c-0.01-0.2-0.03-0.4-0.07-0.6c-0.03-0.2-0.09-0.39-0.21-0.57
			c0.18,0.12,0.37,0.17,0.57,0.2c0.2,0.03,0.4,0.05,0.6,0.05c0.36,0.01,0.72,0,1.07-0.03c0.02-0.35,0.02-0.72,0-1.07
			c-0.01-0.2-0.03-0.4-0.07-0.6c-0.03-0.2-0.09-0.39-0.21-0.57c0.18,0.12,0.37,0.17,0.57,0.2c0.2,0.03,0.4,0.05,0.6,0.05
			c0.36,0.01,0.72,0,1.07-0.03c0.02-0.35,0.02-0.72,0-1.07c-0.01-0.2-0.03-0.4-0.07-0.6c-0.03-0.2-0.09-0.39-0.21-0.57
			c0.18,0.12,0.28,0.33,0.37,0.52c0.08,0.2,0.14,0.41,0.17,0.62c0.08,0.42,0.09,0.84,0.07,1.27c0,0.08-0.07,0.15-0.15,0.15
			c-0.43,0.03-0.85,0.03-1.27-0.04c-0.21-0.03-0.42-0.08-0.62-0.16c-0.13-0.05-0.26-0.12-0.38-0.2c0.09,0.11,0.16,0.24,0.21,0.37
			c0.08,0.2,0.14,0.41,0.17,0.62c0.08,0.42,0.09,0.84,0.07,1.27c0,0.08-0.07,0.15-0.15,0.15c-0.43,0.03-0.85,0.03-1.27-0.04
			c-0.21-0.03-0.42-0.08-0.62-0.16c-0.13-0.05-0.26-0.12-0.38-0.2c0.09,0.11,0.16,0.24,0.21,0.37c0.08,0.2,0.14,0.41,0.17,0.62
			c0.08,0.42,0.09,0.84,0.07,1.27c0,0.08-0.07,0.15-0.15,0.15c-0.43,0.03-0.85,0.03-1.27-0.04c-0.21-0.03-0.42-0.08-0.62-0.16
			c-0.13-0.05-0.26-0.12-0.38-0.2c0.09,0.11,0.16,0.24,0.21,0.37c0.08,0.2,0.14,0.41,0.17,0.62c0.08,0.42,0.09,0.84,0.07,1.27
			c0,0.08-0.07,0.15-0.15,0.15c-0.43,0.03-0.85,0.03-1.27-0.04C18.78,20.81,18.57,20.76,18.37,20.69z M21.24,23.49
			c0,0.08-0.07,0.15-0.15,0.15c-0.43,0.03-0.85,0.03-1.27-0.04c-0.21-0.03-0.42-0.08-0.62-0.16c-0.2-0.08-0.4-0.18-0.53-0.35
			c0.18,0.12,0.37,0.17,0.57,0.2c0.2,0.03,0.4,0.05,0.6,0.05c0.36,0.01,0.72,0,1.07-0.03c0.02-0.35,0.02-0.72,0-1.07
			c-0.01-0.2-0.03-0.4-0.07-0.6c-0.03-0.2-0.09-0.39-0.21-0.57c0.18,0.12,0.37,0.17,0.57,0.2c0.2,0.03,0.4,0.05,0.6,0.05
			c0.36,0.01,0.72,0,1.07-0.03c0.02-0.35,0.02-0.72,0-1.07c-0.01-0.2-0.03-0.4-0.07-0.6c-0.03-0.2-0.09-0.39-0.21-0.57
			c0.18,0.12,0.37,0.17,0.57,0.2c0.2,0.03,0.4,0.05,0.6,0.05c0.36,0.01,0.72,0,1.07-0.03c0.02-0.35,0.02-0.72,0-1.07
			c-0.01-0.2-0.03-0.4-0.07-0.6c-0.03-0.2-0.09-0.39-0.21-0.57c0.18,0.12,0.37,0.17,0.57,0.2c0.2,0.03,0.4,0.05,0.6,0.05
			c0.36,0.01,0.72,0,1.07-0.03c0.02-0.35,0.02-0.72,0-1.07c-0.01-0.2-0.03-0.4-0.07-0.6c-0.03-0.2-0.09-0.39-0.21-0.57
			c0.18,0.12,0.37,0.17,0.57,0.2c0.2,0.03,0.4,0.05,0.6,0.05c0.36,0.01,0.72,0,1.07-0.03c0.02-0.35,0.02-0.72,0-1.07
			c-0.01-0.2-0.03-0.4-0.07-0.6c-0.03-0.2-0.09-0.39-0.21-0.57c0.18,0.12,0.28,0.33,0.37,0.52c0.08,0.2,0.14,0.41,0.17,0.62
			c0.08,0.42,0.09,0.84,0.07,1.27c0,0.08-0.07,0.15-0.15,0.15c-0.43,0.03-0.85,0.03-1.27-0.04c-0.21-0.03-0.42-0.08-0.62-0.16
			c-0.13-0.05-0.26-0.12-0.38-0.2c0.09,0.11,0.16,0.24,0.21,0.37c0.08,0.2,0.14,0.41,0.17,0.62c0.08,0.42,0.09,0.84,0.07,1.27
			c0,0.08-0.07,0.15-0.15,0.15c-0.43,0.03-0.85,0.03-1.27-0.04c-0.21-0.03-0.42-0.08-0.62-0.16c-0.13-0.05-0.26-0.12-0.38-0.2
			c0.09,0.11,0.16,0.24,0.21,0.37c0.08,0.2,0.14,0.41,0.17,0.62c0.08,0.42,0.09,0.84,0.07,1.27c0,0.08-0.07,0.15-0.15,0.15
			c-0.43,0.03-0.85,0.03-1.27-0.04c-0.21-0.03-0.42-0.08-0.62-0.16c-0.13-0.05-0.26-0.12-0.38-0.2c0.09,0.11,0.16,0.24,0.21,0.37
			c0.08,0.2,0.14,0.41,0.17,0.62c0.08,0.42,0.09,0.84,0.07,1.27c0,0.08-0.07,0.15-0.15,0.15c-0.43,0.03-0.85,0.03-1.27-0.04
			c-0.21-0.03-0.42-0.08-0.62-0.16c-0.13-0.05-0.26-0.12-0.38-0.2c0.09,0.11,0.16,0.24,0.21,0.37c0.08,0.2,0.14,0.41,0.17,0.62
			C21.25,22.64,21.26,23.06,21.24,23.49z M21.9,24.64c-0.2-0.08-0.42-0.17-0.55-0.35c0.18,0.12,0.38,0.17,0.59,0.19
			c0.2,0.03,0.41,0.04,0.62,0.04c0.37,0,0.74-0.03,1.11-0.07c0.03-0.37,0.04-0.74,0.04-1.11c0-0.21-0.02-0.41-0.05-0.62
			c-0.03-0.21-0.08-0.41-0.21-0.58c0.18,0.12,0.38,0.17,0.59,0.19c0.2,0.03,0.41,0.04,0.62,0.04c0.37,0,0.74-0.03,1.11-0.07
			c0.03-0.37,0.04-0.74,0.04-1.11c0-0.21-0.02-0.41-0.05-0.62c-0.03-0.21-0.08-0.41-0.21-0.58c0.18,0.12,0.38,0.17,0.59,0.19
			c0.2,0.03,0.41,0.04,0.62,0.04c0.37,0,0.74-0.03,1.11-0.07c0.03-0.37,0.04-0.74,0.04-1.11c0-0.21-0.02-0.41-0.05-0.62
			c-0.03-0.21-0.08-0.41-0.21-0.58c0.18,0.12,0.38,0.17,0.59,0.19c0.2,0.03,0.41,0.04,0.62,0.04c0.37,0,0.74-0.03,1.11-0.07
			c0.03-0.37,0.04-0.74,0.04-1.11c0-0.21-0.02-0.41-0.05-0.62c-0.03-0.21-0.08-0.41-0.21-0.58c0.18,0.13,0.28,0.34,0.36,0.54
			c0.07,0.21,0.13,0.42,0.15,0.64c0.06,0.43,0.06,0.87,0.03,1.3l-0.01,0.13l-0.13,0.01c-0.44,0.05-0.87,0.06-1.3,0.01
			c-0.22-0.02-0.43-0.07-0.64-0.14c-0.14-0.05-0.29-0.12-0.41-0.21c0.1,0.12,0.16,0.26,0.22,0.4c0.07,0.21,0.13,0.42,0.15,0.64
			c0.06,0.43,0.06,0.87,0.03,1.3l-0.01,0.13l-0.13,0.01c-0.44,0.05-0.87,0.06-1.3,0.01c-0.22-0.02-0.43-0.07-0.64-0.14
			c-0.14-0.05-0.29-0.12-0.41-0.21c0.1,0.12,0.16,0.26,0.22,0.4c0.07,0.21,0.13,0.42,0.15,0.64c0.06,0.43,0.06,0.87,0.03,1.3
			l-0.01,0.13l-0.13,0.01c-0.44,0.05-0.87,0.06-1.3,0.01c-0.22-0.02-0.43-0.07-0.64-0.14c-0.14-0.05-0.29-0.12-0.41-0.21
			c0.1,0.12,0.16,0.26,0.22,0.4c0.07,0.21,0.13,0.42,0.15,0.64c0.06,0.43,0.06,0.87,0.03,1.3l-0.01,0.13l-0.13,0.01
			c-0.44,0.05-0.87,0.06-1.3,0.01C22.33,24.75,22.11,24.71,21.9,24.64z"/>
		<path class="st2" d="M27.28,25.58c-0.44,0.05-0.87,0.06-1.3,0.01c-0.22-0.02-0.43-0.07-0.64-0.14c-0.14-0.05-0.29-0.12-0.41-0.21
			c0.1,0.12,0.16,0.26,0.22,0.4c0.07,0.21,0.13,0.42,0.15,0.64c0.06,0.43,0.06,0.87,0.03,1.3l-0.01,0.12
			c0.64,0.48,2.4,0.25,2.4,0.25s0.18-1.77-0.32-2.39L27.28,25.58z"/>
		<path class="st2" d="M3.83,13.74c0.15-0.18,0.33-0.42,0.47-0.6c0.1-0.13,0.18-0.24,0.24-0.3C4.74,12.6,5,12.19,5.2,11.76
			c-0.07,0.02-0.14,0.04-0.22,0.06c-1.28,0.36-1.76,0.32-1.87,0.65c-0.05,0.15,0.01,0.29,0.67,1.19C3.8,13.69,3.81,13.72,3.83,13.74
			z"/>
		<path class="st2" d="M33.57,19.11c-0.44,0.05-0.87,0.06-1.3,0.01c-0.22-0.02-0.43-0.07-0.64-0.14c-0.14-0.05-0.29-0.12-0.41-0.21
			c0.1,0.12,0.16,0.26,0.22,0.4c0.07,0.21,0.13,0.42,0.15,0.64c0.06,0.43,0.06,0.87,0.03,1.3l-0.01,0.12
			c0.64,0.48,2.4,0.25,2.4,0.25s0.18-1.77-0.32-2.39L33.57,19.11z"/>
		<path class="st2" d="M10.44,12.32c0.02-0.04,0.07-0.08,0.12-0.09c0.24-0.04,0.47-0.13,0.67-0.26c0.17-0.11,0.32-0.26,0.44-0.43
			c0-0.01,0.01-0.01,0.01-0.01c-0.06,0-0.12-0.01-0.18-0.01c-0.36-0.04-0.71-0.06-1.08-0.12c0,0,0,0-0.01,0
			c0,0.02-0.01,0.04-0.02,0.06c-0.06,0.09-0.1,0.19-0.12,0.3c-0.02,0.18,0.03,0.32,0.07,0.39c0.02,0.05,0.02,0.1,0,0.14
			C10.38,12.3,10.41,12.31,10.44,12.32z"/>
		<path class="st2" d="M35.24,17.21c-0.5,0.01-1.24-0.03-1.68-0.15c0.07,0.19,0.11,0.39,0.14,0.59c0.06,0.43,0.06,0.87,0.03,1.3
			l0,0.06L34.14,19c0.38-0.06,0.92-0.2,1.52-0.51c0.9-0.47,1.59-1.46,1.59-1.46S36.49,17.19,35.24,17.21z"/>
		<path class="st2" d="M29.38,23.42c-0.44,0.05-0.87,0.06-1.3,0.01c-0.22-0.02-0.43-0.07-0.64-0.14c-0.14-0.05-0.29-0.12-0.41-0.21
			c0.1,0.12,0.16,0.26,0.22,0.4c0.07,0.21,0.13,0.42,0.15,0.64c0.06,0.43,0.06,0.87,0.03,1.3l-0.01,0.12
			c0.64,0.48,2.4,0.25,2.4,0.25s0.18-1.77-0.32-2.39L29.38,23.42z"/>
		<path class="st2" d="M31.48,21.27c-0.44,0.05-0.87,0.06-1.3,0.01c-0.22-0.02-0.43-0.07-0.64-0.14c-0.14-0.05-0.29-0.12-0.41-0.21
			c0.1,0.12,0.16,0.26,0.22,0.4c0.07,0.21,0.13,0.42,0.15,0.64c0.06,0.43,0.06,0.87,0.03,1.3l-0.01,0.12
			c0.64,0.48,2.4,0.25,2.4,0.25s0.18-1.77-0.32-2.39L31.48,21.27z"/>
	</g>
</g>
</svg>
