<?xml version="1.0" encoding="utf-8"?>
<!-- Generator: Adobe Illustrator 24.0.0, SVG Export Plug-In . SVG Version: 6.00 Build 0)  -->
<svg version="1.1" id="Layer_1" xmlns="http://www.w3.org/2000/svg" xmlns:xlink="http://www.w3.org/1999/xlink" x="0px" y="0px"
	 viewBox="0 0 175.42 257.35" style="enable-background:new 0 0 175.42 257.35;" xml:space="preserve">
<style type="text/css">
	.st0{fill:none;stroke:#000000;stroke-width:3;stroke-miterlimit:10;}
	.st1{fill:#07266B;}
	.st2{fill:#CECECE;}
	.st3{fill:none;stroke:#EDD15A;stroke-width:4;stroke-miterlimit:10;}
	.st4{fill:#EDD15A;}
</style>
<path class="st0" d="M27.65,82.28l30.25-40.68L87.34,2.03c0.41-0.55,1.23-0.55,1.63,0l29.42,39.59l30.24,40.69"/>
<polygon class="st1" points="141.44,203.18 141.44,87.02 36.35,87.02 36.35,203.18 36.44,203.18 62.71,230.27 88.99,257.35 
	115.26,230.27 141.53,203.18 "/>
<path class="st2" d="M160.01,87.02H15.41c-2.39,0-4.35-1.96-4.35-4.35v0c0-2.39,1.96-4.35,4.35-4.35h144.6
	c2.39,0,4.35,1.96,4.35,4.35v0C164.36,85.07,162.4,87.02,160.01,87.02z"/>
<ellipse class="st2" cx="10.67" cy="82.68" rx="10.67" ry="7.51"/>
<ellipse class="st2" cx="164.75" cy="82.68" rx="10.67" ry="7.51"/>
<g>
	<polygon class="st3" points="59.26,142.4 59.26,123.94 59.26,105.48 74.43,114.71 89.59,123.94 74.43,133.17 	"/>
	<polygon class="st3" points="119.32,105.48 119.32,123.94 119.32,142.4 104.16,133.17 88.99,123.94 104.16,114.71 	"/>
	<polyline class="st3" points="58.47,125.39 73.68,112.53 88.9,99.67 104.11,112.53 119.32,125.39 	"/>
</g>
<path d="M91.55,5.32C92.19,2.45,90.01,0,88.11,0c-1.9,0-4.08,2.45-3.44,5.32c0.63,2.82,1.85,5.95,3.76,5.95
	C90.3,11.27,90.92,8.14,91.55,5.32z"/>
<g>
	<path class="st2" d="M61.2,158.11c0.46,0.76,1.13,1.27,1.78,1.43l6.63,10.92c0.31,0.5,0.97,0.67,1.47,0.36
		c0.5-0.31,0.67-0.97,0.36-1.47l-6.63-10.92c0.16-0.65,0.01-1.48-0.45-2.24c-0.76-1.24-2.08-1.82-2.95-1.29
		C60.54,155.43,60.44,156.86,61.2,158.11z"/>
	<path class="st4" d="M73.82,179.12l9.84,16.2l15.43,25.41l5.15,5.24c0.07,0.07,0.19,0.09,0.28,0.03l0.45-0.27
		c0.08-0.05,0.12-0.15,0.09-0.24l-2.28-7l-15.43-25.41l-9.84-16.2l-0.72,2.96L73.82,179.12z"/>
	<path class="st4" d="M76.18,166.6l-10.87,6.6c-0.57-0.26-1.25-0.25-1.82,0.1c-0.92,0.56-1.21,1.75-0.65,2.66
		c0.56,0.92,1.75,1.21,2.66,0.65c0.57-0.35,0.9-0.95,0.93-1.57l3.59-2.18l2.68,4.42l2.96,0.72l0.72-2.96l-2.68-4.42l3.59-2.18
		c0.57,0.26,1.25,0.25,1.82-0.1c0.92-0.56,1.21-1.75,0.65-2.66c-0.56-0.92-1.75-1.21-2.66-0.65
		C76.54,165.37,76.21,165.97,76.18,166.6z M74.31,173.28l0.01,2.51l-2.22-1.17l-0.01-2.51L74.31,173.28z"/>
</g>
<g>
	<path class="st2" d="M110.71,156.24c-0.47,0.75-0.61,1.58-0.46,2.24l-6.7,10.87c-0.31,0.5-0.15,1.17,0.35,1.48
		c0.5,0.31,1.17,0.15,1.48-0.35l6.7-10.87c0.65-0.16,1.33-0.66,1.79-1.42c0.76-1.24,0.68-2.68-0.2-3.22
		C112.8,154.43,111.48,155,110.71,156.24z"/>
	<path class="st4" d="M97.75,177.04l-9.95,16.14l-15.6,25.3l-2.32,6.97c-0.03,0.1,0.01,0.21,0.09,0.26l0.45,0.27
		c0.08,0.05,0.18,0.04,0.25-0.03l5.2-5.22l15.6-25.3l9.95-16.14l-2.96,0.7L97.75,177.04z"/>
	<path class="st4" d="M109.97,173.44l-10.83-6.67c-0.02-0.62-0.35-1.23-0.92-1.58c-0.91-0.56-2.11-0.28-2.67,0.63
		s-0.28,2.11,0.63,2.67c0.57,0.35,1.26,0.37,1.82,0.11l3.58,2.21l-2.71,4.4l0.7,2.96l2.96-0.7l2.71-4.4l3.58,2.21
		c0.02,0.62,0.35,1.23,0.92,1.58c0.91,0.56,2.11,0.28,2.67-0.63s0.28-2.11-0.63-2.67C111.23,173.2,110.54,173.18,109.97,173.44z
		 M103.18,174.82l-2.23,1.16l0.03-2.51l2.23-1.16L103.18,174.82z"/>
</g>
</svg>
