<?xml version="1.0" encoding="utf-8"?>
<!-- Generator: Adobe Illustrator 24.0.1, SVG Export Plug-In . SVG Version: 6.00 Build 0)  -->
<svg version="1.1" id="Layer_1" xmlns="http://www.w3.org/2000/svg" xmlns:xlink="http://www.w3.org/1999/xlink" x="0px" y="0px"
	 viewBox="0 0 175.4 257.4" style="enable-background:new 0 0 175.4 257.4;" xml:space="preserve">
<style type="text/css">
	.st0{fill:#2D57A0;}
	.st1{fill:none;stroke:#CECECE;stroke-width:3;stroke-miterlimit:10;}
	.st2{fill:#CECECE;}
	.st3{fill:none;stroke:#EDD15A;stroke-width:4;stroke-miterlimit:10;}
	.st4{fill:#EDD15A;}
</style>
<polygon class="st0" points="141.4,203.2 141.4,87 36.3,87 36.3,203.2 36.4,203.2 62.7,230.3 89,257.4 115.3,230.3 141.5,203.2 "/>
<path class="st1" d="M27.6,82.3l30.3-40.7L87.3,2c0.4-0.5,1.2-0.5,1.6,0l29.4,39.6l30.2,40.7"/>
<path class="st2" d="M160,87H15.4c-2.4,0-4.4-2-4.4-4.3l0,0c0-2.4,2-4.3,4.4-4.3H160c2.4,0,4.4,2,4.4,4.3l0,0
	C164.4,85.1,162.4,87,160,87z"/>
<ellipse class="st2" cx="10.7" cy="82.7" rx="10.7" ry="7.5"/>
<ellipse class="st2" cx="164.8" cy="82.7" rx="10.7" ry="7.5"/>
<g>
	<polygon class="st3" points="59.3,142.4 59.3,123.9 59.3,105.5 74.4,114.7 89.6,123.9 74.4,133.2 	"/>
	<polygon class="st3" points="119.3,105.5 119.3,123.9 119.3,142.4 104.2,133.2 89,123.9 104.2,114.7 	"/>
	<polyline class="st3" points="58.5,125.4 73.7,112.5 88.9,99.7 104.1,112.5 119.3,125.4 	"/>
</g>
<path class="st2" d="M91.6,5.3C92.2,2.5,90,0,88.1,0S84,2.5,84.7,5.3c0.6,2.8,1.8,6,3.8,6C90.3,11.3,90.9,8.1,91.6,5.3z"/>
<g>
	<path class="st2" d="M61.2,158.1c0.5,0.8,1.1,1.3,1.8,1.4l6.6,10.9c0.3,0.5,1,0.7,1.5,0.4s0.7-1,0.4-1.5l-6.6-10.9
		c0.2-0.6,0-1.5-0.4-2.2c-0.8-1.2-2.1-1.8-3-1.3C60.5,155.4,60.4,156.9,61.2,158.1z"/>
	<path class="st4" d="M73.8,179.1l9.8,16.2l15.4,25.4l5.2,5.2c0.1,0.1,0.2,0.1,0.3,0l0.4-0.3c0.1-0.1,0.1-0.1,0.1-0.2l-2.3-7
		l-15.4-25.4l-9.8-16.2l-0.7,3L73.8,179.1z"/>
	<path class="st4" d="M76.2,166.6l-10.9,6.6c-0.6-0.3-1.2-0.2-1.8,0.1c-0.9,0.6-1.2,1.8-0.7,2.7c0.6,0.9,1.8,1.2,2.7,0.6
		c0.6-0.4,0.9-0.9,0.9-1.6l3.6-2.2l2.7,4.4l3,0.7l0.7-3l-2.7-4.4l3.6-2.2c0.6,0.3,1.2,0.2,1.8-0.1c0.9-0.6,1.2-1.8,0.7-2.7
		c-0.6-0.9-1.8-1.2-2.7-0.6C76.5,165.4,76.2,166,76.2,166.6z M74.3,173.3l0,2.5l-2.2-1.2l0-2.5L74.3,173.3z"/>
</g>
<g>
	<path class="st2" d="M110.7,156.2c-0.5,0.8-0.6,1.6-0.5,2.2l-6.7,10.9c-0.3,0.5-0.2,1.2,0.3,1.5s1.2,0.1,1.5-0.4l6.7-10.9
		c0.7-0.2,1.3-0.7,1.8-1.4c0.8-1.2,0.7-2.7-0.2-3.2C112.8,154.4,111.5,155,110.7,156.2z"/>
	<path class="st4" d="M97.8,177l-9.9,16.1l-15.6,25.3l-2.3,7c0,0.1,0,0.2,0.1,0.3l0.4,0.3c0.1,0.1,0.2,0,0.2,0l5.2-5.2l15.6-25.3
		l9.9-16.1l-3,0.7L97.8,177z"/>
	<path class="st4" d="M110,173.4l-10.8-6.7c0-0.6-0.3-1.2-0.9-1.6c-0.9-0.6-2.1-0.3-2.7,0.6s-0.3,2.1,0.6,2.7
		c0.6,0.4,1.3,0.4,1.8,0.1l3.6,2.2l-2.7,4.4l0.7,3l3-0.7l2.7-4.4l3.6,2.2c0,0.6,0.3,1.2,0.9,1.6c0.9,0.6,2.1,0.3,2.7-0.6
		s0.3-2.1-0.6-2.7C111.2,173.2,110.5,173.2,110,173.4z M103.2,174.8l-2.2,1.2l0-2.5l2.2-1.2L103.2,174.8z"/>
</g>
</svg>
