<?xml version="1.0" encoding="utf-8"?>
<!-- Generator: Adobe Illustrator 24.0.0, SVG Export Plug-In . SVG Version: 6.00 Build 0)  -->
<svg version="1.1" id="Layer_1" xmlns="http://www.w3.org/2000/svg" xmlns:xlink="http://www.w3.org/1999/xlink" x="0px" y="0px"
	 viewBox="0 0 40.35 49.95" style="enable-background:new 0 0 40.35 49.95;" xml:space="preserve">
<style type="text/css">
	.st0{fill:#FF9045;}
	.st1{fill:#D80505;}
</style>
<g>
	<g>
		<path class="st0" d="M0,0v29.87c0,0.02-0.03,1.72,1.08,4c1.02,2.11,3.26,5.17,8.08,7.74c7.83,4.18,10.35,7.3,11.02,8.33
			c0.67-1.03,3.19-4.15,11.02-8.33c9.25-4.94,9.16-11.67,9.16-11.74c0-0.01,0-29.88,0-29.88L20.18,0.11L0,0z"/>
	</g>
	<g>
		<path class="st1" d="M7.79,25.51c0.28,0.03,0.59-0.05,0.84-0.24c0.24-0.18,0.42-0.39,0.54-0.4c0.05-0.01,0.13,0,0.18,0.02
			c0.05,0.02,0.11,0.06,0.18,0.12c0.14,0.12,0.32,0.33,0.62,0.52c0.15,0.09,0.34,0.18,0.55,0.22c0.16,0.03,0.33,0.05,0.53,0.04
			c0.26-0.01,0.53-0.09,0.78-0.21L6.08,29l6.83-1.69c-0.08,0.17-0.06,0.6-0.01,0.8c0.05,0.18,0.06,0.34,0.05,0.46
			c-0.01,0.12-0.03,0.21-0.11,0.31c-0.04,0.05-0.1,0.1-0.18,0.16c-0.03,0.04-0.08,0.07-0.15,0.09c-0.15,0.06-0.4,0.05-0.73,0.08
			c-0.16,0.02-0.36,0.07-0.53,0.17c-0.17,0.1-0.31,0.24-0.41,0.42c-0.09,0.18-0.11,0.35-0.12,0.49c-0.01,0.14,0,0.25-0.02,0.36
			c-0.02,0.21-0.12,0.41-0.3,0.57c-0.17,0.16-0.41,0.27-0.66,0.33c0.26,0.01,0.53-0.02,0.78-0.15c0.25-0.12,0.49-0.34,0.6-0.63
			c0.12-0.28,0.17-0.55,0.27-0.61c0.04-0.03,0.11-0.06,0.17-0.07c0.06-0.01,0.12,0,0.21,0.02c0.18,0.03,0.44,0.13,0.8,0.14
			c0.18,0.01,0.38-0.01,0.58-0.09c0.15-0.05,0.31-0.12,0.48-0.23c0.25-0.16,0.48-0.4,0.63-0.68c-0.03,0.19,0,0.38,0.1,0.56
			c0.09,0.16,0.15,0.31,0.17,0.43c0.03,0.12,0.03,0.21-0.03,0.33c-0.03,0.06-0.07,0.13-0.14,0.2c-0.02,0.04-0.06,0.08-0.13,0.13
			c-0.13,0.09-0.38,0.15-0.68,0.27c-0.15,0.06-0.33,0.16-0.47,0.3c-0.14,0.14-0.24,0.31-0.28,0.51c-0.04,0.2-0.01,0.37,0.02,0.5
			c0.03,0.14,0.06,0.25,0.08,0.35c0.03,0.21-0.01,0.43-0.14,0.63c-0.13,0.2-0.32,0.37-0.55,0.49c0.25-0.06,0.5-0.16,0.72-0.34
			c0.21-0.18,0.38-0.46,0.42-0.76c0.04-0.3,0.02-0.57,0.1-0.66c0.03-0.04,0.09-0.09,0.14-0.11c0.05-0.02,0.12-0.03,0.21-0.04
			c0.19-0.02,0.46,0.01,0.81-0.07c0.17-0.04,0.37-0.11,0.54-0.23c0.13-0.09,0.27-0.2,0.4-0.34c0.18-0.19,0.31-0.44,0.4-0.7
			l-1.77,6.59l3.64-6.03c0.07,0.18,0.38,0.48,0.55,0.58c0.16,0.09,0.28,0.19,0.36,0.28c0.08,0.09,0.13,0.17,0.14,0.3
			c0.01,0.06,0,0.15-0.02,0.24c0,0.05-0.01,0.1-0.04,0.17c-0.07,0.15-0.25,0.32-0.46,0.57c-0.1,0.13-0.2,0.3-0.26,0.49
			c-0.05,0.19-0.05,0.39,0.01,0.59c0.06,0.19,0.17,0.33,0.26,0.43c0.09,0.1,0.18,0.18,0.24,0.27c0.13,0.16,0.2,0.37,0.19,0.61
			c-0.01,0.24-0.1,0.48-0.23,0.7c0.19-0.18,0.35-0.39,0.45-0.65c0.1-0.26,0.1-0.59-0.02-0.87c-0.11-0.28-0.27-0.51-0.24-0.63
			c0.01-0.05,0.03-0.12,0.07-0.17c0.04-0.04,0.09-0.09,0.16-0.14c0.15-0.11,0.4-0.22,0.66-0.46c0.03-0.03,0.07-0.08,0.1-0.11
			l-0.08,7.75c0,0.14,0.11,0.26,0.25,0.26c0.14,0,0.26-0.11,0.26-0.25l0.09-9.4c0.09,0.08,0.21,0.15,0.34,0.19
			c0.18,0.05,0.32,0.11,0.42,0.18c0.1,0.07,0.16,0.13,0.21,0.25c0.02,0.06,0.04,0.14,0.04,0.24c0.01,0.05,0.02,0.1,0,0.18
			c-0.03,0.16-0.16,0.37-0.29,0.67c-0.06,0.15-0.12,0.34-0.12,0.54c0,0.2,0.05,0.39,0.16,0.56c0.11,0.17,0.25,0.27,0.37,0.35
			c0.12,0.08,0.22,0.13,0.3,0.19c0.17,0.12,0.29,0.31,0.34,0.54c0.05,0.23,0.03,0.49-0.04,0.74c0.13-0.22,0.24-0.47,0.26-0.75
			c0.03-0.28-0.05-0.59-0.24-0.84c-0.18-0.24-0.39-0.42-0.4-0.54c-0.01-0.05,0-0.13,0.02-0.18c0.02-0.05,0.06-0.11,0.12-0.18
			c0.12-0.14,0.33-0.32,0.52-0.62c0.09-0.15,0.18-0.34,0.22-0.55c0.03-0.16,0.05-0.33,0.04-0.53c-0.01-0.26-0.09-0.53-0.21-0.78
			l3.41,5.91l-1.68-6.79c0.17,0.08,0.59,0.03,0.79-0.02c0.18-0.05,0.34-0.06,0.46-0.05c0.12,0.01,0.21,0.03,0.31,0.11
			c0.05,0.04,0.1,0.1,0.16,0.18c0.04,0.03,0.07,0.08,0.09,0.15c0.06,0.15,0.05,0.4,0.08,0.73c0.02,0.16,0.07,0.36,0.17,0.53
			c0.1,0.17,0.24,0.31,0.42,0.41c0.18,0.09,0.35,0.11,0.49,0.12c0.14,0.01,0.25,0,0.36,0.02c0.21,0.02,0.41,0.12,0.57,0.3
			c0.16,0.17,0.27,0.41,0.33,0.66c0.01-0.26-0.02-0.53-0.15-0.78c-0.12-0.25-0.34-0.49-0.63-0.6c-0.28-0.12-0.55-0.17-0.61-0.27
			c-0.03-0.04-0.06-0.11-0.07-0.17c-0.01-0.06,0-0.12,0.02-0.21c0.03-0.18,0.13-0.44,0.14-0.8c0.01-0.18-0.01-0.38-0.09-0.58
			c-0.05-0.15-0.12-0.31-0.23-0.48c-0.16-0.25-0.4-0.48-0.68-0.63c0.19,0.03,0.38,0,0.56-0.1c0.16-0.09,0.31-0.15,0.43-0.17
			c0.12-0.03,0.21-0.03,0.33,0.03c0.06,0.03,0.13,0.07,0.2,0.14c0.04,0.02,0.08,0.06,0.13,0.13c0.09,0.13,0.15,0.38,0.27,0.68
			c0.06,0.15,0.16,0.33,0.3,0.47c0.14,0.14,0.31,0.24,0.51,0.28c0.2,0.04,0.37,0.01,0.5-0.02c0.14-0.03,0.25-0.06,0.35-0.08
			c0.21-0.03,0.43,0.01,0.63,0.14c0.2,0.13,0.37,0.32,0.49,0.55c-0.06-0.25-0.16-0.5-0.34-0.72c-0.18-0.21-0.46-0.38-0.76-0.42
			c-0.3-0.04-0.57-0.02-0.66-0.1c-0.04-0.03-0.09-0.09-0.11-0.14c-0.02-0.05-0.03-0.12-0.04-0.21c-0.02-0.19,0.01-0.46-0.07-0.81
			c-0.04-0.17-0.11-0.37-0.23-0.54c-0.09-0.13-0.2-0.27-0.34-0.4c-0.19-0.18-0.44-0.31-0.7-0.4l6.59,1.77l-5.98-3.61
			c0.18-0.07,0.43-0.4,0.53-0.58c0.09-0.16,0.19-0.28,0.28-0.36c0.09-0.08,0.17-0.13,0.3-0.14c0.06-0.01,0.15,0,0.24,0.02
			c0.05,0,0.1,0.01,0.17,0.04c0.15,0.07,0.32,0.25,0.57,0.46c0.13,0.1,0.3,0.2,0.49,0.26c0.19,0.05,0.39,0.05,0.59-0.01
			c0.19-0.06,0.33-0.17,0.43-0.26c0.1-0.09,0.18-0.18,0.27-0.24c0.16-0.13,0.37-0.2,0.61-0.19c0.24,0.01,0.48,0.1,0.7,0.23
			c-0.18-0.19-0.39-0.35-0.65-0.45c-0.26-0.1-0.59-0.1-0.87,0.02c-0.28,0.11-0.51,0.27-0.63,0.24c-0.05-0.01-0.12-0.03-0.17-0.07
			c-0.04-0.04-0.09-0.09-0.14-0.16c-0.11-0.15-0.22-0.4-0.46-0.66c-0.12-0.13-0.28-0.26-0.47-0.35c-0.14-0.07-0.31-0.14-0.5-0.18
			c-0.29-0.07-0.63-0.05-0.93,0.03c0.15-0.11,0.27-0.27,0.33-0.46c0.05-0.18,0.11-0.32,0.18-0.42c0.07-0.1,0.13-0.16,0.25-0.21
			c0.06-0.02,0.14-0.04,0.24-0.04c0.05-0.01,0.1-0.02,0.18,0c0.16,0.03,0.37,0.16,0.67,0.29c0.15,0.06,0.34,0.12,0.54,0.12
			c0.2,0,0.39-0.05,0.56-0.16c0.17-0.11,0.27-0.25,0.35-0.37c0.08-0.12,0.13-0.22,0.19-0.3c0.12-0.17,0.31-0.29,0.54-0.34
			c0.23-0.05,0.49-0.03,0.74,0.04c-0.22-0.13-0.47-0.24-0.75-0.26c-0.28-0.03-0.59,0.05-0.84,0.24c-0.24,0.18-0.42,0.39-0.54,0.4
			c-0.05,0.01-0.13,0-0.18-0.02c-0.05-0.02-0.11-0.06-0.18-0.12c-0.14-0.12-0.32-0.33-0.62-0.52c-0.15-0.09-0.34-0.18-0.55-0.22
			c-0.16-0.03-0.33-0.05-0.53-0.04c-0.26,0.01-0.53,0.09-0.78,0.21l5.91-3.41l-6.85,1.7c0.08-0.17,0.09-0.61,0.04-0.8
			c-0.05-0.18-0.06-0.34-0.05-0.46c0.01-0.12,0.03-0.21,0.11-0.31c0.04-0.05,0.1-0.1,0.18-0.16c0.03-0.04,0.08-0.07,0.15-0.09
			c0.15-0.06,0.4-0.05,0.73-0.08c0.16-0.02,0.36-0.07,0.53-0.17c0.17-0.1,0.31-0.24,0.41-0.42c0.09-0.18,0.11-0.35,0.12-0.49
			c0.01-0.14,0-0.25,0.02-0.36c0.02-0.21,0.12-0.41,0.3-0.57c0.17-0.16,0.41-0.27,0.66-0.33c-0.26-0.01-0.53,0.02-0.78,0.15
			c-0.25,0.12-0.49,0.34-0.6,0.63c-0.12,0.28-0.17,0.55-0.27,0.61c-0.04,0.03-0.11,0.06-0.17,0.07c-0.06,0.01-0.12,0-0.21-0.02
			c-0.18-0.03-0.44-0.13-0.8-0.14c-0.18-0.01-0.38,0.01-0.58,0.09c-0.15,0.05-0.31,0.12-0.48,0.23c-0.25,0.16-0.48,0.4-0.63,0.68
			c0.03-0.19,0-0.38-0.1-0.56c-0.09-0.16-0.15-0.31-0.17-0.43c-0.03-0.12-0.03-0.21,0.03-0.33c0.03-0.06,0.07-0.13,0.14-0.2
			c0.02-0.04,0.06-0.08,0.13-0.13c0.13-0.09,0.38-0.15,0.68-0.27c0.15-0.06,0.33-0.16,0.47-0.3c0.14-0.14,0.24-0.31,0.28-0.51
			c0.04-0.2,0.01-0.37-0.02-0.5c-0.03-0.14-0.06-0.25-0.08-0.35c-0.03-0.21,0.01-0.43,0.14-0.63c0.13-0.2,0.32-0.37,0.55-0.49
			c-0.25,0.06-0.5,0.16-0.72,0.34c-0.21,0.18-0.38,0.46-0.42,0.76c-0.04,0.3-0.02,0.57-0.1,0.66c-0.03,0.04-0.09,0.09-0.14,0.11
			c-0.05,0.02-0.12,0.03-0.21,0.04c-0.19,0.02-0.46-0.01-0.81,0.07c-0.17,0.04-0.37,0.11-0.54,0.23c-0.13,0.09-0.27,0.2-0.4,0.34
			c-0.18,0.19-0.31,0.44-0.4,0.7l1.77-6.59l-3.6,5.98c-0.07-0.18-0.41-0.42-0.58-0.53c-0.16-0.09-0.28-0.19-0.36-0.28
			c-0.08-0.09-0.13-0.17-0.14-0.3c-0.01-0.06,0-0.15,0.02-0.24c0-0.05,0.01-0.1,0.04-0.17c0.07-0.15,0.25-0.32,0.46-0.57
			c0.1-0.13,0.2-0.3,0.26-0.49c0.05-0.19,0.05-0.39-0.01-0.59c-0.06-0.19-0.17-0.33-0.26-0.43c-0.09-0.1-0.18-0.18-0.24-0.27
			c-0.13-0.16-0.2-0.37-0.19-0.61c0.01-0.24,0.1-0.48,0.23-0.7c-0.19,0.18-0.35,0.39-0.45,0.65c-0.1,0.26-0.1,0.59,0.02,0.87
			c0.11,0.28,0.27,0.51,0.24,0.63c-0.01,0.05-0.03,0.12-0.07,0.17c-0.04,0.04-0.09,0.09-0.16,0.14c-0.15,0.11-0.4,0.22-0.66,0.46
			c-0.03,0.03-0.07,0.08-0.1,0.11l0.04-4.55c0.11-0.01,0.22-0.02,0.33-0.04c0.19-0.04,0.39-0.09,0.58-0.19
			c-0.19-0.11-0.39-0.16-0.58-0.2c-0.01,0-0.01,0-0.02,0c0.21-0.16,0.35-0.41,0.35-0.7c0-0.29-0.14-0.55-0.35-0.72
			c0.16-0.04,0.33-0.09,0.49-0.18c-0.17-0.11-0.34-0.16-0.52-0.2c-0.01,0-0.02,0-0.03-0.01c0.12-0.12,0.2-0.29,0.2-0.47
			c0-0.38-0.65-2.55-0.65-2.55s-0.7,2.17-0.7,2.54c0,0.18,0.07,0.35,0.19,0.48c-0.01,0-0.02,0-0.03,0.01
			c-0.17,0.04-0.35,0.09-0.52,0.19c0.16,0.1,0.32,0.16,0.49,0.2c-0.22,0.16-0.36,0.42-0.36,0.71c0,0.29,0.13,0.54,0.34,0.71
			c-0.01,0-0.01,0-0.02,0c-0.19,0.04-0.39,0.09-0.58,0.19c0.19,0.11,0.39,0.17,0.58,0.2c0.11,0.02,0.22,0.04,0.33,0.05l-0.06,6.2
			c-0.09-0.08-0.21-0.15-0.34-0.19c-0.18-0.05-0.32-0.11-0.42-0.18c-0.1-0.07-0.16-0.13-0.21-0.25c-0.02-0.06-0.04-0.14-0.04-0.24
			c-0.01-0.05-0.02-0.1,0-0.18c0.03-0.16,0.16-0.37,0.29-0.67c0.06-0.15,0.12-0.34,0.12-0.54c0-0.2-0.05-0.39-0.16-0.56
			c-0.11-0.17-0.25-0.27-0.37-0.35c-0.12-0.08-0.22-0.13-0.3-0.19c-0.17-0.12-0.29-0.31-0.34-0.54c-0.05-0.23-0.03-0.49,0.04-0.74
			c-0.13,0.22-0.24,0.47-0.26,0.75c-0.03,0.28,0.05,0.59,0.24,0.84c0.18,0.24,0.39,0.42,0.4,0.54c0.01,0.05,0,0.13-0.02,0.18
			c-0.02,0.05-0.06,0.11-0.12,0.18c-0.12,0.14-0.33,0.32-0.52,0.62c-0.09,0.15-0.18,0.34-0.22,0.55c-0.03,0.16-0.05,0.33-0.04,0.53
			c0.01,0.26,0.09,0.53,0.21,0.78l-3.41-5.91l1.69,6.82c-0.17-0.08-0.6-0.05-0.79,0c-0.18,0.05-0.34,0.06-0.46,0.06
			c-0.12-0.01-0.21-0.03-0.31-0.11c-0.05-0.04-0.1-0.1-0.16-0.18c-0.04-0.03-0.07-0.08-0.09-0.15c-0.06-0.15-0.05-0.4-0.08-0.73
			c-0.02-0.16-0.07-0.36-0.17-0.53c-0.1-0.17-0.24-0.31-0.42-0.41c-0.18-0.09-0.35-0.11-0.49-0.12c-0.14-0.01-0.25,0-0.36-0.02
			c-0.21-0.02-0.41-0.12-0.57-0.3c-0.16-0.17-0.27-0.41-0.33-0.66c-0.01,0.26,0.02,0.53,0.15,0.78c0.12,0.25,0.34,0.49,0.63,0.6
			c0.28,0.12,0.55,0.17,0.61,0.27c0.03,0.04,0.06,0.11,0.07,0.17c0.01,0.06,0,0.12-0.02,0.21c-0.03,0.18-0.13,0.44-0.14,0.8
			c-0.01,0.18,0.01,0.38,0.09,0.58c0.05,0.15,0.12,0.31,0.23,0.48c0.16,0.25,0.4,0.48,0.68,0.63c-0.19-0.03-0.38,0-0.56,0.1
			c-0.16,0.09-0.31,0.15-0.43,0.17c-0.12,0.03-0.21,0.03-0.33-0.03c-0.06-0.03-0.13-0.07-0.2-0.14c-0.04-0.02-0.08-0.06-0.13-0.13
			c-0.09-0.13-0.15-0.38-0.27-0.68c-0.06-0.15-0.16-0.33-0.3-0.47c-0.14-0.14-0.31-0.24-0.51-0.28c-0.2-0.04-0.37-0.01-0.5,0.02
			c-0.14,0.03-0.25,0.06-0.35,0.08c-0.21,0.03-0.43-0.01-0.63-0.14c-0.2-0.13-0.37-0.32-0.49-0.55c0.06,0.25,0.16,0.5,0.34,0.72
			c0.18,0.21,0.46,0.38,0.76,0.42c0.3,0.04,0.57,0.02,0.66,0.1c0.04,0.03,0.09,0.09,0.11,0.14c0.02,0.05,0.03,0.12,0.04,0.21
			c0.02,0.19-0.01,0.46,0.07,0.81c0.04,0.17,0.11,0.37,0.23,0.54c0.09,0.13,0.2,0.27,0.34,0.4c0.19,0.18,0.44,0.31,0.7,0.4
			L6.2,17.38l6.05,3.65c-0.18,0.07-0.5,0.36-0.6,0.54c-0.09,0.16-0.19,0.28-0.28,0.36c-0.09,0.08-0.17,0.13-0.3,0.14
			c-0.06,0.01-0.15,0-0.24-0.02c-0.05,0-0.1-0.01-0.17-0.04c-0.15-0.07-0.32-0.25-0.57-0.46c-0.13-0.1-0.3-0.2-0.49-0.26
			C9.39,21.25,9.2,21.25,9,21.31c-0.19,0.06-0.33,0.17-0.43,0.26c-0.1,0.09-0.18,0.18-0.27,0.24c-0.16,0.13-0.37,0.2-0.61,0.19
			c-0.24-0.01-0.48-0.1-0.7-0.23c0.18,0.19,0.39,0.35,0.65,0.45c0.26,0.1,0.59,0.1,0.87-0.02c0.28-0.11,0.51-0.27,0.63-0.24
			c0.05,0.01,0.12,0.03,0.17,0.07c0.04,0.04,0.09,0.09,0.14,0.16c0.11,0.15,0.22,0.4,0.46,0.66c0.12,0.13,0.28,0.26,0.47,0.35
			c0.14,0.07,0.31,0.14,0.5,0.18c0.29,0.07,0.63,0.05,0.93-0.03c-0.15,0.11-0.27,0.27-0.33,0.46c-0.05,0.18-0.11,0.32-0.18,0.42
			c-0.07,0.1-0.13,0.16-0.25,0.21c-0.06,0.02-0.14,0.04-0.24,0.04c-0.05,0.01-0.1,0.02-0.18,0c-0.16-0.03-0.37-0.16-0.67-0.29
			c-0.15-0.06-0.34-0.12-0.54-0.12c-0.2,0-0.39,0.05-0.56,0.16c-0.17,0.11-0.27,0.25-0.35,0.37c-0.08,0.12-0.13,0.22-0.19,0.3
			c-0.12,0.17-0.31,0.29-0.54,0.34c-0.23,0.05-0.49,0.03-0.74-0.04C7.26,25.38,7.51,25.49,7.79,25.51z M17.47,16.65
			c3.68-1.48,7.88,0.31,9.36,3.99c1.48,3.68-0.31,7.88-3.99,9.36c-3.68,1.48-7.88-0.31-9.36-3.99C12,22.34,13.79,18.14,17.47,16.65z
			"/>
		<path class="st1" d="M19.84,29.77l0.06-6.44c0-0.11,0.07-0.2,0.16-0.23c0.03-0.01,0.06-0.02,0.1-0.02c0.14,0,0.25,0.12,0.25,0.26
			l-0.06,6.44c0.74-0.02,1.49-0.17,2.22-0.46c3.31-1.33,4.9-5.09,3.57-8.4c-1.33-3.31-5.09-4.9-8.4-3.57
			c-3.31,1.33-4.9,5.09-3.57,8.4C15.15,28.15,17.41,29.65,19.84,29.77z M23.06,18.64c0.59,0.37,1.1,0.89,1.4,1.51
			c-0.51-0.46-1.01-0.88-1.58-1.22c-0.56-0.35-1.16-0.62-1.8-0.87C21.78,18.05,22.47,18.28,23.06,18.64z M25.06,25.1
			c0.23-0.59,0.39-1.23,0.44-1.88c0.08,0.65,0.01,1.33-0.19,1.97c-0.2,0.64-0.55,1.24-0.98,1.75c-0.44,0.51-0.99,0.93-1.6,1.22
			c-0.6,0.3-1.27,0.46-1.93,0.47c0.64-0.14,1.25-0.39,1.8-0.71c0.55-0.33,1.05-0.73,1.46-1.21C24.48,26.24,24.82,25.69,25.06,25.1z
			 M20.86,22.87c0.13,0.24,0.11,0.55-0.05,0.73c0.05-0.48-0.29-0.82-0.64-0.81c-0.35-0.01-0.7,0.31-0.66,0.8
			c-0.16-0.19-0.18-0.5-0.04-0.73c0.13-0.25,0.41-0.4,0.7-0.4C20.46,22.46,20.73,22.62,20.86,22.87z M16.77,18.98
			c0.27-0.21,0.57-0.39,0.89-0.52c0.16-0.07,0.32-0.12,0.48-0.17c0.17-0.03,0.34-0.07,0.5-0.09c-0.15,0.09-0.29,0.17-0.44,0.24
			c-0.15,0.08-0.29,0.16-0.43,0.25c-0.28,0.17-0.55,0.35-0.8,0.55c-0.52,0.39-0.96,0.86-1.42,1.36
			C15.79,19.96,16.23,19.4,16.77,18.98z M18.21,28.13c0.38,0.16,0.77,0.3,1.17,0.49c-0.44,0.07-0.89-0.02-1.3-0.18
			c-0.41-0.17-0.79-0.42-1.06-0.78C17.45,27.8,17.82,27.97,18.21,28.13z M14.81,23.13l0.16,0.79c0.06,0.26,0.11,0.51,0.18,0.76
			c0.13,0.51,0.31,0.99,0.48,1.52c-0.4-0.38-0.66-0.9-0.81-1.43C14.69,24.23,14.66,23.66,14.81,23.13z"/>
	</g>
</g>
</svg>
