<?xml version="1.0" encoding="utf-8"?>
<!-- Generator: Adobe Illustrator 24.0.0, SVG Export Plug-In . SVG Version: 6.00 Build 0)  -->
<svg version="1.1" id="Layer_1" xmlns="http://www.w3.org/2000/svg" xmlns:xlink="http://www.w3.org/1999/xlink" x="0px" y="0px"
	 viewBox="0 0 39.96 49.47" style="enable-background:new 0 0 39.96 49.47;" xml:space="preserve">
<style type="text/css">
	.st0{fill:#FF9045;}
	.st1{fill:#121212;}
	.st2{fill:#2F2F2F;}
	.st3{fill:#2E2E2E;}
	.st4{fill:#1E1E1E;}
	.st5{fill:#545454;}
	.st6{opacity:0.5;}
	.st7{fill:#767676;}
	.st8{opacity:0.2;fill:#FFFFFF;}
</style>
<g>
	<path class="st0" d="M0,0v29.58c0,0.02-0.03,1.7,1.06,3.96c1.01,2.09,3.22,5.12,8,7.67c7.75,4.14,10.25,7.23,10.91,8.25
		c0.66-1.02,3.16-4.11,10.91-8.25c9.16-4.89,9.07-11.56,9.07-11.62c0-0.01,0-29.59,0-29.59L19.98,0.11L0,0z"/>
</g>
<g>
	<g>
		<g>
			<path class="st1" d="M29.46,28.94c-1.47,0.27-3.55,0.04-6.12-1.26c-1.97-1.01-4.24-2.57-6.43-2.41c-4.8,0.27-6.51,3.5-8.54,3.28
				c-4.25-0.73-2.55-8.76,3.41-10.28c1.02-0.28,1.95-0.3,2.75-0.33c0.08,0,0.44,0,0.45-0.06c0.01-0.09-0.69-0.24-0.84-0.27
				C5.76,16.34,1.96,27.3,7.17,29.93c3.37,1.63,4.88-2.4,9.71-2.45c2.66-0.03,5.02,2.77,8.72,3.84c0.99,0.3,2.19,0.45,2.82,0.45
				c0.47,0.01,0.87-0.02,1.23-0.09C29.59,30.78,29.55,29.85,29.46,28.94z"/>
			<path class="st2" d="M29.5,29.35c-1.4,0.24-3-0.02-4.18-0.41c-3.89-1.24-5.79-4.2-10.32-3.03c-3.44,0.89-4.95,3.43-7,2.9
				c-0.04-0.01-0.26-0.08-0.3-0.1c-3.05-1.29-2.45-6.41,1.21-9.38c0.02-0.01,0.62-0.45,0.61-0.47c-0.01-0.02-0.09-0.01-0.25,0.06
				c-3.8,1.65-5.82,8.28-2.15,10.42c3.25,1.78,4.77-2.42,9.66-2.53c2.93-0.05,4.9,2.31,8.21,3.46c1.39,0.49,3.07,0.77,4.59,0.55
				C29.57,30.32,29.54,29.83,29.5,29.35z"/>
		</g>
		<g>
			<path class="st1" d="M20.14,12.39c0.02-1.93,1.85-3.34,2.88-2.6l0.89-2.82c-4.54-1.51-7.69,4.39-5.5,8.59
				c2.22,4.29,9.09,5.65,10.81,8.22c0.39,0.57,0.3,1.5-0.11,1.85c-0.49,0.43-1.4,0.79-3.35-0.13c-2.8-1.48-3.71-3.08-7.99-4.64
				c-5.36-1.88-8.87,2.06-7.95,5.96c0.55-0.25,1.09-0.5,1.63-0.79c0.35-0.21,0.68-0.43,1-0.69c0.2-0.16,0.41-0.25,0.63-0.27
				c0.47-0.57,1.73-1.1,3.67-0.49c3.43,1.06,4.86,2.92,7.74,4.33c2.1,1.02,4.82,1.15,6.55-0.55c0.65-0.65,0.87-1.24,1.13-2.14
				C34.3,17.76,20.02,18.22,20.14,12.39z"/>
			<path class="st2" d="M22.02,23.55c-1.22-0.87-2.59-1.66-4.52-2.28c-4.99-1.59-8.07,1.91-7.29,5.36c0.42-0.2,0.84-0.4,1.25-0.62
				c0.1-0.06,0.19-0.12,0.29-0.18c-0.26-2.3,2.45-3.55,5.17-2.69c1.35,0.43,2.26,0.79,3.25,1.45
				C21.73,25.65,22.98,24.24,22.02,23.55z"/>
			<path class="st2" d="M19.25,13.43c-0.59-3.36,2.18-5.8,4.12-4.75l0.45-1.44c-4.44-1.71-8.23,5.17-4.19,9.65
				c3.01,3.3,9.08,4.54,10.1,7.19c0.38,0.99-0.27,1.77-0.31,1.81c-0.47,0.46-1.26,0.69-2.25,0.54c-0.98-0.15-2.44,1.25-0.63,1.77
				c0.39,0.11,0.8,0.12,1.22,0.11c1.14-0.03,2.48-0.48,3.07-1.64C34.09,19.47,20.28,19.33,19.25,13.43z"/>
			<path class="st2" d="M24.15,25.04c-0.03,0.03-0.06,0.06-0.09,0.08c-0.02,0.02-0.05,0.03-0.07,0.05c0.07-0.03,0.15-0.06,0.22-0.09
				C24.19,25.06,24.17,25.05,24.15,25.04z"/>
		</g>
		<g>
			<path class="st1" d="M34.63,24.72c-0.63-3.22-4.68-5.17-8.31-2.87c-2.44,1.5-5.18,4.67-8,5.38c-1.6,0.4-5.25,0.33-5.42-1.31
				c-0.03-0.25-0.04-0.58,0.19-0.86c-0.23-0.84-1.61,0.53-2,0.74c-0.44,0.25-0.87,0.51-1.31,0.75c0.04,0.47,0.23,1.05,0.64,1.78
				c1.05,1.87,2.86,2.64,4.74,2.79c4.36,0.35,7.15-1.86,9.52-3.93c0.1-0.11,0.2-0.19,0.3-0.26c0.84-0.74,1.62-1.44,2.42-2
				c2.12-1.54,4.28-0.74,4.74,0.41c0,0.01,0.01,0.02,0.01,0.03c0.23,1.34-0.26,2.57-1.48,3.19c-0.49,0.24-1.12,0.41-1.89,0.47
				c-0.01,0.08-0.01,0.15-0.03,0.22c-0.03,0.17-0.05,0.35-0.07,0.52c-0.04,0.67-0.06,1.36-0.17,2.02
				C33.31,31.57,35.19,28.48,34.63,24.72z"/>
			<path class="st2" d="M33.79,24.94c-0.46-2.19-3.26-3.92-6.42-2.41c-2.59,1.34-4.99,4.56-8.37,5.82c-2.37,0.76-6.33,0.8-7.15-1.96
				c-0.09-0.31-0.13-0.69-0.12-1.06c-0.14,0.07-1.28,0.43-1.64,0.63c0.06,0.75,0.31,1.54,0.73,2.23c1.45,2.43,4.25,2.7,6.7,2.39
				c1.09-0.14,1.54-0.31,1.91-0.44c3.36-1.29,5.72-4.2,7.87-5.65c2.92-1.9,5.01-0.15,5.2,0.8c0.2,1.05-0.06,2.23-0.81,3.01
				c-0.47,0.49-1.18,1.23-3.26,1.3c0.1,0.44,0.22,0.91,0.19,1.28c1.85-0.03,3.63-0.66,4.59-2.35
				C33.79,27.51,34.01,26.21,33.79,24.94z"/>
		</g>
	</g>
	<g>
		<g>
			<path class="st1" d="M22.79,6.76c1.4,0.07,3.72,1.09,3.86,1.7c0.21,0.9,1.4,1.65,1.28,2.17c-0.04,0.21-0.64,0.99-0.92,0.98
				c-0.91-0.04-2.6-0.57-2.94-0.74c-3.22-1.58-1.76-3.04-1.63-3.58C22.57,6.75,22.79,6.76,22.79,6.76z"/>
			<path class="st3" d="M24.95,8.75c0.62,0.34-0.17,0.71-0.62,0.56C23.88,9.16,23.75,8.1,24.95,8.75z"/>
			<path class="st4" d="M24.83,8.81c0.41,0.22-0.11,0.47-0.41,0.37C24.12,9.08,24.04,8.38,24.83,8.81z"/>
			<path class="st3" d="M27.55,11.2c0,0,0,0-0.01,0.01c0,0.01-0.02,0.02-0.03,0.03c-0.03,0.02-0.08,0.03-0.14,0.04
				c-0.12,0.01-0.28,0-0.48-0.03c-0.39-0.06-0.91-0.19-1.42-0.35c-0.51-0.16-1.01-0.36-1.38-0.54c-0.18-0.09-0.33-0.17-0.44-0.24
				c-0.05-0.03-0.09-0.06-0.12-0.08C23.51,10.01,23.5,10,23.5,10c-0.03-0.02-0.03-0.06-0.01-0.09c0.02-0.03,0.05-0.04,0.08-0.02
				c0,0,0,0,0,0l0,0c0,0,0.01,0.01,0.04,0.03c0.02,0.02,0.06,0.05,0.11,0.08c0.1,0.07,0.24,0.15,0.42,0.25
				c0.36,0.18,0.86,0.39,1.36,0.56c0.5,0.17,1.02,0.32,1.41,0.38c0.19,0.03,0.36,0.05,0.47,0.04c0.06-0.01,0.1-0.02,0.12-0.03
				c0.01,0,0.01-0.01,0.01-0.01c0,0,0.01,0,0.01-0.01c0.01-0.01,0.01-0.01,0.01-0.01l0,0c0.01-0.01,0.02-0.01,0.03,0
				C27.56,11.18,27.56,11.19,27.55,11.2z"/>
		</g>
		<path class="st2" d="M21.86,8.5c0.51-0.13,1.28,0.21,1.91,0.2c0.09,0,0.5-0.31,0.64-0.31c0.4-0.01,0.77,0.29,1.05,0.22
			c0.39-0.1,0.7-0.29,0.57-0.42c-0.37-0.39-2.24-1.25-3.83-1.2C21.07,7.02,21.86,8.5,21.86,8.5z"/>
		<path class="st5" d="M24.59,9.02c0,0.05-0.05,0.09-0.11,0.09c-0.06,0-0.11-0.03-0.12-0.08c0-0.05,0.05-0.09,0.11-0.09
			C24.54,8.94,24.59,8.97,24.59,9.02z"/>
		<path class="st3" d="M27.51,11.32c-0.02,0-0.04,0-0.06,0l-0.07,0l0.04-0.07c0.02-0.04,0.06-0.05,0.11-0.06
			c0.11-0.02,0.31-0.07,0.57-0.43c0.25-0.33,0.22-1.35,0.05-1.67c-0.09-0.16-0.22-0.48-0.16-0.74c0.03-0.12,0.09-0.21,0.19-0.27
			c0,0-0.2,0.34-0.05,0.65c0.09-0.44,0.31-0.35,0.31-0.35c0,0,0,0-0.01,0c-0.02,0-0.06,0.01-0.1,0.07c-0.06,0.09-0.1,0.31,0.02,0.82
			c0.15,0.62,0.09,1.22-0.14,1.6C28.06,11.15,27.82,11.3,27.51,11.32L27.51,11.32z"/>
		<path class="st2" d="M26.11,9.47c-0.18,0.22,0.87,0.66,0.99,0.5c0.12-0.16-0.39-0.89-0.52-0.86C26.44,9.15,26.11,9.47,26.11,9.47z
			"/>
	</g>
	<g>
		<g class="st6">
			<g>
				<path class="st7" d="M22.55,7.77c-0.17,0.01-0.18-0.3-0.01-0.3C22.71,7.46,22.72,7.76,22.55,7.77z"/>
			</g>
			<g>
				<path class="st7" d="M23.14,7.52c-0.18,0.01-0.19-0.32-0.01-0.33C23.31,7.18,23.32,7.52,23.14,7.52z"/>
			</g>
		</g>
		<g class="st6">
			<g>
				<path class="st7" d="M20.88,8.74c-0.22,0.01-0.23-0.39-0.01-0.4C21.08,8.33,21.1,8.73,20.88,8.74z"/>
			</g>
			<g>
				<path class="st7" d="M20.06,8.93c-0.22,0.01-0.23-0.38-0.01-0.39C20.26,8.53,20.28,8.92,20.06,8.93z"/>
			</g>
			<g>
				<path class="st7" d="M20.14,8.33c-0.17,0.01-0.19-0.31-0.01-0.32C20.3,8.01,20.31,8.32,20.14,8.33z"/>
			</g>
			<g>
				<path class="st7" d="M20.15,7.97c-0.16,0.01-0.17-0.29-0.01-0.3C20.3,7.66,20.31,7.96,20.15,7.97z"/>
			</g>
		</g>
		<g class="st6">
			<g>
				<path class="st7" d="M18.74,11.85c-0.2,0.01-0.21-0.35-0.01-0.36C18.92,11.49,18.93,11.84,18.74,11.85z"/>
			</g>
			<g>
				<path class="st7" d="M18.5,11.63c-0.15,0.01-0.16-0.27-0.01-0.27C18.64,11.35,18.65,11.62,18.5,11.63z"/>
			</g>
			<g>
				<path class="st7" d="M18.31,11.37c-0.22,0.01-0.23-0.39-0.01-0.4C18.52,10.96,18.53,11.36,18.31,11.37z"/>
			</g>
			<g>
				<path class="st7" d="M18.1,10.92c-0.23,0.01-0.24-0.4-0.01-0.41C18.32,10.49,18.33,10.91,18.1,10.92z"/>
			</g>
		</g>
		<g class="st6">
			<g>
				<path class="st7" d="M19.66,14.83c-0.15,0.01-0.16-0.27-0.01-0.27C19.81,14.55,19.81,14.83,19.66,14.83z"/>
			</g>
			<g>
				<path class="st7" d="M19.21,14.76c-0.17,0.01-0.18-0.3-0.01-0.31C19.37,14.44,19.38,14.75,19.21,14.76z"/>
			</g>
			<g>
				<path class="st7" d="M18.77,14.79c-0.23,0.01-0.24-0.41-0.01-0.42C18.98,14.36,19,14.78,18.77,14.79z"/>
			</g>
			<g>
				<path class="st7" d="M18.81,15.43c-0.16,0.01-0.17-0.28-0.01-0.29C18.96,15.13,18.97,15.42,18.81,15.43z"/>
			</g>
		</g>
		<g class="st6">
			<g>
				<path class="st7" d="M22.21,17.99c-0.22,0.01-0.23-0.39-0.01-0.4C22.42,17.58,22.43,17.98,22.21,17.99z"/>
			</g>
			<g>
				<path class="st7" d="M22.18,18.27c-0.15,0.01-0.16-0.27-0.01-0.27C22.32,17.99,22.33,18.26,22.18,18.27z"/>
			</g>
			<g>
				<path class="st7" d="M21.4,18.1c-0.15,0.01-0.15-0.26-0.01-0.26C21.53,17.83,21.54,18.09,21.4,18.1z"/>
			</g>
			<g>
				<path class="st7" d="M21.96,19.03c-0.17,0.01-0.18-0.31-0.01-0.32C22.13,18.7,22.14,19.02,21.96,19.03z"/>
			</g>
		</g>
		<g class="st6">
			<g>
				<path class="st7" d="M25.45,19.22c-0.21,0.01-0.22-0.37-0.01-0.38C25.64,18.82,25.66,19.21,25.45,19.22z"/>
			</g>
			<g>
				<path class="st7" d="M25.14,19.58c-0.17,0.01-0.18-0.3-0.01-0.31C25.3,19.26,25.31,19.57,25.14,19.58z"/>
			</g>
			<g>
				<path class="st7" d="M25.47,19.98c-0.15,0.01-0.16-0.26-0.01-0.27C25.61,19.7,25.62,19.97,25.47,19.98z"/>
			</g>
			<g>
				<path class="st7" d="M25.13,20.22c-0.18,0.01-0.19-0.32-0.01-0.32C25.29,19.89,25.3,20.21,25.13,20.22z"/>
			</g>
			<g>
				<path class="st7" d="M25.27,20.7c-0.16,0.01-0.17-0.29-0.01-0.3C25.43,20.4,25.44,20.69,25.27,20.7z"/>
			</g>
		</g>
		<g class="st6">
			<g>
				<path class="st7" d="M29.86,26.37c-0.21,0.01-0.22-0.37-0.01-0.38C30.05,25.97,30.07,26.36,29.86,26.37z"/>
			</g>
			<g>
				<path class="st7" d="M29.81,25.8c-0.19,0.01-0.2-0.34-0.01-0.34C29.99,25.45,30,25.79,29.81,25.8z"/>
			</g>
			<g>
				<path class="st7" d="M29.29,25.96c-0.23,0.01-0.24-0.41-0.01-0.42C29.51,25.53,29.52,25.95,29.29,25.96z"/>
			</g>
		</g>
		<g class="st6">
			<g>
				<path class="st7" d="M27.19,27.18c-0.19,0.01-0.2-0.33-0.01-0.34C27.37,26.83,27.38,27.18,27.19,27.18z"/>
			</g>
			<g>
				<path class="st7" d="M27.35,26.77c-0.2,0.01-0.22-0.36-0.01-0.37C27.54,26.39,27.55,26.76,27.35,26.77z"/>
			</g>
			<g>
				<path class="st7" d="M27.05,26.44c-0.22,0.01-0.24-0.4-0.01-0.41C27.26,26.02,27.27,26.43,27.05,26.44z"/>
			</g>
		</g>
		<g class="st6">
			<g>
				<path class="st7" d="M20.53,23.9c-0.18,0.01-0.19-0.32-0.01-0.33C20.71,23.56,20.72,23.89,20.53,23.9z"/>
			</g>
			<g>
				<path class="st7" d="M20.74,23.6c-0.2,0.01-0.22-0.36-0.01-0.37C20.93,23.22,20.94,23.59,20.74,23.6z"/>
			</g>
			<g>
				<path class="st7" d="M21.18,23.17c-0.15,0.01-0.16-0.27-0.01-0.28C21.32,22.88,21.33,23.16,21.18,23.17z"/>
			</g>
			<g>
				<path class="st7" d="M20.78,22.81c-0.19,0.01-0.2-0.33-0.01-0.34C20.96,22.46,20.97,22.81,20.78,22.81z"/>
			</g>
		</g>
		<g class="st6">
			<g>
				<path class="st7" d="M17.72,22.63c-0.17,0.01-0.18-0.31-0.01-0.31C17.88,22.31,17.89,22.62,17.72,22.63z"/>
			</g>
			<g>
				<path class="st7" d="M18.05,22.34c-0.19,0.01-0.2-0.34-0.01-0.35C18.23,21.98,18.24,22.33,18.05,22.34z"/>
			</g>
			<g>
				<path class="st7" d="M18,21.99c-0.2,0.01-0.21-0.36-0.01-0.37C18.19,21.62,18.21,21.98,18,21.99z"/>
			</g>
			<g>
				<path class="st7" d="M17.73,21.57c-0.19,0.01-0.2-0.33-0.01-0.34C17.9,21.23,17.91,21.57,17.73,21.57z"/>
			</g>
			<g>
				<path class="st7" d="M17.35,21.23c-0.2,0.01-0.21-0.35-0.01-0.36C17.54,20.86,17.55,21.22,17.35,21.23z"/>
			</g>
		</g>
		<g class="st6">
			<g>
				<path class="st7" d="M14.05,22.46c-0.18,0.01-0.19-0.31-0.01-0.32C14.22,22.13,14.23,22.45,14.05,22.46z"/>
			</g>
			<g>
				<path class="st7" d="M14.57,21.81c-0.19,0.01-0.21-0.34-0.01-0.35C14.75,21.44,14.76,21.8,14.57,21.81z"/>
			</g>
			<g>
				<path class="st7" d="M13.99,21.76c-0.21,0.01-0.22-0.37-0.01-0.38C14.19,21.37,14.2,21.75,13.99,21.76z"/>
			</g>
			<g>
				<path class="st7" d="M13.94,21.44c-0.2,0.01-0.22-0.36-0.01-0.37C14.13,21.06,14.15,21.43,13.94,21.44z"/>
			</g>
			<g>
				<path class="st7" d="M13.89,21.05c-0.22,0.01-0.24-0.39-0.01-0.4C14.1,20.64,14.11,21.04,13.89,21.05z"/>
			</g>
		</g>
		<g class="st6">
			<g>
				<path class="st7" d="M11.71,23.34c-0.22,0.01-0.23-0.39-0.01-0.4C11.91,22.94,11.92,23.33,11.71,23.34z"/>
			</g>
			<g>
				<path class="st7" d="M11.43,23.23c-0.2,0.01-0.21-0.35-0.01-0.36C11.62,22.86,11.63,23.22,11.43,23.23z"/>
			</g>
			<g>
				<path class="st7" d="M11.16,22.52c-0.16,0.01-0.17-0.29-0.01-0.29C11.31,22.22,11.32,22.51,11.16,22.52z"/>
			</g>
		</g>
		<g class="st6">
			<g>
				<path class="st7" d="M11.52,25c-0.2,0.01-0.21-0.35-0.01-0.36C11.7,24.63,11.71,24.99,11.52,25z"/>
			</g>
			<g>
				<path class="st7" d="M11.29,25.41c-0.17,0.01-0.18-0.3-0.01-0.3C11.45,25.1,11.46,25.41,11.29,25.41z"/>
			</g>
			<g>
				<path class="st7" d="M11.07,25.56c-0.15,0.01-0.16-0.27-0.01-0.28C11.21,25.27,11.22,25.55,11.07,25.56z"/>
			</g>
			<g>
				<path class="st7" d="M10.69,25.46c-0.17,0.01-0.18-0.3-0.01-0.31C10.85,25.14,10.86,25.45,10.69,25.46z"/>
			</g>
			<g>
				<path class="st7" d="M10.39,25.67c-0.16,0.01-0.17-0.29-0.01-0.29C10.54,25.37,10.55,25.66,10.39,25.67z"/>
			</g>
			<g>
				<path class="st7" d="M10.33,26.21c-0.17,0.01-0.18-0.31-0.01-0.32C10.5,25.88,10.51,26.2,10.33,26.21z"/>
			</g>
		</g>
		<g class="st6">
			<g>
				<path class="st7" d="M14.9,28.45c-0.2,0.01-0.21-0.35-0.01-0.36C15.09,28.08,15.1,28.44,14.9,28.45z"/>
			</g>
			<g>
				<path class="st7" d="M14.66,28.77c-0.15,0.01-0.16-0.27-0.01-0.28C14.8,28.48,14.81,28.76,14.66,28.77z"/>
			</g>
			<g>
				<path class="st7" d="M14.47,29.29c-0.15,0.01-0.16-0.26-0.01-0.27C14.61,29.02,14.62,29.29,14.47,29.29z"/>
			</g>
			<g>
				<path class="st7" d="M15.14,29.77c-0.22,0.01-0.24-0.4-0.01-0.41C15.35,29.36,15.36,29.76,15.14,29.77z"/>
			</g>
			<g>
				<path class="st7" d="M14.48,30.28c-0.22,0.01-0.23-0.39-0.01-0.4C14.69,29.87,14.7,30.27,14.48,30.28z"/>
			</g>
			<g>
				<path class="st7" d="M14.72,30.59c-0.15,0.01-0.16-0.27-0.01-0.28C14.86,30.31,14.87,30.59,14.72,30.59z"/>
			</g>
		</g>
		<g class="st6">
			<g>
				<path class="st7" d="M18.77,28.05c-0.16,0.01-0.17-0.29-0.01-0.3C18.92,27.74,18.93,28.04,18.77,28.05z"/>
			</g>
			<g>
				<path class="st7" d="M18.38,28.73c-0.21,0.01-0.22-0.37-0.01-0.38C18.58,28.34,18.6,28.72,18.38,28.73z"/>
			</g>
			<g>
				<path class="st7" d="M18.49,29.1c-0.2,0.01-0.21-0.35-0.01-0.36C18.67,28.73,18.68,29.09,18.49,29.1z"/>
			</g>
			<g>
				<path class="st7" d="M19.04,29.01c-0.15,0.01-0.16-0.27-0.01-0.28C19.19,28.73,19.2,29.01,19.04,29.01z"/>
			</g>
			<g>
				<path class="st7" d="M19.23,29.23c-0.15,0.01-0.16-0.27-0.01-0.27C19.37,28.95,19.38,29.22,19.23,29.23z"/>
			</g>
			<g>
				<path class="st7" d="M18.98,29.98c-0.18,0.01-0.19-0.32-0.01-0.33C19.15,29.64,19.16,29.97,18.98,29.98z"/>
			</g>
			<g>
				<path class="st7" d="M19.63,29.82c-0.17,0.01-0.18-0.3-0.01-0.31C19.79,29.5,19.8,29.81,19.63,29.82z"/>
			</g>
			<g>
				<path class="st7" d="M19.7,30.18c-0.17,0.01-0.18-0.3-0.01-0.31C19.86,29.87,19.87,30.18,19.7,30.18z"/>
			</g>
		</g>
		<g class="st6">
			<g>
				<path class="st7" d="M21.78,27.16c-0.21,0.01-0.22-0.37-0.01-0.38C21.98,26.77,21.99,27.15,21.78,27.16z"/>
			</g>
			<g>
				<path class="st7" d="M22.22,27.17c-0.23,0.01-0.24-0.41-0.01-0.42C22.43,26.75,22.45,27.16,22.22,27.17z"/>
			</g>
			<g>
				<path class="st7" d="M22.41,27.46c-0.19,0.01-0.2-0.34-0.01-0.34C22.59,27.11,22.6,27.45,22.41,27.46z"/>
			</g>
			<g>
				<path class="st7" d="M22.41,27.92c-0.21,0.01-0.22-0.37-0.01-0.38C22.61,27.54,22.62,27.91,22.41,27.92z"/>
			</g>
			<g>
				<path class="st7" d="M22.63,28.25c-0.21,0.01-0.22-0.37-0.01-0.38C22.83,27.86,22.84,28.24,22.63,28.25z"/>
			</g>
			<g>
				<path class="st7" d="M22.85,28.38c-0.18,0.01-0.19-0.32-0.01-0.33C23.02,28.04,23.03,28.37,22.85,28.38z"/>
			</g>
		</g>
		<g class="st6">
			<g>
				<path class="st7" d="M24.29,25.4c-0.23,0.01-0.24-0.41-0.01-0.42C24.51,24.97,24.52,25.39,24.29,25.4z"/>
			</g>
			<g>
				<path class="st7" d="M24.36,25.72c-0.18,0.01-0.19-0.31-0.01-0.32C24.53,25.39,24.54,25.71,24.36,25.72z"/>
			</g>
			<g>
				<path class="st7" d="M24.8,25.51c-0.18,0.01-0.2-0.33-0.01-0.34C24.97,25.17,24.99,25.5,24.8,25.51z"/>
			</g>
			<g>
				<path class="st7" d="M24.87,26.05c-0.17,0.01-0.18-0.3-0.01-0.31C25.03,25.74,25.04,26.05,24.87,26.05z"/>
			</g>
			<g>
				<path class="st7" d="M25.13,26.41c-0.22,0.01-0.24-0.4-0.01-0.41C25.35,25.99,25.36,26.4,25.13,26.41z"/>
			</g>
			<g>
				<path class="st7" d="M25.42,26.53c-0.15,0.01-0.16-0.27-0.01-0.28C25.56,26.25,25.57,26.52,25.42,26.53z"/>
			</g>
		</g>
		<g class="st6">
			<g>
				<path class="st7" d="M26.83,22.72c-0.18,0.01-0.19-0.32-0.01-0.32C27,22.38,27.01,22.71,26.83,22.72z"/>
			</g>
			<g>
				<path class="st7" d="M27.16,22.88c-0.15,0.01-0.16-0.27-0.01-0.27C27.3,22.6,27.31,22.87,27.16,22.88z"/>
			</g>
			<g>
				<path class="st7" d="M27.14,23.18c-0.17,0.01-0.18-0.29-0.01-0.3C27.3,22.87,27.31,23.18,27.14,23.18z"/>
			</g>
			<g>
				<path class="st7" d="M26.98,23.76c-0.23,0.01-0.24-0.41-0.01-0.42C27.2,23.34,27.21,23.75,26.98,23.76z"/>
			</g>
			<g>
				<path class="st7" d="M27.6,23.66c-0.2,0.01-0.21-0.35-0.01-0.36C27.79,23.29,27.8,23.65,27.6,23.66z"/>
			</g>
			<g>
				<path class="st7" d="M27.76,23.89c-0.17,0.01-0.18-0.3-0.01-0.31C27.92,23.58,27.93,23.88,27.76,23.89z"/>
			</g>
			<g>
				<path class="st7" d="M28.17,23.76c-0.16,0.01-0.17-0.28-0.01-0.29C28.31,23.46,28.32,23.75,28.17,23.76z"/>
			</g>
		</g>
		<g class="st6">
			<g>
				<path class="st7" d="M30.63,21.92c-0.17,0.01-0.18-0.3-0.01-0.31C30.79,21.61,30.8,21.91,30.63,21.92z"/>
			</g>
			<g>
				<path class="st7" d="M29.89,22.74c-0.23,0.01-0.25-0.41-0.01-0.42C30.11,22.31,30.12,22.73,29.89,22.74z"/>
			</g>
			<g>
				<path class="st7" d="M30.55,22.86c-0.19,0.01-0.21-0.34-0.01-0.35C30.73,22.49,30.74,22.85,30.55,22.86z"/>
			</g>
			<g>
				<path class="st7" d="M30.27,23.4c-0.16,0.01-0.17-0.29-0.01-0.3C30.42,23.09,30.43,23.39,30.27,23.4z"/>
			</g>
			<g>
				<path class="st7" d="M30.55,23.67c-0.21,0.01-0.22-0.37-0.01-0.38C30.75,23.28,30.76,23.66,30.55,23.67z"/>
			</g>
			<g>
				<path class="st7" d="M30.78,24.03c-0.16,0.01-0.17-0.28-0.01-0.29C30.93,23.73,30.94,24.02,30.78,24.03z"/>
			</g>
		</g>
		<g class="st6">
			<g>
				<path class="st7" d="M34.34,24.3c-0.19,0.01-0.2-0.34-0.01-0.35C34.52,23.95,34.53,24.3,34.34,24.3z"/>
			</g>
			<g>
				<path class="st7" d="M33.8,24.34c-0.19,0.01-0.2-0.34-0.01-0.35C33.98,23.98,33.99,24.33,33.8,24.34z"/>
			</g>
			<g>
				<path class="st7" d="M33.3,24.11c-0.19,0.01-0.2-0.33-0.01-0.34C33.48,23.76,33.49,24.1,33.3,24.11z"/>
			</g>
			<g>
				<path class="st7" d="M33.44,25.07c-0.2,0.01-0.21-0.35-0.01-0.36C33.63,24.7,33.64,25.06,33.44,25.07z"/>
			</g>
			<g>
				<path class="st7" d="M33.2,25.11c-0.15,0.01-0.16-0.26-0.01-0.27C33.34,24.83,33.35,25.1,33.2,25.11z"/>
			</g>
			<g>
				<path class="st7" d="M32.71,24.72c-0.16,0.01-0.17-0.28-0.01-0.29C32.86,24.43,32.87,24.71,32.71,24.72z"/>
			</g>
		</g>
		<g class="st6">
			<g>
				<path class="st7" d="M34.01,28.09c-0.22,0.01-0.23-0.39-0.01-0.4C34.22,27.68,34.23,28.08,34.01,28.09z"/>
			</g>
			<g>
				<path class="st7" d="M33.7,28.07c-0.21,0.01-0.22-0.37-0.01-0.38C33.89,27.69,33.91,28.06,33.7,28.07z"/>
			</g>
			<g>
				<path class="st7" d="M33.71,27.68c-0.21,0.01-0.22-0.37-0.01-0.38C33.91,27.3,33.92,27.67,33.71,27.68z"/>
			</g>
			<g>
				<path class="st7" d="M33.71,27.26c-0.21,0.01-0.22-0.37-0.01-0.38C33.9,26.87,33.92,27.25,33.71,27.26z"/>
			</g>
			<g>
				<path class="st7" d="M33.3,27.06c-0.18,0.01-0.19-0.32-0.01-0.33C33.47,26.72,33.48,27.05,33.3,27.06z"/>
			</g>
			<g>
				<path class="st7" d="M32.92,27.12c-0.23,0.01-0.24-0.41-0.01-0.42C33.14,26.69,33.15,27.11,32.92,27.12z"/>
			</g>
			<g>
				<path class="st7" d="M32.56,27.39c-0.2,0.01-0.22-0.36-0.01-0.37C32.75,27.01,32.76,27.38,32.56,27.39z"/>
			</g>
		</g>
		<g class="st6">
			<g>
				<path class="st7" d="M31.69,30.82c-0.19,0.01-0.2-0.34-0.01-0.35C31.87,30.47,31.88,30.81,31.69,30.82z"/>
			</g>
			<g>
				<path class="st7" d="M31.77,30.2c-0.2,0.01-0.22-0.36-0.01-0.37C31.96,29.82,31.98,30.19,31.77,30.2z"/>
			</g>
			<g>
				<path class="st7" d="M31.45,29.96c-0.15,0.01-0.16-0.26-0.01-0.27C31.6,29.68,31.6,29.95,31.45,29.96z"/>
			</g>
			<g>
				<path class="st7" d="M31.47,29.6c-0.18,0.01-0.19-0.32-0.01-0.33C31.64,29.26,31.65,29.59,31.47,29.6z"/>
			</g>
			<g>
				<path class="st7" d="M30.98,29.49c-0.16,0.01-0.16-0.28-0.01-0.28C31.13,29.2,31.14,29.49,30.98,29.49z"/>
			</g>
			<g>
				<path class="st7" d="M30.83,29.44c-0.21,0.01-0.23-0.38-0.01-0.39C31.03,29.04,31.04,29.43,30.83,29.44z"/>
			</g>
		</g>
		<g class="st6">
			<g>
				<path class="st7" d="M28.41,30.52c-0.17,0.01-0.18-0.31-0.01-0.32C28.58,30.2,28.59,30.52,28.41,30.52z"/>
			</g>
			<g>
				<path class="st7" d="M27.7,30.69c-0.19,0.01-0.2-0.33-0.01-0.34C27.88,30.34,27.89,30.68,27.7,30.69z"/>
			</g>
			<g>
				<path class="st7" d="M27.29,30.63c-0.15,0.01-0.16-0.26-0.01-0.27C27.43,30.35,27.44,30.62,27.29,30.63z"/>
			</g>
			<g>
				<path class="st7" d="M27.44,29.9c-0.21,0.01-0.22-0.37-0.01-0.38C27.64,29.51,27.65,29.89,27.44,29.9z"/>
			</g>
		</g>
		<g class="st6">
			<g>
				<path class="st7" d="M24.15,29.73c-0.19,0.01-0.2-0.33-0.01-0.34C24.32,29.39,24.33,29.72,24.15,29.73z"/>
			</g>
			<g>
				<path class="st7" d="M24.27,29.02c-0.18,0.01-0.19-0.31-0.01-0.32C24.44,28.69,24.45,29.01,24.27,29.02z"/>
			</g>
			<g>
				<path class="st7" d="M23.93,29.01c-0.23,0.01-0.24-0.41-0.01-0.42C24.14,28.58,24.16,29,23.93,29.01z"/>
			</g>
			<g>
				<path class="st7" d="M23.54,29.64c-0.18,0.01-0.19-0.32-0.01-0.33C23.71,29.3,23.72,29.63,23.54,29.64z"/>
			</g>
		</g>
		<g class="st6">
			<g>
				<path class="st7" d="M19,26.41c-0.17,0.01-0.18-0.3-0.01-0.31C19.16,26.1,19.17,26.41,19,26.41z"/>
			</g>
			<g>
				<path class="st7" d="M18.58,26.77c-0.15,0.01-0.16-0.27-0.01-0.27C18.72,26.49,18.73,26.77,18.58,26.77z"/>
			</g>
			<g>
				<path class="st7" d="M18.3,26.56c-0.17,0.01-0.18-0.31-0.01-0.32C18.47,26.24,18.48,26.55,18.3,26.56z"/>
			</g>
			<g>
				<path class="st7" d="M17.99,27.17c-0.17,0.01-0.18-0.31-0.01-0.31C18.15,26.84,18.16,27.16,17.99,27.17z"/>
			</g>
		</g>
		<g class="st6">
			<g>
				<path class="st7" d="M15.63,27.07c-0.23,0.01-0.24-0.41-0.01-0.42C15.84,26.64,15.85,27.06,15.63,27.07z"/>
			</g>
			<g>
				<path class="st7" d="M15.38,26.04c-0.16,0.01-0.17-0.28-0.01-0.28C15.53,25.75,15.53,26.03,15.38,26.04z"/>
			</g>
			<g>
				<path class="st7" d="M15.19,26.86c-0.17,0.01-0.18-0.31-0.01-0.31C15.36,26.54,15.37,26.85,15.19,26.86z"/>
			</g>
			<g>
				<path class="st7" d="M14.95,27.12c-0.16,0.01-0.17-0.29-0.01-0.29C15.1,26.82,15.11,27.11,14.95,27.12z"/>
			</g>
			<g>
				<path class="st7" d="M14.7,27.38c-0.17,0.01-0.18-0.31-0.01-0.32C14.86,27.05,14.87,27.37,14.7,27.38z"/>
			</g>
		</g>
		<g class="st6">
			<g>
				<path class="st7" d="M12.65,27.58c-0.18,0.01-0.19-0.32-0.01-0.33C12.83,27.24,12.84,27.58,12.65,27.58z"/>
			</g>
			<g>
				<path class="st7" d="M12.57,27.98c-0.19,0.01-0.2-0.33-0.01-0.34C12.74,27.63,12.75,27.97,12.57,27.98z"/>
			</g>
			<g>
				<path class="st7" d="M12.14,27.96c-0.21,0.01-0.22-0.37-0.01-0.38C12.33,27.58,12.35,27.95,12.14,27.96z"/>
			</g>
			<g>
				<path class="st7" d="M12.06,28.4c-0.19,0.01-0.2-0.33-0.01-0.34C12.24,28.05,12.25,28.39,12.06,28.4z"/>
			</g>
			<g>
				<path class="st7" d="M11.55,28.43c-0.16,0.01-0.17-0.29-0.01-0.3C11.71,28.12,11.72,28.42,11.55,28.43z"/>
			</g>
			<g>
				<path class="st7" d="M11.78,29.02c-0.15,0.01-0.16-0.26-0.01-0.27C11.92,28.75,11.93,29.01,11.78,29.02z"/>
			</g>
			<g>
				<path class="st7" d="M11.66,29.36c-0.16,0.01-0.17-0.29-0.01-0.3C11.81,29.06,11.82,29.36,11.66,29.36z"/>
			</g>
		</g>
		<g class="st6">
			<g>
				<path class="st7" d="M9.46,29.23c-0.21,0.01-0.23-0.38-0.01-0.39C9.66,28.83,9.68,29.22,9.46,29.23z"/>
			</g>
			<g>
				<path class="st7" d="M9.02,28.97c-0.2,0.01-0.21-0.36-0.01-0.37C9.21,28.59,9.22,28.96,9.02,28.97z"/>
			</g>
			<g>
				<path class="st7" d="M8.79,29.26c-0.15,0.01-0.16-0.27-0.01-0.27C8.93,28.98,8.94,29.25,8.79,29.26z"/>
			</g>
			<g>
				<path class="st7" d="M9.29,29.87c-0.17,0.01-0.18-0.31-0.01-0.31C9.45,29.54,9.46,29.86,9.29,29.87z"/>
			</g>
			<g>
				<path class="st7" d="M8.51,29.82c-0.17,0.01-0.18-0.31-0.01-0.32C8.68,29.5,8.69,29.82,8.51,29.82z"/>
			</g>
		</g>
		<g class="st6">
			<g>
				<path class="st7" d="M6.92,27.97c-0.16,0.01-0.17-0.28-0.01-0.29C7.06,27.67,7.07,27.96,6.92,27.97z"/>
			</g>
			<g>
				<path class="st7" d="M6.73,28.69c-0.19,0.01-0.2-0.34-0.01-0.35C6.92,28.33,6.93,28.68,6.73,28.69z"/>
			</g>
			<g>
				<path class="st7" d="M6.1,28.38c-0.21,0.01-0.22-0.37-0.01-0.38C6.29,28,6.31,28.38,6.1,28.38z"/>
			</g>
			<g>
				<path class="st7" d="M5.91,28.83c-0.15,0.01-0.16-0.27-0.01-0.28C6.06,28.54,6.07,28.82,5.91,28.83z"/>
			</g>
		</g>
		<g class="st6">
			<g>
				<path class="st7" d="M5.85,25.59c-0.22,0.01-0.23-0.39-0.01-0.4C6.06,25.18,6.07,25.58,5.85,25.59z"/>
			</g>
			<g>
				<path class="st7" d="M5.39,26.09c-0.18,0.01-0.19-0.32-0.01-0.33C5.56,25.75,5.57,26.08,5.39,26.09z"/>
			</g>
			<g>
				<path class="st7" d="M5.24,25.27C5.09,25.28,5.08,25.01,5.23,25C5.38,24.99,5.39,25.27,5.24,25.27z"/>
			</g>
		</g>
		<g class="st6">
			<g>
				<path class="st7" d="M5.92,23.46c-0.21,0.01-0.22-0.36-0.01-0.37C6.12,23.07,6.13,23.45,5.92,23.46z"/>
			</g>
			<g>
				<path class="st7" d="M5.49,23.36c-0.17,0.01-0.17-0.29-0.01-0.3C5.65,23.05,5.66,23.35,5.49,23.36z"/>
			</g>
		</g>
		<g class="st6">
			<g>
				<path class="st7" d="M7.23,21.01c-0.18,0.01-0.19-0.32-0.01-0.33C7.4,20.67,7.41,21,7.23,21.01z"/>
			</g>
			<g>
				<path class="st7" d="M6.99,20.58c-0.18,0.01-0.19-0.32-0.01-0.33C7.16,20.25,7.17,20.57,6.99,20.58z"/>
			</g>
		</g>
		<g class="st6">
			<g>
				<path class="st7" d="M9.98,18.91c-0.21,0.01-0.22-0.37-0.01-0.38C10.17,18.52,10.19,18.9,9.98,18.91z"/>
			</g>
			<g>
				<path class="st7" d="M10.1,18.38c-0.21,0.01-0.22-0.37-0.01-0.38C10.3,17.99,10.31,18.37,10.1,18.38z"/>
			</g>
			<g>
				<path class="st7" d="M10.54,18.67c-0.17,0.01-0.18-0.3-0.01-0.31C10.7,18.35,10.71,18.66,10.54,18.67z"/>
			</g>
			<g>
				<path class="st7" d="M10.85,18.48c-0.23,0.01-0.24-0.41-0.01-0.42C11.07,18.05,11.08,18.47,10.85,18.48z"/>
			</g>
			<g>
				<path class="st7" d="M11.28,18.31c-0.23,0.01-0.24-0.41-0.01-0.42C11.5,17.89,11.51,18.3,11.28,18.31z"/>
			</g>
		</g>
	</g>
	<g>
		<path class="st8" d="M21.39,7.52c-0.62-0.22-1.86,0.65-2.49,1.68c-0.63,1.03-0.65,2.23-0.53,2.5c0.26,0.63,0.21-0.92,1.12-2.27
			C20.35,8.17,21.63,7.6,21.39,7.52z"/>
		<path class="st8" d="M19.21,14.76c-0.09-0.27-0.41-0.87-0.66-0.78c-0.22,0.08-0.01,0.77,0.34,1.54c0.12,0.26,0.57,0.95,0.82,0.86
			C19.93,16.29,19.36,15.21,19.21,14.76z"/>
		<path class="st8" d="M32.77,22.7c0.13-0.25-1.03-1.22-2.51-1.26c-0.79-0.02-2.54,0.44-2.61,0.9c-0.04,0.29,1.4-0.18,2.65-0.14
			C31.4,22.23,32.54,23.14,32.77,22.7z"/>
		<path class="st8" d="M16.09,20.95c-0.15-0.54-2.23-0.46-3.36,0.17c-1.26,0.7-1.97,1.67-1.96,2.06c0.01,0.29,1.19-1.09,2.5-1.68
			C14.14,21.12,16.17,21.23,16.09,20.95z"/>
		<path class="st8" d="M15.58,28.85c-0.93-0.08-1.84-0.43-1.92-0.28c-0.14,0.3,1.19,0.79,1.86,0.83c1.61,0.08,2.74-0.36,2.51-0.66
			C17.97,28.63,17.05,28.97,15.58,28.85z"/>
		<path class="st8" d="M30.17,30.57c-0.08,0.11-0.09,0.31,0.01,0.4c0.17,0.14,0.57-0.07,0.6-0.21
			C30.84,30.39,30.4,30.27,30.17,30.57z"/>
		<path class="st8" d="M33.59,28c-0.16-0.18-0.2,0.29-0.63,0.82c-0.31,0.37-0.98,0.6-0.84,0.87c0.12,0.23,0.55,0.16,1.04-0.33
			C33.6,28.92,33.79,28.21,33.59,28z"/>
		<path class="st8" d="M17.2,21.29c-0.07,0.25,0.69,0.4,1.27,0.67c0.41,0.19,1.1,0.88,1.25,0.63c0.13-0.23-0.34-0.71-0.91-1.06
			C18.29,21.21,17.29,20.99,17.2,21.29z"/>
	</g>
</g>
</svg>
