<?xml version="1.0" encoding="utf-8"?>
<!-- Generator: Adobe Illustrator 24.0.0, SVG Export Plug-In . SVG Version: 6.00 Build 0)  -->
<svg version="1.1" id="Layer_1" xmlns="http://www.w3.org/2000/svg" xmlns:xlink="http://www.w3.org/1999/xlink" x="0px" y="0px"
	 viewBox="0 0 40.19 49.75" style="enable-background:new 0 0 40.19 49.75;" xml:space="preserve">
<style type="text/css">
	.st0{fill:#375429;}
	.st1{fill:#CCCCCC;}
	.st2{fill:#999999;}
</style>
<g>
	<path class="st0" d="M0,0v29.75c0,0.02-0.03,1.71,1.07,3.99c1.02,2.1,3.24,5.14,8.05,7.71c7.8,4.16,10.31,7.28,10.97,8.3
		c0.67-1.03,3.18-4.14,10.97-8.3c9.21-4.92,9.12-11.62,9.12-11.69c0-0.01,0-29.76,0-29.76L20.1,0.11L0,0z"/>
</g>
<g>
	
		<rect x="10.95" y="25.9" transform="matrix(-0.9077 -0.4195 0.4195 -0.9077 9.5001 62.4184)" class="st1" width="1.32" height="8.53"/>
	<path class="st1" d="M13.85,27.74l3.54-8.12l5.55-12.74l0.61-3.38c0.01-0.05-0.02-0.1-0.06-0.11l-0.22-0.1
		c-0.04-0.02-0.09-0.01-0.11,0.03l-2.06,2.76l-5.55,12.74L12,26.94l1.32-0.52L13.85,27.74z"/>
	<polygon class="st2" points="6.8,23.66 10.51,25.1 13.42,25.83 16.12,27.69 19.97,29.66 19.84,30 15.78,28.73 12.69,27.96 
		10.23,26.16 6.68,23.98 	"/>
	
		<rect x="7.56" y="33.36" transform="matrix(-0.9077 -0.4195 0.4195 -0.9077 4.8352 68.4847)" class="st1" width="4.77" height="0.71"/>
</g>
<g>
	
		<rect x="29.86" y="25.35" transform="matrix(-0.8762 0.482 -0.482 -0.8762 71.5314 40.8462)" class="st1" width="1.32" height="8.53"/>
	<path class="st1" d="M29.89,26.38l-4.44-7.66L18.49,6.69l-2.36-2.5c-0.03-0.04-0.09-0.04-0.13-0.02L15.8,4.3
		c-0.04,0.02-0.06,0.07-0.04,0.11l1,3.29l6.96,12.02l4.44,7.66l0.37-1.38L29.89,26.38z"/>
	<polygon class="st2" points="22.43,29.63 25.78,27.49 28.1,25.58 31.19,24.52 35.07,22.58 35.26,22.89 31.84,25.4 29.38,27.44 
		26.47,28.35 22.61,29.91 	"/>
	<rect x="30" y="32.7" transform="matrix(-0.8762 0.482 -0.482 -0.8762 76.6945 46.4082)" class="st1" width="4.77" height="0.71"/>
</g>
</svg>
