<?xml version="1.0" encoding="utf-8"?>
<!-- Generator: Adobe Illustrator 24.0.1, SVG Export Plug-In . SVG Version: 6.00 Build 0)  -->
<svg version="1.1" id="Layer_1" xmlns="http://www.w3.org/2000/svg" xmlns:xlink="http://www.w3.org/1999/xlink" x="0px" y="0px"
	 viewBox="0 0 349.5 367.1" style="enable-background:new 0 0 349.5 367.1;" xml:space="preserve">
<style type="text/css">
	.st0{fill-rule:evenodd;clip-rule:evenodd;fill:#375429;}
	.st1{fill-rule:evenodd;clip-rule:evenodd;fill:#2D4221;}
	.st2{fill:#EAE6D8;}
</style>
<g transform="matrix(1.5714 0 0 1.5714 -362.48 -959.7)">
	<path class="st0" d="M349,610.7L453,649l-128.1,50.8l-94.2-52.9L349,610.7L349,610.7z"/>
	<path class="st1" d="M230.9,647l95.3,53l7.5,144.3L245,773.8L230.9,647L230.9,647z"/>
	<path class="st1" d="M453.1,649l-128.2,50.3l8.7,145L445,781.9L453.1,649L453.1,649z"/>
	<path class="st2" d="M374.5,729c-5.1,10.5-14.6,16.5-21.3,13.2c-6.7-3.2-8-14.4-2.9-24.9s14.6-16.5,21.3-13.2
		C378.3,707.3,379.6,718.4,374.5,729z"/>
	<path class="st2" d="M434.9,703.8c-5.1,10.5-14.6,16.5-21.3,13.2c-6.7-3.2-8-14.4-2.9-24.9s14.6-16.5,21.3-13.2
		C438.7,682.1,440,693.3,434.9,703.8z"/>
	<path class="st2" d="M433.6,772.9c-5.1,10.5-14.6,16.5-21.3,13.2c-6.7-3.2-8-14.4-2.9-24.9s14.6-16.5,21.3-13.2
		S438.7,762.4,433.6,772.9z"/>
	<path class="st2" d="M375.2,800.4c-5.1,10.5-14.6,16.5-21.3,13.2c-6.7-3.2-8-14.4-2.9-24.9s14.6-16.5,21.3-13.2
		S380.3,789.9,375.2,800.4z"/>
	<path class="st2" d="M291.2,721.6c5.1,10,13.2,15,18,11.2s4.5-15-0.6-25s-13.2-15-18-11.2C285.8,700.4,286.1,711.6,291.2,721.6z"/>
	<path class="st2" d="M294,765.2c5.1,10,13.2,15,18,11.2s4.5-15-0.6-25s-13.2-15-18-11.2S288.9,755.2,294,765.2z"/>
	<path class="st2" d="M296.7,806.9c5.1,10,13.2,15,18,11.2s4.5-15-0.6-25s-13.2-15-18-11.2C291.3,785.7,291.6,796.9,296.7,806.9z"/>
	<path class="st2" d="M244.8,693.7c4.7,9.5,12.1,14.3,16.6,10.7c4.4-3.6,4.2-14.2-0.6-23.7c-4.7-9.5-12.1-14.3-16.6-10.7
		C239.8,673.6,240,684.2,244.8,693.7z"/>
	<path class="st2" d="M250.6,734.5c4.3,9.7,11.1,14.5,15.1,10.8s3.8-14.5-0.5-24.1c-4.3-9.7-11.1-14.5-15.1-10.8
		C246.1,714.1,246.3,724.9,250.6,734.5z"/>
	<path class="st2" d="M255.8,771.8c4,8.3,10.4,12.4,14.2,9.3c3.8-3.1,3.6-12.4-0.5-20.6s-10.4-12.4-14.2-9.3
		C251.5,754.3,251.7,763.6,255.8,771.8z"/>
	<path class="st2" d="M289,654.5c9.8-1.5,16.1-6.3,14-10.9c-2.1-4.5-11.7-7-21.5-5.5s-16.1,6.3-14,10.9
		C269.5,653.5,279.2,656,289,654.5z"/>
	<path class="st2" d="M348.2,635.7c9.3-1.3,15.2-5.6,13.3-9.6c-1.9-4-11-6.2-20.3-4.9s-15.2,5.6-13.3,9.6
		C329.8,634.9,338.9,637.1,348.2,635.7z"/>
	<path class="st2" d="M401.3,640.4c10.4,1.4,17,6.1,14.8,10.5s-12.3,6.7-22.7,5.3c-10.4-1.4-17-6.1-14.8-10.5
		C380.8,641.4,390.9,639,401.3,640.4z"/>
	<path class="st2" d="M343,656.9c11.4-1.4,18.8-6.1,16.4-10.5s-13.6-6.7-25.1-5.3c-11.4,1.4-18.8,6.1-16.4,10.5
		C320.3,655.9,331.6,658.3,343,656.9z"/>
	<path class="st2" d="M338.7,680.2c11.8-1.5,19.4-6.6,16.9-11.3s-14.1-7.3-25.9-5.8s-19.4,6.6-16.9,11.3S326.9,681.8,338.7,680.2z"
		/>
</g>
</svg>
