<?xml version="1.0" encoding="utf-8"?>
<!-- Generator: Adobe Illustrator 24.0.0, SVG Export Plug-In . SVG Version: 6.00 Build 0)  -->
<svg version="1.1" id="Layer_1" xmlns="http://www.w3.org/2000/svg" xmlns:xlink="http://www.w3.org/1999/xlink" x="0px" y="0px"
	 viewBox="0 0 40.12 49.66" style="enable-background:new 0 0 40.12 49.66;" xml:space="preserve">
<style type="text/css">
	.st0{fill:#E5CA7F;}
	.st1{fill:#1A1A1A;}
</style>
<g>
	<g>
		<path class="st0" d="M0,0v29.7c0,0.02-0.03,1.71,1.07,3.98c1.02,2.1,3.24,5.14,8.04,7.7c7.79,4.16,10.29,7.26,10.95,8.29
			c0.67-1.02,3.17-4.13,10.95-8.29c9.19-4.91,9.11-11.6,9.11-11.67c0-0.01,0-29.71,0-29.71L20.06,0.11L0,0z"/>
	</g>
	<g>
		<path class="st1" d="M36.13,10.53c-0.2-0.55-0.66-1.01-1.18-1.23c-0.53-0.23-1.08-0.28-1.62-0.26c-0.56,0.02-1.07,0.21-1.55,0.38
			c-0.48,0.17-0.95,0.31-1.45,0.33c-0.29,0.01-0.58-0.02-0.86-0.08c0.2-0.04,0.4-0.11,0.58-0.22c0.37-0.22,0.6-0.62,0.63-1.03
			c-0.07,0.41-0.32,0.77-0.68,0.94c-0.35,0.18-0.77,0.2-1.15,0.14c-0.04-0.01-0.09,0.02-0.1,0.06c-0.02,0.05,0.01,0.1,0.05,0.12
			c0.48,0.19,1,0.33,1.53,0.34c0.53,0.02,1.07-0.11,1.56-0.25c0.49-0.15,0.97-0.28,1.44-0.27c0.48,0.01,0.97,0.08,1.38,0.28
			c0.41,0.2,0.71,0.54,0.85,0.96c0.15,0.42,0.15,0.9,0.08,1.36c-0.16,0.82-1,1.53-1.84,1.68c-0.86,0.16-1.69-0.36-2.45-0.99
			c-0.39-0.31-0.78-0.65-1.23-0.96c-0.45-0.3-0.98-0.61-1.64-0.64c-0.66-0.04-1.29,0.27-1.72,0.66c-0.45,0.4-0.76,0.87-1.02,1.36
			c-0.37,0.73-0.61,1.52-0.69,2.34c-0.17,0.01-0.35,0.02-0.53,0.04c-0.79,0.07-1.63,0.35-2.26,0.9c-0.03,0.02-0.05,0.05-0.08,0.07
			c0.03-0.05,0.06-0.1,0.1-0.15c0.12-0.16,0.25-0.35,0.37-0.56c0.12-0.2,0.21-0.42,0.29-0.64c0.16-0.44,0.21-0.91,0.23-1.34
			c0.02-0.43,0.03-0.84,0.11-1.23c0.07-0.39,0.23-0.76,0.45-1.1c0.43-0.69,1.12-1.21,1.88-1.62c-0.82,0.25-1.61,0.69-2.18,1.4
			c-0.28,0.35-0.5,0.76-0.63,1.2c-0.13,0.44-0.17,0.89-0.22,1.3c-0.05,0.42-0.11,0.81-0.26,1.16c-0.07,0.18-0.16,0.35-0.26,0.51
			l-0.17,0.24l-0.19,0.26c-0.24,0.32-0.44,0.69-0.6,1.07c-0.02-0.01-0.05-0.02-0.07-0.03c0.09-0.17,0.16-0.34,0.22-0.52
			c0.08-0.23,0.12-0.48,0.14-0.7c0.09-0.93-0.06-1.83-0.24-2.67c-0.17-0.85-0.36-1.67-0.31-2.51c0.02-0.41,0.13-0.81,0.34-1.17
			c0.21-0.37,0.48-0.7,0.77-1.02c-0.34,0.27-0.67,0.56-0.94,0.91c-0.28,0.35-0.46,0.79-0.53,1.24c-0.14,0.9-0.02,1.8,0.11,2.65
			c0.12,0.85,0.24,1.69,0.12,2.49c-0.03,0.2-0.06,0.39-0.13,0.56c-0.06,0.18-0.14,0.35-0.24,0.53c-0.12,0.22-0.27,0.42-0.43,0.63
			c-0.16-0.21-0.31-0.41-0.43-0.63c-0.1-0.17-0.18-0.35-0.24-0.53c-0.06-0.18-0.09-0.36-0.13-0.56c-0.12-0.8,0-1.63,0.12-2.49
			c0.12-0.85,0.25-1.75,0.11-2.65c-0.07-0.45-0.26-0.89-0.53-1.24c-0.27-0.36-0.6-0.65-0.94-0.91c0.29,0.32,0.57,0.66,0.77,1.03
			c0.21,0.37,0.32,0.76,0.34,1.17c0.05,0.83-0.14,1.66-0.31,2.51c-0.18,0.84-0.34,1.74-0.24,2.67c0.02,0.23,0.06,0.47,0.14,0.7
			c0.06,0.18,0.14,0.36,0.22,0.52c-0.02,0.01-0.04,0.03-0.07,0.03c-0.16-0.38-0.36-0.74-0.6-1.07l-0.19-0.26l-0.17-0.24
			c-0.1-0.16-0.19-0.33-0.26-0.51c-0.15-0.36-0.21-0.75-0.26-1.16c-0.05-0.41-0.09-0.86-0.22-1.3c-0.13-0.44-0.35-0.85-0.63-1.2
			c-0.57-0.7-1.36-1.15-2.18-1.4c0.75,0.4,1.45,0.92,1.88,1.62c0.22,0.34,0.37,0.71,0.45,1.1c0.08,0.39,0.09,0.8,0.11,1.23
			c0.02,0.43,0.07,0.9,0.23,1.34c0.08,0.22,0.18,0.43,0.29,0.64c0.12,0.2,0.25,0.4,0.37,0.56c0.03,0.05,0.07,0.1,0.1,0.15
			c-0.03-0.02-0.05-0.05-0.08-0.07c-0.63-0.55-1.48-0.83-2.26-0.9c-0.18-0.02-0.35-0.03-0.53-0.04c-0.08-0.82-0.32-1.61-0.69-2.34
			c-0.26-0.49-0.57-0.97-1.02-1.36c-0.44-0.4-1.06-0.7-1.72-0.66c-0.66,0.03-1.2,0.34-1.64,0.64c-0.45,0.31-0.84,0.65-1.23,0.96
			c-0.77,0.63-1.6,1.15-2.45,0.99c-0.85-0.15-1.68-0.85-1.84-1.68c-0.08-0.46-0.07-0.94,0.08-1.36c0.14-0.42,0.44-0.76,0.85-0.96
			c0.41-0.2,0.9-0.28,1.38-0.28c0.47-0.01,0.95,0.13,1.44,0.27c0.49,0.15,1.02,0.27,1.56,0.25c0.53-0.01,1.05-0.15,1.53-0.34
			c0.04-0.02,0.07-0.06,0.06-0.1c-0.01-0.05-0.06-0.09-0.11-0.08c-0.38,0.06-0.8,0.04-1.15-0.14C9.47,9.18,9.22,8.82,9.15,8.41
			c0.03,0.41,0.26,0.81,0.63,1.03c0.18,0.11,0.38,0.18,0.58,0.22C10.07,9.72,9.79,9.75,9.5,9.74C9,9.72,8.53,9.58,8.05,9.41
			C7.57,9.24,7.06,9.06,6.51,9.03C5.97,9.01,5.41,9.06,4.89,9.29c-0.53,0.22-0.98,0.69-1.18,1.23c-0.21,0.55-0.24,1.12-0.17,1.67
			c0.08,0.61,0.42,1.13,0.83,1.52c0.42,0.39,0.94,0.68,1.52,0.81c0.58,0.13,1.21,0.02,1.73-0.2c0.53-0.23,0.97-0.54,1.39-0.86
			c0.42-0.32,0.81-0.64,1.2-0.91c0.4-0.26,0.8-0.46,1.18-0.46c0.37-0.01,0.74,0.16,1.06,0.45c0.32,0.29,0.58,0.68,0.78,1.1
			c0.28,0.57,0.47,1.19,0.55,1.81c-0.23-0.04-0.44-0.11-0.64-0.22c-0.63-0.35-1.04-1.03-1.33-1.74c0.14,0.74,0.46,1.52,1.14,2.02
			c0.26,0.19,0.56,0.31,0.87,0.38c0.01,0.15,0.01,0.3,0,0.46c-0.05,0.92-0.4,1.8-0.85,2.69c-0.07,0.02-0.15,0.05-0.23,0.06
			c-0.39,0.06-0.81,0.05-1.2-0.04c-0.4-0.09-0.77-0.29-1.08-0.55c0.29,0.29,0.65,0.52,1.05,0.65c0.41,0.12,0.82,0.17,1.25,0.13
			c0.03,0,0.05-0.01,0.08-0.01c-0.42,0.84-0.87,1.74-1.09,2.75c-0.12,0.54-0.18,1.09-0.17,1.65c0.02,0.56,0.11,1.12,0.31,1.66
			c0.19,0.53,0.49,1.06,0.96,1.48c0.47,0.42,1.14,0.66,1.79,0.58c0.67-0.08,1.21-0.46,1.6-0.9c0.39-0.45,0.65-0.98,0.8-1.53
			c0.07-0.28,0.12-0.56,0.14-0.84c0.01-0.14,0.01-0.27,0.01-0.43c0-0.16-0.03-0.31-0.06-0.46c-0.14-0.59-0.44-1.06-0.68-1.5
			c-0.25-0.44-0.46-0.85-0.48-1.26c-0.01-0.2,0.02-0.4,0.1-0.6c0.04-0.1,0.09-0.2,0.14-0.29c0.05-0.08,0.11-0.15,0.17-0.22
			c0.26-0.25,0.67-0.27,1.03-0.07c0.17,0.09,0.3,0.22,0.4,0.41c0.1,0.18,0.17,0.41,0.19,0.61l0,0.01c-0.1-0.01-0.21-0.03-0.37-0.03
			c-0.35,0-0.68,0.16-0.85,0.47c0.06-0.05,0.3-0.2,0.59-0.16c0.42,0.06,0.61,0.41,0.65,0.55c0.15,0.43,0.01,0.92-0.05,1.06
			c-0.44,1.24-0.72,2.9-0.72,4.72l0,0c0.05,0.83,0.18,1.66,0.37,2.47c0.17,0.81,0.41,1.61,0.66,2.4c0.44,1.36,0.94,2.7,1.5,4.01
			c-0.05-0.26-0.07-0.52-0.07-0.78c0.01-0.4,0.04-0.8,0.18-1.19c0.15,0.4,0.18,0.8,0.18,1.19c0,0.26-0.02,0.52-0.07,0.78
			c0.56-1.31,1.06-2.65,1.5-4.01c0.25-0.79,0.49-1.59,0.66-2.4c0.19-0.81,0.32-1.63,0.37-2.47c0,0,0,0,0,0
			c0-1.83-0.27-3.49-0.72-4.72c-0.05-0.14-0.19-0.63-0.05-1.06c0.05-0.14,0.23-0.5,0.65-0.55c0.29-0.04,0.53,0.11,0.59,0.16
			c-0.18-0.31-0.5-0.47-0.85-0.47c-0.16,0-0.27,0.02-0.37,0.03l0-0.01c0.02-0.19,0.09-0.43,0.19-0.61c0.1-0.19,0.23-0.32,0.4-0.41
			c0.36-0.19,0.78-0.17,1.03,0.07c0.06,0.06,0.12,0.13,0.17,0.22c0.05,0.09,0.1,0.19,0.14,0.29c0.07,0.2,0.11,0.39,0.1,0.6
			c-0.02,0.4-0.23,0.82-0.48,1.26c-0.24,0.44-0.54,0.9-0.68,1.5c-0.03,0.15-0.06,0.3-0.06,0.46c-0.01,0.16,0,0.29,0.01,0.43
			c0.02,0.28,0.07,0.56,0.14,0.84c0.15,0.55,0.41,1.08,0.8,1.53c0.39,0.44,0.93,0.82,1.6,0.9c0.65,0.08,1.32-0.15,1.79-0.58
			c0.47-0.42,0.76-0.95,0.96-1.48c0.19-0.54,0.29-1.1,0.31-1.66c0.01-0.55-0.05-1.11-0.17-1.65c-0.23-1-0.67-1.9-1.09-2.75
			c0.03,0,0.05,0.01,0.08,0.01c0.43,0.04,0.85-0.01,1.25-0.13c0.4-0.13,0.76-0.36,1.05-0.65c-0.31,0.27-0.69,0.47-1.08,0.55
			c-0.39,0.08-0.81,0.1-1.2,0.04c-0.08-0.01-0.15-0.04-0.23-0.06c-0.44-0.89-0.8-1.77-0.85-2.69c-0.01-0.15-0.01-0.3,0-0.46
			c0.3-0.08,0.61-0.19,0.87-0.38c0.67-0.5,0.99-1.28,1.14-2.02c-0.29,0.7-0.7,1.39-1.33,1.74c-0.2,0.11-0.41,0.18-0.64,0.22
			c0.08-0.63,0.27-1.24,0.55-1.81c0.21-0.42,0.47-0.81,0.78-1.1c0.32-0.29,0.68-0.46,1.06-0.45c0.38,0.01,0.78,0.2,1.18,0.46
			c0.4,0.26,0.79,0.59,1.2,0.91c0.42,0.31,0.86,0.63,1.39,0.86c0.52,0.23,1.15,0.33,1.73,0.2c0.58-0.12,1.1-0.41,1.52-0.81
			c0.41-0.39,0.75-0.91,0.83-1.52C36.37,11.64,36.34,11.07,36.13,10.53z M22.71,17.02c0.51-0.48,1.18-0.74,1.9-0.87
			c0.14-0.03,0.28-0.04,0.42-0.06c0,0.11,0,0.23,0,0.34c0.03,0.58,0.16,1.14,0.34,1.67c-0.13-0.07-0.26-0.14-0.4-0.2
			c-0.41-0.16-0.84-0.23-1.27-0.25c-0.43-0.03-0.91,0.05-1.31,0.29c-0.41,0.23-0.72,0.63-0.89,1.05c-0.1,0.25-0.16,0.5-0.2,0.75
			c-0.01-0.21,0.03-0.41,0.03-0.43c0.03-0.2,0.08-0.39,0.13-0.57C21.78,18.09,22.19,17.49,22.71,17.02z M17.13,17.02
			c0.51,0.47,0.92,1.07,1.26,1.72c0.05,0.18,0.1,0.37,0.13,0.57c0,0.02,0.04,0.22,0.03,0.43c-0.04-0.26-0.1-0.51-0.2-0.75
			c-0.17-0.42-0.48-0.82-0.89-1.05c-0.4-0.24-0.88-0.32-1.31-0.29c-0.43,0.02-0.86,0.09-1.27,0.25c-0.14,0.05-0.27,0.12-0.4,0.2
			c0.18-0.53,0.31-1.09,0.34-1.67c0.01-0.11,0.01-0.23,0-0.34c0.14,0.02,0.28,0.04,0.42,0.06C15.95,16.28,16.62,16.53,17.13,17.02z
			 M16.84,18.48c-0.33,0.01-0.67,0.14-0.92,0.35c-0.12,0.11-0.23,0.23-0.32,0.37c-0.08,0.13-0.15,0.26-0.21,0.39
			c-0.12,0.28-0.19,0.59-0.18,0.9c0.02,0.63,0.29,1.16,0.53,1.62c0.24,0.46,0.48,0.89,0.56,1.3c0.02,0.1,0.04,0.2,0.03,0.3
			c0,0.1,0,0.23-0.01,0.34c-0.02,0.23-0.06,0.45-0.12,0.67c-0.12,0.43-0.34,0.84-0.63,1.16c-0.29,0.32-0.66,0.54-1.02,0.58
			c-0.37,0.03-0.75-0.1-1.04-0.36c-0.3-0.27-0.53-0.66-0.68-1.08c-0.15-0.43-0.23-0.89-0.24-1.35c-0.01-0.47,0.05-0.94,0.15-1.4
			c0.21-0.93,0.67-1.8,1.12-2.73c0.15-0.31,0.31-0.64,0.44-0.99c0.22-0.14,0.44-0.25,0.68-0.33c0.37-0.12,0.76-0.16,1.16-0.15
			c0.39,0,0.76,0.09,1.05,0.29c0.11,0.07,0.2,0.16,0.28,0.25C17.28,18.52,17.06,18.47,16.84,18.48z M19.92,33.04
			c-0.15-0.4-0.18-0.8-0.18-1.19c0.01-0.4,0.04-0.8,0.18-1.19c0.15,0.4,0.18,0.8,0.18,1.19C20.1,32.25,20.07,32.64,19.92,33.04z
			 M19.92,29.81c-0.15-1.21-0.18-2.42-0.18-3.63c0.01-1.21,0.04-2.42,0.18-3.63c0.15,1.21,0.18,2.42,0.18,3.63
			C20.1,27.39,20.07,28.6,19.92,29.81z M27.25,23.65c-0.01,0.46-0.09,0.92-0.24,1.35c-0.15,0.43-0.38,0.82-0.68,1.08
			c-0.29,0.27-0.67,0.4-1.04,0.36c-0.36-0.03-0.73-0.26-1.02-0.58c-0.29-0.32-0.5-0.72-0.63-1.16c-0.06-0.22-0.1-0.44-0.12-0.67
			c-0.01-0.11-0.02-0.24-0.01-0.34c0-0.1,0.02-0.2,0.03-0.3c0.08-0.41,0.32-0.84,0.56-1.3c0.23-0.46,0.51-0.98,0.53-1.62
			c0.01-0.31-0.06-0.63-0.18-0.9c-0.06-0.14-0.13-0.27-0.21-0.39c-0.09-0.13-0.19-0.26-0.32-0.37c-0.25-0.22-0.59-0.35-0.92-0.35
			c-0.23-0.01-0.45,0.04-0.65,0.12c0.09-0.09,0.18-0.18,0.28-0.25c0.3-0.2,0.67-0.29,1.05-0.29c0.4-0.01,0.79,0.03,1.16,0.15
			c0.24,0.07,0.46,0.19,0.68,0.33c0.14,0.34,0.29,0.67,0.44,0.99c0.45,0.93,0.91,1.8,1.12,2.73C27.2,22.71,27.25,23.18,27.25,23.65z
			"/>
		<path class="st1" d="M22.39,29.29c-0.01,0.05-0.01,0.1-0.02,0.14c-0.14,0.83-0.35,1.64-0.57,2.45c-0.22,0.81-0.5,1.6-0.78,2.39
			c-0.29,0.79-0.59,1.56-0.93,2.34l-0.17,0.38l-0.17-0.38c-0.34-0.77-0.64-1.55-0.93-2.34c-0.28-0.79-0.56-1.58-0.78-2.39
			c-0.22-0.81-0.43-1.62-0.57-2.45c-0.01-0.05-0.01-0.1-0.02-0.14c-0.2,0.15-0.54,0.37-0.76,0.65c-0.19,0.25-0.56,0.72-0.43,0.89
			c0.1,0.13,0.38-0.06,0.77,0.06c0.28,0.08,0.6,0.29,0.68,0.6l0.14,0.39c0.27,0.75-0.51,3.15-1.17,3.59l-0.34,0.23l0.41-0.01
			c0.79-0.02,2.83,1.46,3.06,2.22l0.12,1.48l0.12-1.48c0.22-0.76,2.26-2.24,3.06-2.22l0.41,0.01l-0.34-0.23
			c-0.66-0.45-1.43-2.85-1.17-3.59l0.14-0.39c0.08-0.31,0.4-0.52,0.68-0.6c0.39-0.12,0.67,0.07,0.77-0.06
			c0.13-0.17-0.24-0.65-0.43-0.89C22.93,29.66,22.59,29.44,22.39,29.29z"/>
	</g>
</g>
</svg>
