<?xml version="1.0" encoding="utf-8"?>
<!-- Generator: Adobe Illustrator 24.0.0, SVG Export Plug-In . SVG Version: 6.00 Build 0)  -->
<svg version="1.1" id="Layer_1" xmlns="http://www.w3.org/2000/svg" xmlns:xlink="http://www.w3.org/1999/xlink" x="0px" y="0px"
	 viewBox="0 0 39.59 49.01" style="enable-background:new 0 0 39.59 49.01;" xml:space="preserve">
<style type="text/css">
	.st0{fill:#065A7F;}
	.st1{fill:url(#XMLID_2_);}
	.st2{fill:url(#XMLID_3_);}
	.st3{fill:#E5E9EB;}
	.st4{fill:url(#SKull_1_);}
	.st5{fill:url(#Right_Tusk_1_);}
	.st6{fill:url(#Left_Tusk_1_);}
</style>
<g>
	<g>
		<path class="st0" d="M0,0v29.31c0,0.02-0.03,1.69,1.06,3.93c1,2.07,3.19,5.07,7.93,7.6c7.68,4.1,10.15,7.17,10.81,8.18
			c0.66-1.01,3.13-4.07,10.81-8.18c9.07-4.84,8.99-11.45,8.98-11.52c0-0.01,0-29.32,0-29.32L19.8,0.1L0,0z"/>
	</g>
	<g id="XMLID_4_">
		<linearGradient id="XMLID_2_" gradientUnits="userSpaceOnUse" x1="6.5139" y1="19.3118" x2="22.559" y2="19.3118">
			<stop  offset="0" style="stop-color:#FFFFFF"/>
			<stop  offset="1" style="stop-color:#000000"/>
		</linearGradient>
		<path id="XMLID_6_" class="st1" d="M21.85,34.68l0.71-0.42L12.38,14.34c0,0-0.34-1.38-1.18-2.23c0,0,0.38-0.48-0.31-0.82
			l-0.39-0.71c0,0,0.92-0.5-0.17-1.81L6.51,3.94l1.92,6.57c0,0,0.32,0.77,1.2,0.42l0.52,0.93c0,0-0.21,0.39,0.16,0.55
			c0,0,0.49,1.98,1.24,2.26L21.85,34.68z"/>
		<linearGradient id="XMLID_3_" gradientUnits="userSpaceOnUse" x1="17.737" y1="19.1021" x2="35.28" y2="19.1021">
			<stop  offset="0" style="stop-color:#FFFFFF"/>
			<stop  offset="1" style="stop-color:#000000"/>
		</linearGradient>
		<path id="XMLID_5_" class="st2" d="M17.74,34.45l0.77,0.37l11.23-20.34c0,0,0.98-1.09,1.24-2.31c0,0,0.63,0.05,0.53-0.74
			l0.38-0.74c0,0,0.96,0.52,1.45-1.19l1.94-6.11l-4.53,5.46c0,0-0.47,0.72,0.33,1.29l-0.5,0.99c0,0-0.45,0.04-0.38,0.46
			c0,0-1.41,1.57-1.22,2.39L17.74,34.45z"/>
	</g>
	<path id="Right_eye_2_" class="st3" d="M23.26,18.53c0.03,0.15,0.08,0.57,0.08,0.57s0.05-0.3,0.44-0.32
		c0.16-0.01,0.21-0.54,0.2-0.7c-0.02-0.17-0.37-0.6-0.37-0.6s-0.17,0.19-0.24,0.3C23.23,18,23.22,18.34,23.26,18.53z"/>
	<path id="Left_eye_2_" class="st3" d="M16.41,18.78c0.39,0.02,0.44,0.32,0.44,0.32s0.05-0.42,0.08-0.57
		c0.04-0.2,0.03-0.53-0.11-0.76c-0.07-0.1-0.24-0.3-0.24-0.3s-0.35,0.44-0.37,0.6C16.19,18.24,16.25,18.77,16.41,18.78z"/>
	<linearGradient id="SKull_1_" gradientUnits="userSpaceOnUse" x1="14.7323" y1="19.3113" x2="25.4676" y2="19.3113">
		<stop  offset="0" style="stop-color:#FFFFFF"/>
		<stop  offset="1" style="stop-color:#000000"/>
	</linearGradient>
	<path id="SKull_2_" class="st4" d="M25.45,23.87c-0.11-0.23-0.04-0.73-0.05-0.82c-0.04-0.23-0.31-0.42-0.37-0.51
		c-0.16-0.24-0.98-1.78-0.94-2.05c0.01-0.05,0.13-0.14,0.18-0.28c0.03-0.09,0.04-0.28,0.01-0.37c-0.01-0.04-0.06-0.12-0.09-0.12
		c-0.13-0.02-0.1,0.19-0.11,0.24c-0.01,0.04,0,0.15-0.03,0.18c-0.02,0.01-0.09-0.01-0.11-0.03c-0.07-0.1,0.05-0.33,0.07-0.37
		c0.06-0.07,0.77-0.55,0.69-1.05c-0.04-0.23-0.23-0.24-0.23-0.24s0.01-0.33,0-0.4c-0.04-0.5-0.44-0.75-0.44-0.75
		s-0.27-0.01-0.3,0.23c0.22,0.23,0.67,0.82,0.09,1.35c-0.06,0.05-0.24,0.07-0.3,0.12c-0.04,0.03-0.1,0.14-0.1,0.19
		c0,0.07,0.08,0.27,0.08,0.27s-0.13-0.16-0.16-0.23c-0.05-0.1-0.2-0.79-0.07-1.51c0.01-0.08,0.03-0.24,0.08-0.3
		c0.07-0.07,0.81-0.16,0.88-0.27c0.19-0.35-0.12-0.88-0.21-0.99c-0.13-0.15-2.1-1.2-2.1-1.2l1,0.45c0,0-0.02-0.19-0.01-0.26
		c0.49-2.2-1.48-1.86-1.91-1.68c-0.05,0.02-0.16,0.1-0.21,0.08c-0.18-0.07-0.7-0.08-0.7-0.08s-0.49,0.01-0.66,0.08
		c-0.05,0.02-0.16-0.06-0.21-0.08c-1.06-0.49-2.47-0.01-1.91,1.68c0.02,0.06-0.01,0.26-0.01,0.26l1-0.45c0,0-1.97,1.06-2.1,1.2
		c-0.09,0.11-0.38,0.68-0.21,0.99c0.06,0.11,0.8,0.2,0.88,0.27c0.05,0.05,0.07,0.22,0.08,0.3c0.13,0.85-0.03,1.41-0.07,1.51
		c-0.03,0.06-0.16,0.23-0.16,0.23s0.08-0.2,0.08-0.27c0-0.05-0.06-0.16-0.1-0.19c-0.06-0.05-0.24-0.07-0.3-0.12
		c-0.58-0.53-0.12-1.12,0.09-1.35c-0.02-0.23-0.3-0.23-0.3-0.23s-0.39,0.28-0.44,0.75c-0.01,0.07,0,0.4,0,0.4s-0.21,0-0.23,0.24
		c-0.04,0.65,0.63,0.98,0.69,1.05c0.03,0.04,0.13,0.26,0.07,0.37c-0.01,0.02-0.08,0.05-0.11,0.03c-0.04-0.02-0.03-0.13-0.03-0.18
		c-0.01-0.05,0.02-0.26-0.11-0.24c-0.04,0.01-0.08,0.08-0.09,0.12c-0.03,0.09-0.03,0.28,0.01,0.37c0.05,0.14,0.17,0.24,0.18,0.28
		c0.04,0.27-0.78,1.81-0.94,2.05c-0.06,0.1-0.34,0.34-0.37,0.51c-0.02,0.09,0.08,0.51-0.05,0.82c-0.02,0.06-0.02,0.18,0,0.24
		c0.02,0.07,0.12,0.18,0.17,0.23c0.03,0.03,0.05,0.01,0.05,0.01s0.09-0.34,0.14-0.46c0.04-0.1,0.36-0.6,0.77-0.72
		c0.5-0.15,1.08,0.05,1.24,0.22c0.29,0.22,0.54,0.76,0.55,0.8c0.01,0.03,0.2,0.25,0.27,0.3c0.06,0.04,0.23,0.05,0.28,0.11
		c0.03,0.03,0.06,0.12,0.03,0.14c-0.12,0.1-0.31,0.2-0.62,0.44c-0.02,0.02-0.07,0.06-0.06,0.09c0.01,0.04,0.18,0.03,0.18,0.03
		s1.78-0.76,1.21-2.41c-0.06-0.18-0.35-0.44-0.49-0.57c-0.14-0.13-0.64-0.46-0.64-0.46s0.5,0.1,0.68,0.18
		c1.29,0.6,1.15,1.69,1.59,1.7c0.38,0.01,0.41-1.17,1.53-1.64c0.24-0.1,0.67-0.21,0.67-0.21s-0.48,0.35-0.62,0.49
		c-0.13,0.13-0.4,0.42-0.47,0.59c-0.62,1.61,1.2,2.38,1.2,2.38s0.16-0.03,0.17-0.07c0.01-0.03-0.04-0.08-0.06-0.09
		c-0.33-0.22-0.44-0.32-0.58-0.44c-0.03-0.03,0.01-0.12,0.04-0.15c0.05-0.05,0.21-0.07,0.27-0.11c0.07-0.05,0.22-0.24,0.23-0.27
		c0.02-0.03,0.45-0.72,0.52-0.79c0.36-0.35,1.08-0.32,1.3-0.2c0.37,0.12,0.73,0.6,0.78,0.71c0.05,0.12,0.13,0.54,0.13,0.54
		s0.03-0.07,0.06-0.11c0.05-0.05,0.15-0.16,0.17-0.23C25.47,24.05,25.48,23.92,25.45,23.87z M20.15,14.81
		c0.04-0.09,0.05-0.37,0.05-0.37l0.07,0.38l-0.13,0.15c0,0-0.13,0.1-0.12,0.14c0.02,0.07,0.27,0.4,0.27,0.45
		c0,0.1-0.21,0.31-0.23,0.4c-0.02,0.09,0.15,0.17,0.15,0.26c0,0.08-0.04,0.21-0.07,0.29c-0.02,0.07-0.02,0.29-0.02,0.29l-0.02-0.31
		c0,0,0.02-0.21,0-0.27c-0.02-0.07-0.14-0.17-0.14-0.24c0.01-0.12,0.22-0.28,0.22-0.4c0.01-0.14-0.28-0.34-0.27-0.48
		C19.92,15.02,20.11,14.9,20.15,14.81z M20.21,19.25c-0.01,0.01-0.02,0.01-0.02,0.01l-0.09,3.55l-0.09-3.55c0,0-0.01,0-0.02-0.01
		c-0.11-0.04-0.19-0.15-0.19-0.28c0-0.16,0.13-0.3,0.3-0.3c0.16,0,0.3,0.13,0.3,0.3C20.4,19.1,20.32,19.21,20.21,19.25z
		 M20.11,17.44c-0.65,0-1.33,0.31-1.33,0.31s0.54-0.51,1.32-0.51c0.77,0,1.32,0.51,1.32,0.51S20.78,17.44,20.11,17.44z"/>
	<linearGradient id="Right_Tusk_1_" gradientUnits="userSpaceOnUse" x1="22.0376" y1="21.7126" x2="31.7562" y2="21.7126">
		<stop  offset="0" style="stop-color:#FFFFFF"/>
		<stop  offset="1" style="stop-color:#000000"/>
	</linearGradient>
	<path id="Right_Tusk_2_" class="st5" d="M30.35,17.67c-0.02-0.03-0.28,0-0.28,0s0.21-0.12,0.2-0.14c-1.23-2.04-2.77-3.38-3.21-3.71
		c-0.07-0.06-0.13-0.06-0.17-0.04c-0.03,0.02-0.08,0.09-0.03,0.15c0.32,0.41,1.65,2,2.44,3.69c0.51,1.1,0.84,2.61,0.9,2.97
		c0.06,0.39,0.12,1.56,0.12,1.56l0.43,0.14l-0.43-0.05l-0.09,1.01c0,0-0.42,3.39-2.5,3.88c-0.28,0.07-2.22,0.05-3.4-1.35
		c-0.13-0.15-0.32-0.74-0.32-0.74s0.56,0.61,0.71,0.71c0.7,0.5,1.87,0.72,1.87,0.72s-1.48-1.6-1.55-2.4
		c-0.03-0.37-0.45-0.76-0.9-0.87c-0.2-0.05-0.49-0.01-0.69,0.07c-0.11,0.05-0.24,0.1-0.34,0.18c-0.13,0.09-0.45,0.6-0.53,0.74
		c-0.09,0.16-0.11,0.18-0.24,0.29c-0.06,0.05-0.2,0.07-0.25,0.11c-0.08,0.05-0.05,0.15-0.05,0.15s0.29,0.24,0.46,0.37
		c0.04,0.03,0.16,0.07,0.16,0.16c0,0.06-0.17,0.06-0.16,0.09c0.45,1.92,2.31,3.91,4.26,4.24c2.54,0.44,3.65-1.52,3.73-1.56
		c0.1-0.04-0.27-0.34-0.27-0.34l-0.18-0.18l0.65,0.15c0,0,0.67-1.24,0.87-2.09C32.13,23.06,31.4,19.32,30.35,17.67z M26.46,28.81
		c-0.01,0.05-0.06,0.08-0.11,0.07s-0.08-0.06-0.07-0.11c0.01-0.05,0.06-0.08,0.11-0.07S26.47,28.76,26.46,28.81z M26.85,28.97
		c-0.01,0.07-0.08,0.12-0.16,0.11c-0.07-0.01-0.12-0.08-0.11-0.16c0.01-0.07,0.08-0.12,0.16-0.11
		C26.81,28.82,26.86,28.89,26.85,28.97z M27.17,29.04c-0.01,0.05-0.06,0.08-0.11,0.07c-0.05-0.01-0.08-0.06-0.07-0.11
		c0.01-0.05,0.06-0.08,0.11-0.07C27.15,28.94,27.18,28.99,27.17,29.04z M28.4,29.02c-0.4,0.19-0.9,0.18-0.88,0
		c0.03-0.26,0.39-0.05,0.83-0.25c0.5-0.23,1.05-0.64,1.05-0.64S28.92,28.77,28.4,29.02z M31.2,21.89c-0.18,0-0.06-0.64-0.22-1.48
		c-0.17-0.95-0.77-2.13-0.77-2.13s0.8,1.1,1,2.1C31.35,21.15,31.36,21.89,31.2,21.89z"/>
	<linearGradient id="Left_Tusk_1_" gradientUnits="userSpaceOnUse" x1="8.4257" y1="21.7151" x2="18.1514" y2="21.7151">
		<stop  offset="0" style="stop-color:#FFFFFF"/>
		<stop  offset="1" style="stop-color:#000000"/>
	</linearGradient>
	<path id="Left_Tusk_2_" class="st6" d="M18.09,24.58c-0.05-0.04-0.19-0.03-0.25-0.08c-0.13-0.11-0.16-0.15-0.25-0.31
		c-0.08-0.13-0.25-0.52-0.51-0.74c-0.1-0.08-0.23-0.12-0.34-0.18c-0.2-0.08-0.49-0.12-0.69-0.07c-0.45,0.12-0.91,0.51-0.9,0.87
		c0.01,0.79-1.55,2.4-1.55,2.4s1.17-0.21,1.87-0.72c0.15-0.11,0.71-0.71,0.71-0.71s-0.19,0.59-0.32,0.74
		c-1.18,1.4-3.12,1.42-3.4,1.35c-2.09-0.49-2.5-3.88-2.5-3.88l-0.09-1.01l-0.43,0.05l0.43-0.14c0,0,0.06-1.17,0.12-1.56
		c0.05-0.37,0.38-1.87,0.9-2.97c0.79-1.7,2.12-3.28,2.44-3.69c0.05-0.06,0.01-0.13-0.03-0.15c-0.04-0.02-0.09-0.02-0.17,0.04
		c-0.44,0.33-1.98,1.67-3.21,3.71c-0.01,0.02,0.2,0.14,0.2,0.14s-0.26-0.04-0.28,0c-1.05,1.64-1.78,5.39-1.2,7.9
		c0.2,0.85,0.87,2.09,0.87,2.09l0.65-0.15l-0.18,0.18c0,0-0.37,0.3-0.27,0.34c0.08,0.03,1.2,1.99,3.73,1.56
		c1.95-0.34,3.79-2.32,4.24-4.25c0.01-0.03-0.16-0.01-0.15-0.08c0.01-0.09,0.12-0.15,0.15-0.18c0.17-0.13,0.48-0.37,0.48-0.37
		S18.17,24.63,18.09,24.58z M9.03,21.89c-0.16,0-0.16-0.74-0.01-1.51c0.19-1,1-2.1,1-2.1s-0.6,1.19-0.77,2.13
		C9.09,21.25,9.21,21.89,9.03,21.89z M11.8,29.08c-0.52-0.25-1.01-0.89-1.01-0.89s0.56,0.4,1.05,0.64c0.44,0.21,0.8,0,0.83,0.25
		C12.7,29.26,12.2,29.27,11.8,29.08z M13.13,29.17c-0.05,0.01-0.1-0.02-0.11-0.07c-0.01-0.05,0.02-0.1,0.07-0.11
		c0.05-0.01,0.1,0.02,0.11,0.07C13.22,29.11,13.18,29.16,13.13,29.17z M13.51,29.13c-0.07,0.01-0.14-0.03-0.16-0.11
		c-0.01-0.07,0.03-0.14,0.11-0.16c0.07-0.01,0.14,0.03,0.16,0.11C13.63,29.05,13.58,29.12,13.51,29.13z M13.84,28.94
		c-0.05,0.01-0.1-0.02-0.11-0.07c-0.01-0.05,0.02-0.1,0.07-0.11c0.05-0.01,0.1,0.02,0.11,0.07C13.92,28.89,13.89,28.93,13.84,28.94z
		"/>
</g>
</svg>
