<?xml version="1.0" encoding="utf-8"?>
<!-- Generator: Adobe Illustrator 24.0.0, SVG Export Plug-In . SVG Version: 6.00 Build 0)  -->
<svg version="1.1" id="Layer_1" xmlns="http://www.w3.org/2000/svg" xmlns:xlink="http://www.w3.org/1999/xlink" x="0px" y="0px"
	 viewBox="0 0 39.71 49.16" style="enable-background:new 0 0 39.71 49.16;" xml:space="preserve">
<style type="text/css">
	.st0{fill:#E5CA7F;}
	.st1{fill:#291E16;}
	.st2{fill:#552200;}
	.st3{opacity:0.73;fill:url(#SVGID_1_);enable-background:new    ;}
	.st4{opacity:0.73;fill:url(#SVGID_2_);enable-background:new    ;}
	.st5{opacity:0.73;fill:url(#SVGID_3_);enable-background:new    ;}
	.st6{opacity:0.73;fill:url(#SVGID_4_);enable-background:new    ;}
	.st7{opacity:0.73;fill:url(#SVGID_5_);enable-background:new    ;}
	.st8{opacity:0.73;fill:url(#SVGID_6_);enable-background:new    ;}
	.st9{opacity:0.73;fill:url(#SVGID_7_);enable-background:new    ;}
	.st10{opacity:0.73;fill:url(#SVGID_8_);enable-background:new    ;}
	.st11{opacity:0.73;fill:url(#SVGID_9_);enable-background:new    ;}
	.st12{opacity:0.73;fill:url(#SVGID_10_);enable-background:new    ;}
	.st13{opacity:0.73;fill:url(#SVGID_11_);enable-background:new    ;}
	.st14{opacity:0.73;fill:url(#SVGID_12_);enable-background:new    ;}
	.st15{opacity:0.73;fill:url(#SVGID_13_);enable-background:new    ;}
	.st16{opacity:0.73;fill:url(#SVGID_14_);enable-background:new    ;}
	.st17{opacity:0.73;fill:url(#SVGID_15_);enable-background:new    ;}
	.st18{opacity:0.73;fill:url(#SVGID_16_);enable-background:new    ;}
	.st19{opacity:0.73;fill:url(#SVGID_17_);enable-background:new    ;}
	.st20{opacity:0.73;fill:url(#SVGID_18_);enable-background:new    ;}
	.st21{opacity:0.73;fill:url(#SVGID_19_);enable-background:new    ;}
	.st22{opacity:0.73;fill:url(#SVGID_20_);enable-background:new    ;}
	.st23{opacity:0.73;fill:url(#SVGID_21_);enable-background:new    ;}
	.st24{opacity:0.73;fill:url(#SVGID_22_);enable-background:new    ;}
	.st25{opacity:0.73;fill:url(#SVGID_23_);enable-background:new    ;}
	.st26{opacity:0.73;fill:url(#SVGID_24_);enable-background:new    ;}
	.st27{opacity:0.73;fill:url(#SVGID_25_);enable-background:new    ;}
	.st28{opacity:0.73;fill:url(#SVGID_26_);enable-background:new    ;}
	.st29{opacity:0.73;fill:url(#SVGID_27_);enable-background:new    ;}
	.st30{opacity:0.73;fill:url(#SVGID_28_);enable-background:new    ;}
	.st31{opacity:0.73;fill:url(#SVGID_29_);enable-background:new    ;}
	.st32{opacity:0.73;fill:url(#SVGID_30_);enable-background:new    ;}
	.st33{opacity:0.73;fill:url(#SVGID_31_);enable-background:new    ;}
	.st34{opacity:0.73;fill:url(#SVGID_32_);enable-background:new    ;}
	.st35{opacity:0.73;fill:url(#SVGID_33_);enable-background:new    ;}
	.st36{opacity:0.73;fill:url(#SVGID_34_);enable-background:new    ;}
	.st37{opacity:0.73;fill:url(#SVGID_35_);enable-background:new    ;}
	.st38{opacity:0.73;fill:url(#SVGID_36_);enable-background:new    ;}
	.st39{opacity:0.73;fill:url(#SVGID_37_);enable-background:new    ;}
	.st40{opacity:0.73;fill:url(#SVGID_38_);enable-background:new    ;}
	.st41{opacity:0.73;fill:url(#SVGID_39_);enable-background:new    ;}
	.st42{opacity:0.73;fill:url(#SVGID_40_);enable-background:new    ;}
	.st43{opacity:0.73;fill:url(#SVGID_41_);enable-background:new    ;}
	.st44{opacity:0.73;fill:url(#SVGID_42_);enable-background:new    ;}
	.st45{opacity:0.73;fill:url(#SVGID_43_);enable-background:new    ;}
	.st46{opacity:0.73;fill:url(#SVGID_44_);enable-background:new    ;}
	.st47{opacity:0.73;fill:url(#SVGID_45_);enable-background:new    ;}
	.st48{opacity:0.73;fill:url(#SVGID_46_);enable-background:new    ;}
	.st49{opacity:0.73;fill:url(#SVGID_47_);enable-background:new    ;}
	.st50{opacity:0.73;fill:url(#SVGID_48_);enable-background:new    ;}
	.st51{opacity:0.73;fill:url(#SVGID_49_);enable-background:new    ;}
	.st52{opacity:0.73;fill:url(#SVGID_50_);enable-background:new    ;}
	.st53{opacity:0.73;fill:url(#SVGID_51_);enable-background:new    ;}
	.st54{opacity:0.73;fill:url(#SVGID_52_);enable-background:new    ;}
	.st55{opacity:0.73;fill:url(#SVGID_53_);enable-background:new    ;}
	.st56{opacity:0.73;fill:url(#SVGID_54_);enable-background:new    ;}
	.st57{opacity:0.73;fill:url(#SVGID_55_);enable-background:new    ;}
	.st58{opacity:0.73;fill:url(#SVGID_56_);enable-background:new    ;}
	.st59{opacity:0.73;fill:url(#SVGID_57_);enable-background:new    ;}
	.st60{opacity:0.73;fill:url(#SVGID_58_);enable-background:new    ;}
	.st61{opacity:0.73;fill:url(#SVGID_59_);enable-background:new    ;}
	.st62{opacity:0.73;fill:url(#SVGID_60_);enable-background:new    ;}
	.st63{opacity:0.73;fill:url(#SVGID_61_);enable-background:new    ;}
	.st64{opacity:0.73;fill:url(#SVGID_62_);enable-background:new    ;}
	.st65{opacity:0.73;fill:url(#SVGID_63_);enable-background:new    ;}
	.st66{opacity:0.73;fill:url(#SVGID_64_);enable-background:new    ;}
	.st67{fill:#552405;}
	.st68{fill:url(#SVGID_65_);}
	.st69{fill:#FFFFFF;}
	.st70{fill:url(#SVGID_66_);}
	.st71{fill:#20140C;}
	.st72{fill:url(#SVGID_67_);}
</style>
<g>
	<path class="st0" d="M0,0v29.4c0,0.02-0.03,1.69,1.06,3.94c1.01,2.08,3.2,5.08,7.95,7.62c7.71,4.12,10.18,7.19,10.84,8.2
		c0.66-1.01,3.14-4.09,10.84-8.2c9.1-4.86,9.02-11.49,9.01-11.55c0-0.01,0-29.41,0-29.41L19.86,0.1L0,0z"/>
</g>
<g>
	<path class="st1" d="M20.23,11.49c-5.52,0-9.99,4.52-9.99,10.09s4.47,10.09,9.99,10.09s9.99-4.52,9.99-10.09l-0.05-0.99
		C29.66,15.43,25.37,11.49,20.23,11.49L20.23,11.49z M20.23,13.69c4.02,0,7.38,3.08,7.78,7.12l0.04,0.78c0,4.36-3.5,7.89-7.81,7.89
		s-7.81-3.53-7.81-7.89S15.91,13.69,20.23,13.69L20.23,13.69z"/>
	<g transform="translate(20.03 -39.151)">
		<path class="st2" d="M7.77,47.53c-0.54,0.4-1.13,0.69-1.37,1.88l-0.05,0.07c-0.05,0.47-0.46,0.79-0.82,1.13l0.09,0.05
			c-0.54,0.42-1.05,0.88-1.11,1.92l-0.09,0.16L4.21,53.1l-0.05,0.09c-0.81,0.26-0.93,0.9-0.93,1.61l-0.07,0.11l-0.99,1.72
			l-0.07,0.12c-0.6,0.19-0.48,0.62-0.57,0.98l1.18,0.65c0.37-0.18,0.6-0.47,0.55-0.96l0.07-0.12l0.98-1.7l0.07-0.12
			c0.6-0.38,1.14-0.78,0.96-1.66l0.07-0.11l0.18-0.32l0.1-0.17c0.82-0.48,1-1.29,1.09-1.89l0.08,0.05c0.13-0.42,0.1-0.89,0.55-1.24
			l0.04-0.08c0.85-0.71,0.92-1.42,0.94-2.13C8.23,47.63,8.01,47.55,7.77,47.53L7.77,47.53z"/>
		
			<linearGradient id="SVGID_1_" gradientUnits="userSpaceOnUse" x1="-15.7168" y1="31.9569" x2="-18.3287" y2="33.4175" gradientTransform="matrix(1 0 0 -1 20.03 89.4764)">
			<stop  offset="0" style="stop-color:#3B1800;stop-opacity:0.28"/>
			<stop  offset="1" style="stop-color:#3B1800"/>
		</linearGradient>
		<path class="st3" d="M2.41,56.2l-0.25,0.43l-0.01,0.02c0.44,0.15,0.85,0.33,1.19,0.62l0.27-0.47C2.92,57,2.6,56.69,2.41,56.2
			L2.41,56.2z"/>
		
			<linearGradient id="SVGID_2_" gradientUnits="userSpaceOnUse" x1="-14.5844" y1="33.9816" x2="-17.1964" y2="35.4423" gradientTransform="matrix(1 0 0 -1 20.03 89.4764)">
			<stop  offset="0" style="stop-color:#3B1800;stop-opacity:0.28"/>
			<stop  offset="1" style="stop-color:#3B1800"/>
		</linearGradient>
		<path class="st4" d="M3.42,53.75c-0.16,0.3-0.2,0.66-0.2,1.05l-0.07,0.11l-0.03,0.05c0.3,0.35,0.68,0.58,1.17,0.65l0.01-0.02
			l0.07-0.12c0.41-0.26,0.79-0.53,0.93-0.96C3.93,55.29,3.57,54.67,3.42,53.75L3.42,53.75z"/>
		
			<linearGradient id="SVGID_3_" gradientUnits="userSpaceOnUse" x1="-13.3499" y1="36.1891" x2="-15.9619" y2="37.6498" gradientTransform="matrix(1 0 0 -1 20.03 89.4764)">
			<stop  offset="0" style="stop-color:#3B1800;stop-opacity:0.28"/>
			<stop  offset="1" style="stop-color:#3B1800"/>
		</linearGradient>
		<path class="st5" d="M4.81,51.5c-0.16,0.28-0.28,0.62-0.3,1.08l-0.06,0.1c0.3,0.32,0.69,0.52,1.16,0.64l0.07-0.12
			c0.35-0.2,0.58-0.47,0.74-0.75C5.48,52.82,4.96,52.47,4.81,51.5L4.81,51.5z"/>
		
			<linearGradient id="SVGID_4_" gradientUnits="userSpaceOnUse" x1="-12.3798" y1="37.9239" x2="-14.9917" y2="39.3846" gradientTransform="matrix(1 0 0 -1 20.03 89.4764)">
			<stop  offset="0" style="stop-color:#3B1800;stop-opacity:0.28"/>
			<stop  offset="1" style="stop-color:#3B1800"/>
		</linearGradient>
		<path class="st6" d="M5.96,50.19c-0.13,0.14-0.28,0.27-0.43,0.41l0.09,0.05c-0.02,0.01-0.04,0.03-0.06,0.04
			c0.33,0.28,0.71,0.54,1.19,0.72c0.01-0.04,0.01-0.07,0.02-0.11l0.08,0.05c0.06-0.19,0.09-0.39,0.14-0.58
			C6.52,50.85,6.16,50.7,5.96,50.19L5.96,50.19z"/>
		
			<radialGradient id="SVGID_5_" cx="141.3906" cy="369.2182" r="0.6182" gradientTransform="matrix(0.8889 0.458 1.1557 -2.2429 -545.0811 812.048)" gradientUnits="userSpaceOnUse">
			<stop  offset="0" style="stop-color:#E6AF89"/>
			<stop  offset="1" style="stop-color:#3B1800;stop-opacity:0"/>
		</radialGradient>
		<path class="st7" d="M7.8,48.97c-0.21,0.36-0.6,0.53-0.87,0.37s-0.32-0.58-0.11-0.94c0.21-0.36,0.6-0.53,0.87-0.37
			c0.25,0.15,0.32,0.52,0.15,0.87"/>
		
			<radialGradient id="SVGID_6_" cx="87.7735" cy="324.8952" r="0.6184" gradientTransform="matrix(0.9226 0.3858 1.2199 -2.9171 -471.9914 965.6345)" gradientUnits="userSpaceOnUse">
			<stop  offset="0" style="stop-color:#E6AF89"/>
			<stop  offset="1" style="stop-color:#3B1800;stop-opacity:0"/>
		</radialGradient>
		<path class="st8" d="M5.82,52.03c-0.21,0.36-0.6,0.53-0.87,0.37c-0.27-0.16-0.32-0.58-0.11-0.94c0.21-0.36,0.6-0.53,0.87-0.37
			c0.25,0.15,0.32,0.52,0.15,0.87"/>
		
			<radialGradient id="SVGID_7_" cx="68.8464" cy="298.4138" r="0.6184" gradientTransform="matrix(0.8899 0.4562 1.3804 -2.6924 -469.2779 826.0702)" gradientUnits="userSpaceOnUse">
			<stop  offset="0" style="stop-color:#E6AF89"/>
			<stop  offset="1" style="stop-color:#3B1800;stop-opacity:0"/>
		</radialGradient>
		<path class="st9" d="M4.41,54.31c-0.21,0.36-0.6,0.53-0.87,0.37c-0.27-0.16-0.32-0.58-0.11-0.94s0.6-0.53,0.87-0.37
			c0.25,0.15,0.32,0.52,0.15,0.87"/>
		
			<radialGradient id="SVGID_8_" cx="26.4035" cy="240.3719" r="0.4103" gradientTransform="matrix(0.9043 0.4269 1.7917 -3.7949 -452.5308 958.1722)" gradientUnits="userSpaceOnUse">
			<stop  offset="0" style="stop-color:#E6AF89"/>
			<stop  offset="1" style="stop-color:#3B1800;stop-opacity:0"/>
		</radialGradient>
		<path class="st10" d="M2.34,57.46c-0.14,0.26-0.4,0.37-0.58,0.26s-0.21-0.41-0.07-0.66s0.4-0.37,0.58-0.26
			c0.17,0.1,0.21,0.37,0.1,0.62"/>
	</g>
	<g transform="matrix(.70711 .70711 -.70711 .70711 462.97 -221.37)">
		<path class="st2" d="M-134.03,471.71c-0.54,0.4-1.13,0.69-1.37,1.88l-0.05,0.07c-0.05,0.47-0.46,0.79-0.82,1.13l0.09,0.05
			c-0.54,0.42-1.05,0.88-1.11,1.92l-0.09,0.16l-0.21,0.36l-0.05,0.09c-0.81,0.26-0.93,0.9-0.93,1.61l-0.07,0.11l-0.99,1.72
			l-0.07,0.12c-0.6,0.19-0.48,0.62-0.57,0.98l1.18,0.65c0.37-0.18,0.6-0.47,0.55-0.96l0.07-0.12l0.98-1.7l0.07-0.12
			c0.6-0.38,1.14-0.78,0.96-1.66l0.07-0.11l0.18-0.32l0.1-0.17c0.82-0.48,1-1.29,1.09-1.89l0.08,0.05c0.13-0.42,0.1-0.89,0.55-1.24
			l0.04-0.08c0.85-0.71,0.92-1.42,0.94-2.13C-133.56,471.81-133.78,471.73-134.03,471.71L-134.03,471.71z"/>
		
			<linearGradient id="SVGID_9_" gradientUnits="userSpaceOnUse" x1="66.0293" y1="789.3682" x2="63.4174" y2="790.8289" gradientTransform="matrix(0.7071 -0.7071 -0.7071 -0.7071 373.9982 1086.5604)">
			<stop  offset="0" style="stop-color:#3B1800;stop-opacity:0.28"/>
			<stop  offset="1" style="stop-color:#3B1800"/>
		</linearGradient>
		<path class="st11" d="M-139.38,480.38l-0.25,0.43l-0.01,0.02c0.44,0.15,0.85,0.33,1.19,0.62l0.27-0.47
			C-138.87,481.18-139.2,480.87-139.38,480.38L-139.38,480.38z"/>
		
			<linearGradient id="SVGID_10_" gradientUnits="userSpaceOnUse" x1="68.2617" y1="789.9992" x2="65.6497" y2="791.46" gradientTransform="matrix(0.7071 -0.7071 -0.7071 -0.7071 373.9982 1086.5604)">
			<stop  offset="0" style="stop-color:#3B1800;stop-opacity:0.28"/>
			<stop  offset="1" style="stop-color:#3B1800"/>
		</linearGradient>
		<path class="st12" d="M-138.37,477.93c-0.16,0.3-0.2,0.66-0.2,1.05l-0.07,0.11l-0.03,0.05c0.3,0.35,0.68,0.58,1.17,0.65l0.01-0.02
			l0.07-0.12c0.41-0.26,0.79-0.53,0.93-0.96C-137.86,479.47-138.23,478.86-138.37,477.93L-138.37,477.93z"/>
		
			<linearGradient id="SVGID_11_" gradientUnits="userSpaceOnUse" x1="70.6956" y1="790.6873" x2="68.0836" y2="792.1479" gradientTransform="matrix(0.7071 -0.7071 -0.7071 -0.7071 373.9982 1086.5604)">
			<stop  offset="0" style="stop-color:#3B1800;stop-opacity:0.28"/>
			<stop  offset="1" style="stop-color:#3B1800"/>
		</linearGradient>
		<path class="st13" d="M-136.98,475.68c-0.16,0.28-0.28,0.62-0.3,1.08l-0.06,0.1c0.3,0.32,0.69,0.52,1.16,0.64l0.07-0.12
			c0.35-0.2,0.58-0.47,0.74-0.75C-136.32,477-136.83,476.65-136.98,475.68L-136.98,475.68z"/>
		
			<linearGradient id="SVGID_12_" gradientUnits="userSpaceOnUse" x1="72.6082" y1="791.2279" x2="69.9962" y2="792.6886" gradientTransform="matrix(0.7071 -0.7071 -0.7071 -0.7071 373.9982 1086.5604)">
			<stop  offset="0" style="stop-color:#3B1800;stop-opacity:0.28"/>
			<stop  offset="1" style="stop-color:#3B1800"/>
		</linearGradient>
		<path class="st14" d="M-135.83,474.37c-0.13,0.14-0.28,0.27-0.43,0.41l0.09,0.05c-0.02,0.01-0.04,0.03-0.06,0.04
			c0.33,0.28,0.71,0.54,1.19,0.72c0.01-0.04,0.01-0.07,0.02-0.11l0.08,0.05c0.06-0.19,0.09-0.39,0.14-0.58
			C-135.28,475.03-135.64,474.88-135.83,474.37L-135.83,474.37z"/>
		
			<radialGradient id="SVGID_13_" cx="107.506" cy="853.4369" r="0.6182" gradientTransform="matrix(1.4458 -1.2621 0.1886 -1.9098 -450.8962 2238.4875)" gradientUnits="userSpaceOnUse">
			<stop  offset="0" style="stop-color:#E6AF89"/>
			<stop  offset="1" style="stop-color:#3B1800;stop-opacity:0"/>
		</radialGradient>
		<path class="st15" d="M-133.99,473.15c-0.21,0.36-0.6,0.53-0.87,0.37c-0.27-0.16-0.32-0.58-0.11-0.94
			c0.21-0.36,0.6-0.53,0.87-0.37c0.25,0.15,0.32,0.52,0.15,0.87"/>
		
			<radialGradient id="SVGID_14_" cx="42.4488" cy="826.8113" r="0.6184" gradientTransform="matrix(1.515 -1.7899 0.2102 -2.3355 -374.6046 2482.9412)" gradientUnits="userSpaceOnUse">
			<stop  offset="0" style="stop-color:#E6AF89"/>
			<stop  offset="1" style="stop-color:#3B1800;stop-opacity:0"/>
		</radialGradient>
		<path class="st16" d="M-135.98,476.21c-0.21,0.36-0.6,0.53-0.87,0.37s-0.32-0.58-0.11-0.94c0.21-0.36,0.6-0.53,0.87-0.37
			c0.25,0.15,0.32,0.52,0.15,0.87"/>
		
			<radialGradient id="SVGID_15_" cx="-8.3241" cy="839.2704" r="0.6184" gradientTransform="matrix(1.6053 -1.5812 0.3469 -2.2264 -415.6302 2333.6243)" gradientUnits="userSpaceOnUse">
			<stop  offset="0" style="stop-color:#E6AF89"/>
			<stop  offset="1" style="stop-color:#3B1800;stop-opacity:0"/>
		</radialGradient>
		<path class="st17" d="M-137.39,478.49c-0.21,0.36-0.6,0.53-0.87,0.37c-0.27-0.16-0.32-0.58-0.11-0.94
			c0.21-0.36,0.6-0.53,0.87-0.37c0.25,0.15,0.32,0.52,0.15,0.87"/>
		
			<radialGradient id="SVGID_16_" cx="-91.7127" cy="800.7985" r="0.4103" gradientTransform="matrix(1.9064 -2.3815 0.6275 -2.9853 -467.4426 2653.6445)" gradientUnits="userSpaceOnUse">
			<stop  offset="0" style="stop-color:#E6AF89"/>
			<stop  offset="1" style="stop-color:#3B1800;stop-opacity:0"/>
		</radialGradient>
		<path class="st18" d="M-139.45,481.64c-0.14,0.26-0.4,0.37-0.58,0.26c-0.18-0.11-0.21-0.41-0.07-0.66
			c0.14-0.26,0.4-0.37,0.58-0.26c0.17,0.1,0.21,0.37,0.1,0.62"/>
	</g>
	<path class="st2" d="M33.11,28.64c-0.4-0.54-0.69-1.13-1.88-1.37l-0.07-0.05c-0.47-0.05-0.79-0.46-1.13-0.82l-0.05,0.09
		c-0.42-0.54-0.88-1.05-1.92-1.11l-0.16-0.09l-0.36-0.21l-0.09-0.05c-0.26-0.81-0.9-0.93-1.61-0.93l-0.11-0.07L24,23.03l-0.12-0.07
		c-0.19-0.6-0.62-0.48-0.98-0.57l-0.65,1.18c0.18,0.37,0.47,0.6,0.96,0.55l0.12,0.07l1.7,0.98l0.12,0.07
		c0.38,0.6,0.78,1.14,1.66,0.96l0.11,0.07l0.32,0.18l0.17,0.1c0.48,0.82,1.29,1,1.89,1.09l-0.05,0.08c0.42,0.13,0.89,0.1,1.24,0.55
		l0.08,0.04c0.71,0.85,1.42,0.92,2.13,0.94C33,29.1,33.09,28.88,33.11,28.64L33.11,28.64z"/>
	
		<linearGradient id="SVGID_17_" gradientUnits="userSpaceOnUse" x1="-362.1144" y1="622.3897" x2="-364.7264" y2="623.8504" gradientTransform="matrix(0 1 1 0 -599.2753 387.2973)">
		<stop  offset="0" style="stop-color:#3B1800;stop-opacity:0.28"/>
		<stop  offset="1" style="stop-color:#3B1800"/>
	</linearGradient>
	<path class="st19" d="M24.43,23.28L24,23.03l-0.02-0.01c-0.15,0.44-0.33,0.85-0.62,1.19l0.47,0.27
		C23.63,23.79,23.94,23.47,24.43,23.28L24.43,23.28z"/>
	
		<linearGradient id="SVGID_18_" gradientUnits="userSpaceOnUse" x1="-360.982" y1="624.4146" x2="-363.594" y2="625.8753" gradientTransform="matrix(0 1 1 0 -599.2753 387.2973)">
		<stop  offset="0" style="stop-color:#3B1800;stop-opacity:0.28"/>
		<stop  offset="1" style="stop-color:#3B1800"/>
	</linearGradient>
	<path class="st20" d="M26.88,24.29c-0.3-0.16-0.66-0.2-1.05-0.2l-0.11-0.07L25.67,24c-0.35,0.3-0.58,0.68-0.65,1.17l0.02,0.01
		l0.12,0.07c0.26,0.41,0.53,0.79,0.96,0.93C25.35,24.8,25.96,24.44,26.88,24.29L26.88,24.29z"/>
	
		<linearGradient id="SVGID_19_" gradientUnits="userSpaceOnUse" x1="-359.7476" y1="626.622" x2="-362.3595" y2="628.0827" gradientTransform="matrix(0 1 1 0 -599.2753 387.2973)">
		<stop  offset="0" style="stop-color:#3B1800;stop-opacity:0.28"/>
		<stop  offset="1" style="stop-color:#3B1800"/>
	</linearGradient>
	<path class="st21" d="M29.13,25.68c-0.28-0.16-0.62-0.28-1.08-0.3l-0.1-0.06c-0.32,0.3-0.52,0.69-0.64,1.16l0.12,0.07
		c0.2,0.35,0.47,0.58,0.75,0.74C27.82,26.35,28.17,25.83,29.13,25.68L29.13,25.68z"/>
	
		<linearGradient id="SVGID_20_" gradientUnits="userSpaceOnUse" x1="-358.7774" y1="628.3567" x2="-361.3894" y2="629.8174" gradientTransform="matrix(0 1 1 0 -599.2753 387.2973)">
		<stop  offset="0" style="stop-color:#3B1800;stop-opacity:0.28"/>
		<stop  offset="1" style="stop-color:#3B1800"/>
	</linearGradient>
	<path class="st22" d="M30.44,26.83c-0.14-0.13-0.27-0.28-0.41-0.43l-0.05,0.09c-0.01-0.02-0.03-0.04-0.04-0.06
		c-0.28,0.33-0.54,0.71-0.72,1.19c0.04,0.01,0.07,0.01,0.11,0.02l-0.05,0.08c0.19,0.06,0.39,0.09,0.58,0.14
		C29.78,27.39,29.94,27.03,30.44,26.83L30.44,26.83z"/>
	
		<radialGradient id="SVGID_21_" cx="-452.6822" cy="485.3539" r="0.6184" gradientTransform="matrix(-0.458 0.8889 2.2429 1.1557 -1263.9921 -130.3344)" gradientUnits="userSpaceOnUse">
		<stop  offset="0" style="stop-color:#E6AF89"/>
		<stop  offset="1" style="stop-color:#3B1800;stop-opacity:0"/>
	</radialGradient>
	<path class="st23" d="M31.66,28.67c-0.36-0.21-0.53-0.6-0.37-0.87c0.16-0.27,0.58-0.32,0.94-0.11c0.36,0.21,0.53,0.6,0.37,0.87
		c-0.15,0.25-0.52,0.32-0.87,0.15"/>
	
		<radialGradient id="SVGID_22_" cx="-473.1373" cy="424.7216" r="0.618" gradientTransform="matrix(-0.3858 0.9226 2.9171 1.2199 -1392.6093 -55.4151)" gradientUnits="userSpaceOnUse">
		<stop  offset="0" style="stop-color:#E6AF89"/>
		<stop  offset="1" style="stop-color:#3B1800;stop-opacity:0"/>
	</radialGradient>
	<path class="st24" d="M28.6,26.69c-0.36-0.21-0.53-0.6-0.37-0.87s0.58-0.32,0.94-0.11c0.36,0.21,0.53,0.6,0.37,0.87
		c-0.15,0.25-0.52,0.32-0.87,0.15"/>
	
		<radialGradient id="SVGID_23_" cx="-524.4203" cy="389.169" r="0.6181" gradientTransform="matrix(-0.4562 0.8899 2.6924 1.3804 -1260.4517 -45.7625)" gradientUnits="userSpaceOnUse">
		<stop  offset="0" style="stop-color:#E6AF89"/>
		<stop  offset="1" style="stop-color:#3B1800;stop-opacity:0"/>
	</radialGradient>
	<path class="st25" d="M26.32,25.28c-0.36-0.21-0.53-0.6-0.37-0.87s0.58-0.32,0.94-0.11c0.36,0.21,0.53,0.6,0.37,0.87
		c-0.15,0.25-0.52,0.32-0.87,0.15"/>
	
		<radialGradient id="SVGID_24_" cx="-553.6864" cy="299.5915" r="0.4101" gradientTransform="matrix(-0.4269 0.9043 3.7949 1.7917 -1349.9268 -13.2014)" gradientUnits="userSpaceOnUse">
		<stop  offset="0" style="stop-color:#E6AF89"/>
		<stop  offset="1" style="stop-color:#3B1800;stop-opacity:0"/>
	</radialGradient>
	<path class="st26" d="M23.18,23.21c-0.26-0.14-0.37-0.4-0.26-0.58c0.11-0.18,0.41-0.21,0.66-0.07c0.26,0.14,0.37,0.4,0.26,0.58
		c-0.1,0.17-0.37,0.21-0.62,0.1"/>
	<path class="st2" d="M24.08,35.49c0.1-0.67,0.31-1.29-0.36-2.29l-0.01-0.09c-0.29-0.37-0.23-0.88-0.22-1.37l-0.1,0.03
		c0.09-0.68,0.12-1.36-0.57-2.15l-0.05-0.18l-0.11-0.41l-0.03-0.1c0.39-0.76,0.02-1.3-0.48-1.8l-0.03-0.13l-0.51-1.92l-0.03-0.13
		c0.29-0.56-0.1-0.78-0.29-1.09l-1.29,0.38c-0.14,0.39-0.1,0.76,0.29,1.07l0.04,0.13l0.51,1.9l0.04,0.13
		c-0.15,0.7-0.25,1.36,0.5,1.85l0.03,0.13l0.09,0.35L21.54,30c-0.24,0.92,0.21,1.62,0.56,2.11l-0.09,0.02
		c0.21,0.39,0.56,0.7,0.49,1.26l0.03,0.08c-0.1,1.1,0.35,1.66,0.84,2.17C23.67,35.74,23.89,35.65,24.08,35.49L24.08,35.49z"/>
	
		<linearGradient id="SVGID_25_" gradientUnits="userSpaceOnUse" x1="-752.832" y1="569.597" x2="-755.444" y2="571.0577" gradientTransform="matrix(-0.7071 0.7071 0.7071 0.7071 -915.652 155.5476)">
		<stop  offset="0" style="stop-color:#3B1800;stop-opacity:0.28"/>
		<stop  offset="1" style="stop-color:#3B1800"/>
	</linearGradient>
	<path class="st27" d="M21.73,25.57l-0.13-0.48l0-0.02c-0.41,0.21-0.84,0.37-1.28,0.41L20.46,26C20.8,25.36,21.25,25.35,21.73,25.57
		L21.73,25.57z"/>
	
		<linearGradient id="SVGID_26_" gradientUnits="userSpaceOnUse" x1="-751.6997" y1="571.6218" x2="-754.3116" y2="573.0825" gradientTransform="matrix(-0.7071 0.7071 0.7071 0.7071 -915.652 155.5476)">
		<stop  offset="0" style="stop-color:#3B1800;stop-opacity:0.28"/>
		<stop  offset="1" style="stop-color:#3B1800"/>
	</linearGradient>
	<path class="st28" d="M22.74,28.01c-0.09-0.32-0.33-0.61-0.6-0.88l-0.03-0.13l-0.02-0.06c-0.46-0.03-0.89,0.07-1.28,0.37l0.01,0.03
		l0.04,0.13c-0.1,0.48-0.18,0.94,0.02,1.34C21.3,27.29,21.99,27.46,22.74,28.01L22.74,28.01z"/>
	
		<linearGradient id="SVGID_27_" gradientUnits="userSpaceOnUse" x1="-750.4652" y1="573.8293" x2="-753.0771" y2="575.29" gradientTransform="matrix(-0.7071 0.7071 0.7071 0.7071 -915.652 155.5476)">
		<stop  offset="0" style="stop-color:#3B1800;stop-opacity:0.28"/>
		<stop  offset="1" style="stop-color:#3B1800"/>
	</linearGradient>
	<path class="st29" d="M23.35,30.59c-0.08-0.31-0.25-0.64-0.55-0.98l-0.03-0.11c-0.43-0.01-0.86,0.12-1.27,0.37L21.54,30
		c-0.1,0.39-0.08,0.74,0.01,1.05C21.95,30.13,22.57,30.01,23.35,30.59L23.35,30.59z"/>
	
		<linearGradient id="SVGID_28_" gradientUnits="userSpaceOnUse" x1="-749.4951" y1="575.564" x2="-752.1071" y2="577.0247" gradientTransform="matrix(-0.7071 0.7071 0.7071 0.7071 -915.652 155.5476)">
		<stop  offset="0" style="stop-color:#3B1800;stop-opacity:0.28"/>
		<stop  offset="1" style="stop-color:#3B1800"/>
	</linearGradient>
	<path class="st30" d="M23.47,32.33c-0.01-0.19,0.01-0.4,0.01-0.59l-0.1,0.03c0-0.02,0.01-0.05,0.01-0.07
		c-0.43,0.03-0.88,0.12-1.36,0.33c0.02,0.03,0.04,0.06,0.06,0.09l-0.09,0.02c0.09,0.18,0.21,0.34,0.31,0.51
		C22.61,32.25,22.97,32.11,23.47,32.33L23.47,32.33z"/>
	
		<radialGradient id="SVGID_29_" cx="-775.7762" cy="395.8354" r="0.6183" gradientTransform="matrix(-0.9524 0.3047 0.7688 2.4032 -1019.6373 -680.5401)" gradientUnits="userSpaceOnUse">
		<stop  offset="0" style="stop-color:#E6AF89"/>
		<stop  offset="1" style="stop-color:#3B1800;stop-opacity:0"/>
	</radialGradient>
	<path class="st31" d="M23.03,34.49c-0.11-0.4,0.05-0.79,0.35-0.88c0.3-0.08,0.63,0.18,0.74,0.58c0.11,0.4-0.05,0.79-0.35,0.88
		c-0.28,0.08-0.59-0.15-0.72-0.51"/>
	
		<radialGradient id="SVGID_30_" cx="-813.241" cy="361.6315" r="0.6195" gradientTransform="matrix(-0.9252 0.3796 1.2001 2.9252 -1163.5609 -718.3903)" gradientUnits="userSpaceOnUse">
		<stop  offset="0" style="stop-color:#E6AF89"/>
		<stop  offset="1" style="stop-color:#3B1800;stop-opacity:0"/>
	</radialGradient>
	<path class="st32" d="M22.27,30.92c-0.11-0.4,0.05-0.79,0.35-0.88c0.3-0.08,0.63,0.18,0.74,0.58c0.11,0.4-0.05,0.79-0.35,0.88
		c-0.28,0.08-0.59-0.15-0.72-0.51"/>
	
		<radialGradient id="SVGID_31_" cx="-848.0355" cy="314.7178" r="0.6187" gradientTransform="matrix(-0.9518 0.3066 0.9277 2.8798 -1076.9537 -618.1329)" gradientUnits="userSpaceOnUse">
		<stop  offset="0" style="stop-color:#E6AF89"/>
		<stop  offset="1" style="stop-color:#3B1800;stop-opacity:0"/>
	</radialGradient>
	<path class="st33" d="M21.65,28.31c-0.11-0.4,0.05-0.79,0.35-0.88s0.63,0.18,0.74,0.58c0.11,0.4-0.05,0.79-0.35,0.88
		c-0.28,0.08-0.59-0.15-0.72-0.51"/>
	
		<radialGradient id="SVGID_32_" cx="-884.4479" cy="248.458" r="0.4101" gradientTransform="matrix(-0.9413 0.3375 1.4165 3.9503 -1163.2198 -658.4013)" gradientUnits="userSpaceOnUse">
		<stop  offset="0" style="stop-color:#E6AF89"/>
		<stop  offset="1" style="stop-color:#3B1800;stop-opacity:0"/>
	</radialGradient>
	<path class="st34" d="M20.89,24.63c-0.08-0.28,0.02-0.54,0.22-0.59c0.21-0.05,0.44,0.14,0.52,0.42c0.08,0.28-0.02,0.54-0.22,0.59
		c-0.19,0.05-0.41-0.11-0.5-0.37"/>
	<g transform="matrix(-1 0 0 -1 902.89 847.99)">
		<path class="st2" d="M890.05,814.04c-0.54,0.4-1.13,0.69-1.37,1.88l-0.05,0.07c-0.05,0.47-0.46,0.79-0.82,1.13l0.09,0.05
			c-0.54,0.42-1.05,0.88-1.11,1.92l-0.09,0.16l-0.21,0.36l-0.05,0.09c-0.81,0.26-0.93,0.9-0.93,1.61l-0.07,0.11l-0.99,1.72
			l-0.07,0.12c-0.6,0.19-0.48,0.62-0.57,0.98l1.18,0.65c0.37-0.18,0.6-0.47,0.55-0.96l0.07-0.12l0.98-1.7l0.07-0.12
			c0.6-0.38,1.14-0.78,0.96-1.66l0.07-0.11l0.18-0.32l0.1-0.17c0.82-0.48,1-1.29,1.09-1.89l0.08,0.05c0.13-0.42,0.1-0.89,0.55-1.24
			l0.04-0.08c0.85-0.71,0.92-1.42,0.94-2.13C890.51,814.15,890.29,814.06,890.05,814.04L890.05,814.04z"/>
		
			<linearGradient id="SVGID_33_" gradientUnits="userSpaceOnUse" x1="1894.5854" y1="592.0259" x2="1891.9734" y2="590.5652" gradientTransform="matrix(-1 0 0 1 2781.1753 232.01)">
			<stop  offset="0" style="stop-color:#3B1800;stop-opacity:0.28"/>
			<stop  offset="1" style="stop-color:#3B1800"/>
		</linearGradient>
		<path class="st35" d="M884.69,822.72l-0.25,0.43l-0.01,0.02c0.44,0.15,0.85,0.33,1.19,0.62l0.27-0.47
			C885.2,823.52,884.88,823.21,884.69,822.72L884.69,822.72z"/>
		
			<linearGradient id="SVGID_34_" gradientUnits="userSpaceOnUse" x1="1893.4531" y1="590.0012" x2="1890.8411" y2="588.5405" gradientTransform="matrix(-1 0 0 1 2781.1753 232.01)">
			<stop  offset="0" style="stop-color:#3B1800;stop-opacity:0.28"/>
			<stop  offset="1" style="stop-color:#3B1800"/>
		</linearGradient>
		<path class="st36" d="M885.7,820.27c-0.16,0.3-0.2,0.66-0.2,1.05l-0.07,0.11l-0.03,0.05c0.3,0.35,0.68,0.58,1.17,0.65l0.01-0.02
			l0.07-0.12c0.41-0.26,0.79-0.53,0.93-0.96C886.21,821.81,885.84,821.19,885.7,820.27L885.7,820.27z"/>
		
			<linearGradient id="SVGID_35_" gradientUnits="userSpaceOnUse" x1="1892.2185" y1="587.7936" x2="1889.6066" y2="586.3329" gradientTransform="matrix(-1 0 0 1 2781.1753 232.01)">
			<stop  offset="0" style="stop-color:#3B1800;stop-opacity:0.28"/>
			<stop  offset="1" style="stop-color:#3B1800"/>
		</linearGradient>
		<path class="st37" d="M887.09,818.02c-0.16,0.28-0.28,0.62-0.3,1.08l-0.06,0.1c0.3,0.32,0.69,0.52,1.16,0.64l0.07-0.12
			c0.35-0.2,0.58-0.47,0.74-0.75C887.75,819.33,887.24,818.98,887.09,818.02L887.09,818.02z"/>
		
			<linearGradient id="SVGID_36_" gradientUnits="userSpaceOnUse" x1="1891.2484" y1="586.059" x2="1888.6365" y2="584.5983" gradientTransform="matrix(-1 0 0 1 2781.1753 232.01)">
			<stop  offset="0" style="stop-color:#3B1800;stop-opacity:0.28"/>
			<stop  offset="1" style="stop-color:#3B1800"/>
		</linearGradient>
		<path class="st38" d="M888.24,816.71c-0.13,0.14-0.28,0.27-0.43,0.41l0.09,0.05c-0.02,0.01-0.04,0.03-0.06,0.04
			c0.33,0.28,0.71,0.54,1.19,0.72c0.01-0.04,0.01-0.07,0.02-0.11l0.08,0.05c0.06-0.19,0.09-0.39,0.14-0.58
			C888.8,817.37,888.43,817.22,888.24,816.71L888.24,816.71z"/>
		
			<radialGradient id="SVGID_37_" cx="1747.3916" cy="606.0116" r="0.6182" gradientTransform="matrix(-0.8889 -0.458 -1.1557 2.2429 3143.2825 256.3218)" gradientUnits="userSpaceOnUse">
			<stop  offset="0" style="stop-color:#E6AF89"/>
			<stop  offset="1" style="stop-color:#3B1800;stop-opacity:0"/>
		</radialGradient>
		<path class="st39" d="M890.08,815.49c-0.21,0.36-0.6,0.53-0.87,0.37c-0.27-0.16-0.32-0.58-0.11-0.94c0.21-0.36,0.6-0.53,0.87-0.37
			c0.25,0.15,0.32,0.52,0.15,0.87"/>
		
			<radialGradient id="SVGID_38_" cx="1815.5095" cy="606.9927" r="0.6184" gradientTransform="matrix(-0.9226 -0.3858 -1.2199 2.9171 3303.0261 -251.9536)" gradientUnits="userSpaceOnUse">
			<stop  offset="0" style="stop-color:#E6AF89"/>
			<stop  offset="1" style="stop-color:#3B1800;stop-opacity:0"/>
		</radialGradient>
		<path class="st40" d="M888.09,818.55c-0.21,0.36-0.6,0.53-0.87,0.37s-0.32-0.58-0.11-0.94s0.6-0.53,0.87-0.37
			c0.25,0.15,0.32,0.52,0.15,0.87"/>
		
			<radialGradient id="SVGID_39_" cx="1820.3853" cy="661.5168" r="0.6184" gradientTransform="matrix(-0.8899 -0.4562 -1.3804 2.6924 3419.2385 -130.0063)" gradientUnits="userSpaceOnUse">
			<stop  offset="0" style="stop-color:#E6AF89"/>
			<stop  offset="1" style="stop-color:#3B1800;stop-opacity:0"/>
		</radialGradient>
		<path class="st41" d="M886.68,820.83c-0.21,0.36-0.6,0.53-0.87,0.37c-0.27-0.16-0.32-0.58-0.11-0.94c0.21-0.36,0.6-0.53,0.87-0.37
			c0.25,0.15,0.32,0.52,0.15,0.87"/>
		
			<radialGradient id="SVGID_40_" cx="1869.484" cy="691.3905" r="0.4103" gradientTransform="matrix(-0.9043 -0.4269 -1.7917 3.7949 3813.5977 -1001.845)" gradientUnits="userSpaceOnUse">
			<stop  offset="0" style="stop-color:#E6AF89"/>
			<stop  offset="1" style="stop-color:#3B1800;stop-opacity:0"/>
		</radialGradient>
		<path class="st42" d="M884.62,823.97c-0.14,0.26-0.4,0.37-0.58,0.26c-0.18-0.11-0.21-0.41-0.07-0.66s0.4-0.37,0.58-0.26
			c0.17,0.1,0.21,0.37,0.1,0.62"/>
	</g>
	<g transform="matrix(-.70711 -.70711 .70711 -.70711 459.94 1030.2)">
		<path class="st2" d="M1031.83,389.85c-0.54,0.4-1.13,0.69-1.37,1.88l-0.05,0.07c-0.05,0.47-0.46,0.79-0.82,1.13l0.09,0.05
			c-0.54,0.42-1.05,0.88-1.11,1.92l-0.09,0.16l-0.21,0.36l-0.05,0.09c-0.81,0.26-0.93,0.9-0.93,1.61l-0.07,0.11l-0.99,1.72
			l-0.07,0.12c-0.6,0.19-0.48,0.62-0.57,0.98l1.18,0.65c0.37-0.18,0.6-0.47,0.55-0.96l0.07-0.12l0.98-1.7l0.07-0.12
			c0.6-0.38,1.14-0.78,0.96-1.66l0.07-0.11l0.18-0.32l0.1-0.17c0.82-0.48,1-1.29,1.09-1.89l0.08,0.05c0.13-0.42,0.1-0.89,0.55-1.24
			l0.04-0.08c0.85-0.71,0.92-1.42,0.94-2.13C1032.29,389.96,1032.07,389.87,1031.83,389.85L1031.83,389.85z"/>
		
			<linearGradient id="SVGID_41_" gradientUnits="userSpaceOnUse" x1="1812.8269" y1="-165.4006" x2="1810.215" y2="-166.8613" gradientTransform="matrix(-0.7071 0.7071 0.7071 0.7071 2427.197 -765.0651)">
			<stop  offset="0" style="stop-color:#3B1800;stop-opacity:0.28"/>
			<stop  offset="1" style="stop-color:#3B1800"/>
		</linearGradient>
		<path class="st43" d="M1026.47,398.53l-0.25,0.43l-0.01,0.02c0.44,0.15,0.85,0.33,1.19,0.62l0.27-0.47
			C1026.98,399.33,1026.66,399.02,1026.47,398.53L1026.47,398.53z"/>
		
			<linearGradient id="SVGID_42_" gradientUnits="userSpaceOnUse" x1="1810.5945" y1="-166.0316" x2="1807.9825" y2="-167.4923" gradientTransform="matrix(-0.7071 0.7071 0.7071 0.7071 2427.197 -765.0651)">
			<stop  offset="0" style="stop-color:#3B1800;stop-opacity:0.28"/>
			<stop  offset="1" style="stop-color:#3B1800"/>
		</linearGradient>
		<path class="st44" d="M1027.48,396.08c-0.16,0.3-0.2,0.66-0.2,1.05l-0.07,0.11l-0.03,0.05c0.3,0.35,0.68,0.58,1.17,0.65l0.01-0.02
			l0.07-0.12c0.41-0.26,0.79-0.53,0.93-0.96C1027.99,397.62,1027.63,397,1027.48,396.08L1027.48,396.08z"/>
		
			<linearGradient id="SVGID_43_" gradientUnits="userSpaceOnUse" x1="1808.1606" y1="-166.7196" x2="1805.5487" y2="-168.1803" gradientTransform="matrix(-0.7071 0.7071 0.7071 0.7071 2427.197 -765.0651)">
			<stop  offset="0" style="stop-color:#3B1800;stop-opacity:0.28"/>
			<stop  offset="1" style="stop-color:#3B1800"/>
		</linearGradient>
		<path class="st45" d="M1028.87,393.83c-0.16,0.28-0.28,0.62-0.3,1.08l-0.06,0.1c0.3,0.32,0.69,0.52,1.16,0.64l0.07-0.12
			c0.35-0.2,0.58-0.47,0.74-0.75C1029.54,395.14,1029.02,394.79,1028.87,393.83L1028.87,393.83z"/>
		
			<linearGradient id="SVGID_44_" gradientUnits="userSpaceOnUse" x1="1806.248" y1="-167.2603" x2="1803.6361" y2="-168.721" gradientTransform="matrix(-0.7071 0.7071 0.7071 0.7071 2427.197 -765.0651)">
			<stop  offset="0" style="stop-color:#3B1800;stop-opacity:0.28"/>
			<stop  offset="1" style="stop-color:#3B1800"/>
		</linearGradient>
		<path class="st46" d="M1030.02,392.52c-0.13,0.14-0.28,0.27-0.43,0.41l0.09,0.05c-0.02,0.01-0.04,0.03-0.06,0.04
			c0.33,0.28,0.71,0.54,1.19,0.72c0.01-0.04,0.01-0.07,0.02-0.11l0.08,0.05c0.06-0.19,0.09-0.39,0.14-0.58
			C1030.58,393.18,1030.22,393.03,1030.02,392.52L1030.02,392.52z"/>
		
			<radialGradient id="SVGID_45_" cx="1410.5491" cy="-114.7451" r="0.6182" gradientTransform="matrix(-1.4458 1.2621 -0.1886 1.9098 3049.0784 -1170.1019)" gradientUnits="userSpaceOnUse">
			<stop  offset="0" style="stop-color:#E6AF89"/>
			<stop  offset="1" style="stop-color:#3B1800;stop-opacity:0"/>
		</radialGradient>
		<path class="st47" d="M1031.86,391.3c-0.21,0.36-0.6,0.53-0.87,0.37c-0.27-0.16-0.32-0.58-0.11-0.94c0.21-0.36,0.6-0.53,0.87-0.37
			c0.25,0.15,0.32,0.52,0.15,0.87"/>
		
			<radialGradient id="SVGID_46_" cx="1463.6056" cy="-195.4154" r="0.6184" gradientTransform="matrix(-1.515 1.7899 -0.2102 2.3355 3205.6189 -1769.2379)" gradientUnits="userSpaceOnUse">
			<stop  offset="0" style="stop-color:#E6AF89"/>
			<stop  offset="1" style="stop-color:#3B1800;stop-opacity:0"/>
		</radialGradient>
		<path class="st48" d="M1029.88,394.36c-0.21,0.36-0.6,0.53-0.87,0.37s-0.32-0.58-0.11-0.94c0.21-0.36,0.6-0.53,0.87-0.37
			c0.25,0.15,0.32,0.52,0.15,0.87"/>
		
			<radialGradient id="SVGID_47_" cx="1486.9432" cy="-142.5078" r="0.6184" gradientTransform="matrix(-1.6053 1.5812 -0.3469 2.2264 3365.5693 -1637.5406)" gradientUnits="userSpaceOnUse">
			<stop  offset="0" style="stop-color:#E6AF89"/>
			<stop  offset="1" style="stop-color:#3B1800;stop-opacity:0"/>
		</radialGradient>
		<path class="st49" d="M1028.47,396.64c-0.21,0.36-0.6,0.53-0.87,0.37c-0.27-0.16-0.32-0.58-0.11-0.94
			c0.21-0.36,0.6-0.53,0.87-0.37c0.25,0.15,0.32,0.52,0.15,0.87"/>
		
			<radialGradient id="SVGID_48_" cx="1530.4497" cy="-183.5437" r="0.4103" gradientTransform="matrix(-1.9064 2.3815 -0.6275 2.9853 3828.4841 -2697.2874)" gradientUnits="userSpaceOnUse">
			<stop  offset="0" style="stop-color:#E6AF89"/>
			<stop  offset="1" style="stop-color:#3B1800;stop-opacity:0"/>
		</radialGradient>
		<path class="st50" d="M1026.4,399.78c-0.14,0.26-0.4,0.37-0.58,0.26s-0.21-0.41-0.07-0.66c0.14-0.26,0.4-0.37,0.58-0.26
			c0.17,0.1,0.21,0.37,0.1,0.62"/>
	</g>
	<g transform="matrix(0 -1 1 0 17.887 845.85)">
		<path class="st2" d="M832.17-10.35c-0.54,0.4-1.13,0.69-1.37,1.88l-0.05,0.07c-0.05,0.47-0.46,0.79-0.82,1.13l0.09,0.05
			c-0.54,0.42-1.05,0.88-1.11,1.92l-0.09,0.16l-0.21,0.36l-0.05,0.09c-0.81,0.26-0.93,0.9-0.93,1.61l-0.07,0.11l-0.99,1.72
			l-0.07,0.12c-0.6,0.19-0.48,0.62-0.57,0.98l1.18,0.65c0.37-0.18,0.6-0.47,0.55-0.96l0.07-0.12l0.98-1.7l0.07-0.12
			c0.6-0.38,1.14-0.78,0.96-1.66l0.07-0.11l0.18-0.32l0.1-0.17c0.82-0.48,1-1.29,1.09-1.89l0.08,0.05c0.13-0.42,0.1-0.89,0.55-1.24
			l0.04-0.08c0.85-0.71,0.92-1.42,0.94-2.13C832.63-10.25,832.41-10.33,832.17-10.35L832.17-10.35z"/>
		
			<linearGradient id="SVGID_49_" gradientUnits="userSpaceOnUse" x1="1219.4718" y1="-643.1567" x2="1216.8599" y2="-644.6174" gradientTransform="matrix(0 1 1 0 1471.8669 -1219.8298)">
			<stop  offset="0" style="stop-color:#3B1800;stop-opacity:0.28"/>
			<stop  offset="1" style="stop-color:#3B1800"/>
		</linearGradient>
		<path class="st51" d="M826.81-1.68l-0.25,0.43l-0.01,0.02c0.44,0.15,0.85,0.33,1.19,0.62l0.27-0.47
			C827.32-0.88,827-1.18,826.81-1.68L826.81-1.68z"/>
		
			<linearGradient id="SVGID_50_" gradientUnits="userSpaceOnUse" x1="1217.447" y1="-642.0244" x2="1214.8351" y2="-643.4851" gradientTransform="matrix(0 1 1 0 1471.8669 -1219.8298)">
			<stop  offset="0" style="stop-color:#3B1800;stop-opacity:0.28"/>
			<stop  offset="1" style="stop-color:#3B1800"/>
		</linearGradient>
		<path class="st52" d="M827.82-4.12c-0.16,0.3-0.2,0.66-0.2,1.05l-0.07,0.11l-0.03,0.05c0.3,0.35,0.68,0.58,1.17,0.65l0.01-0.02
			l0.07-0.12c0.41-0.26,0.79-0.53,0.93-0.96C828.33-2.59,827.96-3.2,827.82-4.12L827.82-4.12z"/>
		
			<linearGradient id="SVGID_51_" gradientUnits="userSpaceOnUse" x1="1215.2395" y1="-640.7899" x2="1212.6276" y2="-642.2505" gradientTransform="matrix(0 1 1 0 1471.8669 -1219.8298)">
			<stop  offset="0" style="stop-color:#3B1800;stop-opacity:0.28"/>
			<stop  offset="1" style="stop-color:#3B1800"/>
		</linearGradient>
		<path class="st53" d="M829.21-6.38c-0.16,0.28-0.28,0.62-0.3,1.08l-0.06,0.1c0.3,0.32,0.69,0.52,1.16,0.64l0.07-0.12
			c0.35-0.2,0.58-0.47,0.74-0.75C829.87-5.06,829.36-5.41,829.21-6.38L829.21-6.38z"/>
		
			<linearGradient id="SVGID_52_" gradientUnits="userSpaceOnUse" x1="1213.5048" y1="-639.8198" x2="1210.8928" y2="-641.2805" gradientTransform="matrix(0 1 1 0 1471.8669 -1219.8298)">
			<stop  offset="0" style="stop-color:#3B1800;stop-opacity:0.28"/>
			<stop  offset="1" style="stop-color:#3B1800"/>
		</linearGradient>
		<path class="st54" d="M830.36-7.68c-0.13,0.14-0.28,0.27-0.43,0.41l0.09,0.05c-0.02,0.01-0.04,0.03-0.06,0.04
			c0.33,0.28,0.71,0.54,1.19,0.72c0.01-0.04,0.01-0.07,0.02-0.11l0.08,0.05c0.06-0.19,0.09-0.39,0.14-0.58
			C830.92-7.03,830.55-7.18,830.36-7.68L830.36-7.68z"/>
		
			<radialGradient id="SVGID_53_" cx="759.1678" cy="-248.2846" r="0.6182" gradientTransform="matrix(-1.1557 2.2429 0.8889 0.458 1929.7894 -1598.2074)" gradientUnits="userSpaceOnUse">
			<stop  offset="0" style="stop-color:#E6AF89"/>
			<stop  offset="1" style="stop-color:#3B1800;stop-opacity:0"/>
		</radialGradient>
		<path class="st55" d="M832.2-8.91c-0.21,0.36-0.6,0.53-0.87,0.37s-0.32-0.58-0.11-0.94s0.6-0.53,0.87-0.37
			c0.25,0.15,0.32,0.52,0.15,0.87"/>
		
			<radialGradient id="SVGID_54_" cx="743.8424" cy="-349.5497" r="0.6184" gradientTransform="matrix(-1.2199 2.9171 0.9226 0.3858 2059.624 -2041.1339)" gradientUnits="userSpaceOnUse">
			<stop  offset="0" style="stop-color:#E6AF89"/>
			<stop  offset="1" style="stop-color:#3B1800;stop-opacity:0"/>
		</radialGradient>
		<path class="st56" d="M830.21-5.85c-0.21,0.36-0.6,0.53-0.87,0.37c-0.27-0.16-0.32-0.58-0.11-0.94s0.6-0.53,0.87-0.37
			c0.25,0.15,0.32,0.52,0.15,0.87"/>
		
			<radialGradient id="SVGID_55_" cx="789.2894" cy="-322.0755" r="0.6184" gradientTransform="matrix(-1.3804 2.6924 0.8899 0.4562 2204.4504 -1981.9894)" gradientUnits="userSpaceOnUse">
			<stop  offset="0" style="stop-color:#E6AF89"/>
			<stop  offset="1" style="stop-color:#3B1800;stop-opacity:0"/>
		</radialGradient>
		<path class="st57" d="M828.8-3.56c-0.21,0.36-0.6,0.53-0.87,0.37c-0.27-0.16-0.32-0.58-0.11-0.94s0.6-0.53,0.87-0.37
			c0.25,0.15,0.32,0.52,0.15,0.87"/>
		
			<radialGradient id="SVGID_56_" cx="787.6362" cy="-384.3313" r="0.4103" gradientTransform="matrix(-1.7917 3.7949 0.9043 0.4269 2585.1675 -2825.5381)" gradientUnits="userSpaceOnUse">
			<stop  offset="0" style="stop-color:#E6AF89"/>
			<stop  offset="1" style="stop-color:#3B1800;stop-opacity:0"/>
		</radialGradient>
		<path class="st58" d="M826.74-0.42c-0.14,0.26-0.4,0.37-0.58,0.26c-0.18-0.11-0.21-0.41-0.07-0.66c0.14-0.26,0.4-0.37,0.58-0.26
			c0.17,0.1,0.21,0.37,0.1,0.62"/>
	</g>
	<path class="st2" d="M16.57,6.83c-0.1,0.67-0.31,1.29,0.36,2.29l0.01,0.09c0.29,0.37,0.23,0.88,0.22,1.37l0.1-0.03
		c-0.09,0.68-0.12,1.36,0.57,2.15l0.05,0.18l0.11,0.41l0.03,0.1c-0.39,0.76-0.02,1.3,0.48,1.8l0.03,0.13l0.51,1.92l0.03,0.13
		c-0.29,0.56,0.1,0.78,0.29,1.09l1.29-0.38c0.14-0.39,0.1-0.76-0.29-1.07l-0.04-0.13l-0.51-1.9l-0.04-0.13
		c0.15-0.7,0.25-1.36-0.5-1.85l-0.03-0.13l-0.09-0.35l-0.05-0.19c0.24-0.92-0.21-1.62-0.56-2.11l0.09-0.02
		c-0.21-0.39-0.56-0.7-0.49-1.26l-0.03-0.08c0.1-1.1-0.35-1.66-0.84-2.17C16.97,6.58,16.76,6.67,16.57,6.83L16.57,6.83z"/>
	
		<linearGradient id="SVGID_57_" gradientUnits="userSpaceOnUse" x1="-234.5895" y1="-320.791" x2="-237.2014" y2="-319.3303" gradientTransform="matrix(0.7071 -0.7071 -0.7071 -0.7071 -39.7633 -376.3723)">
		<stop  offset="0" style="stop-color:#3B1800;stop-opacity:0.28"/>
		<stop  offset="1" style="stop-color:#3B1800"/>
	</linearGradient>
	<path class="st59" d="M18.91,16.75l0.13,0.48l0,0.02c0.41-0.21,0.84-0.37,1.28-0.41l-0.14-0.52
		C19.84,16.96,19.39,16.97,18.91,16.75L18.91,16.75z"/>
	
		<linearGradient id="SVGID_58_" gradientUnits="userSpaceOnUse" x1="-233.4571" y1="-318.7662" x2="-236.0691" y2="-317.3055" gradientTransform="matrix(0.7071 -0.7071 -0.7071 -0.7071 -39.7633 -376.3723)">
		<stop  offset="0" style="stop-color:#3B1800;stop-opacity:0.28"/>
		<stop  offset="1" style="stop-color:#3B1800"/>
	</linearGradient>
	<path class="st60" d="M17.9,14.31c0.09,0.32,0.33,0.61,0.6,0.88l0.03,0.13l0.02,0.06c0.46,0.03,0.89-0.07,1.28-0.37l-0.01-0.03
		l-0.04-0.13c0.1-0.48,0.18-0.94-0.02-1.34C19.34,15.03,18.65,14.86,17.9,14.31L17.9,14.31z"/>
	
		<linearGradient id="SVGID_59_" gradientUnits="userSpaceOnUse" x1="-232.2226" y1="-316.5587" x2="-234.8346" y2="-315.098" gradientTransform="matrix(0.7071 -0.7071 -0.7071 -0.7071 -39.7633 -376.3723)">
		<stop  offset="0" style="stop-color:#3B1800;stop-opacity:0.28"/>
		<stop  offset="1" style="stop-color:#3B1800"/>
	</linearGradient>
	<path class="st61" d="M17.29,11.73c0.08,0.31,0.25,0.64,0.55,0.98l0.03,0.11c0.43,0.01,0.86-0.12,1.27-0.37l-0.04-0.13
		c0.1-0.39,0.08-0.74-0.01-1.05C18.69,12.2,18.08,12.31,17.29,11.73L17.29,11.73z"/>
	
		<linearGradient id="SVGID_60_" gradientUnits="userSpaceOnUse" x1="-231.2525" y1="-314.824" x2="-233.8645" y2="-313.3633" gradientTransform="matrix(0.7071 -0.7071 -0.7071 -0.7071 -39.7633 -376.3723)">
		<stop  offset="0" style="stop-color:#3B1800;stop-opacity:0.28"/>
		<stop  offset="1" style="stop-color:#3B1800"/>
	</linearGradient>
	<path class="st62" d="M17.18,10c0.01,0.19-0.01,0.4-0.01,0.59l0.1-0.03c0,0.02-0.01,0.05-0.01,0.07c0.43-0.03,0.88-0.12,1.36-0.33
		c-0.02-0.03-0.04-0.06-0.06-0.09l0.09-0.02c-0.09-0.18-0.21-0.34-0.31-0.51C18.04,10.07,17.67,10.22,17.18,10L17.18,10z"/>
	
		<radialGradient id="SVGID_61_" cx="92.6708" cy="176.2179" r="0.6186" gradientTransform="matrix(0.9524 -0.3047 -0.7688 -2.4032 64.2821 459.7025)" gradientUnits="userSpaceOnUse">
		<stop  offset="0" style="stop-color:#E6AF89"/>
		<stop  offset="1" style="stop-color:#3B1800;stop-opacity:0"/>
	</radialGradient>
	<path class="st63" d="M17.61,7.83c0.11,0.4-0.05,0.79-0.35,0.88c-0.3,0.08-0.63-0.18-0.74-0.58c-0.11-0.4,0.05-0.79,0.35-0.88
		c0.28-0.08,0.59,0.15,0.72,0.51"/>
	
		<radialGradient id="SVGID_62_" cx="8.3744" cy="165.0768" r="0.6189" gradientTransform="matrix(0.9252 -0.3796 -1.2001 -2.9252 208.1857 497.6056)" gradientUnits="userSpaceOnUse">
		<stop  offset="0" style="stop-color:#E6AF89"/>
		<stop  offset="1" style="stop-color:#3B1800;stop-opacity:0"/>
	</radialGradient>
	<path class="st64" d="M18.37,11.4c0.11,0.4-0.05,0.79-0.35,0.88s-0.63-0.18-0.74-0.58c-0.11-0.4,0.05-0.79,0.35-0.88
		c0.28-0.08,0.59,0.15,0.72,0.51"/>
	
		<radialGradient id="SVGID_63_" cx="19.3578" cy="130.9905" r="0.6186" gradientTransform="matrix(0.9518 -0.3066 -0.9277 -2.8798 121.5386 397.3183)" gradientUnits="userSpaceOnUse">
		<stop  offset="0" style="stop-color:#E6AF89"/>
		<stop  offset="1" style="stop-color:#3B1800;stop-opacity:0"/>
	</radialGradient>
	<path class="st65" d="M18.99,14.01c0.11,0.4-0.05,0.79-0.35,0.88c-0.3,0.08-0.63-0.18-0.74-0.58c-0.11-0.4,0.05-0.79,0.35-0.88
		c0.28-0.08,0.59,0.15,0.72,0.51"/>
	
		<radialGradient id="SVGID_64_" cx="-35.7096" cy="109.3311" r="0.4103" gradientTransform="matrix(0.9413 -0.3375 -1.4165 -3.9503 207.8646 437.6167)" gradientUnits="userSpaceOnUse">
		<stop  offset="0" style="stop-color:#E6AF89"/>
		<stop  offset="1" style="stop-color:#3B1800;stop-opacity:0"/>
	</radialGradient>
	<path class="st66" d="M19.75,17.69c0.08,0.28-0.02,0.54-0.22,0.59c-0.21,0.05-0.44-0.14-0.52-0.42c-0.08-0.28,0.02-0.54,0.22-0.59
		c0.19-0.05,0.41,0.11,0.5,0.37"/>
	<path class="st67" d="M23.6,21.15c0,1.79-1.44,3.24-3.21,3.24c-1.77,0-3.21-1.45-3.21-3.24c0-1.79,1.44-3.24,3.21-3.24
		c1.65,0,3.03,1.26,3.19,2.92"/>
	<path class="st1" d="M20.15,11.18c-5.52,0-9.99,4.52-9.99,10.09s4.47,10.09,9.99,10.09s9.99-4.52,9.99-10.09l-0.05-0.99
		C29.59,15.11,25.29,11.18,20.15,11.18L20.15,11.18z M20.15,11.41c5.01,0,9.21,3.84,9.71,8.88l0.05,0.97c0,5.44-4.37,9.85-9.75,9.85
		s-9.75-4.41-9.75-9.85S14.76,11.41,20.15,11.41L20.15,11.41z"/>
	<path class="st2" d="M20.15,11.41c-5.39,0-9.75,4.41-9.75,9.85s4.37,9.85,9.75,9.85s9.75-4.41,9.75-9.85l-0.05-0.97
		C29.36,15.25,25.17,11.41,20.15,11.41L20.15,11.41z M20.15,13.26c4.08,0,7.49,3.12,7.89,7.22l0.04,0.79c0,4.42-3.55,8-7.93,8
		s-7.93-3.58-7.93-8S15.77,13.26,20.15,13.26L20.15,13.26z"/>
	
		<radialGradient id="SVGID_65_" cx="20.1503" cy="29.0612" r="9.7532" gradientTransform="matrix(1 0 0 -1 0 50.3254)" gradientUnits="userSpaceOnUse">
		<stop  offset="0" style="stop-color:#552200"/>
		<stop  offset="0.907" style="stop-color:#B0896E"/>
		<stop  offset="1" style="stop-color:#552200"/>
	</radialGradient>
	<path class="st68" d="M20.15,11.41c-5.39,0-9.75,4.41-9.75,9.85s4.37,9.85,9.75,9.85s9.75-4.41,9.75-9.85l-0.05-0.97
		C29.36,15.25,25.17,11.41,20.15,11.41L20.15,11.41z M20.15,13.26c4.08,0,7.49,3.12,7.89,7.22l0.04,0.79c0,4.42-3.55,8-7.93,8
		s-7.93-3.58-7.93-8S15.77,13.26,20.15,13.26L20.15,13.26z"/>
	<path class="st1" d="M20.15,13.18c-4.42,0-8,3.62-8,8.08s3.58,8.08,8,8.08s8-3.62,8-8.08l-0.04-0.8
		C27.71,16.33,24.27,13.18,20.15,13.18L20.15,13.18z M20.15,13.37c4.02,0,7.38,3.08,7.78,7.12l0.04,0.78c0,4.36-3.5,7.89-7.81,7.89
		s-7.81-3.53-7.81-7.89S15.83,13.37,20.15,13.37L20.15,13.37z"/>
	<path class="st69" d="M20.15,13.1c-4.46,0-8.08,3.66-8.08,8.16s3.62,8.16,8.08,8.16s8.08-3.66,8.08-8.16l-0.04-0.8
		C27.78,16.28,24.31,13.1,20.15,13.1L20.15,13.1z M20.15,13.29c4.06,0,7.45,3.11,7.85,7.19l0.04,0.78c0,4.4-3.53,7.97-7.89,7.97
		s-7.89-3.57-7.89-7.97S15.79,13.29,20.15,13.29L20.15,13.29z"/>
	
		<radialGradient id="SVGID_66_" cx="578.0049" cy="-152.046" r="6.613" gradientTransform="matrix(0.4669 0 0 -0.4716 -249.4875 -50.5524)" gradientUnits="userSpaceOnUse">
		<stop  offset="0" style="stop-color:#2E1708"/>
		<stop  offset="0.831" style="stop-color:#8A4B22"/>
		<stop  offset="1" style="stop-color:#2B1100"/>
	</radialGradient>
	<path class="st70" d="M23.48,21.15c0,1.72-1.38,3.12-3.09,3.12c-1.71,0-3.09-1.4-3.09-3.12c0-1.72,1.38-3.12,3.09-3.12
		c1.59,0,2.92,1.22,3.07,2.81"/>
	<path class="st71" d="M22.61,21.15c0,1.24-1,2.24-2.22,2.24c-1.23,0-2.22-1-2.22-2.24c0-1.24,1-2.24,2.22-2.24
		c1.14,0,2.1,0.88,2.21,2.02"/>
	
		<linearGradient id="SVGID_67_" gradientUnits="userSpaceOnUse" x1="990.9438" y1="-322.1706" x2="991.8895" y2="-332.5547" gradientTransform="matrix(0.3361 0 0 -0.2869 -312.9555 -74.1591)">
		<stop  offset="0" style="stop-color:#FFFFFF"/>
		<stop  offset="1" style="stop-color:#FFFFFF;stop-opacity:0"/>
	</linearGradient>
	<path class="st72" d="M22.61,21.15c0,1.24-1,2.24-2.22,2.24c-1.23,0-2.22-1-2.22-2.24c0-1.24,1-2.24,2.22-2.24
		c1.14,0,2.1,0.88,2.21,2.02"/>
</g>
</svg>
