<?xml version="1.0" encoding="utf-8"?>
<!-- Generator: Adobe Illustrator 24.0.0, SVG Export Plug-In . SVG Version: 6.00 Build 0)  -->
<svg version="1.1" id="Layer_1" xmlns="http://www.w3.org/2000/svg" xmlns:xlink="http://www.w3.org/1999/xlink" x="0px" y="0px"
	 viewBox="0 0 40.05 49.58" style="enable-background:new 0 0 40.05 49.58;" xml:space="preserve">
<style type="text/css">
	.st0{fill:#065A7F;}
	.st1{fill:url(#SVGID_1_);}
	.st2{fill:url(#SVGID_2_);}
	.st3{fill:url(#SVGID_3_);}
</style>
<g>
	<path class="st0" d="M0,0v29.65c0,0.02-0.03,1.71,1.07,3.97c1.02,2.09,3.23,5.13,8.02,7.69c7.77,4.15,10.27,7.25,10.94,8.27
		c0.67-1.02,3.16-4.12,10.94-8.27c9.18-4.9,9.09-11.58,9.09-11.65c0-0.01,0-29.66,0-29.66L20.03,0.11L0,0z"/>
</g>
<g>
	<linearGradient id="SVGID_1_" gradientUnits="userSpaceOnUse" x1="17.869" y1="21.13" x2="25.2222" y2="21.13">
		<stop  offset="0" style="stop-color:#FFFFFF"/>
		<stop  offset="1" style="stop-color:#000000"/>
	</linearGradient>
	<path class="st1" d="M24.69,23.7c0.02,0.18,0.04,0.36,0.06,0.55l-0.61,0.04c-0.03-0.33-0.06-0.66-0.08-0.99
		c-0.01-0.11-0.01-0.21-0.02-0.32c0.08,0.03,0.16,0.06,0.24,0.08c0.11,0.04,0.21,0.07,0.31,0.09c0.02,0,0.03,0.01,0.05,0.01
		C24.66,23.34,24.68,23.52,24.69,23.7z M24.86,24.24l0.12-0.01c-0.05-0.34-0.1-0.68-0.14-1.01c0-0.01,0-0.01,0-0.02
		c-0.03,0-0.06-0.01-0.1-0.02c0.02,0.17,0.04,0.33,0.05,0.5C24.82,23.87,24.84,24.05,24.86,24.24z M18.97,34.58
		c-0.04,0.04-0.08,0.1-0.12,0.16c-0.04,0.06-0.1,0.13-0.14,0.22c-0.05,0.08-0.09,0.17-0.14,0.27c-0.04,0.1-0.08,0.21-0.11,0.32
		c-0.03,0.11-0.06,0.23-0.07,0.36c-0.02,0.12-0.02,0.25-0.02,0.38c0.01,0.51,0.16,1.01,0.3,1.36c0.14,0.36,0.28,0.58,0.28,0.58
		l0,0.01l-0.01,0c0,0-0.14-0.22-0.3-0.57c-0.16-0.35-0.32-0.85-0.35-1.38c-0.01-0.13-0.01-0.26,0-0.39
		c0.01-0.13,0.03-0.26,0.06-0.38c0.06-0.24,0.17-0.45,0.28-0.61c0.05-0.08,0.12-0.15,0.17-0.21c0.06-0.06,0.1-0.11,0.15-0.14
		c0.04-0.03,0.07-0.06,0.1-0.08l-0.67-0.05c-0.36,0.5-0.51,1.1-0.5,1.61c0,0.28,0.05,0.53,0.12,0.75c0.06,0.22,0.14,0.42,0.23,0.58
		c0.17,0.33,0.36,0.56,0.49,0.71c0.13,0.15,0.22,0.21,0.22,0.21c0.01,0.01,0.02,0.01,0.03,0.01c0.01,0,0.01,0,0.02,0
		c0.02-0.01,0.03-0.03,0.02-0.06c0,0-0.04-0.09-0.11-0.27c-0.07-0.17-0.16-0.43-0.25-0.76c-0.02-0.08-0.04-0.17-0.05-0.26
		c-0.02-0.09-0.03-0.18-0.04-0.28c-0.02-0.2-0.02-0.4,0-0.62c0.02-0.22,0.07-0.44,0.15-0.66c0.08-0.22,0.21-0.44,0.36-0.67
		c0.06-0.08,0.12-0.17,0.18-0.25l-0.16-0.01C19.05,34.49,19.02,34.53,18.97,34.58z M24.99,24.32l-0.12,0.01
		c0.05,0.44,0.1,0.88,0.15,1.32c0.06,0.66,0.12,1.32,0.04,1.98c-0.02,0.16-0.06,0.33-0.12,0.48c-0.06,0.15-0.12,0.3-0.2,0.44
		c-0.15,0.29-0.33,0.55-0.52,0.79c-0.2,0.25-0.41,0.48-0.62,0.7c-0.2,0.21-0.41,0.41-0.61,0.6c-0.4,0.4-0.79,0.78-1.13,1.13
		c-0.35,0.35-0.68,0.67-0.97,0.94c-0.29,0.28-0.55,0.52-0.76,0.71c-0.21,0.2-0.38,0.35-0.5,0.45c-0.12,0.1-0.18,0.16-0.18,0.16
		l-0.01,0l0-0.01c0,0,0.24-0.23,0.65-0.64c0.21-0.2,0.46-0.45,0.74-0.73c0.29-0.28,0.61-0.6,0.97-0.94c0.36-0.34,0.76-0.7,1.17-1.1
		c0.19-0.19,0.39-0.39,0.58-0.6c0.21-0.23,0.42-0.47,0.61-0.73c0.18-0.25,0.35-0.51,0.49-0.79c0.14-0.28,0.26-0.58,0.29-0.9
		c0.04-0.32,0.04-0.64,0.03-0.97c-0.01-0.33-0.04-0.66-0.07-0.98c-0.04-0.44-0.09-0.88-0.15-1.32l-0.61,0.04
		c0.04,0.41,0.08,0.83,0.12,1.24c0.04,0.39,0.07,0.78,0.08,1.16c0.01,0.19,0.01,0.38,0,0.56c0,0.09-0.01,0.18-0.02,0.27
		c-0.01,0.04-0.01,0.09-0.02,0.12l-0.01,0.05c0,0.02-0.01,0.05-0.02,0.07l-0.01,0.04l-0.01,0.02c0,0,0,0,0,0c0,0,0,0,0,0
		c0,0,0,0,0,0l-0.02,0.06c-0.02,0.04-0.03,0.09-0.05,0.13c-0.03,0.08-0.07,0.17-0.11,0.25c-0.08,0.17-0.17,0.33-0.27,0.5
		c-0.1,0.16-0.2,0.33-0.31,0.48c-0.11,0.16-0.22,0.32-0.34,0.48c-0.02,0.02-0.04,0.05-0.05,0.07c-0.05,0.06-0.28,0.35-0.61,0.67
		c-0.38,0.38-0.87,0.82-1.25,1.19c-0.65,0.62-1.96,1.79-1.96,1.79s-0.22,0.18-0.29,0.23c-0.07,0.05-0.13,0.11-0.2,0.16
		c-0.13,0.11-0.25,0.24-0.35,0.37c-0.01,0.01-0.02,0.02-0.03,0.04l0.85,0.06c0.05-0.06,0.09-0.11,0.14-0.17
		c0.02-0.02,0.03-0.03,0.05-0.05l0.04-0.04c0,0,1.38-1.26,2.17-1.98c0.79-0.72,2.05-2.05,2.05-2.05l0,0
		c0.25-0.26,0.49-0.54,0.7-0.84c0.12-0.17,0.24-0.35,0.35-0.54c0.05-0.1,0.1-0.19,0.15-0.29c0.03-0.05,0.05-0.1,0.07-0.15l0.03-0.08
		l0.03-0.09l0.02-0.07l0.02-0.1c0.02-0.07,0.03-0.12,0.04-0.18c0.02-0.11,0.03-0.23,0.04-0.34c0.02-0.22,0.03-0.43,0.03-0.64
		c0-0.42-0.04-0.83-0.08-1.23C25.1,25.12,25.05,24.72,24.99,24.32z M19.04,7.79c-0.02-0.02-0.06-0.05-0.1-0.08
		c-0.04-0.04-0.09-0.09-0.15-0.14c-0.05-0.06-0.11-0.13-0.17-0.21c-0.11-0.16-0.22-0.37-0.28-0.61c-0.03-0.12-0.05-0.25-0.06-0.38
		c-0.01-0.13-0.01-0.26,0-0.39c0.03-0.52,0.2-1.02,0.35-1.38c0.16-0.35,0.3-0.57,0.3-0.57l0.01,0l0,0.01c0,0-0.13,0.22-0.28,0.58
		c-0.14,0.36-0.29,0.85-0.3,1.36c0,0.13,0,0.25,0.02,0.38c0.01,0.12,0.04,0.24,0.07,0.36c0.03,0.11,0.07,0.22,0.11,0.32
		c0.04,0.1,0.09,0.19,0.14,0.27c0.04,0.08,0.1,0.15,0.14,0.22c0.05,0.06,0.09,0.12,0.12,0.16c0.04,0.05,0.07,0.09,0.09,0.11
		l0.16-0.01c-0.07-0.08-0.13-0.17-0.18-0.25c-0.15-0.22-0.27-0.44-0.36-0.67c-0.08-0.22-0.13-0.45-0.15-0.66
		c-0.02-0.22-0.02-0.42,0-0.62c0.01-0.1,0.03-0.19,0.04-0.28c0.02-0.09,0.03-0.18,0.05-0.26c0.08-0.33,0.18-0.58,0.25-0.76
		c0.07-0.17,0.11-0.27,0.11-0.27c0.01-0.01,0.01-0.03-0.01-0.04c-0.01-0.01-0.02-0.02-0.03-0.02c-0.01,0-0.02,0-0.03,0.01
		c0,0-0.08,0.07-0.22,0.21c-0.13,0.15-0.32,0.37-0.49,0.71c-0.09,0.17-0.17,0.36-0.23,0.58c-0.07,0.22-0.11,0.48-0.12,0.75
		c-0.01,0.51,0.14,1.11,0.5,1.61L19.04,7.79z M18.47,7.96c0.11,0.13,0.22,0.25,0.35,0.37c0.07,0.05,0.13,0.11,0.2,0.16
		c0.06,0.05,0.13,0.1,0.19,0.15c0.04,0.03,1.44,1.29,2.05,1.87c0.39,0.37,0.88,0.81,1.25,1.19c0.32,0.32,0.56,0.61,0.61,0.67
		c0.02,0.02,0.04,0.05,0.05,0.07c0.12,0.16,0.23,0.32,0.34,0.48c0.11,0.16,0.22,0.32,0.31,0.48c0.1,0.16,0.19,0.33,0.27,0.5
		c0.04,0.08,0.08,0.17,0.11,0.25c0.02,0.04,0.03,0.09,0.05,0.13l0.02,0.06c0,0,0,0,0,0c0,0,0,0,0,0s0,0,0,0l0.01,0.02l0.01,0.04
		c0.01,0.02,0.02,0.05,0.02,0.07l0.01,0.05c0.01,0.03,0.01,0.07,0.02,0.12c0.01,0.08,0.02,0.17,0.02,0.27
		c0.01,0.18,0.01,0.37,0,0.56c-0.01,0.38-0.05,0.77-0.08,1.16c-0.04,0.42-0.08,0.83-0.12,1.24l0.61,0.04
		c0.05-0.44,0.1-0.88,0.15-1.32c0.03-0.33,0.06-0.66,0.07-0.98c0.01-0.33,0.01-0.65-0.03-0.97c-0.03-0.32-0.15-0.61-0.29-0.9
		c-0.14-0.28-0.31-0.55-0.49-0.79c-0.19-0.26-0.4-0.5-0.6-0.72c-0.19-0.21-0.39-0.41-0.58-0.6c-0.41-0.4-0.81-0.76-1.17-1.1
		c-0.36-0.34-0.69-0.66-0.97-0.94c-0.29-0.28-0.54-0.53-0.74-0.73c-0.41-0.41-0.65-0.64-0.65-0.64l0-0.01l0.01,0
		c0,0,0.06,0.05,0.18,0.16c0.12,0.1,0.29,0.25,0.5,0.45c0.21,0.19,0.47,0.43,0.76,0.71c0.29,0.28,0.62,0.59,0.97,0.94
		c0.35,0.35,0.73,0.73,1.13,1.13c0.2,0.2,0.41,0.4,0.61,0.61c0.21,0.22,0.42,0.45,0.61,0.7c0.19,0.24,0.37,0.51,0.52,0.79
		c0.08,0.14,0.14,0.29,0.2,0.44c0.06,0.15,0.09,0.32,0.12,0.48c0.08,0.66,0.02,1.32-0.04,1.98c-0.04,0.44-0.1,0.88-0.15,1.32
		l0.12,0.01c0.05-0.4,0.11-0.8,0.15-1.22c0.04-0.4,0.07-0.81,0.08-1.23c0-0.21,0-0.42-0.03-0.64c-0.01-0.11-0.02-0.22-0.04-0.34
		c-0.01-0.06-0.02-0.11-0.04-0.18l-0.02-0.1l-0.02-0.07l-0.03-0.09L25,13.99c-0.02-0.05-0.04-0.1-0.07-0.15
		c-0.05-0.1-0.1-0.2-0.15-0.29c-0.11-0.19-0.22-0.37-0.35-0.54c-0.21-0.3-0.45-0.58-0.7-0.83l0,0c0,0-0.02-0.02-0.06-0.06
		c-0.26-0.28-1.3-1.37-1.99-2c-0.79-0.72-2.21-2.02-2.21-2.02l0,0c-0.02-0.02-0.03-0.03-0.05-0.05c-0.05-0.06-0.1-0.11-0.14-0.17
		l-0.85,0.06C18.45,7.93,18.46,7.95,18.47,7.96z M23.84,20.16c0.14,0.05,0.3,0.1,0.47,0.14c0.11,0.03,0.21,0.05,0.31,0.07
		c0.1,0.02,0.19,0.05,0.26,0.07l0.03-0.45c-0.01,0-0.03,0-0.04,0c-0.08-0.01-0.18-0.03-0.28-0.05c-0.1-0.03-0.21-0.06-0.31-0.09
		c-0.14-0.05-0.29-0.1-0.41-0.15L23.84,20.16z M23.93,22.93c0,0-0.01,0-0.01,0l0,0L23.93,22.93z M24.95,22.67
		c-0.02,0-0.05,0-0.08-0.01c-0.08-0.01-0.18-0.03-0.28-0.05c-0.1-0.03-0.21-0.06-0.31-0.09c-0.15-0.05-0.29-0.1-0.41-0.15l0.04,0.5
		c0.12,0.04,0.26,0.08,0.39,0.12c0.11,0.03,0.21,0.05,0.31,0.07c0.06,0.01,0.11,0.03,0.16,0.04c0.02,0,0.03,0.01,0.05,0.01
		c0,0,0,0,0,0l0.16,0.03L24.95,22.67z M24.62,19.83c0.1,0.03,0.19,0.05,0.27,0.07c0.01,0,0.02,0.01,0.03,0.01l0.03-0.47
		c-0.01,0-0.02,0-0.03,0c-0.08-0.01-0.18-0.03-0.28-0.05c-0.1-0.03-0.21-0.06-0.31-0.09c-0.15-0.05-0.29-0.1-0.41-0.15l0,0
		l-0.04,0.49c0.13,0.04,0.28,0.09,0.43,0.13C24.41,19.79,24.52,19.81,24.62,19.83z M24.31,22.45c0.11,0.03,0.21,0.05,0.31,0.07
		c0.1,0.03,0.19,0.05,0.27,0.07c0.02,0.01,0.04,0.01,0.06,0.02l-0.03-0.47c-0.01,0-0.03,0-0.04,0c-0.08-0.01-0.18-0.03-0.28-0.05
		c-0.1-0.03-0.21-0.06-0.31-0.09c-0.16-0.05-0.32-0.11-0.46-0.17l0.04,0.5C24,22.36,24.15,22.41,24.31,22.45z M24.85,18.96
		c0.04-0.31,0.09-0.62,0.13-0.93l-0.12-0.01c-0.02,0.18-0.04,0.37-0.06,0.55c-0.02,0.14-0.03,0.27-0.05,0.41L24.65,19
		c0.01-0.15,0.03-0.29,0.04-0.44c0.02-0.18,0.04-0.36,0.06-0.55l-0.61-0.04c-0.03,0.33-0.06,0.66-0.08,0.99
		c0,0.05-0.01,0.1-0.01,0.16l-0.04,0.01c0.11,0.03,0.22,0.07,0.34,0.1c0.11,0.03,0.21,0.05,0.31,0.07c0.1,0.03,0.19,0.05,0.27,0.07
		c0.01,0,0.01,0,0.02,0.01l0.03-0.43L24.85,18.96z M23.79,20.68c0.15,0.05,0.33,0.11,0.51,0.16c0.11,0.03,0.21,0.05,0.31,0.07
		c0.08,0.02,0.16,0.04,0.23,0.06l0.03-0.45c0,0,0,0,0,0c-0.08-0.01-0.18-0.03-0.28-0.05c-0.1-0.03-0.21-0.06-0.31-0.09
		c-0.16-0.05-0.32-0.11-0.45-0.17L23.79,20.68z M23.77,21.04l0.01,0.18c0.15,0.05,0.34,0.11,0.53,0.16
		c0.11,0.03,0.21,0.05,0.31,0.07c0.09,0.02,0.18,0.05,0.26,0.07l-0.03-0.46c-0.08-0.01-0.16-0.02-0.25-0.05
		c-0.1-0.03-0.21-0.06-0.31-0.09c-0.18-0.06-0.35-0.12-0.49-0.19L23.77,21.04z M24.31,21.91c0.11,0.03,0.21,0.05,0.31,0.07
		c0.1,0.03,0.19,0.05,0.27,0.07c0.01,0,0.01,0,0.02,0.01l-0.03-0.47c0,0,0,0,0,0c-0.08-0.01-0.18-0.03-0.28-0.05
		c-0.1-0.03-0.21-0.06-0.31-0.09c-0.18-0.06-0.36-0.13-0.5-0.19l0.04,0.51C23.96,21.82,24.13,21.87,24.31,21.91z"/>
	<linearGradient id="SVGID_2_" gradientUnits="userSpaceOnUse" x1="8.4315" y1="21.13" x2="18.1483" y2="21.13">
		<stop  offset="0" style="stop-color:#FFFFFF"/>
		<stop  offset="1" style="stop-color:#000000"/>
	</linearGradient>
	<path class="st2" d="M18.15,36.25l-0.04,0.03L8.55,21.01L18.1,5.99l0.04,0.03L8.6,21.04L18.15,36.25L18.15,36.25z M8.5,21
		l0.01-0.01L18.1,5.99l-0.08-0.05l-9.6,15.1l9.59,15.29l0.08-0.05l-9.6-15.26L8.5,21z"/>
	<linearGradient id="SVGID_3_" gradientUnits="userSpaceOnUse" x1="8.2227" y1="21.13" x2="33.487" y2="21.13">
		<stop  offset="0" style="stop-color:#FFFFFF"/>
		<stop  offset="1" style="stop-color:#000000"/>
	</linearGradient>
	<path class="st3" d="M31.44,20.54l0.13,0.59l-0.13,0.59l2.04-0.59L31.44,20.54z M32.53,21.16c-0.11,0-0.22,0-0.32,0.01
		c-0.1,0-0.2,0-0.28-0.01c-0.17-0.01-0.28-0.02-0.28-0.02l0,0l0,0c0,0,0.11-0.01,0.28-0.02c0.08,0,0.18-0.01,0.28-0.01
		c0.1,0,0.21,0,0.32,0.01c0.44,0.01,0.88,0.02,0.88,0.02l0,0l0,0C33.41,21.14,32.97,21.15,32.53,21.16z M31.5,20.95H13.16v-0.03
		l-2.69-0.52c-0.1-0.02-0.19-0.03-0.29-0.03c-0.48,0-0.92,0.22-1.07,0.57H8.37l-0.15,0.09v0.19l0.15,0.09h0.74
		c0.16,0.34,0.59,0.55,1.07,0.55c0.1,0,0.19-0.01,0.29-0.03l2.69-0.52v-0.01H31.5V20.95z M27.82,21.17c-2.05,0-4.79,0.01-7.53,0.01
		c-2.49,0-4.98-0.01-6.96-0.01c-0.05,0-0.12,0.01-0.18,0.02c-0.07,0.01-0.15,0.01-0.23,0.01c-0.02,0-0.04,0-0.06,0
		c-0.43,0-1,0-1.58,0c-0.57,0-1.15,0-1.58,0c-0.01,0-0.01,0-0.02,0c-0.02,0-0.03,0-0.05,0c-0.02,0-0.03,0-0.04,0
		c-0.01,0-0.03,0-0.04,0c-0.05,0-0.1-0.01-0.14-0.01c-0.09-0.01-0.16-0.01-0.23-0.02c-0.13-0.01-0.2-0.02-0.2-0.02
		s0.07-0.01,0.2-0.02c0.06-0.01,0.14-0.01,0.23-0.02c0.04,0,0.09-0.01,0.14-0.01c0.01,0,0.03,0,0.04,0c0.01,0,0.03,0,0.04,0
		c0.01,0,0.03,0,0.05,0c0.01,0,0.01,0,0.02,0c0.43,0,1,0,1.58,0c0.57,0,1.15,0,1.58,0c0.02,0,0.04,0,0.06,0
		c0.08,0,0.16,0.01,0.23,0.01c0.09,0.01,0.16,0.01,0.23,0.02c0.08,0.01,0.14,0.01,0.17,0.02c1.94,0,4.34-0.01,6.75-0.01
		c2.74,0,5.47,0.01,7.53,0.01c2.05,0.01,3.42,0.01,3.42,0.01S29.88,21.17,27.82,21.17z"/>
</g>
</svg>
